<?xml version="1.0" encoding="UTF-8"?>
<svg width="52px" height="52px" viewBox="0 0 52 52" version="1.1" xmlns="http://www.w3.org/2000/svg" xmlns:xlink="http://www.w3.org/1999/xlink">
    <!-- Generator: Sketch 63.1 (92452) - https://sketch.com -->
    <title>cloud-connected-devices</title>
    <desc>Created with Sketch.</desc>
    <defs>
        <polygon id="path-1" points="0 51.9992705 51.9992705 51.9992705 51.9992705 0 0 0"></polygon>
    </defs>
    <g id="cloud-connected-devices" stroke="none" stroke-width="1" fill="none" fill-rule="evenodd">
        <g>
            <path d="M20.4935283,10.9490846 L17.9436525,10.4149643 C18.3054641,8.68791824 19.2354721,7.09253948 20.5625142,5.9228521 C22.0645743,4.59883206 23.9955042,3.86963367 25.9996405,3.86963367 L25.9996405,6.47484409 C24.6302898,6.47484409 23.3111154,6.97285611 22.2852357,7.87717675 C21.3771114,8.67765371 20.7408148,9.76861162 20.4935283,10.9490846" id="Fill-1" fill="#ABABAB"></path>
            <polygon id="Fill-3" fill="#ABABAB" points="45.5020216 45.6035727 42.8968112 45.6035727 42.8968112 40.6513283 9.10249058 40.6513283 9.10249058 45.6035727 6.49728016 45.6035727 6.49728016 38.0461178 45.5020216 38.0461178"></polygon>
            <mask id="mask-2" fill="white">
                <use xlink:href="#path-1"></use>
            </mask>
            <g id="Clip-6"></g>
            <polygon id="Fill-5" fill="#ABABAB" mask="url(#mask-2)" points="24.6970301 45.6035832 27.3022405 45.6035832 27.3022405 26.1038437 24.6970301 26.1038437"></polygon>
            <path d="M7.79989579,46.6456569 C6.94090581,46.6456569 6.24203206,47.3445307 6.24203206,48.2035206 C6.24203206,49.0625627 6.94090581,49.7613844 7.79989579,49.7613844 C8.65888577,49.7613844 9.35775952,49.0625627 9.35775952,48.2035206 C9.35775952,47.3445307 8.65888577,46.6456569 7.79989579,46.6456569 M7.79989579,51.8455527 C5.79164329,51.8455527 4.15786373,50.2117731 4.15786373,48.2035206 C4.15786373,46.1953202 5.79164329,44.5614886 7.79989579,44.5614886 C9.8081483,44.5614886 11.4419279,46.1953202 11.4419279,48.2035206 C11.4419279,50.2117731 9.8081483,51.8455527 7.79989579,51.8455527" id="Fill-7" fill="#00933D" mask="url(#mask-2)"></path>
            <path d="M44.1994164,46.6456569 C43.3404265,46.6456569 42.6415527,47.3445307 42.6415527,48.2035206 C42.6415527,49.0625627 43.3404265,49.7613844 44.1994164,49.7613844 C45.0584064,49.7613844 45.7572281,49.0625627 45.7572281,48.2035206 C45.7572281,47.3445307 45.0584064,46.6456569 44.1994164,46.6456569 M44.1994164,51.8455527 C42.1911639,51.8455527 40.5573844,50.2117731 40.5573844,48.2035206 C40.5573844,46.1953202 42.1911639,44.5614886 44.1994164,44.5614886 C46.2076168,44.5614886 47.8413964,46.1953202 47.8413964,48.2035206 C47.8413964,50.2117731 46.2076168,51.8455527 44.1994164,51.8455527" id="Fill-8" fill="#00933D" mask="url(#mask-2)"></path>
            <path d="M25.9993747,46.6456569 C25.1403848,46.6456569 24.441511,47.3445307 24.441511,48.2035206 C24.441511,49.0625627 25.1403848,49.7613844 25.9993747,49.7613844 C26.8583647,49.7613844 27.5572385,49.0625627 27.5572385,48.2035206 C27.5572385,47.3445307 26.8583647,46.6456569 25.9993747,46.6456569 M25.9993747,51.8455527 C23.9911222,51.8455527 22.3573427,50.2117731 22.3573427,48.2035206 C22.3573427,46.1953202 23.9911222,44.5614886 25.9993747,44.5614886 C28.0076273,44.5614886 29.6414068,46.1953202 29.6414068,48.2035206 C29.6414068,50.2117731 28.0076273,51.8455527 25.9993747,51.8455527" id="Fill-9" fill="#00933D" mask="url(#mask-2)"></path>
            <path d="M45.7968846,15.0262597 C44.1661792,13.3732537 42.0749246,12.3357547 39.8119347,12.0371976 C39.4968084,8.97628377 38.1385559,6.13832385 35.9173014,3.94530982 C33.4066601,1.46660842 30.0856942,0.101582365 26.566107,0.101582365 C23.3267363,0.101582365 20.2058505,1.28007535 17.7783154,3.41999519 C15.8918826,5.08279679 14.5016381,7.27753026 13.7959908,9.68083687 C7.88846774,10.145398 3.22373427,15.1011335 3.22373427,21.1258389 C3.22373427,27.4562397 8.37387054,32.606376 14.7042713,32.606376 L18.1997343,32.606376 L18.1997343,30.0011655 L14.7042713,30.0011655 C9.81038357,30.0011655 5.82894469,26.0197267 5.82894469,21.1258389 C5.82894469,16.2320032 9.81038357,12.2505122 14.7042713,12.2504601 C14.737618,12.2504601 14.7711731,12.2507727 14.8049367,12.2511375 L15.8750529,12.2631214 L16.0944116,11.2156705 C16.5646521,8.97065651 17.7745118,6.89617956 19.5009848,5.37431984 C21.4523916,3.6541515 23.9615218,2.70679279 26.566107,2.70679279 C29.396095,2.70679279 32.0670088,3.80504529 34.0869327,5.79922966 C36.1049808,7.79159038 37.2376741,10.4444762 37.2764397,13.2691495 L37.2938425,14.535386 L38.5600269,14.5537788 C40.5954257,14.5832697 42.5068164,15.4008369 43.9422353,16.855899 C45.3790088,18.3122637 46.1703154,20.2375663 46.1703154,22.2771335 C46.1702633,26.5361836 42.7052293,30.0011655 38.4461271,30.0011655 L33.7995259,30.0011655 L33.7995259,32.606376 L38.4461271,32.606376 C44.1416902,32.606376 48.7755259,27.9726966 48.7755259,22.2771335 C48.7755259,19.548384 47.7177062,16.9732898 45.7968846,15.0262597" id="Fill-10" fill="#ABABAB" mask="url(#mask-2)"></path>
            <polygon id="Fill-11" fill-opacity="0" fill="#FFFFFF" mask="url(#mask-2)" points="0 51.9992705 51.9992705 51.9992705 51.9992705 0 0 0"></polygon>
        </g>
    </g>
</svg>