<?xml version="1.0" encoding="UTF-8"?>
<svg width="52px" height="52px" viewBox="0 0 52 52" version="1.1" xmlns="http://www.w3.org/2000/svg" xmlns:xlink="http://www.w3.org/1999/xlink">
    <!-- Generator: Sketch 63.1 (92452) - https://sketch.com -->
    <title>doctor</title>
    <desc>Created with Sketch.</desc>
    <defs>
        <polygon id="path-1" points="0 51.9992705 51.9992705 51.9992705 51.9992705 0 0 0"></polygon>
    </defs>
    <g id="doctor" stroke="none" stroke-width="1" fill="none" fill-rule="evenodd">
        <g>
            <path d="M16.4951034,14.1460998 C12.951913,14.1460998 10.0693519,17.0286609 10.0693519,20.5718513 L10.0693519,23.3649495 C10.0693519,26.9081399 12.951913,29.790701 16.4951034,29.790701 C20.0382938,29.790701 22.9208549,26.9081399 22.9208549,23.3649495 L22.9208549,20.5718513 C22.9208549,17.0286609 20.0382938,14.1460998 16.4951034,14.1460998 M16.4951034,32.3959114 C11.5154,32.3959114 7.46414148,28.3446529 7.46414148,23.3649495 L7.46414148,20.5718513 C7.46414148,15.5921479 11.5154,11.5408894 16.4951034,11.5408894 C21.4748068,11.5408894 25.5260653,15.5921479 25.5260653,20.5718513 L25.5260653,23.3649495 C25.5260653,28.3446529 21.4748068,32.3959114 16.4951034,32.3959114" id="Fill-1" fill="#AAAAAA"></path>
            <path d="M33.8032148,51.9105579 L31.1980044,51.9105579 L31.1980044,44.7492513 C31.1980044,42.9652032 30.6301727,41.2694196 29.5558361,39.8452032 C28.4815515,38.4209868 27.0070024,37.409123 25.2916798,36.9189788 L20.4309824,35.5302453 L17.4161808,38.5450469 C16.9074353,39.0537924 16.0827299,39.0537924 15.5740365,38.5450469 L12.571792,35.5428545 L8.43002846,36.8172192 C6.75347134,37.333103 5.31643727,38.3515319 4.274301,39.7625659 C3.23221683,41.1735479 2.68137114,42.8465098 2.68137114,44.6006501 L2.68137114,51.9105579 L0.0761607214,51.9105579 L0.0761607214,44.6006501 C0.0761607214,42.2853996 0.803222846,40.0772232 2.17872184,38.2147583 C3.55422084,36.3523976 5.45091824,35.0081611 7.66383607,34.3272112 L12.5552228,32.8221812 C13.0163451,32.6802493 13.5182128,32.8048826 13.8593912,33.146113 L16.4950826,35.7818044 L19.1307739,33.146113 C19.465283,32.8116561 19.9548541,32.6847824 20.4097238,32.8147303 L26.0073832,34.4140168 C28.2714673,35.0608906 30.2177679,36.3964778 31.6357319,38.2763455 C33.0536958,40.1562132 33.8032148,42.3945058 33.8032148,44.7492513 L33.8032148,51.9105579 Z" id="Fill-3" fill="#AAAAAA"></path>
            <mask id="mask-2" fill="white">
                <use xlink:href="#path-1"></use>
            </mask>
            <g id="Clip-6"></g>
            <polygon id="Fill-5" fill="#AAAAAA" mask="url(#mask-2)" points="11.6357034 34.0671904 14.2409138 34.0671904 14.2409138 30.7866573 11.6357034 30.7866573"></polygon>
            <polygon id="Fill-7" fill="#AAAAAA" mask="url(#mask-2)" points="18.7492826 34.0671904 21.354493 34.0671904 21.354493 30.7866573 18.7492826 30.7866573"></polygon>
            <path d="M39.493109,4.03355872 C35.0877503,4.03355872 31.5037102,7.6175988 31.5037102,12.0229575 C31.5037102,16.4283683 35.0877503,20.0124084 39.493109,20.0124084 C43.8984677,20.0124084 47.4825078,16.4283683 47.4825078,12.0229575 C47.4825078,7.6175988 43.8984677,4.03355872 39.493109,4.03355872 M39.493109,22.0965768 C33.9385399,22.0965768 29.4195419,17.5775267 29.4195419,12.0229575 C29.4195419,6.46833627 33.9385399,1.94939038 39.493109,1.94939038 C45.0476782,1.94939038 49.5666762,6.46833627 49.5666762,12.0229575 C49.5666762,17.5775267 45.0476782,22.0965768 39.493109,22.0965768" id="Fill-8" fill="#00953C" mask="url(#mask-2)"></path>
            <polygon id="Fill-9" fill="#00953C" mask="url(#mask-2)" points="44.1514493 10.6652469 40.8508561 10.6652469 40.8508561 7.3646016 38.1353411 7.3646016 38.1353411 10.6652469 34.8347479 10.6652469 34.8347479 13.3807098 38.1353411 13.3807098 38.1353411 16.6813551 40.8508561 16.6813551 40.8508561 13.3807098 44.1514493 13.3807098"></polygon>
            <polygon id="Fill-10" fill="#00953C" mask="url(#mask-2)" points="10.5430886 39.1323082 8.45892024 39.1323082 8.45892024 34.0923202 10.5430886 33.4529495"></polygon>
            <path d="M14.0688449,48.7362705 L10.9046084,48.7362705 L10.9046084,46.6521022 L11.9846766,46.6521022 L11.9846766,42.4895491 C11.9846766,41.1200942 10.8704802,40.0058978 9.50102525,40.0058978 C8.13151824,40.0058978 7.01732184,41.1200942 7.01732184,42.4895491 L7.01732184,46.6521022 L8.1248489,46.6521022 L8.1248489,48.7362705 L4.93315351,48.7362705 L4.93315351,42.4895491 C4.93315351,39.9708317 6.98230782,37.9217295 9.50102525,37.9217295 C12.0196906,37.9217295 14.0688449,39.9708317 14.0688449,42.4895491 L14.0688449,48.7362705 Z" id="Fill-11" fill="#00953C" mask="url(#mask-2)"></path>
            <polygon id="Fill-12" fill="#00953C" mask="url(#mask-2)" points="24.7215347 40.8856878 22.6373663 40.8856878 22.6373663 33.4529703 24.7215347 34.0369543"></polygon>
            <path d="M23.6794505,40.811804 C22.7996709,40.811804 22.0839154,41.5275595 22.0839154,42.4073391 C22.0839154,43.2871186 22.7996709,44.002822 23.6794505,44.002822 C24.5592301,44.002822 25.2749856,43.2871186 25.2749856,42.4073391 C25.2749856,41.5275595 24.5592301,40.811804 23.6794505,40.811804 M23.6794505,46.0869904 C21.6504605,46.0869904 19.9997471,44.4363291 19.9997471,42.4073391 C19.9997471,40.3783491 21.6504605,38.7276357 23.6794505,38.7276357 C25.7084405,38.7276357 27.3591539,40.3783491 27.3591539,42.4073391 C27.3591539,44.4363291 25.7084405,46.0869904 23.6794505,46.0869904" id="Fill-13" fill="#00953C" mask="url(#mask-2)"></path>
            <polygon id="Fill-14" fill-opacity="0" fill="#FFFFFF" mask="url(#mask-2)" points="0 51.9992705 51.9992705 51.9992705 51.9992705 0 0 0"></polygon>
        </g>
    </g>
</svg>