<?xml version="1.0" encoding="UTF-8"?>
<svg width="52px" height="52px" viewBox="0 0 52 52" version="1.1" xmlns="http://www.w3.org/2000/svg" xmlns:xlink="http://www.w3.org/1999/xlink">
    <!-- Generator: Sketch 63.1 (92452) - https://sketch.com -->
    <title>network copy</title>
    <desc>Created with Sketch.</desc>
    <g id="network-copy" stroke="none" stroke-width="1" fill="none" fill-rule="evenodd">
        <g id="hotel">
            <path d="M19.0218186,20.8048672 C17.8389878,20.8048672 16.8767536,21.7661912 16.8767536,22.9478392 L16.8767536,47.2069312 C16.8767536,48.3885792 17.8389878,49.3498512 19.0218186,49.3498512 L32.9079007,49.3498512 C34.0907315,49.3498512 35.0530178,48.3885792 35.0530178,47.2069312 L35.0530178,11.7284232 C35.0530178,6.7222272 30.9760929,2.6493272 25.9648857,2.6493272 C20.9536785,2.6493272 16.8767536,6.7222272 16.8767536,11.7284232 C16.8767536,12.4423832 17.4581229,13.0232232 18.1727976,13.0232232 C18.894187,13.0232232 19.4775864,12.4404072 19.4775864,11.7240552 L19.4775864,11.7091312 C19.4775864,8.1308032 22.3916685,5.2195832 25.9736304,5.2195832 C29.5555403,5.2195832 32.4696224,8.1308032 32.4696224,11.7091312 L32.4696224,16.3810712 C32.4696224,18.8203392 30.48316,20.8048672 28.0413982,20.8048672 L19.0218186,20.8048672 Z M32.9079007,51.9498512 L19.0218186,51.9498512 C16.4039648,51.9498512 14.274151,49.8221672 14.274151,47.2069312 L14.274151,22.9478392 C14.274151,20.3325512 16.4039648,18.2048672 19.0218186,18.2048672 L28.0413982,18.2048672 C29.0480849,18.2048672 29.8670198,17.3867512 29.8670198,16.3810712 L29.8670198,11.7091312 C29.8670198,9.5644432 28.1204653,7.8195832 25.9736304,7.8195832 C23.8267956,7.8195832 22.080189,9.5644432 22.080189,11.7091312 L22.080189,11.7240552 C22.080189,13.8740472 20.3293141,15.6232232 18.17717,15.6232232 C16.0230478,15.6232232 14.274151,13.8760232 14.274151,11.7284232 C14.274151,8.6088392 15.490191,5.6759872 17.6982911,3.4700952 C19.9063912,1.2642032 22.842179,0.0493272 25.9648857,0.0493272 C29.0875924,0.0493272 32.0233802,1.2642032 34.2314803,3.4700952 C36.4395804,5.6759872 37.6556204,8.6088392 37.6556204,11.7284232 L37.6556204,47.2069312 C37.6556204,49.8221672 35.5258066,51.9498512 32.9079007,51.9498512 L32.9079007,51.9498512 Z" id="Fill-1" fill="#ABABAB"></path>
            <path d="M25.8524637,38.0221868 C26.0996589,38.0221868 26.3470623,38.0844308 26.5726038,38.2091268 L28.7785177,39.4228068 L28.3445598,36.7755908 C28.265753,36.2926668 28.4214927,35.7977828 28.7610803,35.4508908 L30.6433866,33.5308428 L28.0871103,33.1420908 C27.5921994,33.0661188 27.168808,32.7485548 26.9531564,32.2925148 L25.8529842,29.9593788 L24.7532284,32.2915268 C24.5370563,32.7486068 24.1136649,33.0661188 23.6202114,33.1418308 L21.0625297,33.5308428 L22.9443676,35.4503188 C23.2844236,35.7978348 23.4401634,36.2927188 23.3614607,36.7748108 L22.9274507,39.4228068 L25.1350823,38.2081388 C25.3592705,38.0842228 25.605789,38.0221868 25.8524637,38.0221868 L25.8524637,38.0221868 Z M29.5371764,42.0054388 C29.2910222,42.0054388 29.0438791,41.9435588 28.8172444,41.8187068 L25.8529842,40.1877788 L22.8880993,41.8190188 C22.3852765,42.0958668 21.7809522,42.0621188 21.3111824,41.7309828 C20.8293886,41.3913708 20.5895848,40.8159388 20.6854647,40.2292228 L21.2626699,36.7076788 L18.8261133,34.2222868 C18.4206799,33.8085748 18.283783,33.2086508 18.4685678,32.6564628 C18.6502815,32.1135308 19.110786,31.7235308 19.6704496,31.6385628 L22.9982414,31.1324468 L24.4954146,27.9575348 C24.7471904,27.4229748 25.2670863,27.0904868 25.8519952,27.0901748 L25.852828,27.0901748 C26.4376328,27.0901748 26.9576328,27.4221948 27.2102414,27.9569108 C27.2103455,27.9571708 27.2104496,27.9573788 27.2105538,27.9575348 L28.7076749,31.1324468 L32.035831,31.6386148 C32.5951303,31.7235308 33.0556869,32.1135308 33.2373485,32.6565148 C33.4221854,33.2087028 33.2852364,33.8086268 32.8799592,34.2221308 L30.4432464,36.7076788 L31.0204517,40.2285988 C31.1163836,40.8162508 30.8765277,41.3918388 30.3945257,41.7314508 C30.1363475,41.9133468 29.8374647,42.0054388 29.5371764,42.0054388 L29.5371764,42.0054388 Z" id="Fill-3" fill="#00953C"></path>
            <polygon id="Fill-5" fill-opacity="0" fill="#FFFFFF" points="0 51.947272 51.9992713 51.947272 51.9992713 0 0 0"></polygon>
        </g>
    </g>
</svg>