<?xml version="1.0" encoding="UTF-8"?>
<svg width="52px" height="52px" viewBox="0 0 52 52" version="1.1" xmlns="http://www.w3.org/2000/svg" xmlns:xlink="http://www.w3.org/1999/xlink">
    <!-- Generator: Sketch 63.1 (92452) - https://sketch.com -->
    <title>money-flowing</title>
    <desc>Created with Sketch.</desc>
    <defs>
        <polygon id="path-1" points="0 51.3066153 51.9472192 51.3066153 51.9472192 0.000719732078 0 0.000719732078"></polygon>
    </defs>
    <g id="money-flowing" stroke="none" stroke-width="1" fill="none" fill-rule="evenodd">
        <g>
            <path d="M7.50351151,33.822935 L44.4437598,33.822935 L44.4437598,17.8611283 L7.50351151,17.8611283 L7.50351151,33.822935 Z M5.19474274,36.1032005 L46.7525285,36.1032005 L46.7525285,15.5808114 L5.19474274,15.5808114 L5.19474274,36.1032005 Z" id="Fill-1" fill="#AAAAAA"></path>
            <g id="Group-21" transform="translate(0.000000, 0.050690)">
                <path d="M25.9736044,29.2117093 C24.064231,29.2117093 22.5104773,27.6770863 22.5104773,25.7913368 C22.5104773,23.905536 24.064231,22.3709643 25.9736044,22.3709643 C27.8829778,22.3709643 29.4367315,23.905536 29.4367315,25.7913368 C29.4367315,27.6770863 27.8829778,29.2117093 25.9736044,29.2117093 M25.9736044,20.0906475 C22.7859888,20.0906475 20.2017085,22.6430745 20.2017085,25.7913368 C20.2017085,28.9395992 22.7859888,31.4919747 25.9736044,31.4919747 C29.16122,31.4919747 31.7455524,28.9395992 31.7455524,25.7913368 C31.7455524,22.6430745 29.16122,20.0906475 25.9736044,20.0906475" id="Fill-2" fill="#00933C"></path>
                <polygon id="Fill-4" fill="#00933C" points="12.2679504 24.6623291 9.66534775 24.6623291 9.66534775 19.9455649 14.4297762 19.9455649 14.4297762 22.5160366 12.2679504 22.5160366"></polygon>
                <polygon id="Fill-6" fill="#00933C" points="42.2931407 24.6567563 39.6905381 24.6567563 39.6905381 22.5216197 37.5174691 22.5216197 37.5174691 19.951148 42.2931407 19.951148"></polygon>
                <polygon id="Fill-8" fill="#00933C" points="42.2931407 31.5062049 37.5174691 31.5062049 37.5174691 28.9357332 39.6905381 28.9357332 39.6905381 26.8005965 42.2931407 26.8005965"></polygon>
                <polygon id="Fill-10" fill="#00933C" points="14.4410246 31.5062049 9.66535295 31.5062049 9.66535295 26.8005965 12.2679556 26.8005965 12.2679556 28.9357332 14.4410246 28.9357332"></polygon>
                <polygon id="Fill-12" fill="#AAAAAA" points="11.1510174 11.3779103 26.9505329 13.8726045 41.5755459 13.8726045 9.23565806 8.76625959 8.40912352 13.8726045 10.7471976 13.8726045"></polygon>
                <polygon id="Fill-14" fill="#00953C" points="45.790185 12.4533391 43.9498847 10.6357585 48.2235143 6.41483834 43.9507696 2.2033775 45.789248 0.383946218 51.9059888 6.41303901"></polygon>
                <mask id="mask-2" fill="white">
                    <use xlink:href="#path-1"></use>
                </mask>
                <g id="Clip-17"></g>
                <polygon id="Fill-16" fill="#00953C" mask="url(#mask-2)" points="29.8202042 7.70946156 50.0647568 7.70946156 50.0647568 5.13898985 29.8202042 5.13898985"></polygon>
                <polygon id="Fill-18" fill="#00953C" mask="url(#mask-2)" points="6.14675395 50.9285297 0.0300132132 44.8994369 6.14581702 38.8590855 7.98616937 40.6767174 3.71248769 44.8975862 7.98523243 49.1090984"></polygon>
                <polygon id="Fill-19" fill="#00953C" mask="url(#mask-2)" points="1.87127127 46.1734347 22.1157718 46.1734347 22.1157718 43.602963 1.87127127 43.602963"></polygon>
                <polygon id="Fill-20" fill-opacity="0" fill="#FFFFFF" mask="url(#mask-2)" points="0 51.3066153 51.9472192 51.3066153 51.9472192 0.000719732078 0 0.000719732078"></polygon>
            </g>
        </g>
    </g>
</svg>