<?xml version="1.0" encoding="UTF-8"?>
<svg width="52px" height="52px" viewBox="0 0 52 52" version="1.1" xmlns="http://www.w3.org/2000/svg" xmlns:xlink="http://www.w3.org/1999/xlink">
    <!-- Generator: Sketch 63.1 (92452) - https://sketch.com -->
    <title>network</title>
    <desc>Created with Sketch.</desc>
    <g id="network" stroke="none" stroke-width="1" fill="none" fill-rule="evenodd">
        <g>
            <path d="M23.352862,2.6489944 C21.208018,2.6489944 19.463002,4.3940104 19.463002,6.5389064 C19.463002,8.6838024 21.208018,10.4287664 23.352862,10.4287664 C25.497758,10.4287664 27.242722,8.6838024 27.242722,6.5389064 C27.242722,4.3940104 25.497758,2.6489944 23.352862,2.6489944 M23.352862,13.0287664 C19.774378,13.0287664 16.863002,10.1174424 16.863002,6.5389064 C16.863002,2.9603704 19.774378,0.0489944 23.352862,0.0489944 C26.931398,0.0489944 29.842722,2.9603704 29.842722,6.5389064 C29.842722,10.1174424 26.931398,13.0287664 23.352862,13.0287664" id="Fill-1" fill="#AEADAD"></path>
            <path d="M44.1109916,15.8769988 C41.2507836,15.8769988 38.9238876,18.2039468 38.9238876,21.0641028 C38.9238876,23.9242588 41.2507836,26.2512068 44.1109916,26.2512068 C46.9711476,26.2512068 49.2980436,23.9242588 49.2980436,21.0641028 C49.2980436,18.2039468 46.9711476,15.8769988 44.1109916,15.8769988 M44.1109916,28.8512068 C39.8171956,28.8512068 36.3238876,25.3578988 36.3238876,21.0641028 C36.3238876,16.7703068 39.8171956,13.2769988 44.1109916,13.2769988 C48.4047876,13.2769988 51.8980436,16.7703068 51.8980436,21.0641028 C51.8980436,25.3578988 48.4047876,28.8512068 44.1109916,28.8512068" id="Fill-3" fill="#AEADAD"></path>
            <path d="M36.5399164,38.9759188 C33.6797084,38.9759188 31.3528124,41.3028148 31.3528124,44.1629708 C31.3528124,47.0231788 33.6797084,49.3500748 36.5399164,49.3500748 C39.4001244,49.3500748 41.7270204,47.0231788 41.7270204,44.1629708 C41.7270204,41.3028148 39.4001244,38.9759188 36.5399164,38.9759188 M36.5399164,51.9500748 C32.2461204,51.9500748 28.7528124,48.4567668 28.7528124,44.1629708 C28.7528124,39.8691748 32.2461204,36.3759188 36.5399164,36.3759188 C40.8337124,36.3759188 44.3270204,39.8691748 44.3270204,44.1629708 C44.3270204,48.4567668 40.8337124,51.9500748 36.5399164,51.9500748" id="Fill-5" fill="#AEADAD"></path>
            <polygon id="Fill-7" fill="#AEADAD" points="29.7828076 12.047334 27.8280756 10.76101 29.2573996 8.589074 31.2120796 9.875398"></polygon>
            <polygon id="Fill-9" fill="#AEADAD" points="34.0957136 14.8853432 31.9392736 13.4663152 33.3684936 11.2943792 35.5248816 12.7134072"></polygon>
            <polygon id="Fill-11" fill="#AEADAD" points="38.2068596 17.590716 36.2520756 16.304392 37.6812956 14.132456 39.6360276 15.418728"></polygon>
            <path d="M13.310284,18.6735224 L13.310284,22.6840224 C12.388896,22.6222984 11.477544,22.4816904 10.590944,22.2646424 C11.31338,20.9589224 12.224888,19.7553824 13.310284,18.6735224 L13.310284,18.6735224 Z M6.790264,20.7779104 C7.86552,19.8877744 9.088976,19.1921704 10.394384,18.7262504 C9.683544,19.6295424 9.059596,20.5949744 8.530808,21.6107424 C7.968012,21.3848544 7.393048,21.1098264 6.790264,20.7779104 L6.790264,20.7779104 Z M13.310284,24.8215864 L13.310284,28.8849704 L8.66892,28.8849704 C8.775156,27.2823824 9.117056,25.7242544 9.687704,24.2426184 C10.861968,24.5559184 12.077312,24.7501384 13.310284,24.8215864 L13.310284,24.8215864 Z M13.310284,37.2212984 L13.310284,41.2319544 C12.224784,40.1499904 11.313224,38.9461384 10.590892,37.6403664 C11.47796,37.4232144 12.389208,37.2828144 13.310284,37.2212984 L13.310284,37.2212984 Z M8.530808,38.2942144 C9.059596,39.3099304 9.683544,40.2755184 10.394488,41.1788624 C9.0883,40.7128384 7.864584,40.0170784 6.789848,39.1269424 C7.391384,38.7955984 7.9664,38.5205704 8.530808,38.2942144 L8.530808,38.2942144 Z M8.66892,31.0200384 L13.310284,31.0200384 L13.310284,35.0830064 C12.075596,35.1548184 10.860044,35.3492464 9.687652,35.6623904 C9.117108,34.1807544 8.775156,32.6224704 8.66892,31.0200384 L8.66892,31.0200384 Z M2.515916,28.8849704 C2.73026,26.4655664 3.656536,24.2200504 5.212532,22.3501824 C6.04786,22.8431944 6.851312,23.2442184 7.651228,23.5672424 C7.010276,25.2647824 6.632392,27.0500464 6.525636,28.8849704 L2.515916,28.8849704 Z M7.651228,36.3377144 C6.850376,36.6611024 6.047132,37.0619704 5.21248,37.5548264 C3.656536,35.6849064 2.73026,33.4394424 2.515916,31.0200384 L6.525636,31.0200384 C6.632392,32.8549624 7.010276,34.6402784 7.651228,36.3377144 L7.651228,36.3377144 Z M26.239772,28.8849704 L22.23,28.8849704 C22.123296,27.0500464 21.74536,25.2647824 21.10446,23.5672424 C21.904324,23.2442184 22.707828,22.8431944 23.543156,22.3501824 C25.0991,24.2200504 26.025428,26.4655144 26.239772,28.8849704 L26.239772,28.8849704 Z M15.445352,41.2317984 L15.445352,37.2212984 C16.36648,37.2828144 17.277676,37.4232144 18.164744,37.6403664 C17.442724,38.9457224 16.531112,40.1493664 15.445352,41.2317984 L15.445352,41.2317984 Z M21.965476,39.1270984 C20.890532,40.0171304 19.666868,40.7128384 18.3612,41.1788104 C19.072092,40.2755184 19.69604,39.3099304 20.224828,38.2942664 C20.787572,38.5201544 21.36264,38.7951824 21.965476,39.1270984 L21.965476,39.1270984 Z M15.445352,35.0830064 L15.445352,31.0200384 L20.086716,31.0200384 C19.980532,32.6224704 19.638528,34.1807544 19.068036,35.6623904 C17.895644,35.3492464 16.68004,35.1548184 15.445352,35.0830064 L15.445352,35.0830064 Z M21.10446,36.3377664 C21.74536,34.6402784 22.123296,32.8549624 22.23,31.0200384 L26.239772,31.0200384 C26.025428,33.4394424 25.0991,35.6849584 23.543156,37.5548784 C22.707828,37.0618144 21.904324,36.6607384 21.10446,36.3377664 L21.10446,36.3377664 Z M15.445352,22.6836584 L15.445352,18.6735224 C16.530852,19.7554344 17.442308,20.9591304 18.164692,22.2648504 C17.277312,22.4818984 16.366064,22.6222984 15.445352,22.6836584 L15.445352,22.6836584 Z M20.22488,21.6107944 C19.69604,20.5950264 19.07204,19.6294384 18.3612,18.7261984 C19.66718,19.1921704 20.891104,19.8879304 21.9661,20.7780144 C21.3642,21.1095144 20.78908,21.3845424 20.22488,21.6107944 L20.22488,21.6107944 Z M20.086716,28.8854384 L15.445352,28.8854384 L15.445352,24.8221064 C16.678376,24.7506584 17.893772,24.5563344 19.067984,24.2429824 C19.63858,25.7247224 19.98048,27.2827984 20.086716,28.8854384 L20.086716,28.8854384 Z M24.319776,20.0105464 C21.664084,17.3549064 18.133284,15.8923544 14.377844,15.8923544 C10.622352,15.8923544 7.091552,17.3549064 4.43586,20.0105464 C1.780168,22.6661864 0.317668,26.1970384 0.317668,29.9524784 C0.317668,33.7080224 1.780168,37.2387704 4.43586,39.8944624 C7.091552,42.5501024 10.622352,44.0127064 14.377844,44.0127064 C18.133284,44.0127064 21.664084,42.5501024 24.319776,39.8944624 C26.975468,37.2387704 28.43802,33.7080224 28.43802,29.9524784 C28.43802,26.1970384 26.975468,22.6661864 24.319776,20.0105464 L24.319776,20.0105464 Z" id="Fill-13" fill="#00953C"></path>
            <path d="M38.3071,23.6446028 L37.332412,21.2341948 L29.087656,24.5680188 C29.360656,25.0910348 29.732508,25.9729028 29.854656,27.0624068 L38.3071,23.6446028 Z" id="Fill-15" fill="#AEADAD"></path>
            <path d="M31.7147844,39.8190884 L28.0453524,37.5945804 C27.5300844,38.6121164 27.0148684,39.2690324 26.5559164,39.7320924 L30.3671524,42.0425564 L31.7147844,39.8190884 Z" id="Fill-17" fill="#AEADAD"></path>
            <polygon id="Fill-19" fill-opacity="0" fill="#FFFFFF" points="0 51.947272 51.947272 51.947272 51.947272 0 0 0"></polygon>
        </g>
    </g>
</svg>