<?xml version="1.0" encoding="UTF-8"?>
<svg width="52px" height="52px" viewBox="0 0 52 52" version="1.1" xmlns="http://www.w3.org/2000/svg" xmlns:xlink="http://www.w3.org/1999/xlink">
    <!-- Generator: Sketch 63.1 (92452) - https://sketch.com -->
    <title>people-celebrating</title>
    <desc>Created with Sketch.</desc>
    <defs>
        <polygon id="path-1" points="0 51.9992713 51.9992713 51.9992713 51.9992713 0 0 0"></polygon>
    </defs>
    <g id="people-celebrating" stroke="none" stroke-width="1" fill="none" fill-rule="evenodd">
        <g>
            <path d="M18.2543215,2.33706947 C16.487779,2.33706947 15.0505177,3.77427868 15.0505177,5.54087327 L15.0505177,7.0748993 C15.0505177,8.84149389 16.487779,10.2787031 18.2543215,10.2787031 C20.0208641,10.2787031 21.4580733,8.84149389 21.4580733,7.0748993 L21.4580733,5.54087327 C21.4580733,3.77427868 20.0208641,2.33706947 18.2543215,2.33706947 M18.2543215,12.3607852 C15.3396669,12.3607852 12.9684356,9.98960601 12.9684356,7.0748993 L12.9684356,5.54087327 C12.9684356,2.62621862 15.3396669,0.254987387 18.2543215,0.254987387 C21.1689762,0.254987387 23.5401554,2.62621862 23.5401554,5.54087327 L23.5401554,7.0748993 C23.5401554,9.98960601 21.1689762,12.3607852 18.2543215,12.3607852" id="Fill-1" fill="#AAAAAA"></path>
            <mask id="mask-2" fill="white">
                <use xlink:href="#path-1"></use>
            </mask>
            <g id="Clip-4"></g>
            <polygon id="Fill-3" fill="#AAAAAA" mask="url(#mask-2)" points="15.2596837 12.9532052 17.3417658 12.9532052 17.3417658 11.1513714 15.2596837 11.1513714"></polygon>
            <polygon id="Fill-5" fill="#AAAAAA" mask="url(#mask-2)" points="19.1668148 12.9532052 21.2488969 12.9532052 21.2488969 11.1513714 19.1668148 11.1513714"></polygon>
            <path d="M24.2726631,26.2843135 L22.190581,26.2843135 L22.190581,18.4529782 C22.190581,18.1375427 22.333568,17.8391804 22.5793578,17.6415908 C22.8251996,17.4440012 23.1472977,17.3684216 23.4553417,17.4362454 L27.559646,18.3393485 C27.5878583,18.3455948 27.6158102,18.3529862 27.6433457,18.3614707 C28.2044148,18.5350122 28.8016601,18.2794887 29.0638462,17.7543355 L33.9290474,8.07681802 C34.1558903,7.59752272 33.9655359,7.03322643 33.49358,6.78951872 C33.2604388,6.66907027 32.9945049,6.64705225 32.7448633,6.72752472 C32.4951696,6.8079972 32.2921145,6.98107027 32.1731235,7.21483604 L27.9710655,15.3830002 C27.7440144,15.8245057 27.236611,16.0441654 26.7593978,15.9077369 L20.5108613,14.1225077 L18.9904729,15.6428961 C18.7952256,15.8381433 18.5304368,15.947817 18.2543007,15.947817 C17.9782166,15.947817 17.7134278,15.8381433 17.5181806,15.6429481 L15.9977401,14.1225077 L9.74925566,15.9077369 C9.27183423,16.0441133 8.76463904,15.8244537 8.53753594,15.3830002 L4.33761201,7.2188961 C4.21653894,6.98107027 4.01348388,6.8079972 3.76373814,6.72752472 C3.51404444,6.64705225 3.24816256,6.66907027 3.01502142,6.78951872 C2.54311752,7.03317437 2.35276316,7.59752272 2.57960601,8.07681802 L7.44350591,17.751785 C7.70699339,18.2795928 8.30444685,18.5349602 8.86525566,18.3614707 C8.89284324,18.3529862 8.92074314,18.3455948 8.94895536,18.3393485 L13.0533117,17.4362454 C13.3613037,17.3684737 13.6834539,17.4440012 13.9292957,17.6415908 C14.1750855,17.8391804 14.3180725,18.1375427 14.3180725,18.4529782 L14.3180725,26.2843135 L12.2359904,26.2843135 L12.2359904,19.7479812 L9.43486126,20.3643816 C7.9089033,20.8125497 6.29450891,20.1115648 5.58196837,18.6844016 L0.714737137,9.00277197 C0.712082482,8.99756677 0.709531932,8.99236156 0.706981381,8.98705225 C0.359065465,8.26503824 0.307377778,7.44875796 0.561391792,6.68858979 C0.815457858,5.92847367 1.34758599,5.30728448 2.05971011,4.93953674 C2.78901141,4.56283604 3.62085526,4.49407528 4.40215656,4.74574695 C5.18340581,4.99741862 5.81875315,5.53886406 6.19108148,6.2704036 L9.99832472,13.6712164 L16.0147612,11.9521974 C16.3781886,11.8483536 16.7695159,11.9496989 17.0368553,12.2170382 L18.2543007,13.4345357 L19.4717461,12.2170903 C19.7390334,11.9496989 20.1303087,11.8482494 20.4938923,11.9521974 L26.5102767,13.6712164 L30.319602,6.2663956 C30.6899003,5.53886406 31.3252476,4.99741862 32.1065489,4.74574695 C32.8877461,4.49402322 33.7196941,4.56299219 34.4488913,4.93953674 C35.1610675,5.30728448 35.6931956,5.92847367 35.9472096,6.68858979 C36.2012757,7.44875796 36.1495359,8.26503824 35.8016721,8.98705225 C35.7991215,8.99236156 35.7965189,8.99756677 35.7939163,9.00277197 L30.9253838,18.6870042 C30.2140404,20.1116168 28.5995419,20.812758 27.0737401,20.3643816 L24.2726631,19.7479812 L24.2726631,26.2843135 Z" id="Fill-6" fill="#AAAAAA" mask="url(#mask-2)"></path>
            <path d="M32.4072432,25.5830891 C30.4124004,25.5830891 28.7894174,27.20602 28.7894174,29.2008629 L28.7894174,30.8845385 C28.7894174,32.8793814 30.4123483,34.5023644 32.4071912,34.5023644 L32.4072432,34.5023644 C34.4020861,34.5023644 36.025017,32.8793814 36.025017,30.8845385 L36.025017,29.2008629 C36.025017,27.20602 34.4020861,25.5830891 32.4072432,25.5830891 M32.4072432,36.5844464 C29.2642883,36.5844464 26.7073353,34.0274414 26.7073353,30.8845385 L26.7073353,29.2008629 C26.7073353,26.05796 29.2642883,23.501007 32.4071912,23.501007 C35.5501461,23.501007 38.1070991,26.05796 38.1070991,29.2008629 L38.1070991,30.8845385 C38.1070991,34.0274414 35.5501461,36.5844464 32.4072432,36.5844464" id="Fill-7" fill="#AAAAAA" mask="url(#mask-2)"></path>
            <polygon id="Fill-8" fill="#AAAAAA" mask="url(#mask-2)" points="29.2220741 37.3360521 31.3041562 37.3360521 31.3041562 35.3584905 29.2220741 35.3584905"></polygon>
            <polygon id="Fill-9" fill="#AAAAAA" mask="url(#mask-2)" points="33.5102783 37.3360521 35.5923604 37.3360521 35.5923604 35.3584905 33.5102783 35.3584905"></polygon>
            <path d="M35.9036264,30.3455968 C33.7449758,30.3457009 31.9056124,29.4508741 30.9259928,28.8597189 C29.7113061,29.7093646 28.0141489,29.7580332 27.7848597,29.7606879 L27.7610719,27.6787099 L27.7729918,28.7196989 L27.7582611,27.678762 C27.7629978,27.6786579 28.2430739,27.6690803 28.7885794,27.5393666 C29.3606835,27.4033025 29.789176,27.182758 29.9642791,26.9344176 C30.1286595,26.7013806 30.3813201,26.5459532 30.6634422,26.5044156 C30.9456164,26.4624617 31.2323712,26.5388741 31.4568717,26.7146018 C31.480191,26.7326118 34.0523952,28.6911223 36.8796545,28.1766398 L37.2524513,30.2250963 C36.7928837,30.3087439 36.3414883,30.3455447 35.9036264,30.3455968" id="Fill-10" fill="#AAAAAA" mask="url(#mask-2)"></path>
            <path d="M38.9110066,51.967379 L36.8289245,51.967379 L36.8289245,43.3722839 C36.8289245,43.0568484 36.9719115,42.7584861 37.2177013,42.5608965 C37.4634911,42.363359 37.7855892,42.2877273 38.0936853,42.3555512 L42.5983219,43.3467263 C42.6265341,43.3529726 42.6544861,43.360364 42.6821257,43.3689005 C43.3450607,43.5739856 44.0517193,43.2719796 44.3618454,42.6508945 L49.7019175,32.0286322 C49.9752949,31.4526242 49.7466823,30.7740216 49.179367,30.4810206 C48.899379,30.3364721 48.5798314,30.3100296 48.2799075,30.4066382 C47.9799315,30.5032989 47.7359636,30.7111948 47.5930286,30.9920156 L42.981425,39.95642 C42.7542699,40.3978735 42.2469706,40.617429 41.7697053,40.4811568 L34.8542779,38.5053129 L33.1432749,40.2163159 C32.7368525,40.6228424 32.0777173,40.6229465 31.6710346,40.2163159 L29.9600837,38.505365 L23.0447604,40.4811568 C22.5672869,40.6175331 22.0601437,40.3978214 21.8330406,39.95642 L17.2235191,30.9960236 C17.0785021,30.7111948 16.8345341,30.5032989 16.5345582,30.4066382 C16.2345822,30.3099255 15.9150867,30.33642 15.6350466,30.4810206 C15.0676793,30.7740216 14.8390667,31.4527283 15.1125481,32.0286843 L20.4513189,42.6482919 C20.7626943,43.2719796 21.4691447,43.5739335 22.1323399,43.3689005 C22.1599275,43.360364 22.1879315,43.3529726 22.2161437,43.3467263 L26.7207804,42.3555512 C27.0289285,42.2875712 27.3509225,42.3633069 27.5967644,42.5608965 C27.8425021,42.7584861 27.9854891,43.0568484 27.9854891,43.3722839 L27.9854891,51.967379 L25.903407,51.967379 L25.903407,44.6672869 L22.7022579,45.3716553 C21.0739135,45.8519916 19.3502619,45.1041077 18.5897814,43.5809606 L13.2477313,32.9547423 C13.2451287,32.9495892 13.2425782,32.9443319 13.2400276,32.9391267 C12.8696773,32.1706302 12.8146062,31.3017774 13.0850166,30.4926803 C13.355427,29.6836352 13.9217534,29.0224701 14.6797353,28.6310386 C15.4559876,28.2302899 16.341393,28.1570006 17.1729766,28.4248605 C18.0045081,28.6927203 18.6807163,29.2690406 19.0769886,30.0475311 L23.2938294,38.2445842 L29.9771047,36.3351067 C30.3407924,36.2311588 30.7319115,36.3326603 30.9992509,36.5999475 L32.4072068,38.0079035 L33.8152669,36.5999475 C34.0825021,36.3326603 34.4737253,36.2312108 34.8373089,36.3351067 L41.5205842,38.2445842 L45.7395592,30.0435752 C46.1337493,29.2690406 46.8099576,28.6927203 47.6414891,28.4248605 C48.4730206,28.1568444 49.3584781,28.2301337 50.1346783,28.6310386 C50.8926603,29.0224701 51.4589866,29.6836352 51.729397,30.4926803 C51.9998074,31.3017774 51.9447363,32.1705782 51.574438,32.9391267 C51.5718875,32.9443319 51.5693369,32.9495892 51.5667343,32.9547423 L46.2233309,43.5835111 C45.4641518,45.1042118 43.7402919,45.8519395 42.1122078,45.3716553 L38.9110066,44.6672869 L38.9110066,51.967379 Z" id="Fill-11" fill="#AAAAAA" mask="url(#mask-2)"></path>
            <polygon id="Fill-12" fill="#00953C" mask="url(#mask-2)" points="47.6288092 11.0374867 46.1565169 9.56519439 48.9114238 6.81028749 50.3837161 8.28257978"></polygon>
            <polygon id="Fill-13" fill="#00953C" mask="url(#mask-2)" points="41.9962567 16.6700392 40.5239644 15.1977469 43.2788713 12.44284 44.7511636 13.9151323"></polygon>
            <polygon id="Fill-14" fill="#00953C" mask="url(#mask-2)" points="48.9194867 16.6619556 46.1645798 13.9069966 47.6368721 12.4348084 50.391779 15.1897674"></polygon>
            <polygon id="Fill-15" fill="#00953C" mask="url(#mask-2)" points="43.2869862 11.029403 40.5320272 8.2744961 42.0042154 6.8022038 44.7591744 9.55711071"></polygon>
            <polygon id="Fill-16" fill="#00953C" mask="url(#mask-2)" points="9.95562643 40.9118563 8.48338619 39.4396681 11.2382931 36.6847091 12.7105333 38.1568973"></polygon>
            <polygon id="Fill-17" fill="#00953C" mask="url(#mask-2)" points="4.32307908 46.5444609 2.85083884 45.0721686 5.60574575 42.3172617 7.07798599 43.789554"></polygon>
            <polygon id="Fill-18" fill="#00953C" mask="url(#mask-2)" points="11.246382 46.5363772 8.49147508 43.7814703 9.96371532 42.309178 12.7186222 45.0640849"></polygon>
            <polygon id="Fill-19" fill="#00953C" mask="url(#mask-2)" points="5.6138034 40.9038246 2.8588965 38.1489177 4.33113674 36.6766254 7.08604364 39.4315323"></polygon>
            <polygon id="Fill-20" fill-opacity="0" fill="#FFFFFF" mask="url(#mask-2)" points="0 51.9992713 51.9992713 51.9992713 51.9992713 0 0 0"></polygon>
        </g>
    </g>
</svg>