<?xml version="1.0" encoding="UTF-8"?>
<svg width="52px" height="52px" viewBox="0 0 52 52" version="1.1" xmlns="http://www.w3.org/2000/svg" xmlns:xlink="http://www.w3.org/1999/xlink">
    <!-- Generator: Sketch 63.1 (92452) - https://sketch.com -->
    <title>rosette</title>
    <desc>Created with Sketch.</desc>
    <defs>
        <polygon id="path-1" points="0.01755 0.049712 39.397722 0.049712 39.397722 39.4299048 0.01755 39.4299048"></polygon>
    </defs>
    <g id="rosette" stroke="none" stroke-width="1" fill="none" fill-rule="evenodd">
        <g>
            <path d="M19.4602408,51.950288 C19.0799648,51.950288 18.7141448,51.78316 18.4647528,51.486188 L15.4107928,47.849256 L10.7268928,48.633936 C10.2699168,48.71048 9.8066488,48.537944 9.5109768,48.18112 C9.2153568,47.824192 9.1320528,47.336952 9.2923688,46.90218 L14.2712128,33.410104 L16.7107408,34.309288 L12.5066968,45.699524 L15.7139008,45.16226 C16.1677048,45.085976 16.6281648,45.25586 16.9242008,45.60842 L19.0153808,48.098752 L23.2194248,36.708516 L25.6589528,37.607804 L20.6801088,51.09988 C20.5198448,51.534704 20.1401928,51.851332 19.6836848,51.930892 C19.6091688,51.943892 19.5343928,51.950288 19.4602408,51.950288" id="Fill-1" fill="#AEADAD"></path>
            <path d="M32.4343448,51.950288 C32.3601408,51.950288 32.2854168,51.943892 32.2109008,51.930892 C31.7543928,51.851332 31.3747408,51.534704 31.2144768,51.09988 L26.1120288,37.254308 L28.5515568,36.355072 L32.8792048,48.098752 L34.9703848,45.60842 C35.2663688,45.25586 35.7266728,45.08608 36.1807368,45.16226 L39.3878888,45.699524 L35.0602408,33.955844 L37.4997688,33.056608 L42.6022168,46.90218 C42.7624808,47.336952 42.6791768,47.824192 42.3835568,48.18112 C42.0879368,48.537996 41.6244608,48.710636 41.1676408,48.633936 L36.4837928,47.849256 L33.4298328,51.486188 C33.1804408,51.78316 32.8145688,51.950288 32.4343448,51.950288" id="Fill-3" fill="#AEADAD"></path>
            <path d="M25.9476516,10.3532832 C20.7706356,10.3532832 16.5588436,14.5650752 16.5588436,19.7420912 C16.5588436,24.9191072 20.7706356,29.1308992 25.9476516,29.1308992 C31.1246676,29.1308992 35.3364596,24.9191072 35.3364596,19.7420912 C35.3364596,14.5650752 31.1246676,10.3532832 25.9476516,10.3532832 M25.9476516,31.7308992 C22.7453356,31.7308992 19.7346916,30.4838352 17.4702996,28.2194432 C15.2059076,25.9550512 13.9588436,22.9444072 13.9588436,19.7420912 C13.9588436,16.5397752 15.2059076,13.5291312 17.4702996,11.2647392 C19.7346916,9.0003472 22.7453356,7.7532832 25.9476516,7.7532832 C29.1499676,7.7532832 32.1606116,9.0003472 34.4250036,11.2647392 C36.6893956,13.5291312 37.9364596,16.5397752 37.9364596,19.7420912 C37.9364596,22.9444072 36.6893956,25.9550512 34.4250036,28.2194432 C32.1606116,30.4838352 29.1499676,31.7308992 25.9476516,31.7308992" id="Fill-5" fill="#00953C"></path>
            <polygon id="Fill-7" fill="#00933D" points="24.8541488 24.6274132 20.0282368 19.8015012 21.8666968 17.9629892 24.8541488 20.9504412 30.0285648 15.7760252 31.8670768 17.6144852"></polygon>
            <g id="Group-11" transform="translate(6.240000, 0.002288)">
                <mask id="mask-2" fill="white">
                    <use xlink:href="#path-1"></use>
                </mask>
                <g id="Clip-10"></g>
                <path d="M9.203116,6.9985448 C7.96978,6.9985448 6.966388,8.0019368 6.966388,9.2352728 L6.966388,12.4587528 C6.966388,13.7506928 6.463288,14.9653088 5.549752,15.8788448 L3.270436,18.1582128 C2.847936,18.5806608 2.615288,19.1423648 2.615288,19.7397928 C2.615288,20.3372728 2.847936,20.8989248 3.270436,21.3213728 L5.549752,23.6007408 C6.463288,24.5143288 6.966388,25.7288928 6.966388,27.0208328 L6.966388,30.2443128 C6.966388,31.4776488 7.96978,32.4810408 9.203116,32.4810408 L12.426596,32.4810408 C13.718536,32.4810408 14.933152,32.9841408 15.846688,33.8977288 L18.126056,36.1770448 C18.548504,36.5994928 19.110208,36.8321408 19.707636,36.8321408 C20.305116,36.8321408 20.866768,36.5994928 21.289216,36.1770448 L23.568584,33.8976768 C24.48212,32.9841408 25.696736,32.4810408 26.988676,32.4810408 L30.212156,32.4810408 C31.445492,32.4810408 32.448884,31.4776488 32.448884,30.2443128 L32.448884,27.0208328 C32.448884,25.7288928 32.951984,24.5142768 33.86552,23.6007408 L36.144888,21.3213728 C36.567336,20.8989248 36.799984,20.3372728 36.799984,19.7397928 C36.799984,19.1423648 36.567336,18.5806608 36.144888,18.1582128 L33.86552,15.8788448 C32.951984,14.9653088 32.448884,13.7506928 32.448884,12.4587528 L32.448884,9.2352728 C32.448884,8.0019368 31.445492,6.9985448 30.212156,6.9985448 L26.988676,6.9985448 C25.696736,6.9985448 24.48212,6.4954448 23.568584,5.5819088 L21.289216,3.3025408 C20.866768,2.8800928 20.305116,2.6474448 19.707636,2.6474448 C19.110208,2.6474448 18.548504,2.8800928 18.126056,3.3025408 L15.846688,5.5819088 C14.9331,6.4954448 13.718536,6.9985448 12.426596,6.9985448 L9.203116,6.9985448 Z M19.707636,39.4299048 C18.468892,39.4299048 17.230616,38.9585248 16.287544,38.0155048 L14.008176,35.7361368 C13.585728,35.3136888 13.024024,35.0810408 12.426596,35.0810408 L9.203116,35.0810408 C6.53614,35.0810408 4.366388,32.9112888 4.366388,30.2443128 L4.366388,27.0208328 C4.366388,26.4234048 4.13374,25.8617008 3.711292,25.4392528 L1.431924,23.1598848 C-0.453908,21.2740528 -0.453908,18.2055848 1.431924,16.3197008 L3.711292,14.0403328 C4.13374,13.6178848 4.366388,13.0562328 4.366388,12.4587528 L4.366388,9.2352728 C4.366388,6.5682968 6.53614,4.3985448 9.203116,4.3985448 L12.426596,4.3985448 C13.024076,4.3985448 13.58578,4.1658968 14.008228,3.7434488 L16.287544,1.4640808 C18.173376,-0.4217512 21.241844,-0.4217512 23.127728,1.4640808 L25.407096,3.7434488 C25.829544,4.1658968 26.391196,4.3985448 26.988676,4.3985448 L30.212156,4.3985448 C32.879132,4.3985448 35.048884,6.5682968 35.048884,9.2352728 L35.048884,12.4587528 C35.048884,13.0562328 35.281532,13.6178848 35.70398,14.0403328 L37.983348,16.3197008 C39.86918,18.2055848 39.86918,21.2740528 37.983348,23.1598848 L35.70398,25.4392528 C35.281532,25.8617008 35.048884,26.4233528 35.048884,27.0208328 L35.048884,30.2443128 C35.048884,32.9112888 32.879132,35.0810408 30.212156,35.0810408 L26.988676,35.0810408 C26.391196,35.0810408 25.829544,35.3136888 25.407096,35.7361368 L23.127728,38.0155048 C22.184916,38.9583168 20.946068,39.4299048 19.707636,39.4299048 L19.707636,39.4299048 Z" id="Fill-9" fill="#AEADAD" mask="url(#mask-2)"></path>
            </g>
            <polygon id="Fill-12" fill="#FFFFFF" opacity="0" points="0 51.947636 51.895272 51.947636 51.895272 0.052364 0 0.052364"></polygon>
        </g>
    </g>
</svg>