<?xml version="1.0" encoding="UTF-8"?>
<svg width="52px" height="52px" viewBox="0 0 52 52" version="1.1" xmlns="http://www.w3.org/2000/svg" xmlns:xlink="http://www.w3.org/1999/xlink">
    <!-- Generator: Sketch 63.1 (92452) - https://sketch.com -->
    <title>scooter</title>
    <desc>Created with Sketch.</desc>
    <g id="scooter" stroke="none" stroke-width="1" fill="none" fill-rule="evenodd">
        <g>
            <path d="M12.7641982,38.9262934 C11.0996939,38.9262934 9.7454991,40.2973635 9.7454991,41.9827263 C9.7454991,43.6680369 11.0996939,45.0391591 12.7641982,45.0391591 C14.4287025,45.0391591 15.7828974,43.6680369 15.7828974,41.9827263 C15.7828974,40.2973635 14.4287025,38.9262934 12.7641982,38.9262934 M12.7641982,47.6443695 C9.68091561,47.6443695 7.17245177,45.1045499 7.17245177,41.9827263 C7.17245177,38.8609026 9.68091561,36.321083 12.7641982,36.321083 C15.8474808,36.321083 18.3559447,38.8609026 18.3559447,41.9827263 C18.3559447,45.1045499 15.8474808,47.6443695 12.7641982,47.6443695" id="Fill-1" fill="#00953C"></path>
            <path d="M41.4655634,38.9262934 C39.8010591,38.9262934 38.4468643,40.2973635 38.4468643,41.9827263 C38.4468643,43.6680369 39.8010591,45.0391591 41.4655634,45.0391591 C43.1300677,45.0391591 44.4842625,43.6680369 44.4842625,41.9827263 C44.4842625,40.2973635 43.1300677,38.9262934 41.4655634,38.9262934 M41.4655634,47.6443695 C38.3822808,47.6443695 35.873817,45.1045499 35.873817,41.9827263 C35.873817,38.8609026 38.3822808,36.321083 41.4655634,36.321083 C44.548846,36.321083 47.0573099,38.8609026 47.0573099,41.9827263 C47.0573099,45.1045499 44.548846,47.6443695 41.4655634,47.6443695" id="Fill-3" fill="#00953C"></path>
            <path d="M50.075973,39.0767026 C50.075973,34.2618569 46.220982,30.3586786 41.4655789,30.3586786 C36.7101757,30.3586786 32.8551333,34.2618569 32.8551333,39.0767026 L50.075973,39.0767026 Z" id="Fill-5" fill="#E3E4E2"></path>
            <path d="M34.254799,37.7740974 L48.6763176,37.7740974 C48.0666597,34.3040613 45.0652,31.6612838 41.4655583,31.6612838 C37.8659165,31.6612838 34.8645083,34.3040613 34.254799,37.7740974 M50.0759524,40.3793078 L32.8551642,40.3793078 C32.1446429,40.3793078 31.5686405,39.7961054 31.5686405,39.0767026 C31.5686405,33.5513118 36.0083822,29.0560733 41.4655583,29.0560733 C46.9227858,29.0560733 51.3624761,33.5513118 51.3624761,39.0767026 C51.3624761,39.7961054 50.7865251,40.3793078 50.0759524,40.3793078" id="Fill-7" fill="#AEADAD"></path>
            <path d="M22.8096632,33.1346866 L22.8096632,24.5250914 L12.7825492,24.5250914 C4.84516134,24.5250914 1.28653396,31.0400453 1.28653396,39.0767026 L32.8551487,39.0767026 L42.8793809,27.4741375 L39.9879961,12.9225784 L34.2477334,12.9225784 L34.2477334,24.5456725 C34.2477334,32.2114521 27.5441732,33.2061735 22.8096632,33.1346866 Z" id="Fill-9" fill="#E3E4E2"></path>
            <path d="M2.60631683,37.7740974 L32.2712883,37.7740974 L41.4928326,27.1005503 L38.9345031,14.2251836 L35.534221,14.2251836 L35.534221,24.5456725 C35.534221,27.3968148 34.6878428,29.6867948 33.0186041,31.351889 C31.7834385,32.5839451 30.1002538,33.457889 28.0156224,33.9494401 C26.496135,34.3077607 24.7868082,34.4673038 22.7905351,34.4371355 C22.0875272,34.4265062 21.523155,33.8465343 21.523155,33.1346866 L21.523155,25.8276966 L12.7825646,25.8276966 C9.45041688,25.8276966 6.86573938,27.0803339 5.10032015,29.5507507 C3.63363171,31.6030834 2.78030629,34.4272878 2.60631683,37.7740974 M32.8551642,40.3793078 L1.2865494,40.3793078 C0.575976645,40.3793078 2.57304733e-05,39.7961054 2.57304733e-05,39.0767026 C2.57304733e-05,34.606422 1.04283035,30.7843178 3.01574012,28.0235764 C5.26026077,24.8826826 8.63759123,23.2224862 12.7825646,23.2224862 L22.8096786,23.2224862 C23.5201999,23.2224862 24.0962023,23.8056886 24.0962023,24.5250914 L24.0962023,31.8210874 C27.386924,31.7082297 29.777182,30.9280733 31.212788,29.4960413 C32.3892882,28.3224982 32.9611737,26.7031515 32.9611737,24.5456725 L32.9611737,12.9225784 C32.9611737,12.2031234 33.5371761,11.6199731 34.2476974,11.6199731 L39.9880116,11.6199731 C40.6007056,11.6199731 41.1283862,12.0574922 41.2492165,12.6656525 L44.1406527,27.2172637 C44.2195938,27.6146625 44.1113199,28.0266505 43.8476855,28.3317727 L33.8234533,39.9343379 C33.5791682,40.2171074 33.2261976,40.3793078 32.8551642,40.3793078" id="Fill-11" fill="#AEADAD"></path>
            <path d="M7.4223101,37.7740974 L18.1060658,37.7740974 C17.5255348,35.3330673 15.3507438,33.5140573 12.7642137,33.5140573 C10.1776321,33.5140573 8.00284104,35.3330673 7.4223101,37.7740974 M19.5446565,40.3793078 L5.98366788,40.3793078 C5.27314659,40.3793078 4.69714421,39.7961054 4.69714421,39.0767026 C4.69714421,34.572919 8.31603236,30.9088469 12.7642137,30.9088469 C17.2123435,30.9088469 20.8311802,34.572919 20.8311802,39.0767026 C20.8311802,39.7961054 20.2552293,40.3793078 19.5446565,40.3793078" id="Fill-15" fill="#AEADAD"></path>
            <path d="M10.8296372,20.4835659 C10.2318668,20.4835659 9.74550939,20.9760028 9.74550939,21.5812453 L9.74550939,22.1463675 C9.74550939,22.75161 10.2318668,23.2439948 10.8296372,23.2439948 L22.6564434,23.2439948 C23.2542137,23.2439948 23.7405711,22.75161 23.7405711,22.1463675 L23.7405711,21.5812453 C23.7405711,20.9760028 23.2542137,20.4835659 22.6564434,20.4835659 L10.8296372,20.4835659 Z M22.6564434,25.8492052 L10.8296372,25.8492052 C8.81303704,25.8492052 7.17246206,24.188123 7.17246206,22.1463675 L7.17246206,21.5812453 C7.17246206,19.5394377 8.81303704,17.8783555 10.8296372,17.8783555 L22.6564434,17.8783555 C24.672992,17.8783555 26.3136184,19.5394377 26.3136184,21.5812453 L26.3136184,22.1463675 C26.3136184,24.188123 24.672992,25.8492052 22.6564434,25.8492052 L22.6564434,25.8492052 Z" id="Fill-19" fill="#AEADAD"></path>
            <path d="M44.4348446,9.26202846 C43.7162954,9.29985611 43.1432778,9.90358758 43.1432778,10.6403932 C43.1432778,11.3771467 43.7162954,11.9809303 44.4348446,12.0187058 L44.4348446,9.26202846 Z M45.7213683,14.625792 L44.5064268,14.625792 C42.3360099,14.625792 40.5702304,12.8379403 40.5702304,10.6403932 C40.5702304,8.44279399 42.3360099,6.65494228 44.5064268,6.65494228 L45.7213683,6.65494228 C46.4318896,6.65494228 47.0078919,7.23814469 47.0078919,7.95754749 L47.0078919,13.3231868 C47.0078919,14.0425896 46.4318896,14.625792 45.7213683,14.625792 L45.7213683,14.625792 Z" id="Fill-23" fill="#AEADAD"></path>
            <path d="M38.7250416,13.1707351 L37.5345955,6.96012184 L28.5499259,6.96012184 L28.5499259,4.35491142 L38.5954115,4.35491142 C39.2114505,4.35491142 39.7410351,4.79706774 39.858366,5.40934429 L41.2509507,12.6743904 L38.7250416,13.1707351 Z" id="Fill-25" fill="#AEADAD"></path>
            <polygon id="Fill-27" fill-opacity="0" fill="#FFFFFF" points="0.00262450828 51.9992705 51.3599287 51.9992705 51.3599287 0 0.00262450828 0"></polygon>
        </g>
    </g>
</svg>