<?xml version="1.0" encoding="UTF-8"?>
<svg width="52px" height="52px" viewBox="0 0 52 52" version="1.1" xmlns="http://www.w3.org/2000/svg" xmlns:xlink="http://www.w3.org/1999/xlink">
    <!-- Generator: Sketch 63.1 (92452) - https://sketch.com -->
    <title>security-shield</title>
    <desc>Created with Sketch.</desc>
    <g id="security-shield" stroke="none" stroke-width="1" fill="none" fill-rule="evenodd">
        <g>
            <path d="M9.37624609,10.458414 L9.37624609,22.032895 C9.37624609,27.3245984 10.2938012,31.880382 12.1034846,35.5737367 C14.1216369,39.6927307 17.2738894,42.7402016 21.472707,44.6315323 L25.9996248,46.6706826 L30.5265427,44.6315323 C34.7253603,42.7402016 37.8776649,39.6927307 39.8958172,35.5737367 C41.7055006,31.880382 42.6230557,27.3245984 42.6230557,22.032895 L42.6230557,10.458414 C41.5311599,10.3408669 39.7858253,10.1067106 37.680711,9.65913547 C34.5740497,8.99855832 30.0962661,7.73216553 25.9996248,5.40857836 C21.9030357,7.73216553 17.4252521,8.99855832 14.3185908,9.65913547 C12.2134766,10.1067106 10.4681419,10.3408669 9.37624609,10.458414 L9.37624609,10.458414 Z M25.9996248,49.5279731 L20.4027471,47.006911 C15.6357852,44.8596445 12.0563824,41.3986224 9.76395351,36.7200293 C7.7780016,32.6667908 6.77103567,27.7253319 6.77103567,22.032895 L6.77103567,8.03530782 L8.00027816,7.96595711 C8.02388136,7.9646024 10.4676208,7.81808537 13.8256329,7.10050621 C16.8938934,6.44477475 21.3799615,5.16374068 25.3268553,2.7843499 L25.999677,2.35188497 L26.6724465,2.7843499 C34.2779936,7.36936393 43.9027351,7.96053828 43.9990236,7.96595711 L45.2282661,8.03530782 L45.2282661,22.032895 C45.2282661,27.7253319 44.2213002,32.6667908 42.2353483,36.7200293 C39.9429715,41.3986224 36.3635166,44.8596445 31.5965026,47.006911 L25.9996248,49.5279731 Z" id="Fill-1" fill="#AAAAAA"></path>
            <polygon id="Fill-3" fill="#00933D" points="23.9768717 32.1803511 18.2413968 26.4448762 20.0835411 24.6026798 23.9768717 28.4960104 34.5157295 17.9572048 36.3578737 19.7993491"></polygon>
            <path d="M29.1979792,42.7564373 L28.0001034,40.4429583 C28.056897,40.4134673 33.6915503,37.447279 35.174905,33.3555876 L37.6241154,34.2434954 C35.7913499,39.2992188 29.4663158,42.6176317 29.1979792,42.7564373" id="Fill-5" fill="#ABABAB"></path>
            <polygon id="Fill-7" fill-opacity="0" fill="#FFFFFF" points="0 51.9992705 51.9992705 51.9992705 51.9992705 0 0 0"></polygon>
        </g>
    </g>
</svg>