<?xml version="1.0" encoding="UTF-8"?>
<svg width="52px" height="53px" viewBox="0 0 52 53" version="1.1" xmlns="http://www.w3.org/2000/svg" xmlns:xlink="http://www.w3.org/1999/xlink">
    <!-- Generator: Sketch 63.1 (92452) - https://sketch.com -->
    <title>seeding-from-tech</title>
    <desc>Created with Sketch.</desc>
    <defs>
        <polygon id="path-1" points="0 52 52 52 52 0 0 0"></polygon>
    </defs>
    <g id="seeding-from-tech" stroke="none" stroke-width="1" fill="none" fill-rule="evenodd" transform="translate(0.000000, 1.000000)">
        <g>
            <path d="M28.745392,42.809026 L28.745392,48.70255 L49.266412,41.007226 L49.266412,35.11365 L28.745392,42.809026 Z M27.445496,51.87845 C27.1843,51.87845 26.925496,51.799774 26.704912,51.646946 C26.354484,51.404106 26.145392,51.004798 26.145392,50.57845 L26.145392,41.908126 C26.145392,41.366234 26.48152,40.881178 26.988936,40.69091 L50.109904,32.020482 C50.509264,31.870722 50.956516,31.926414 51.306892,32.169254 C51.65732,32.412094 51.866412,32.81135 51.866412,33.23775 L51.866412,41.908126 C51.866412,42.450018 51.530284,42.935074 51.022868,43.125342 L27.901848,51.795666 C27.753908,51.851202 27.59926,51.87845 27.445496,51.87845 L27.445496,51.87845 Z" id="Fill-1" fill="#AEADAD"></path>
            <path d="M2.7342744,40.9711536 L26.1454024,48.7747936 L26.1454024,42.8450776 L2.7342744,35.0413856 L2.7342744,40.9711536 Z M27.4452984,51.8784656 C27.3072904,51.8784656 27.1686064,51.8565216 27.0343424,51.8117496 L1.0232144,43.1413736 C0.4923464,42.9644696 0.1342744,42.4676616 0.1342744,41.9081416 L0.1342744,33.2377136 C0.1342744,32.8198416 0.3351504,32.4274496 0.6741384,32.1831016 C1.0131264,31.9388056 1.4489384,31.8722456 1.8453344,32.0044296 L27.8564624,40.6748576 C28.3873304,40.8517616 28.7454024,41.3485696 28.7454024,41.9081416 L28.7454024,50.5784656 C28.7454024,50.9963376 28.5445264,51.3887296 28.2055384,51.6330776 C27.9813664,51.7946936 27.7148144,51.8784656 27.4452984,51.8784656 L27.4452984,51.8784656 Z" id="Fill-3" fill="#AEADAD"></path>
            <path d="M28.7474252,11.06196 C31.2748852,11.101792 33.2549932,10.431928 34.6446412,9.064432 C36.5716052,7.168252 37.0165172,4.309032 37.1060612,2.703116 C35.5001972,2.792712 32.6411332,3.237676 30.7450052,5.16464 C29.3776132,6.554236 28.7076972,8.53476 28.7474252,11.06196 M28.9721172,13.6643 C28.4626732,13.6643 27.9375772,13.639808 27.3961012,13.590824 L26.3163212,13.493064 L26.2185612,12.413284 C25.8681852,8.542456 26.7723612,5.485272 28.9058692,3.326752 C32.5143052,-0.324064 38.2687292,0.084084 38.5120372,0.103272 L39.6186492,0.190476 L39.7059052,1.29714 C39.7250412,1.540344 40.1333452,7.295028 36.4825812,10.903516 C34.6260252,12.738596 32.1042332,13.6643 28.9721172,13.6643" id="Fill-5" fill="#00953C"></path>
            <mask id="mask-2" fill="white">
                <use xlink:href="#path-1"></use>
            </mask>
            <g id="Clip-8"></g>
            <polygon id="Fill-7" fill="#00953C" mask="url(#mask-2)" points="26.145392 30.259216 28.745392 30.259216 28.745392 12.329616 26.145392 12.329616"></polygon>
            <path d="M17.279392,10.5644604 C17.366804,12.1996524 17.814784,15.1480524 19.79848,17.1002364 C21.224996,18.5040804 23.26116,19.1908444 25.855128,19.1442004 C25.90068,16.5420164 25.211784,14.5045004 23.801076,13.0772044 C21.837764,11.0909084 18.907668,10.6479724 17.279392,10.5644604 M25.601056,21.7470084 C22.413768,21.7470084 19.848764,20.8057044 17.96054,18.9392684 C14.246232,15.2679124 14.661712,9.4114124 14.681212,9.1638924 L14.768468,8.0572284 L15.87508,7.9700244 C16.122704,7.9506804 21.978892,7.5351484 25.650248,11.2494564 C27.82026,13.4449484 28.739724,16.5554324 28.383108,20.4946924 L28.285348,21.5744204 L27.20562,21.6721804 C26.654524,21.7220484 26.119444,21.7470084 25.601056,21.7470084" id="Fill-9" fill="#00953C" mask="url(#mask-2)"></path>
            <path d="M27.445392,31.5592004 C26.475956,31.5592004 25.687272,32.3478844 25.687272,33.3173204 C25.687272,34.2867564 26.475956,35.0754404 27.445392,35.0754404 C28.414828,35.0754404 29.203512,34.2867564 29.203512,33.3173204 C29.203512,32.3478844 28.414828,31.5592004 27.445392,31.5592004 M27.445392,37.6754404 C25.042316,37.6754404 23.087272,35.7203444 23.087272,33.3173204 C23.087272,30.9142444 25.042316,28.9592004 27.445392,28.9592004 C29.848468,28.9592004 31.803512,30.9142444 31.803512,33.3173204 C31.803512,35.7203444 29.848468,37.6754404 27.445392,37.6754404" id="Fill-10" fill="#00953C" mask="url(#mask-2)"></path>
            <polygon id="Fill-11" fill="#AEADAD" mask="url(#mask-2)" points="47.945326 37.652498 46.447362 38.210926 46.447362 40.152034 47.973978 39.58279"></polygon>
            <polygon id="Fill-12" fill="#AEADAD" mask="url(#mask-2)" points="41.8673684 39.9129224 40.3694044 40.4713504 40.3694044 42.4124584 41.8960204 41.8432664"></polygon>
            <polygon id="Fill-13" fill="#AEADAD" mask="url(#mask-2)" points="44.8921564 38.8034504 43.3941924 39.3618264 43.3941924 41.3029864 44.9208084 40.7337424"></polygon>
            <polygon id="Fill-14" fill="#AEADAD" mask="url(#mask-2)" points="50.9541656 31.9968844 31.2057096 25.8254724 31.2057096 28.5495444 50.1786376 34.4785844"></polygon>
            <polygon id="Fill-15" fill="#AEADAD" mask="url(#mask-2)" points="1.0863164 31.9851584 1.7822324 34.4903104 23.5963364 28.4308024 23.5963364 25.7324184"></polygon>
            <polygon id="Fill-16" fill-opacity="0" fill="#FFFFFF" mask="url(#mask-2)" points="0 52 51.999948 52 51.999948 5.2e-05 0 5.2e-05"></polygon>
        </g>
    </g>
</svg>