<?xml version="1.0" encoding="UTF-8"?>
<svg width="52px" height="52px" viewBox="0 0 52 52" version="1.1" xmlns="http://www.w3.org/2000/svg" xmlns:xlink="http://www.w3.org/1999/xlink">
    <!-- Generator: Sketch 63.1 (92452) - https://sketch.com -->
    <title>shopping</title>
    <desc>Created with Sketch.</desc>
    <defs>
        <polygon id="path-1" points="0.0220076076 0.0104728729 7.8193009 0.0104728729 7.8193009 7.80780781 0.0220076076 7.80780781"></polygon>
        <polygon id="path-3" points="0.0307471471 0.0104728729 7.82804044 0.0104728729 7.82804044 7.80780781 0.0307471471 7.80780781"></polygon>
        <polygon id="path-5" points="0 0.0318454454 18.147974 0.0318454454 18.147974 28.5987924 0 28.5987924"></polygon>
    </defs>
    <g id="shopping" stroke="none" stroke-width="1" fill="none" fill-rule="evenodd">
        <g>
            <g id="Group-3" transform="translate(16.916917, 44.142014)">
                <mask id="mask-2" fill="white">
                    <use xlink:href="#path-1"></use>
                </mask>
                <g id="Clip-2"></g>
                <path d="M3.92065425,2.61307548 C3.20603163,2.61307548 2.62461021,3.1944969 2.62461021,3.90911952 C2.62461021,4.62379419 3.20603163,5.20521562 3.92065425,5.20521562 C4.63527688,5.20521562 5.2166983,4.62379419 5.2166983,3.90911952 C5.2166983,3.1944969 4.63527688,2.61307548 3.92065425,2.61307548 M3.92065425,7.80781822 C1.7709045,7.80781822 0.0220076076,6.05886927 0.0220076076,3.90911952 C0.0220076076,1.75942182 1.7709045,0.0104728729 3.92065425,0.0104728729 C6.070404,0.0104728729 7.8193009,1.75942182 7.8193009,3.90911952 C7.8193009,6.05886927 6.070404,7.80781822 3.92065425,7.80781822" id="Fill-1" fill="#AEADAD" mask="url(#mask-2)"></path>
            </g>
            <path d="M44.1560004,43.1704104 L15.8955359,43.1704104 C13.5741185,43.1704104 11.6855139,41.2818058 11.6855139,38.9603884 C11.6855139,36.638971 13.5741185,34.7504184 15.8955359,34.7504184 L42.2787952,34.7504184 L48.7438162,18.1841241 L12.9535019,18.1841241 L12.9535019,15.5815215 L50.648557,15.5815215 C51.0784028,15.5815215 51.480557,15.7937898 51.7230675,16.1487327 C51.9655259,16.5036757 52.0170575,16.9554875 51.8607972,17.3559239 L44.3800845,36.5248208 C44.1852016,37.0242082 43.7039283,37.353021 43.1678442,37.353021 L15.8955359,37.353021 C15.0091936,37.353021 14.2881165,38.0740981 14.2881165,38.9603884 C14.2881165,39.8467307 15.0091936,40.5678078 15.8955359,40.5678078 L44.1560004,40.5678078 L44.1560004,43.1704104 Z" id="Fill-4" fill="#AEADAD"></path>
            <g id="Group-8" transform="translate(35.031031, 44.142014)">
                <mask id="mask-4" fill="white">
                    <use xlink:href="#path-3"></use>
                </mask>
                <g id="Clip-7"></g>
                <path d="M3.92939379,2.61307548 C3.21477117,2.61307548 2.63334975,3.1944969 2.63334975,3.90911952 C2.63334975,4.62379419 3.21477117,5.20521562 3.92939379,5.20521562 C4.64401642,5.20521562 5.22543784,4.62379419 5.22543784,3.90911952 C5.22543784,3.1944969 4.64401642,2.61307548 3.92939379,2.61307548 M3.92939379,7.80781822 C1.77964404,7.80781822 0.0307471471,6.05886927 0.0307471471,3.90911952 C0.0307471471,1.75942182 1.77964404,0.0104728729 3.92939379,0.0104728729 C6.07914354,0.0104728729 7.82804044,1.75942182 7.82804044,3.90911952 C7.82804044,6.05886927 6.07914354,7.80781822 3.92939379,7.80781822" id="Fill-6" fill="#AEADAD" mask="url(#mask-4)"></path>
            </g>
            <g id="Group-11" transform="translate(0.000000, 7.757630)">
                <mask id="mask-6" fill="white">
                    <use xlink:href="#path-5"></use>
                </mask>
                <g id="Clip-10"></g>
                <path d="M15.6177237,28.5987924 L9.36434635,2.63444805 L-2.6026026e-05,2.63444805 L-2.6026026e-05,0.0318454454 L10.3894595,0.0318454454 C10.9907648,0.0318454454 11.5137838,0.443837437 11.6545846,1.02843403 L18.147974,27.989367 L15.6177237,28.5987924 Z" id="Fill-9" fill="#AEADAD" mask="url(#mask-6)"></path>
            </g>
            <polygon id="Fill-12" fill="#00953C" points="28.2093129 5.46466907 32.7450767 10.0004328 34.585377 8.16008048 28.2093129 1.78401642 17.0065662 12.9867632 20.6872188 12.9867632"></polygon>
            <polygon id="Fill-14" fill="#00953C" points="39.7174959 9.63239359 43.0718863 12.986784 46.7524869 12.986784 39.7174959 5.95174094 32.6824529 12.986784 36.3631055 12.986784"></polygon>
            <polygon id="Fill-16" fill-opacity="0" fill="#FFFFFF" points="0 51.9472192 51.9472192 51.9472192 51.9472192 0 0 0"></polygon>
        </g>
    </g>
</svg>