<?xml version="1.0" encoding="UTF-8"?>
<svg width="52px" height="52px" viewBox="0 0 52 52" version="1.1" xmlns="http://www.w3.org/2000/svg" xmlns:xlink="http://www.w3.org/1999/xlink">
    <!-- Generator: Sketch 63.1 (92452) - https://sketch.com -->
    <title>speed</title>
    <desc>Created with Sketch.</desc>
    <defs>
        <polygon id="path-1" points="0.0442781563 0 44.2442782 0 44.2442782 51.9999896 0.0442781563 51.9999896"></polygon>
    </defs>
    <g id="speed" stroke="none" stroke-width="1" fill="none" fill-rule="evenodd">
        <g>
            <g id="Group-3" transform="translate(3.855711, 0.000000)">
                <mask id="mask-2" fill="white">
                    <use xlink:href="#path-1"></use>
                </mask>
                <g id="Clip-2"></g>
                <path d="M22.1442782,49.3999896 C11.3924184,49.3999896 2.64427816,40.6519014 2.64427816,29.8999896 C2.64427816,19.1481299 11.3924184,10.3999896 22.1442782,10.3999896 C32.8961379,10.3999896 41.6442782,19.1481299 41.6442782,29.8999896 C41.6442782,40.6519014 32.8961379,49.3999896 22.1442782,49.3999896 M36.9261379,13.5044104 L38.7600497,11.2120337 L36.7285587,9.58705972 L34.8999094,11.8724545 C31.6273483,9.55241042 27.6996289,8.11376112 23.4442782,7.8658493 L23.4442782,2.59998958 L27.3442782,2.59998958 C28.0627431,2.59998958 28.6442782,2.01845451 28.6442782,1.29998958 C28.6442782,0.581524649 28.0627431,-1.04208417e-05 27.3442782,-1.04208417e-05 L16.9442782,-1.04208417e-05 C16.2258132,-1.04208417e-05 15.6442782,0.581524649 15.6442782,1.29998958 C15.6442782,2.01845451 16.2258132,2.59998958 16.9442782,2.59998958 L20.8442782,2.59998958 L20.8442782,7.8658493 C16.5889275,8.11376112 12.661208,9.55329619 9.388699,11.8733403 L7.5599976,9.58794549 L5.52855872,11.2129194 L7.36241844,13.5052962 C2.87916393,17.5491038 0.0442781563,23.3861299 0.0442781563,29.8999896 C0.0442781563,42.1052962 9.93902365,51.9999896 22.1442782,51.9999896 C34.3495848,51.9999896 44.2442782,42.1052962 44.2442782,29.8999896 C44.2442782,23.3861299 41.4094445,17.5491038 36.9261379,13.5044104" id="Fill-1" fill="#AAAAAA" mask="url(#mask-2)"></path>
            </g>
            <path d="M25.9999896,31.2 C25.2832441,31.2 24.6999896,30.6167455 24.6999896,29.9 C24.6999896,29.1832545 25.2832441,28.6 25.9999896,28.6 C26.7167351,28.6 27.2999896,29.1832545 27.2999896,29.9 C27.2999896,30.6167455 26.7167351,31.2 25.9999896,31.2 M25.9999896,26 C23.8463663,26 22.0999896,27.7463246 22.0999896,29.9 C22.0999896,31.5952104 23.1885507,33.0243246 24.6999896,33.5616754 L24.6999896,46.8 L27.2999896,46.8 L27.2999896,33.5616754 C28.8114806,33.0243246 29.8999896,31.5960962 29.8999896,29.9 C29.8999896,27.7463246 28.1536649,26 25.9999896,26" id="Fill-4" fill="#438F42"></path>
            <path d="M25.9999896,13.0000104 L25.9999896,15.6000104 C33.8849194,15.6000104 40.2999896,22.0150806 40.2999896,29.9000104 C40.2999896,36.4320545 35.8930156,41.9423351 29.8999896,43.645309 L29.8999896,46.3294052 C37.3498493,44.5666156 42.8999896,37.8889403 42.8999896,29.9000104 C42.8999896,20.5660104 35.3339896,13.0000104 25.9999896,13.0000104" id="Fill-6" fill="#438F42"></path>
            <polygon id="Fill-8" points="0 52 52 52 52 0 0 0"></polygon>
        </g>
    </g>
</svg>