<?xml version="1.0" encoding="UTF-8"?>
<svg width="52px" height="52px" viewBox="0 0 52 52" version="1.1" xmlns="http://www.w3.org/2000/svg" xmlns:xlink="http://www.w3.org/1999/xlink">
    <!-- Generator: Sketch 63.1 (92452) - https://sketch.com -->
    <title>tick-list</title>
    <desc>Created with Sketch.</desc>
    <defs>
        <polygon id="path-1" points="0.0259947948 0 47.7570498 0 47.7570498 51.9999688 0.0259947948 51.9999688"></polygon>
        <polygon id="path-3" points="0 52 51.9472192 52 51.9472192 0 0 0"></polygon>
    </defs>
    <g id="tick-list" stroke="none" stroke-width="1" fill="none" fill-rule="evenodd">
        <g>
            <g id="Group-3" transform="translate(2.082082, 0.000000)">
                <mask id="mask-2" fill="white">
                    <use xlink:href="#path-1"></use>
                </mask>
                <g id="Clip-2"></g>
                <path d="M2.83331812,18.3144312 L2.83331812,12.6435684 C2.83331812,9.54246326 5.34680761,7.02892172 8.44791271,7.02892172 L11.255236,7.02892172 L11.255236,9.88127007 C11.255236,10.6570539 11.8831399,11.2849578 12.6588717,11.2849578 C13.4346034,11.2849578 14.0625073,10.6570539 14.0625073,9.88127007 L14.0625073,7.02892172 L33.7205373,7.02892172 L33.7205373,9.88127007 C33.7205373,10.6570539 34.3484412,11.2849578 35.124173,11.2849578 C35.8999047,11.2849578 36.5278607,10.6570539 36.5278607,9.88127007 L36.5278607,7.02892172 L39.3351319,7.02892172 C42.436237,7.02892172 44.9497786,9.54246326 44.9497786,12.6435684 L44.9497786,21.1217546 L44.9497786,43.5781029 C44.9497786,46.679208 42.436237,49.1926975 39.3351319,49.1926975 L8.44791271,49.1926975 C5.34680761,49.1926975 2.83331812,46.679208 2.83331812,43.5781029 L2.83331812,18.3144312 Z M39.3351319,4.22165045 L36.5278607,4.22165045 L36.5278607,1.40365646 C36.5278607,0.627872673 35.8999047,-3.12312312e-05 35.124173,-3.12312312e-05 C34.3484412,-3.12312312e-05 33.7205373,0.627872673 33.7205373,1.40365646 L33.7205373,4.22165045 L14.0625073,4.22165045 L14.0625073,1.40365646 C14.0625073,0.627872673 13.4346034,-3.12312312e-05 12.6588717,-3.12312312e-05 C11.8831399,-3.12312312e-05 11.255236,0.627872673 11.255236,1.40365646 L11.255236,4.22165045 L8.44791271,4.22165045 C3.80372452,4.22165045 0.0259947948,7.99938018 0.0259947948,12.6435684 L0.0259947948,43.5781029 C0.0259947948,48.2222911 3.80372452,51.9999688 8.44791271,51.9999688 L39.3351319,51.9999688 C43.9793722,51.9999688 47.7570498,48.2222911 47.7570498,43.5781029 L47.7570498,12.6435684 C47.7570498,7.99938018 43.9793722,4.22165045 39.3351319,4.22165045 L39.3351319,4.22165045 Z" id="Fill-1" fill="#AAAAAA" mask="url(#mask-2)"></path>
            </g>
            <mask id="mask-4" fill="white">
                <use xlink:href="#path-3"></use>
            </mask>
            <g id="Clip-5"></g>
            <polygon id="Fill-4" fill="#00933D" mask="url(#mask-4)" points="23.1651411 21.0492252 41.5577858 21.0492252 41.5577858 18.4466226 23.1651411 18.4466226"></polygon>
            <polygon id="Fill-6" fill="#00933D" mask="url(#mask-4)" points="23.1651411 30.8077357 41.5577858 30.8077357 41.5577858 28.2051331 23.1651411 28.2051331"></polygon>
            <polygon id="Fill-7" fill="#00933D" mask="url(#mask-4)" points="23.1651411 40.6604605 41.5577858 40.6604605 41.5577858 38.0578579 23.1651411 38.0578579"></polygon>
            <polygon id="Fill-8" fill="#00933D" mask="url(#mask-4)" points="14.1711347 23.6631335 10.6798995 20.1718983 12.5202519 18.3315459 14.1711347 19.9824809 17.261361 16.8922547 19.1017133 18.732555"></polygon>
            <polygon id="Fill-9" fill="#00933D" mask="url(#mask-4)" points="14.1711347 33.123011 10.6798995 29.6317758 12.5202519 27.7914755 14.1711347 29.4423584 17.261361 26.3521321 19.1017133 28.1924324"></polygon>
            <polygon id="Fill-10" fill="#00933D" mask="url(#mask-4)" points="14.1711347 42.9483459 10.6798995 39.4571107 12.5202519 37.6168104 14.1711347 39.2676933 17.261361 36.1774671 19.1017133 38.0177674"></polygon>
            <polygon id="Fill-11" fill-opacity="0" fill="#FFFFFF" mask="url(#mask-4)" points="5.20520521e-05 51.9472192 51.9472713 51.9472192 51.9472713 0 5.20520521e-05 0"></polygon>
        </g>
    </g>
</svg>