<?xml version="1.0" encoding="UTF-8"?>
<svg width="52px" height="52px" viewBox="0 0 52 52" version="1.1" xmlns="http://www.w3.org/2000/svg" xmlns:xlink="http://www.w3.org/1999/xlink">
    <!-- Generator: Sketch 63.1 (92452) - https://sketch.com -->
    <title>wedding</title>
    <desc>Created with Sketch.</desc>
    <defs>
        <polygon id="path-1" points="0 51.9992705 51.9992705 51.9992705 51.9992705 0 0 0"></polygon>
    </defs>
    <g id="wedding" stroke="none" stroke-width="1" fill="none" fill-rule="evenodd">
        <g>
            <path d="M8.14747255,26.3315912 C7.44307575,27.7208978 7.31010581,29.3011142 7.77404168,30.7916593 C8.24673106,32.3101844 9.28251062,33.5538076 10.6905747,34.2933747 C12.0985347,35.0328898 13.7103784,35.1798758 15.2289034,34.7071343 C16.7194485,34.2431984 17.9449916,33.2368056 18.6890397,31.8683928 L21.7156168,23.3580561 L13.4365186,19.0096994 L8.14747255,26.3315912 Z M13.4489715,37.5855792 C12.0810798,37.5855792 10.724703,37.253988 9.4791519,36.5997675 C5.30070701,34.4050862 3.68683126,29.2202485 5.88146052,25.0418557 L5.9244986,24.9598958 L12.6476088,15.6526253 L24.9272681,22.1022405 L21.0801018,32.9200641 L21.0370637,33.002024 C19.9739816,35.0261162 18.1862341,36.5150982 16.003224,37.1946413 C15.1635126,37.4560481 14.3040016,37.5855792 13.4489715,37.5855792 L13.4489715,37.5855792 Z" id="Fill-1" fill="#AEADAD"></path>
            <polygon id="Fill-3" fill="#AEADAD" points="6.91971503 44.274113 4.61327014 43.0626902 8.93161483 34.8408545 11.2380597 36.0522774"></polygon>
            <polygon id="Fill-5" fill="#AEADAD" points="10.2994128 47.5205543 0.0221703407 42.1226104 1.23359319 39.8162176 11.5108357 45.2141094"></polygon>
            <path d="M19.1347912,34.3921226 C18.7337972,34.3921226 18.2098894,34.3134453 17.6113162,34.0351046 C16.2599936,33.4068842 15.0140257,31.9991848 13.9079054,29.8511888 C13.1291559,28.3390725 11.7887752,27.3884313 9.92391343,27.0255776 C8.47859479,26.7443711 7.25831423,26.9309563 7.24638236,26.9328842 L6.82293146,24.3622709 C6.89045852,24.3511206 8.4985507,24.0941427 10.4214565,24.468303 C13.0713723,24.9839263 15.0779054,26.4328401 16.2239896,28.6584713 C17.617204,31.3638261 18.8201339,31.8339623 19.1670958,31.7875375 C19.1667311,31.7875896 19.131717,31.7924874 19.0577812,31.8191647 L19.9416248,34.2698862 C19.8528914,34.3019303 19.5642341,34.3921226 19.1347912,34.3921226" id="Fill-7" fill="#AEADAD"></path>
            <path d="M33.2867319,31.8683772 C34.03078,33.2368421 35.2563752,34.2431828 36.7468681,34.7071186 C38.2653411,35.1800164 39.8771848,35.0329263 41.2852489,34.2933591 C42.6932609,33.5538441 43.7290405,32.3101687 44.2017299,30.7916437 C44.6657178,29.3011507 44.5326958,27.7208822 43.8283511,26.3316277 L38.5392529,19.0096838 L30.2601547,23.3580405 L33.2867319,31.8683772 Z M38.5268,37.5856156 C37.6716657,37.5856156 36.8123631,37.4560325 35.9725475,37.1946778 C33.7895375,36.5151347 32.0018421,35.0261006 30.9387599,33.0020605 L30.8956697,32.9201006 L27.0485034,22.1022248 L39.3281106,15.6526096 L46.0512729,24.9598802 L46.0943631,25.0418401 C47.1574974,27.0659323 47.36878,29.3829022 46.6892369,31.5659122 C46.0096938,33.7489222 44.5207118,35.5366176 42.4966717,36.599804 C41.2512248,37.2539202 39.8945355,37.5856156 38.5268,37.5856156 L38.5268,37.5856156 Z" id="Fill-9" fill="#AEADAD"></path>
            <polygon id="Fill-11" fill="#AEADAD" points="45.0560774 44.274113 40.7377327 36.0522774 43.0441776 34.8408545 47.3625222 43.0626902"></polygon>
            <polygon id="Fill-13" fill="#AEADAD" points="41.6763743 47.5205543 40.4649515 45.2141094 50.742194 39.8162176 51.9536168 42.1226104"></polygon>
            <path d="M32.838099,34.3941078 C32.4233495,34.3941078 32.1378705,34.3073022 32.0341311,34.2698914 L32.9179747,31.8191699 C32.8440389,31.7924926 32.8090248,31.7875948 32.8087122,31.7875427 C33.1555178,31.8349575 34.3585519,31.3640918 35.7517663,28.6584766 C36.8979026,26.4328453 38.9044357,24.9839315 41.5543515,24.4683082 C43.4771531,24.0942521 45.0853495,24.351178 45.1528766,24.3622762 L44.9410208,25.6483122 L44.7339066,26.9335667 C44.7213495,26.9316389 43.4544878,26.7383323 41.9786882,27.0401719 C40.1517583,27.4138633 38.8360228,28.3596589 38.0679026,29.851194 C36.9617824,31.99919 35.7157623,33.4068894 34.3644918,34.0351098 C33.8531932,34.2728613 33.3406962,34.3935868 32.8410168,34.3941078 L32.838099,34.3941078 Z" id="Fill-15" fill="#AEADAD"></path>
            <mask id="mask-2" fill="white">
                <use xlink:href="#path-1"></use>
            </mask>
            <g id="Clip-18"></g>
            <polygon id="Fill-17" fill="#00953C" mask="url(#mask-2)" points="24.5048176 11.5095591 27.1100281 11.5095591 27.1100281 3.70966333 24.5048176 3.70966333"></polygon>
            <polygon id="Fill-19" fill="#00953C" mask="url(#mask-2)" points="32.6961359 14.1973182 30.4762361 12.8338553 35.3028573 4.9754986 37.5228092 6.33896152"></polygon>
            <polygon id="Fill-20" fill="#00953C" mask="url(#mask-2)" points="19.3024 14.1973182 14.4757788 6.33896152 16.6957307 4.9754986 21.5222998 12.8338553"></polygon>
            <polygon id="Fill-21" fill-opacity="0" fill="#FFFFFF" mask="url(#mask-2)" points="0 51.9992705 51.9992705 51.9992705 51.9992705 0 0 0"></polygon>
        </g>
    </g>
</svg>