<svg xmlns="http://www.w3.org/2000/svg" viewBox="0 0 710.23 152.11"><defs><style>.cls-1{fill:#fff}.cls-3{fill:#403a39}.cls-4{fill:#a08358}.cls-5{fill:#bca680}.cls-8{fill:none}.cls-9{fill:#bbb7b0}.cls-10{fill:#575250}.cls-11{fill:#88847d}.cls-12{fill:#e5ddd6}.cls-13{fill:#fea621}</style></defs><g id="Calque_2" data-name="Calque 2"><g id="Layer_1" data-name="Layer 1"><path class="cls-1" d="M258 69.25a12.33 12.33 0 01-.11-2q0-8.76 5.82-13.66a19.46 19.46 0 0112.85-4.91q9.29 0 12.92 7zm45-8.32a21.24 21.24 0 00-7.79-16.81q-7.68-6.45-19.32-6.45a31.24 31.24 0 00-14 3.25 27.88 27.88 0 00-11.1 10.14 28.57 28.57 0 00-4.49 16q0 13.13 8.65 21.13a29.39 29.39 0 0020.7 8q13.77 0 23.9-10.46l-7-7.79a19.56 19.56 0 01-15.74 7.47q-9.56 0-15.1-6.83l41.41-17.4zM232.69 41.19a24.73 24.73 0 00-7.85 8.75V38.52h-12v56.77h12V71q0-9.7 4.49-15.47t13.33-5.76h.64l-.1-12.06a18.83 18.83 0 00-10.51 3.52M345.89 66.37a33 33 0 00-5.39-3q-2.5-1.06-5.17-1.92t-6.14-1.71a26.9 26.9 0 01-5.39-1.82 4.23 4.23 0 01-2.77-4 5 5 0 012.67-4.64 13.7 13.7 0 016.93-1.55 26.73 26.73 0 0115.05 4.59l4.48-8.86a33.19 33.19 0 00-18.57-5.76q-9.81 0-15.95 4.75a15.18 15.18 0 00-6.14 12.64q0 11.2 17.72 16a11.81 11.81 0 011.28.43q11.31 3.41 11.31 7.68a5.81 5.81 0 01-2.35 4.75 10 10 0 01-6.4 1.87q-9.29 0-19.21-7.47l-5.76 9.28a38.74 38.74 0 0011.79 6.3 40.42 40.42 0 0012.86 2.24q9.18 0 15.05-4.86a16 16 0 005.87-13q0-8.11-5.77-12M187.75 58q-3.78 4-14.24 4h-14.62V32.12h12.8q10.25 0 15.05 3.2t4.8 10.94q0 7.74-3.79 11.74m8.91-30.79q-7.78-6.51-24.75-6.51H146.3v74.59h12.59V73.42h13.23q16.44 0 24.38-6.3t7.95-19.85q0-13.55-7.79-20.06M379.62 85.79a7.57 7.57 0 01-6-2.4 9.32 9.32 0 01-2.14-6.45V48.13h14.94v-9.61h-14.91V20.7h-11.95v55.92q0 9 5.39 14.24a17.89 17.89 0 0013 5.29 20.37 20.37 0 0013.92-5.66L387 82.06c-2.34 2.49-4.8 3.73-7.36 3.73M434.32 80.41a15.83 15.83 0 01-11.95 5.17 17 17 0 01-12.27-5.12q-5.24-5.13-5.23-13.29a19.09 19.09 0 015.13-13.6 16.27 16.27 0 0112.27-5.44 15.6 15.6 0 0112.06 5.44 19.5 19.5 0 014.91 13.55q0 8.11-4.91 13.29M439 48.34q-7.26-10.67-18.46-10.67a27.06 27.06 0 00-19.42 7.9q-8.22 7.89-8.22 21.12t8 21.35a25.59 25.59 0 0018.78 8.11 23.65 23.65 0 0010.62-2.62A22.76 22.76 0 00439 86v9.28h12V38.52h-12zM628.13 80.3a18.55 18.55 0 01-25.72 0q-5.07-5.17-5.07-13.39t5.07-13.39a18.55 18.55 0 0125.72 0q5.07 5.17 5.07 13.39t-5.07 13.39m-12.86-42.63q-12.81 0-21.34 8.48a28.17 28.17 0 00-8.54 20.76 28.13 28.13 0 008.54 20.75q8.54 8.49 21.34 8.49t21.34-8.49a28.13 28.13 0 008.54-20.75 28.17 28.17 0 00-8.54-20.76q-8.54-8.48-21.34-8.48M693 80.35a16.94 16.94 0 01-12.27 5.13 15.86 15.86 0 01-11.95-5.18q-4.91-5.17-4.91-13.29a19.28 19.28 0 014.91-13.49 15.65 15.65 0 0112.06-5.39 16.31 16.31 0 0112.27 5.39 18.86 18.86 0 015.12 13.55q0 8.16-5.23 13.28m9.08-34.78a27 27 0 00-19.53-7.9q-11.43 0-18.46 10.78v-9.93h-12V116h12V86.76q8.54 9.39 19.26 9.39t18.78-8.22q8.05-8.22 8.06-21.34t-8.11-21M557.57 37.67a22 22 0 00-11.16 3 19 19 0 00-7.73 8.21V16.22h-11.95v79.07h11.95V64.56c0-5.26 1.53-9.27 4.59-12A15.61 15.61 0 01554 48.45q13 0 13 15.68v31.16h12V60.5q0-11.08-5.93-17t-15.52-5.87M512.43 59.44q-5.8-5-17.28-7.79t-15-5.18a7.89 7.89 0 01-3.52-6.93 7.5 7.5 0 013.52-6.78 16.59 16.59 0 019-2.24 34.51 34.51 0 0111.15 1.92 25.52 25.52 0 019 4.91l6.72-9.5a37.13 37.13 0 00-12.17-6.61 44.44 44.44 0 00-14.19-2.35q-11.1 0-18.62 5.6t-7.52 16q0 10.35 6.61 15.37a28.11 28.11 0 007.58 4.32 103.69 103.69 0 0012.49 3.63q8.21 2 11.57 4.37a7.82 7.82 0 013.37 6.73 8.18 8.18 0 01-3.58 6.93q-3.57 2.63-9.66 2.62-12.17 0-23.47-9.82l-7.9 9.5a45.37 45.37 0 0031.05 12.06q12 0 19.32-6.09a19.55 19.55 0 007.36-15.84q0-9.77-5.82-14.78"/><path d="M37.6 89c.92-.42 1.86-.8 2.81-1.15s2.15-.78 3.24-1.11c1.36-.41 2.73-.78 4.12-1.08a51.56 51.56 0 015.68-.87c-1.07 3.37-2.26 6.71-3.54 10 .06.65.09 1.29.1 1.94a41.26 41.26 0 0116 0c0-.65 0-1.29.1-1.94q-1.92-5-3.54-10a51.56 51.56 0 015.68.87c1.39.3 2.76.67 4.12 1.08 1.1.33 2.18.71 3.24 1.11s1.89.73 2.82 1.15a50.12 50.12 0 0117.47 12.9 58 58 0 10-75.75 0A50.15 50.15 0 0137.6 89z" fill="#a6dddb"/><path class="cls-3" d="M41.42 99.49A41.53 41.53 0 0150 96.77c0-.65 0-1.29-.1-1.94 1.28-3.33 2.47-6.67 3.54-10a51.56 51.56 0 00-5.68.87c-1.39.3-2.76.67-4.12 1.08-1.09.33-2.17.71-3.24 1.11l4.23 1zM31.45 105.74a32.25 32.25 0 00.17-3.27 1.2 1.2 0 011.2-1.2h1.06L37.6 89a50.15 50.15 0 00-17.48 12.9 57.63 57.63 0 008.75 6.24c.82-.84 1.69-1.64 2.58-2.4zM78.4 89l3.72 12.27h1a1.2 1.2 0 011.2 1.2 32.25 32.25 0 00.17 3.27c.9.76 1.76 1.56 2.59 2.4a58 58 0 008.74-6.24A50.12 50.12 0 0078.4 89zM71.36 88.87l4.22-1c-1.06-.4-2.14-.78-3.24-1.11a53.06 53.06 0 00-4.12-1.08 51.56 51.56 0 00-5.68-.87q1.62 5.05 3.54 10c0 .65-.08 1.29-.1 1.94a41.34 41.34 0 018.59 2.72z"/><path d="M58 101.27h8.17a32.4 32.4 0 01-.19-4.5 41.26 41.26 0 00-16 0 32.4 32.4 0 01-.19 4.5zM28.87 108.14q1 .58 2 1.14a31.79 31.79 0 00.54-3.54 51.7 51.7 0 00-2.54 2.4z"/><path d="M40.88 101.27h8.94a32.4 32.4 0 00.19-4.5 41.53 41.53 0 00-8.59 2.72zM84.54 105.74a34.31 34.31 0 00.54 3.54c.69-.37 1.37-.75 2-1.14-.78-.84-1.64-1.64-2.54-2.4zM75.11 101.27l-.54-1.78A41.34 41.34 0 0066 96.77a32.4 32.4 0 00.19 4.5z"/><path class="cls-4" d="M40.88 101.27l.54-1.78 3.22-10.62-4.23-1c-.95.35-1.89.73-2.81 1.15l-3.72 12.27h7zM74.57 99.49l.54 1.78h7L78.4 89a49 49 0 00-2.82-1.15l-4.22 1z"/><path class="cls-5" d="M34 103.75l.11-.08H34a.22.22 0 000 .08z"/><path class="cls-5" d="M58 103.67H34.11l-.11.08a35 35 0 01-.88 6.65A57.84 57.84 0 0058 116z"/><path class="cls-4" d="M82 103.67h-.11l.11.08zM81.88 103.67H58V116a57.83 57.83 0 0024.87-5.59 35.83 35.83 0 01-.88-6.65z"/><rect x="58" y="102.47" height="1.2" fill="#684e39"/><path d="M84.54 105.74a32.25 32.25 0 01-.17-3.27 1.2 1.2 0 00-1.2-1.2H32.82a1.2 1.2 0 00-1.2 1.2 32.25 32.25 0 01-.17 3.27 31.79 31.79 0 01-.54 3.54c.73.39 1.47.76 2.21 1.12a35 35 0 00.88-6.65.22.22 0 010-.08h48v.08a35.83 35.83 0 00.88 6.65c.75-.36 1.48-.73 2.21-1.12a34.31 34.31 0 01-.55-3.54z" fill="#7d5e44"/><path class="cls-8" d="M77.52 49.18a45.56 45.56 0 012 6.37v.46c0 .16-.08.44-.12.63q.09-.44.18-1a47.68 47.68 0 00-2-6.46zM94.41 62.3l-.1.05zM94.78 62l-.13.12a.74.74 0 00.13-.12zM75.77 47.66a34.64 34.64 0 00-4.2-3.06 34.64 34.64 0 014.2 3.06zM89.22 61.56zM91.68 64.62l.12.15zM79.31 56.74a4.64 4.64 0 01-.12.45 4.64 4.64 0 00.12-.45zM73.63 77.9a15.47 15.47 0 00-1.79 4.19 15.47 15.47 0 011.79-4.19c.29-.49.58-1 .85-1.44-.27.47-.56.94-.85 1.43z"/><path class="cls-8" d="M77.52 49.17l.16-.3-.14.29c.35.31.7.61 1 .93-.32-.31-.67-.61-1.02-.92zM66 56.79zM65.57 55.81zM69.5 43.42l-.18-.1zM69.8 43.59l-.25-.14zM71.7 48.26zM65.81 56.28zM94 67.68l.22.29zM71.69 50.09c0 .61 0 1.21-.06 1.82.03-.61.05-1.21.06-1.82zM66.16 57.31zM71.46 44.53l-1.27-.72zM70.16 43.79l-.36-.2zM71.55 44.59zM96 58.68v-.14a.57.57 0 000-.13.71.71 0 010 .14v.13zM86.49 58.32c.05.06.11.12.16.19l-.18-.18zM78.56 50.1c.77.7 1.52 1.43 2.27 2.16-.74-.73-1.5-1.46-2.27-2.16zM93.66 54.52a1.15 1.15 0 01.41.08 1.15 1.15 0 00-.41-.08zM91.43 57.41v.2c0 .07-.01-.14 0-.2zM94.2 54.64a1.91 1.91 0 01.28.15 1.91 1.91 0 00-.28-.15zM95.09 55.38l.09.13zM95.94 57.69v.08zM95.94 59.39v.09a.07.07 0 010-.09zM92.14 55.51l.09-.13zM93.24 54.6a1.25 1.25 0 01.42-.08 1.25 1.25 0 00-.42.08zM82.94 54.41c-.35-.37-.72-.74-1.08-1.11.36.37.73.7 1.08 1.11zM93.66 41.84v5.39l-2.07 9.46v.07c0 .07 0 0 0 0l2.07-9.46v-5.45zM84.87 56.5zM95.72 56.7a1.42 1.42 0 01.07.22 1.42 1.42 0 00-.07-.22zM91.32 58.5v-.11.11zM92.84 54.79a1.51 1.51 0 01.28-.15 1.51 1.51 0 00-.28.15zM92.42 55.15a1.58 1.58 0 01.3-.28 1.58 1.58 0 00-.3.28zM95.8 60.13c-.06.21-.12.4-.19.59a5.09 5.09 0 00.19-.59zM25.11 56.73l.26-.4zM94.6 54.87a2.56 2.56 0 01.3.28 2.56 2.56 0 00-.3-.28zM26.76 54.32l.12-.18zM66.29 58.48zM22.59 61.35c-.09.21-.19.43-.29.64.1-.21.19-.43.29-.64zM21.33 64.31v.11zM95.09 43.22v-.01.01zM32.78 47.81zM30.51 49.92l.35-.34zM28.47 52.16l.35-.42zM95.72 56.7l-2.06-9.46 2.06 9.46zM59.71 63.86h-.12zM60.26 64h-.13zM23.87 58.85c-.13.24-.26.48-.38.72.12-.24.25-.48.38-.72zM59.17 63.72h-.07zM58.66 63.53zM55.77 60.58zM55.51 57.27v.12zM56.08 55.82zM55.66 56.76v.09zM55.84 56.28s0 .02 0 0zM61.9 53.16zM62.9 53.46zM58.8 53.44zM59.8 53.15zM66.25 57.86zM60.86 40.93zM60.86 40.55zM60.86 40.33zM60.86 41.66zM95.26 61.42a2.61 2.61 0 01-.19.27 2.61 2.61 0 00.19-.27zM55.41 57.81a.51.51 0 010 .13.51.51 0 000-.13zM55.47 59.57zM95.55 60.85c-.06.14-.12.26-.18.38.06-.12.12-.23.18-.38z"/><path class="cls-3" d="M74.6 93c-.17-.2-.35-.41-.54-.66.19.25.37.46.54.66z"/><path class="cls-4" d="M75.94 94.32A11.54 11.54 0 0174.6 93a11.54 11.54 0 001.34 1.32z"/><path class="cls-1" d="M93.66 41.84v.01-.01zM96 58.54z"/><path class="cls-9" d="M96.61 45.09a18.7 18.7 0 00-1.48-1.83c-.23-.25-.46-.49-.7-.71l-.27-.25-.45-.4v5.39l2.06 9.46a1.42 1.42 0 01.07.22l1.43 1.6h1.5v-.41a40.86 40.86 0 00-2.06-12.77c-.05-.14-.07-.22-.1-.3zM96 58.52z"/><path class="cls-10" d="M95.93 57.62a5.07 5.07 0 010 .68.57.57 0 010 .13v.14a4.92 4.92 0 010 .67c0 .23-.08.46-.13.68l1.41-1.59-1.43-1.6.15.89z"/><path d="M95.93 59.44v-.09a4.92 4.92 0 000-.67v-.16a.71.71 0 000-.14 5.07 5.07 0 000-.68v-.08c0-.24-.08-.48-.14-.7a1.42 1.42 0 00-.07-.22 4.21 4.21 0 00-.54-1.19l-.09-.13-.19-.23a2.56 2.56 0 00-.3-.28l-.12-.08a1.91 1.91 0 00-.28-.15h-.13a1.15 1.15 0 00-.41-.08 1.25 1.25 0 00-.42.08h-.12a1.51 1.51 0 00-.28.15l-.12.08a1.58 1.58 0 00-.3.28 2.11 2.11 0 00-.19.23l-.09.13a4.52 4.52 0 00-.55 1.19 6.38 6.38 0 00-.15.66v.2c0 .25 0 .52-.06.78v.11c0 2.21 1 4 2.33 4a1.43 1.43 0 00.64-.15l.1-.05.24-.17.13-.12a2.26 2.26 0 00.29-.32 2.61 2.61 0 00.19-.27l.11-.19c.06-.12.12-.24.18-.38l.06-.14c.07-.19.13-.38.19-.59s.05-.4.09-.63zM93.74 58c-.48 0-.87-.67-.87-1.5s.39-1.5.87-1.5.88.67.88 1.5-.39 1.5-.88 1.5z"/><path class="cls-1" d="M93.74 55c-.48 0-.87.67-.87 1.5s.39 1.5.87 1.5.88-.67.88-1.5-.39-1.5-.88-1.5z"/><path class="cls-11" d="M91.59 56.7a4.52 4.52 0 01.55-1.19l.09-.13a2.11 2.11 0 01.19-.23 1.58 1.58 0 01.3-.28l.12-.08a1.51 1.51 0 01.28-.15h.12a1.25 1.25 0 01.42-.08 1.15 1.15 0 01.41.08h.13a1.91 1.91 0 01.28.15l.12.08a2.56 2.56 0 01.3.28l.19.23.09.13a4.21 4.21 0 01.54 1.19l-2.06-9.46-2.07 9.46z"/><path d="M66.29 58.44a5.46 5.46 0 000-.57 4.51 4.51 0 00-.09-.53 4.91 4.91 0 00-.2-.54c-.06-.17-.12-.34-.19-.5-.07-.16-.15-.31-.23-.47a5.36 5.36 0 00-1-1.25 5.42 5.42 0 00-1.69-1.1 4.62 4.62 0 00-1-.29 6 6 0 00-1.05-.1 5.8 5.8 0 00-1 .1 5.29 5.29 0 00-1 .28 5.76 5.76 0 00-.89.46 5.4 5.4 0 00-.79.62 5.25 5.25 0 00-1 1.26c-.08.14-.16.29-.23.44s-.11.29-.16.43v.09c0 .14-.07.28-.11.42v.12c0 .14 0 .28-.07.42a.51.51 0 010 .13 5.44 5.44 0 000 .57 5.22 5.22 0 00.11 1.06 5.65 5.65 0 00.3 1 5.62 5.62 0 002.39 2.69 4 4 0 00.46.23l.44.16h.07l.42.11h.12l.42.07h.7a5.44 5.44 0 001.98-.2 6.28 6.28 0 00.92-.5 5.63 5.63 0 001.48-1.48 5.19 5.19 0 00.5-.93 5.37 5.37 0 00.43-2.13zm-5.46-.64a2.06 2.06 0 112.05-2.06 2 2 0 01-2.05 2.06z"/><path class="cls-1" d="M60.83 53.69a2.06 2.06 0 102.05 2.05 2 2 0 00-2.05-2.05z"/><path class="cls-9" d="M57.07 54.56L60.86 43v-2.7a32.1 32.1 0 00-6.46-.67c-.74 0-1.47 0-2.19.08h-.32A32.42 32.42 0 0041 42.58a35.06 35.06 0 00-8.17 5.23q-1 .86-1.92 1.77l-.35.34c-.58.59-1.14 1.2-1.69 1.82l-.35.42q-.82 1-1.59 2l-.12.18c-.48.65-.94 1.33-1.39 2l-.26.4q-.52.85-1 1.74h17.08z"/><path class="cls-12" d="M71.54 53.26q.06-.67.09-1.35c0-.61.05-1.21.06-1.82s0-1 0-1.42v-.41c0-1.22-.06-2.44-.13-3.66h-.05l-1.27-.72-.36-.2-.25-.14-.18-.1c-.78-.4-1.59-.78-2.41-1.13a43.26 43.26 0 00-6-1.89V43l3.73 11.53a5.36 5.36 0 011 1.25c.08.16.16.31.23.47.07.16.13.33.19.5a4.91 4.91 0 01.15.51 4.51 4.51 0 01.09.53 5.46 5.46 0 010 .57H71a50.94 50.94 0 00.66-5.07s-.12.02-.12-.03z"/><path class="cls-13" d="M77.52 49.18zM66.33 74.89l3-3 1.61-1.71c3.82-4.14 6.62-8 8.3-13a4.64 4.64 0 00.12-.45.24.24 0 000-.08c0-.19.08-.39.12-.63s0-.31 0-.46a45.56 45.56 0 00-2-6.37l-.43-.38c-.43-.4-.86-.79-1.31-1.16a34.64 34.64 0 00-4.2-3.06c.07 1.22.12 2.44.13 3.66V50.08c0 .48 0 1.21-.06 1.82q0 .68-.09 1.35v.14a50.94 50.94 0 01-.66 5.07L70.33 61c-1.12 4.55-3.39 8.67-5.26 12.92-.5 1.13-1 2.27-1.38 3.43l-.12.33c.58-.61 1.1-1.14 1.49-1.53z"/><path class="cls-11" d="M57.1 54.53a5.4 5.4 0 01.79-.62 5.76 5.76 0 01.89-.46 5.29 5.29 0 011-.28 5.8 5.8 0 011-.1 6 6 0 011.05.1 4.62 4.62 0 011 .29 5.42 5.42 0 011.69 1.1L60.86 43z"/><path class="cls-10" d="M55.77 60.58a5.65 5.65 0 01-.3-1 5.22 5.22 0 01-.11-1.06 5.44 5.44 0 010-.57.51.51 0 000-.13c0-.14 0-.28.07-.42v-.12c0-.14.07-.28.11-.42v-.09c.05-.14.1-.29.16-.43s.15-.3.23-.44a5.25 5.25 0 011-1.26l-15.69 3.83 15.68 3.82a5.58 5.58 0 01-1.12-1.7z"/><path class="cls-12" d="M91.39 57.61v-.2a6.38 6.38 0 01.15-.66v-.07l2.07-9.46v-5.39a8.42 8.42 0 00-5.38-2.16A9.26 9.26 0 0082 42.61a23 23 0 00-4.35 6.26l-.16.3c.35.31.7.61 1 .93.77.7 1.53 1.43 2.27 2.16.35.34.69.69 1 1s.73.74 1.08 1.11.92 1 1.37 1.47c.19.2.38.41.56.62.55.6 1.09 1.2 1.62 1.82l.18.18h4.65v-.11c.12-.22.14-.49.17-.74zM77.52 49.2z"/><path class="cls-3" d="M21.28 64.42v-.11c.3-.78.62-1.55 1-2.32.1-.21.2-.43.29-.64.29-.6.59-1.19.9-1.78.12-.24.25-.48.38-.72l.22-.38q.5-.88 1-1.74l.26-.4c.45-.68.91-1.36 1.39-2l.12-.18q.77-1 1.59-2l.35-.42c.55-.62 1.11-1.23 1.69-1.82l.35-.34q.93-.91 1.92-1.77a20.76 20.76 0 0130.83-12 21.3 21.3 0 017.78 8.47v.06a2.15 2.15 0 01.14.26 34.64 34.64 0 014.2 3.06c.45.37.88.76 1.31 1.16l.43.38.14-.29c1.33-8.39 5-14.44 9.4-14.44 3.29 0 6.21 3.44 8 8.72v.05a18.7 18.7 0 011.48 1.83c0 .08 0 .16.08.23l-.07-.27a40.69 40.69 0 00-79.23 13 40.07 40.07 0 002 12.66q.39-1.8.93-3.57c.47-.88.78-1.79 1.12-2.69z"/><path class="cls-1" d="M97.22 58.52l-1.41 1.59a5.09 5.09 0 01-.19.59l-.06.14c-.06.14-.12.26-.18.38l-.11.19a2.61 2.61 0 01-.19.27 2.26 2.26 0 01-.29.32.74.74 0 01-.13.12l-.24.17-.1.05a1.43 1.43 0 01-.64.15c-1.29 0-2.33-1.79-2.33-4h-4.7c.87 1 1.73 2 2.57 3.05q1.23 1.5 2.43 3l.12.15L94 67.68l.22.29c.79 1 1.57 2.07 2.34 3.1a40.65 40.65 0 002.19-12.57h-1.51z"/><path d="M51.89 39.73h.32c.72-.05 1.45-.08 2.19-.08a32.1 32.1 0 016.46.67 43.26 43.26 0 016 1.89c.82.35 1.63.73 2.41 1.13l.18.1.25.14.36.2 1.27.72h.05a2.15 2.15 0 00-.14-.26v-.06a21.3 21.3 0 00-7.78-8.47 20.76 20.76 0 00-30.83 12A35.06 35.06 0 0141 42.58a32.42 32.42 0 0110.89-2.85z"/><path stroke="#000" stroke-linecap="round" stroke-linejoin="round" stroke-width="0" fill="none" d="M60.86 41.33v.25"/><path d="M82 42.61a9.26 9.26 0 016.25-2.94 8.42 8.42 0 015.38 2.16l.45.4.27.25c.24.22.47.46.7.71v-.05c-1.8-5.28-4.72-8.72-8-8.72-4.36 0-8.07 6.05-9.4 14.44A23 23 0 0182 42.61z"/><path class="cls-1" d="M43.51 96c.37.15.75.28 1.12.41a40.73 40.73 0 0028.63-.66l.74-.31 1.19-.53 1-.5h-.25a17.33 17.33 0 01-4.32 0c-8.37-1.2-10.22-5.24-10-9.44-.6-.35-1.21-.74-1.84-1.19a54.28 54.28 0 01-10.25-9.65A54.24 54.24 0 0062 80.85l.46.18c.35-1.2.76-2.34 1.12-3.35l.12-.33c.41-1.16.88-2.3 1.38-3.43 1.87-4.25 4.14-8.37 5.26-12.92l.54-2.53h-4.59a5.37 5.37 0 01-.43 2.13 5.19 5.19 0 01-.5.93 5.63 5.63 0 01-1.48 1.48 6.28 6.28 0 01-.92.5 5.44 5.44 0 01-2.13.43h-.7l-.42-.07h-.12l-.42-.11h-.07l-.44-.16a4 4 0 01-.46-.23 5.57 5.57 0 01-1.27-1l-15.72-3.9H24.09l-.22.38c-.13.24-.26.48-.38.72-.31.59-.61 1.18-.9 1.78-.1.21-.19.43-.29.64-.35.77-.67 1.54-1 2.32v.11c-.34.9-.65 1.81-.93 2.72q-.54 1.77-.93 3.57A40.82 40.82 0 0034.21 91c.2.15.41.28.61.42a39.39 39.39 0 003.6 2.25A38.68 38.68 0 0043.51 96z"/><path d="M71.59 83.38c-.06.44-.1.86-.12 1.28a11.44 11.44 0 00.14 2.14 10.7 10.7 0 00.29 1.3 12.3 12.3 0 00.65 1.74 12 12 0 00.8 1.47c.09.15.19.29.28.43s.29.41.43.59.37.46.54.66a11.54 11.54 0 001.34 1.33.41.41 0 010 .1h.25a25.73 25.73 0 005.45-1.36c.92-.34 1.83-.69 2.73-1.1l.82-.4c9.32-4.51 17.12-12.48 17.12-12.48a51.08 51.08 0 01-30.72 4.3z" fill="#931143"/><path d="M94 67.68l-2.2-2.91-.12-.15q-1.2-1.53-2.43-3c-.84-1-1.7-2.05-2.57-3.05-.05-.07-.11-.13-.16-.19a70.09 70.09 0 00-1.62-1.82c-.18-.21-.37-.42-.56-.62-.45-.5-.91-1-1.37-1.47s-.72-.74-1.08-1.11-.68-.7-1-1c-.75-.73-1.5-1.46-2.27-2.16-.34-.32-.69-.62-1-.93a47.68 47.68 0 012 6.46c.11.57.2 1.13.27 1.67 1 7.63-1.42 12.61-5.3 19.15-.27.47-.56 1-.85 1.44a15.47 15.47 0 00-1.79 4.19 12.72 12.72 0 00-.25 1.29 51.08 51.08 0 0030.76-4.3s-2.3-3.37-5.75-8c-.77-1-1.55-2.07-2.34-3.1z" fill="#ea035d"/><path d="M75.94 94.32A11.54 11.54 0 0174.6 93c-.17-.2-.35-.41-.54-.66s-.28-.38-.43-.59-.19-.28-.28-.43a12 12 0 01-.8-1.47 12.3 12.3 0 01-.65-1.74 10.7 10.7 0 01-.29-1.3 11.44 11.44 0 01-.14-2.14c0-.42.06-.84.12-1.28a12.72 12.72 0 01.25-1.29 15.47 15.47 0 011.79-4.19c.29-.49.58-1 .85-1.43 3.88-6.54 6.33-11.52 5.3-19.15-.07-.54-.16-1.1-.27-1.67q-.09.59-.18 1a.24.24 0 010 .08 4.64 4.64 0 01-.12.45c-1.68 5-4.48 8.87-8.3 13L69.3 71.9c-.94 1-1.92 2-3 3l-1.27 1.26c-.39.39-.91.92-1.49 1.53-.36 1-.77 2.15-1.12 3.35l-.42-.19a54.24 54.24 0 01-12.38-6.7 54.28 54.28 0 0010.24 9.65c.63.45 1.24.84 1.84 1.19-.26 4.2 1.59 8.24 10 9.44a17.33 17.33 0 004.32 0 .41.41 0 000-.1z"/><path class="cls-1" d="M154.28 144a11.67 11.67 0 01-4.55-4.4 12.84 12.84 0 010-12.56 11.74 11.74 0 014.55-4.4 13.41 13.41 0 016.51-1.6 13.17 13.17 0 016.47 1.59 11.78 11.78 0 014.54 4.4 12.83 12.83 0 010 12.59 11.78 11.78 0 01-4.54 4.4 13.17 13.17 0 01-6.47 1.59 13.31 13.31 0 01-6.51-1.61zm11.68-2a9.42 9.42 0 003.63-3.59 10.68 10.68 0 000-10.25 9.35 9.35 0 00-3.63-3.59 11 11 0 00-10.36 0 9.36 9.36 0 00-3.66 3.59 10.54 10.54 0 000 10.25 9.43 9.43 0 003.66 3.59 11 11 0 0010.36 0zM182.27 122.58a3.58 3.58 0 00-.81 2.55v2.14h5.59v2.07h-5.52v16.08h-2.45v-16.08h-3.25v-2.07h3.25V125a5.34 5.34 0 011.43-3.94 5.44 5.44 0 014.05-1.44 6.68 6.68 0 012 .29 4.57 4.57 0 011.63.84l-.83 1.83a4.09 4.09 0 00-2.69-.89 3.12 3.12 0 00-2.4.89zM194 122.58a3.54 3.54 0 00-.82 2.55v2.14h5.59v2.07h-5.52v16.08h-2.45v-16.08h-3.24v-2.07h3.24V125a5.35 5.35 0 011.44-3.94 5.44 5.44 0 014-1.44 6.68 6.68 0 012 .29 4.52 4.52 0 011.62.84l-.83 1.83a4.08 4.08 0 00-2.69-.89 3.09 3.09 0 00-2.34.89zm10.81.21a1.73 1.73 0 01-.52-1.25 1.65 1.65 0 01.52-1.2 1.73 1.73 0 011.28-.52 1.81 1.81 0 011.28.5 1.6 1.6 0 01.51 1.19 1.81 1.81 0 01-3.07 1.28zm0 4.48h2.45v18.15h-2.45zM216.81 144.42a8.39 8.39 0 01-3.33-3.3 10 10 0 010-9.54 8.45 8.45 0 013.33-3.27 9.69 9.69 0 014.81-1.18 9.32 9.32 0 014.19.92 7 7 0 012.92 2.67L226.9 132a5.71 5.71 0 00-2.28-2 6.74 6.74 0 00-3-.68 7.2 7.2 0 00-3.54.88 6.27 6.27 0 00-2.45 2.5 8.24 8.24 0 000 7.41 6.35 6.35 0 002.45 2.48 7.1 7.1 0 003.54.88 6.86 6.86 0 003-.66 5.54 5.54 0 002.28-2l1.83 1.24a6.9 6.9 0 01-2.93 2.68 9.39 9.39 0 01-4.18.91 9.79 9.79 0 01-4.81-1.22zM233.49 122.79a1.69 1.69 0 01-.52-1.25 1.61 1.61 0 01.52-1.2 1.71 1.71 0 011.28-.52 1.77 1.77 0 011.27.5 1.58 1.58 0 01.52 1.19 1.81 1.81 0 01-3.07 1.28zm0 4.48H236v18.15h-2.45zM254.61 128.91a6.89 6.89 0 011.89 5.26v11.25h-2.34v-2.83a5.57 5.57 0 01-2.43 2.21 8.51 8.51 0 01-3.82.79 7.46 7.46 0 01-4.83-1.45 5 5 0 01-.12-7.55c1.12-1 2.89-1.42 5.33-1.42h5.77v-1.1a4.61 4.61 0 00-1.32-3.57 5.39 5.39 0 00-3.83-1.23 9.72 9.72 0 00-3.31.57 8.16 8.16 0 00-2.72 1.57l-1.11-1.83a10 10 0 013.31-1.81 13.08 13.08 0 014.07-.64 7.73 7.73 0 015.46 1.78zm-2.76 13.8a5.67 5.67 0 002.21-2.74v-3h-5.7c-3.1 0-4.66 1.08-4.66 3.25a3 3 0 001.21 2.5 5.5 5.5 0 003.38.91 6.42 6.42 0 003.56-.92zM263.16 119.82h2.45v25.6h-2.45zM297.15 139h-13.46l-2.89 6.45h-2.66l11-24.15h2.52l11 24.15h-2.69zm-.93-2.07l-5.8-13-5.79 13zM322.62 119.82v25.6h-2.35v-3.59a7.59 7.59 0 01-2.91 2.8 8.63 8.63 0 01-4.09 1 9.23 9.23 0 01-4.63-1.17 8.31 8.31 0 01-3.24-3.28 10.41 10.41 0 010-9.59 8.26 8.26 0 013.24-3.26 9.33 9.33 0 014.63-1.16 8.55 8.55 0 014 .92 7.55 7.55 0 012.92 2.67v-10.9zm-5.71 22.72a6.24 6.24 0 002.41-2.5 8.2 8.2 0 000-7.39 6.24 6.24 0 00-2.41-2.5 7.2 7.2 0 00-6.9 0 6.27 6.27 0 00-2.42 2.5 8.2 8.2 0 000 7.39 6.27 6.27 0 002.42 2.5 7.2 7.2 0 006.9 0zM346 119.82v25.6h-2.34v-3.59a7.54 7.54 0 01-2.92 2.8 8.6 8.6 0 01-4.09 1 9.22 9.22 0 01-4.62-1.17 8.4 8.4 0 01-3.25-3.28 10.41 10.41 0 010-9.59 8.35 8.35 0 013.25-3.26 9.32 9.32 0 014.62-1.16 8.62 8.62 0 014 .92 7.59 7.59 0 012.91 2.67v-10.9zm-5.71 22.72a6.33 6.33 0 002.42-2.5 8.2 8.2 0 000-7.39 6.33 6.33 0 00-2.42-2.5 6.84 6.84 0 00-3.43-.88 6.91 6.91 0 00-3.47.88 6.33 6.33 0 00-2.42 2.5 8.2 8.2 0 000 7.39 6.33 6.33 0 002.42 2.5 6.81 6.81 0 003.47.88 6.74 6.74 0 003.44-.88zM355.54 144.4a8.67 8.67 0 01-3.32-3.29 10.06 10.06 0 010-9.53 8.55 8.55 0 013.32-3.27 10.05 10.05 0 019.45 0 8.5 8.5 0 013.3 3.27 10.14 10.14 0 010 9.53 8.62 8.62 0 01-3.3 3.29 10 10 0 01-9.45 0zm8.19-1.86a6.22 6.22 0 002.4-2.5 8.37 8.37 0 000-7.39 6.22 6.22 0 00-2.4-2.5 7.26 7.26 0 00-6.93 0 6.27 6.27 0 00-2.42 2.5 8.2 8.2 0 000 7.39 6.27 6.27 0 002.42 2.5 7.26 7.26 0 006.93 0zM389.16 129.12a7.73 7.73 0 012 5.78v10.52h-2.45v-10.28a6 6 0 00-1.42-4.31 5.29 5.29 0 00-4-1.49 6.2 6.2 0 00-4.64 1.74 6.6 6.6 0 00-1.71 4.82v9.52h-2.45v-18.15h2.35v3.35a6.74 6.74 0 012.77-2.57 8.91 8.91 0 014.13-.92 7.4 7.4 0 015.42 1.99zM398.48 145a9.23 9.23 0 01-3.16-1.61l1.1-1.93a9.09 9.09 0 002.87 1.46 11.34 11.34 0 003.59.57 6.82 6.82 0 003.67-.77 2.48 2.48 0 001.19-2.19 2 2 0 00-.65-1.57 4.44 4.44 0 00-1.66-.87 26.4 26.4 0 00-2.66-.57 29.09 29.09 0 01-3.55-.84 5.3 5.3 0 01-2.3-1.47 4.08 4.08 0 01-.94-2.86 4.5 4.5 0 011.89-3.73 8.58 8.58 0 015.28-1.45 13.68 13.68 0 013.52.47 9.77 9.77 0 012.9 1.22l-1.07 2a9.19 9.19 0 00-5.35-1.55 6.12 6.12 0 00-3.53.83 2.51 2.51 0 00-1.19 2.17 2.16 2.16 0 00.67 1.66 4.09 4.09 0 001.67.91 24.64 24.64 0 002.76.6 34.67 34.67 0 013.49.83 5.15 5.15 0 012.24 1.42 3.87 3.87 0 01.93 2.76 4.41 4.41 0 01-2 3.78 9.48 9.48 0 01-5.51 1.39 14 14 0 01-4.2-.66zM449.35 121.27v24.15h-2.45V126.1l-9.48 16.25h-1.21l-9.49-16.15v19.22h-2.45v-24.15h2.1l10.49 17.91 10.39-17.91zM468.5 128.91a6.86 6.86 0 011.9 5.26v11.25h-2.34v-2.83a5.65 5.65 0 01-2.44 2.21 8.5 8.5 0 01-3.81.79 7.46 7.46 0 01-4.83-1.45 5 5 0 01-.12-7.55q1.67-1.43 5.33-1.42H468v-1.1a4.61 4.61 0 00-1.31-3.57 5.39 5.39 0 00-3.83-1.23 9.72 9.72 0 00-3.31.57 8.31 8.31 0 00-2.73 1.57l-1.1-1.83a9.87 9.87 0 013.31-1.81 13.08 13.08 0 014.07-.64 7.69 7.69 0 015.4 1.78zm-2.76 13.8A5.61 5.61 0 00468 140v-3h-5.69q-4.67 0-4.66 3.25a3 3 0 001.21 2.5 5.48 5.48 0 003.38.91 6.38 6.38 0 003.5-.95zM482 128.06a8.76 8.76 0 014.23-.93v2.38h-.59a5.81 5.81 0 00-4.49 1.76 7 7 0 00-1.62 4.93v9.25h-2.45v-18.18h2.35v3.56a6 6 0 012.57-2.77zM497.35 136.31l-4.28 3.94v5.17h-2.45v-25.6h2.45v17.35l10.84-9.9h3l-7.76 7.42 8.49 10.73h-3zM526.44 137.1h-15.18a6.46 6.46 0 002.17 4.58 7.23 7.23 0 005 1.74 7.86 7.86 0 003.1-.6A6.85 6.85 0 00524 141l1.38 1.59a7.7 7.7 0 01-3 2.2 10.85 10.85 0 01-8.93-.43 8.6 8.6 0 01-3.37-3.29 9.43 9.43 0 01-1.2-4.76 9.76 9.76 0 011.15-4.77 8.34 8.34 0 013.18-3.27 9.27 9.27 0 019.05 0 8.28 8.28 0 013.14 3.26 9.79 9.79 0 011.14 4.78zm-13.17-6.19a6.59 6.59 0 00-2 4.37h12.87a6.65 6.65 0 00-2-4.37 6.68 6.68 0 00-8.84 0zM541 144.32a4.72 4.72 0 01-1.71 1 7.07 7.07 0 01-2.12.32 4.81 4.81 0 01-5.31-5.28v-11h-3.24v-2.07h3.24v-4h2.45v4h5.52v2.07h-5.52v10.84a3.41 3.41 0 00.81 2.46 3.06 3.06 0 002.33.85 4.62 4.62 0 001.47-.24 3.56 3.56 0 001.22-.69zM559.46 128.29a8.26 8.26 0 013.24 3.26 9.7 9.7 0 011.18 4.8 9.82 9.82 0 01-1.18 4.83 8.34 8.34 0 01-3.22 3.26 9.32 9.32 0 01-4.65 1.15 8.55 8.55 0 01-4-.91 7.5 7.5 0 01-2.92-2.68v10.11h-2.45v-24.84h2.35v3.59a7.51 7.51 0 012.92-2.76 8.57 8.57 0 014.08-1 9.33 9.33 0 014.65 1.19zm-1.35 14.25a6.25 6.25 0 002.44-2.5 8.16 8.16 0 000-7.37 6.38 6.38 0 00-2.44-2.5 7.1 7.1 0 00-6.92 0 6.44 6.44 0 00-2.41 2.5 8.16 8.16 0 000 7.37 6.31 6.31 0 002.41 2.5 7.24 7.24 0 006.92 0zM568.88 119.82h2.45v25.6h-2.45zM590 128.91a6.86 6.86 0 011.9 5.26v11.25h-2.35v-2.83a5.57 5.57 0 01-2.43 2.21 8.5 8.5 0 01-3.81.79 7.42 7.42 0 01-4.83-1.45 5 5 0 01-.12-7.55q1.66-1.43 5.33-1.42h5.76v-1.1a4.64 4.64 0 00-1.31-3.57 5.41 5.41 0 00-3.83-1.23 9.68 9.68 0 00-3.31.57 8.31 8.31 0 00-2.73 1.57l-1.1-1.83a9.87 9.87 0 013.31-1.81 13 13 0 014.07-.64 7.69 7.69 0 015.45 1.78zm-2.76 13.8a5.61 5.61 0 002.21-2.74v-3h-5.69q-4.66 0-4.66 3.25a3 3 0 001.21 2.5 5.48 5.48 0 003.38.91 6.38 6.38 0 003.51-.92zM601.3 144.42a8.39 8.39 0 01-3.33-3.3 10 10 0 010-9.54 8.45 8.45 0 013.33-3.27 9.69 9.69 0 014.81-1.18 9.32 9.32 0 014.19.92 7 7 0 012.92 2.67l-1.83 1.28a5.71 5.71 0 00-2.28-2 6.74 6.74 0 00-3-.68 7.2 7.2 0 00-3.54.88 6.27 6.27 0 00-2.45 2.5 8.24 8.24 0 000 7.41 6.35 6.35 0 002.45 2.48 7.1 7.1 0 003.54.88 6.86 6.86 0 003-.66 5.54 5.54 0 002.28-2l1.83 1.24a6.9 6.9 0 01-2.93 2.68 9.39 9.39 0 01-4.18.91 9.79 9.79 0 01-4.81-1.22zM633.51 137.1h-15.19a6.51 6.51 0 002.18 4.58 7.23 7.23 0 005 1.74 7.86 7.86 0 003.1-.6A6.85 6.85 0 00631 141l1.38 1.59a7.7 7.7 0 01-3 2.2 10.08 10.08 0 01-4 .76 10 10 0 01-4.95-1.19 8.6 8.6 0 01-3.37-3.29 9.44 9.44 0 01-1.21-4.76 9.76 9.76 0 011.16-4.77 8.34 8.34 0 013.18-3.27 9.27 9.27 0 019 0 8.28 8.28 0 013.14 3.26 9.79 9.79 0 011.14 4.78zm-13.17-6.19a6.65 6.65 0 00-2 4.37h12.87a6.59 6.59 0 00-2-4.37 6.26 6.26 0 00-4.44-1.67 6.2 6.2 0 00-4.43 1.67z"/></g></g></svg>