<?xml version="1.0" encoding="UTF-8"?>
<svg width="52px" height="52px" viewBox="0 0 52 52" version="1.1" xmlns="http://www.w3.org/2000/svg" xmlns:xlink="http://www.w3.org/1999/xlink">
    <!-- Generator: Sketch 63.1 (92452) - https://sketch.com -->
    <title>card-and-mobile</title>
    <desc>Created with Sketch.</desc>
    <defs>
        <polygon id="path-1" points="0 51.9992705 51.9992705 51.9992705 51.9992705 0 0 0"></polygon>
    </defs>
    <g id="card-and-mobile" stroke="none" stroke-width="1" fill="none" fill-rule="evenodd">
        <g>
            <path d="M8.14521643,7.802501 C6.52263928,7.802501 5.20252705,9.12256112 5.20252705,10.7451904 L5.20252705,43.8540802 C5.20252705,45.4766573 6.52263928,46.7967174 8.14521643,46.7967174 L23.0543667,46.7967174 C24.6769439,46.7967174 25.997004,45.4766573 25.997004,43.8540802 L25.997004,10.7451904 C25.997004,9.12256112 24.6769439,7.802501 23.0543667,7.802501 L8.14521643,7.802501 Z M23.0543667,49.4019279 L8.14521643,49.4019279 C5.08612625,49.4019279 2.59731663,46.9131703 2.59731663,43.8540802 L2.59731663,10.7451904 C2.59731663,7.6860481 5.08612625,5.19729058 8.14521643,5.19729058 L23.0543667,5.19729058 C26.1134569,5.19729058 28.6022144,7.6860481 28.6022144,10.7451904 L28.6022144,43.8540802 C28.6022144,46.9131703 26.1134569,49.4019279 23.0543667,49.4019279 L23.0543667,49.4019279 Z" id="Fill-1" fill="#AAAAAA"></path>
            <path d="M28.6022248,41.5967904 L45.4503291,41.5967904 C46.1927619,41.5967904 46.7967539,40.9927984 46.7967539,40.2504176 L46.7967539,27.3486341 C46.7967539,26.6062533 46.1927619,26.0022613 45.4503291,26.0022613 L28.6022248,26.0022613 L28.6022248,41.5967904 Z M45.4503291,44.2020008 L25.9970144,44.2020008 L25.9970144,23.3970509 L45.4503291,23.3970509 C47.6292749,23.3970509 49.4019643,25.1697403 49.4019643,27.3486341 L49.4019643,40.2504176 C49.4019643,42.4293114 47.6292749,44.2020008 45.4503291,44.2020008 L45.4503291,44.2020008 Z" id="Fill-3" fill="#AAAAAA"></path>
            <path d="M42.2903912,35.3370585 C43.2832369,35.3370585 44.0880906,36.1419122 44.0880906,37.1347579 C44.0880906,38.1276557 43.2832369,38.9325094 42.2903912,38.9325094 C41.2975455,38.9325094 40.4926918,38.1276557 40.4926918,37.1347579 C40.4926918,36.1419122 41.2975455,35.3370585 42.2903912,35.3370585" id="Fill-5" fill="#00933C"></path>
            <path d="M36.8972253,35.3370585 C37.8900709,35.3370585 38.6949246,36.1419122 38.6949246,37.1347579 C38.6949246,38.1276557 37.8900709,38.9325094 36.8972253,38.9325094 C35.9043796,38.9325094 35.0995259,38.1276557 35.0995259,37.1347579 C35.0995259,36.1419122 35.9043796,35.3370585 36.8972253,35.3370585" id="Fill-7" fill="#00933C"></path>
            <mask id="mask-2" fill="white">
                <use xlink:href="#path-1"></use>
            </mask>
            <g id="Clip-10"></g>
            <polygon id="Fill-9" fill="#AAAAAA" mask="url(#mask-2)" points="27.2996353 31.2021884 48.0993747 31.2021884 48.0993747 28.596978 27.2996353 28.596978"></polygon>
            <polygon id="Fill-11" fill="#AAAAAA" mask="url(#mask-2)" points="3.97456112 13.0024489 27.2996353 13.0024489 27.2996353 10.3972385 3.97456112 10.3972385"></polygon>
            <polygon id="Fill-12" fill="#AAAAAA" mask="url(#mask-2)" points="3.97456112 44.20198 27.2996353 44.20198 27.2996353 41.5967695 3.97456112 41.5967695"></polygon>
            <path d="M14.5291283,21.3984429 L14.5291283,25.9473487 C13.8603707,25.7150681 13.3650681,25.4358417 13.0542144,25.1152966 C12.6845351,24.7341022 12.5047756,24.2542745 12.5047756,23.6483547 C12.5047756,22.9044629 12.7704028,22.3588277 13.3395892,21.9318337 C13.6807154,21.6786072 14.0798337,21.4997856 14.5291283,21.3984429 M19.0262946,31.4960822 C19.0262946,32.2802505 18.7273727,32.8596493 18.082479,33.3218136 C17.7001904,33.6042705 17.2562104,33.8076333 16.7593447,33.9282545 L16.7593447,29.0045631 C17.5683667,29.2516413 18.1327595,29.5161743 18.440487,29.7934208 C18.8291844,30.1384028 19.0262946,30.7112886 19.0262946,31.4960822 M20.1091764,28.1389559 C19.3952966,27.54502 18.2981383,27.0347114 16.7593447,26.5814048 L16.7593447,21.4064669 C17.1631523,21.4865511 17.5031844,21.6258257 17.7714689,21.8209559 C18.2663026,22.1902184 18.5252605,22.7351242 18.5630882,23.4866754 C18.5662144,23.8830842 18.6951723,24.2102465 18.9455331,24.4582104 C19.1813046,24.6940341 19.4764749,24.8186673 19.7992605,24.8186673 C20.1426794,24.8186673 20.4415491,24.6902305 20.6638257,24.4472685 C20.9104349,24.1952405 21.0354329,23.8671403 21.0354329,23.471982 C21.0354329,22.1689078 20.580511,21.0958737 19.6810361,20.2807034 C18.9201062,19.6065792 17.9382024,19.196519 16.7593447,19.0600581 L16.7593447,18.3799419 C16.7593447,17.7092565 16.3172926,17.2759058 15.6331643,17.2759058 C14.962479,17.2759058 14.5291283,17.7092565 14.5291283,18.3799419 L14.5291283,19.0547956 C13.3476132,19.1808878 12.3449719,19.5912605 11.545016,20.2773166 C10.5266914,21.1626713 10.0103908,22.3487194 10.0103908,23.8025832 C10.0103908,25.0697054 10.475994,26.108507 11.3935491,26.8896012 C12.1051363,27.4998457 13.1593086,27.9929078 14.5291283,28.3565431 L14.5291283,33.9448236 C13.8763667,33.8174289 13.3523026,33.5932244 12.970014,33.2779419 C12.3321543,32.738976 12.028491,31.9406874 12.0416212,30.8344108 C12.0416212,30.4402946 11.9241784,30.1198537 11.6926273,29.8817896 C11.4704549,29.6384629 11.1789319,29.5098176 10.8491643,29.5098176 C10.5193447,29.5098176 10.2277695,29.6384629 10.0055972,29.8818938 C9.7740982,30.12001 9.65670741,30.440503 9.65670741,30.8344108 C9.65670741,32.7828998 10.25601,34.2432244 11.4379419,35.1746914 L11.4428918,35.1785471 C12.191994,35.7404389 13.2291804,36.1134008 14.5281904,36.2883146 L14.5281904,37.4049078 C14.5298577,38.0882024 14.9635731,38.5297335 15.6331643,38.5297335 C16.3172926,38.5297335 16.7593447,38.0876814 16.7593447,37.4035531 L16.7593447,36.3120741 C17.9893166,36.1365351 19.0507315,35.6739539 19.9179018,34.9345952 C20.9961463,34.0055772 21.5428236,32.8041062 21.5428236,31.363477 C21.5428236,30.0060581 21.0600782,28.9208317 20.1091764,28.1389559" id="Fill-13" fill="#00953C" mask="url(#mask-2)"></path>
            <polygon id="Fill-14" fill-opacity="0" fill="#FFFFFF" mask="url(#mask-2)" points="0 51.9992705 51.9992705 51.9992705 51.9992705 0 0 0"></polygon>
        </g>
    </g>
</svg>