<?xml version="1.0" encoding="UTF-8"?>
<svg width="52px" height="53px" viewBox="0 0 52 53" version="1.1" xmlns="http://www.w3.org/2000/svg" xmlns:xlink="http://www.w3.org/1999/xlink">
    <!-- Generator: Sketch 63.1 (92452) - https://sketch.com -->
    <title>data</title>
    <desc>Created with Sketch.</desc>
    <defs>
        <polygon id="path-1" points="0 51.8962076 51.9992713 51.8962076 51.9992713 0.0500279441 0 0.0500279441"></polygon>
    </defs>
    <g id="data" stroke="none" stroke-width="1" fill="none" fill-rule="evenodd" transform="translate(0.000000, 1.000000)">
        <g>
            <polygon id="Fill-1" fill="#00953C" points="24.7093694 43.6643273 27.311972 43.6643273 27.311972 31.9075529 24.7093694 31.9075529"></polygon>
            <g id="Group-24" transform="translate(0.000000, 0.001868)">
                <path d="M9.09805325,43.5925082 L6.49545065,43.5925082 L6.49545065,37.6509114 C6.49545065,36.9343804 7.07806927,36.3535062 7.79675195,36.3535062 L11.1801353,36.3535062 L11.1801353,38.9483166 L9.09805325,38.9483166 L9.09805325,43.5925082 Z" id="Fill-2" fill="#00953C"></path>
                <mask id="mask-2" fill="white">
                    <use xlink:href="#path-1"></use>
                </mask>
                <g id="Clip-5"></g>
                <path d="M17.0984745,38.9483114 L23.0167928,38.9483114 L23.0167928,36.353501 L17.0984745,36.353501 L17.0984745,38.9483114 Z M28.9351111,38.9483114 L34.8534294,38.9483114 L34.8534294,36.353501 L28.9351111,36.353501 L28.9351111,38.9483114 Z" id="Fill-4" fill="#00953C" mask="url(#mask-2)"></path>
                <path d="M45.4564324,43.9318108 L42.8538298,43.9318108 L42.8538298,38.9483218 L40.7717477,38.9483218 L40.7717477,36.3535114 L44.1551311,36.3535114 C44.8738138,36.3535114 45.4564324,36.9343856 45.4564324,37.6509166 L45.4564324,43.9318108 Z" id="Fill-6" fill="#00953C" mask="url(#mask-2)"></path>
                <path d="M27.3119459,26.3962172 L27.3119459,30.0335186 L41.8502402,24.5980136 L41.8502402,20.9606603 L27.3119459,26.3962172 Z M26.0107487,33.2030794 C25.7493433,33.2030794 25.4902282,33.1245605 25.2694234,32.9720375 C24.9186446,32.7296822 24.7093433,32.3311713 24.7093433,31.9056743 L24.7093433,25.4971154 C24.7093433,24.956305 25.0458078,24.4722172 25.5537317,24.2823289 L42.6946286,17.8736663 C43.0942843,17.7242052 43.541984,17.7797341 43.8927628,18.0221413 C44.2435415,18.2644966 44.4528428,18.6629557 44.4528428,19.0885046 L44.4528428,25.4971154 C44.4528428,26.0379257 44.1163784,26.5220136 43.6084545,26.7119018 L26.4675576,33.1204607 C26.3194695,33.1758858 26.1646667,33.2030794 26.0107487,33.2030794 L26.0107487,33.2030794 Z" id="Fill-7" fill="#AEADAD" mask="url(#mask-2)"></path>
                <polygon id="Fill-8" fill="#AEADAD" mask="url(#mask-2)" points="42.7633998 20.3268415 34.4464709 17.7355601 35.2227752 15.2588655 43.5397041 17.850095"></polygon>
                <polygon id="Fill-9" fill="#AEADAD" mask="url(#mask-2)" points="7.07536777 20.3385493 6.37880721 17.8383976 16.6131776 15.0040343 17.3097381 17.504186"></polygon>
                <polygon id="Fill-10" fill="#AEADAD" mask="url(#mask-2)" points="41.2084228 22.3516032 40.0979443 22.7643337 40.0979443 24.1991601 41.2296601 23.7783856"></polygon>
                <polygon id="Fill-11" fill="#AEADAD" mask="url(#mask-2)" points="41.2084228 10.0127764 40.0979443 10.4255589 40.0979443 11.8603333 41.2296601 11.4395589"></polygon>
                <polygon id="Fill-12" fill="#AEADAD" mask="url(#mask-2)" points="36.7024901 24.0223705 35.5919596 24.435101 35.5919596 25.8699273 36.7237273 25.4491529"></polygon>
                <polygon id="Fill-13" fill="#AEADAD" mask="url(#mask-2)" points="38.9449185 23.202317 37.834388 23.6150475 37.834388 25.049822 38.9661558 24.6290475"></polygon>
                <path d="M8.02838879,24.562008 L24.7093538,30.1056128 L24.7093538,26.4321916 L8.02838879,20.8885349 L8.02838879,24.562008 Z M26.010551,33.2030898 C25.8724048,33.2030898 25.7335299,33.1811896 25.5991315,33.136507 L6.31556396,26.7278962 C5.78421662,26.5513453 5.42578619,26.0555289 5.42578619,25.4971257 L5.42578619,19.0884631 C5.42578619,18.6714251 5.62686326,18.2798164 5.96619059,18.0359561 C6.30551792,17.7921477 6.74176617,17.7257725 7.13861101,17.8576926 L26.4221786,24.2663034 C26.9535259,24.4428543 27.3119564,24.9386707 27.3119564,25.4971257 L27.3119564,31.9056846 C27.3119564,32.3227226 27.1108793,32.7143313 26.7714999,32.9581916 C26.5471035,33.119485 26.2802847,33.2030898 26.010551,33.2030898 L26.010551,33.2030898 Z" id="Fill-14" fill="#AEADAD" mask="url(#mask-2)"></path>
                <path d="M27.3119459,14.092 L27.3119459,17.7293533 L41.8502402,12.2937964 L41.8502402,8.65644311 L27.3119459,14.092 Z M26.0107487,20.8989142 C25.7493433,20.8989142 25.4902282,20.8203952 25.2694234,20.6678723 C24.9186446,20.425517 24.7093433,20.027006 24.7093433,19.601509 L24.7093433,13.1928982 C24.7093433,12.6520878 25.0458078,12.168 25.5537317,11.9781118 L42.6946286,5.5694491 C43.0942843,5.41998802 43.541984,5.47551697 43.8927628,5.71792415 C44.2435415,5.96027944 44.4528428,6.35873852 44.4528428,6.78428743 L44.4528428,13.1928982 C44.4528428,13.7337086 44.1163784,14.2177964 43.6085065,14.4076846 L26.4675576,20.8162954 C26.3194695,20.8717206 26.1647187,20.8989142 26.0107487,20.8989142 L26.0107487,20.8989142 Z" id="Fill-15" fill="#AEADAD" mask="url(#mask-2)"></path>
                <path d="M7.07536777,8.03433214 L6.37880721,5.53418044 L25.6623748,0.193697405 C25.9038442,0.126803194 26.1595239,0.130902994 26.3988072,0.205425948 L43.5397041,5.54590898 L42.7633998,8.02260359 L25.9889493,2.79629222 L7.07536777,8.03433214 Z" id="Fill-16" fill="#AEADAD" mask="url(#mask-2)"></path>
                <polygon id="Fill-17" fill="#AEADAD" mask="url(#mask-2)" points="36.7024901 11.7182052 35.5919596 12.1309357 35.5919596 13.5657102 36.7237273 13.1449357"></polygon>
                <polygon id="Fill-18" fill="#AEADAD" mask="url(#mask-2)" points="38.9449185 10.8980998 37.834388 11.3108303 37.834388 12.7456567 38.9661558 12.3248822"></polygon>
                <path d="M8.02838879,12.2577908 L24.7093538,17.8014475 L24.7093538,14.1279745 L8.02838879,8.58431776 L8.02838879,12.2577908 Z M26.010551,20.8989246 C25.8724048,20.8989246 25.7335299,20.8770244 25.5991315,20.8323417 L6.31556396,14.423679 C5.78421662,14.2471281 5.42578619,13.7513118 5.42578619,13.1929086 L5.42578619,6.78424591 C5.42578619,6.36720798 5.62686326,5.9755992 5.96619059,5.73173892 C6.30551792,5.48793054 6.74176617,5.42155529 7.13861101,5.55347545 L26.4221786,11.9620862 C26.9535259,12.1386371 27.3119564,12.6344535 27.3119564,13.1929086 L27.3119564,19.6015194 C27.3119564,20.0185573 27.1108793,20.4101661 26.7714999,20.6540263 C26.5471035,20.8152679 26.2802847,20.8989246 26.010551,20.8989246 L26.010551,20.8989246 Z" id="Fill-19" fill="#AEADAD" mask="url(#mask-2)"></path>
                <path d="M7.79675195,44.1274854 C6.3659972,44.1274854 5.20200921,45.2879884 5.20200921,46.7144595 C5.20200921,48.1408786 6.3659972,49.3013816 7.79675195,49.3013816 C9.22750671,49.3013816 10.3914947,48.1408786 10.3914947,46.7144595 C10.3914947,45.2879884 9.22750671,44.1274854 7.79675195,44.1274854 M7.79675195,51.896192 C4.93092212,51.896192 2.59940661,49.5716571 2.59940661,46.7144595 C2.59940661,43.85721 4.93092212,41.532675 7.79675195,41.532675 C10.6625818,41.532675 12.9940973,43.85721 12.9940973,46.7144595 C12.9940973,49.5716571 10.6625818,51.896192 7.79675195,51.896192" id="Fill-20" fill="#00953C" mask="url(#mask-2)"></path>
                <path d="M26.0106498,44.1274854 C24.5798951,44.1274854 23.4159071,45.2879884 23.4159071,46.7144595 C23.4159071,48.1408786 24.5798951,49.3013816 26.0106498,49.3013816 C27.4414046,49.3013816 28.6053926,48.1408786 28.6053926,46.7144595 C28.6053926,45.2879884 27.4414046,44.1274854 26.0106498,44.1274854 M26.0106498,51.896192 C23.14482,51.896192 20.8133045,49.5716571 20.8133045,46.7144595 C20.8133045,43.85721 23.14482,41.532675 26.0106498,41.532675 C28.8764797,41.532675 31.2079952,43.85721 31.2079952,46.7144595 C31.2079952,49.5716571 28.8764797,51.896192 26.0106498,51.896192" id="Fill-21" fill="#00953C" mask="url(#mask-2)"></path>
                <path d="M44.1551572,44.1274854 C42.7244024,44.1274854 41.5604144,45.2879884 41.5604144,46.7144595 C41.5604144,48.1408786 42.7244024,49.3013816 44.1551572,49.3013816 C45.5859119,49.3013816 46.7498999,48.1408786 46.7498999,46.7144595 C46.7498999,45.2879884 45.5859119,44.1274854 44.1551572,44.1274854 M44.1551572,51.896192 C41.2893273,51.896192 38.9578118,49.5716571 38.9578118,46.7144595 C38.9578118,43.85721 41.2893273,41.532675 44.1551572,41.532675 C47.020987,41.532675 49.3525025,43.85721 49.3525025,46.7144595 C49.3525025,49.5716571 47.020987,51.896192 44.1551572,51.896192" id="Fill-22" fill="#00953C" mask="url(#mask-2)"></path>
                <polygon id="Fill-23" fill="#FFFFFF" opacity="0" mask="url(#mask-2)" points="0 51.8936128 51.9992713 51.8936128 51.9992713 0.0500279441 0 0.0500279441"></polygon>
            </g>
        </g>
    </g>
</svg>