<?xml version="1.0" encoding="UTF-8"?>
<svg width="52px" height="52px" viewBox="0 0 52 52" version="1.1" xmlns="http://www.w3.org/2000/svg" xmlns:xlink="http://www.w3.org/1999/xlink">
    <!-- Generator: Sketch 63.1 (92452) - https://sketch.com -->
    <title>developing-tech</title>
    <desc>Created with Sketch.</desc>
    <defs>
        <polygon id="path-1" points="0 51.3066667 51.947272 51.3066667 51.947272 0.000719012346 0 0.000719012346"></polygon>
    </defs>
    <g id="developing-tech" stroke="none" stroke-width="1" fill="none" fill-rule="evenodd">
        <g>
            <polygon id="Fill-1" fill="#00953C" points="25.51952 34.6890588 27.59952 34.6890588 27.59952 14.9520158 25.51952 14.9520158"></polygon>
            <g id="Group-19" transform="translate(0.000000, 0.050639)">
                <path d="M24.79893,34.7739484 L22.71893,34.7739484 L22.71893,25.7740196 L19.883734,25.7740196 L19.883734,23.7196986 L23.75893,23.7196986 C24.333322,23.7196986 24.79893,24.1795583 24.79893,24.7468591 L24.79893,34.7739484 Z" id="Fill-2" fill="#00953C"></path>
                <path d="M30.461522,34.7739484 L28.381522,34.7739484 L28.381522,18.7269796 C28.381522,18.1596788 28.84713,17.6998191 29.421522,17.6998191 L33.296718,17.6998191 L33.296718,19.75414 L30.461522,19.75414 L30.461522,34.7739484 Z" id="Fill-4" fill="#00953C"></path>
                <path d="M26.5594368,11.6029539 C26.0195728,11.6029539 25.5803808,12.0367238 25.5803808,12.5699228 C25.5803808,13.1031218 26.0195728,13.5368917 26.5594368,13.5368917 C27.0993008,13.5368917 27.5384928,13.1031218 27.5384928,12.5699228 C27.5384928,12.0367238 27.0993008,11.6029539 26.5594368,11.6029539 M26.5594368,15.5912126 C24.8726608,15.5912126 23.5003808,14.2358744 23.5003808,12.5699228 C23.5003808,10.9040225 24.8726608,9.54863289 26.5594368,9.54863289 C28.2462128,9.54863289 29.6184928,10.9040225 29.6184928,12.5699228 C29.6184928,14.2358744 28.2462128,15.5912126 26.5594368,15.5912126" id="Fill-6" fill="#00953C"></path>
                <path d="M18.0289876,23.5007644 C17.4891236,23.5007644 17.0499316,23.9345343 17.0499316,24.4677333 C17.0499316,25.000881 17.4891236,25.4346509 18.0289876,25.4346509 C18.5688516,25.4346509 19.0080436,25.000881 19.0080436,24.4677333 C19.0080436,23.9345343 18.5688516,23.5007644 18.0289876,23.5007644 M18.0289876,27.4889719 C16.3422116,27.4889719 14.9699316,26.1336849 14.9699316,24.4677333 C14.9699316,22.8018331 16.3422116,21.4464435 18.0289876,21.4464435 C19.7157636,21.4464435 21.0880436,22.8018331 21.0880436,24.4677333 C21.0880436,26.1336849 19.7157636,27.4889719 18.0289876,27.4889719" id="Fill-8" fill="#00953C"></path>
                <path d="M34.9933272,17.6960032 C34.4534632,17.6960032 34.0142712,18.129773 34.0142712,18.662972 C34.0142712,19.1961197 34.4534632,19.6298896 34.9933272,19.6298896 C35.5331912,19.6298896 35.9723832,19.1961197 35.9723832,18.662972 C35.9723832,18.129773 35.5331912,17.6960032 34.9933272,17.6960032 M34.9933272,21.6842106 C33.3065512,21.6842106 31.9342712,20.3289237 31.9342712,18.662972 C31.9342712,16.9970718 33.3065512,15.6416822 34.9933272,15.6416822 C36.6801032,15.6416822 38.0523832,16.9970718 38.0523832,18.662972 C38.0523832,20.3289237 36.6801032,21.6842106 34.9933272,21.6842106" id="Fill-10" fill="#00953C"></path>
                <path d="M18.6624308,34.5513628 L33.4735908,34.5513628 L33.4742668,31.1265529 L34.0919748,30.7505094 C36.2795628,29.4186418 38.1088708,27.5502368 39.3821428,25.3472344 C40.6939988,23.0774665 41.3874188,20.487584 41.3874188,17.8576936 C41.3874188,13.816228 39.7938788,10.0166586 36.9004428,7.158944 C34.0069548,4.30117807 30.1598908,2.72736277 26.0679068,2.72736277 C21.9758708,2.72736277 18.1288068,4.30117807 15.2353708,7.158944 C12.3418828,10.0166586 10.7483948,13.816228 10.7483948,17.8576936 C10.7483948,20.4960581 11.4424908,23.1021183 12.7555948,25.3941756 C14.0344308,27.6264008 15.8631668,29.5074398 18.0440988,30.8338635 L18.6624308,31.209907 L18.6624308,34.5513628 Z M36.0730708,37.119264 L16.0624308,37.119264 L16.0624308,32.6263613 C13.7811388,31.1045717 11.8649908,29.0540512 10.4927108,26.6587642 C8.9590228,23.9817272 8.1483948,20.9383534 8.1483948,17.8576936 C8.1483948,15.4689805 8.6223748,13.1511415 9.5571268,10.9683741 C10.4597428,8.86064079 11.7516308,6.96809758 13.3969108,5.34312968 C15.0421388,3.71821314 16.9583908,2.44227437 19.0924188,1.55075042 C21.3024708,0.627589926 23.6493348,0.159461531 26.0679068,0.159461531 C28.4864268,0.159461531 30.8333428,0.627589926 33.0433428,1.55075042 C35.1773708,2.44227437 37.0936228,3.71821314 38.7389028,5.34312968 C40.3841828,6.96809758 41.6760708,8.86064079 42.5786348,10.9683741 C43.5134388,13.1511415 43.9874188,15.4689805 43.9874188,17.8576936 C43.9874188,20.9333203 43.1756988,23.9633924 41.6401388,26.6202457 C40.2732148,28.9853855 38.3582108,31.0204472 36.0740068,32.5428018 L36.0730708,37.119264 Z" id="Fill-12" fill="#AAAAAA"></path>
                <mask id="mask-2" fill="white">
                    <use xlink:href="#path-1"></use>
                </mask>
                <g id="Clip-15"></g>
                <path d="M18.662436,39.2411259 L33.473336,39.2411259 L33.473336,37.1192691 L18.662436,37.1192691 L18.662436,39.2411259 Z M16.062436,41.8090272 L36.073336,41.8090272 L36.073336,34.5513679 L16.062436,34.5513679 L16.062436,41.8090272 Z" id="Fill-14" fill="#AAAAAA" mask="url(#mask-2)"></path>
                <path d="M20.245264,43.9309867 L31.89056,43.9309867 L31.89056,41.8090785 L20.245264,41.8090785 L20.245264,43.9309867 Z M17.645212,46.4988879 L34.490508,46.4988879 L34.490508,39.2411773 L17.645212,39.2411773 L17.645212,46.4988879 Z" id="Fill-16" fill="#AAAAAA" mask="url(#mask-2)"></path>
                <path d="M21.82804,48.6207447 L30.307732,48.6207447 L30.307732,46.4988879 L21.82804,46.4988879 L21.82804,48.6207447 Z M19.22804,51.1886459 L32.907732,51.1886459 L32.907732,43.9309867 L19.22804,43.9309867 L19.22804,51.1886459 Z" id="Fill-17" fill="#AAAAAA" mask="url(#mask-2)"></path>
                <polygon id="Fill-18" fill-opacity="0" fill="#FFFFFF" mask="url(#mask-2)" points="0 51.3066667 51.947272 51.3066667 51.947272 0.000719012346 0 0.000719012346"></polygon>
            </g>
        </g>
    </g>
</svg>