<?xml version="1.0" encoding="UTF-8"?>
<svg width="52px" height="52px" viewBox="0 0 52 52" version="1.1" xmlns="http://www.w3.org/2000/svg" xmlns:xlink="http://www.w3.org/1999/xlink">
    <!-- Generator: Sketch 63.1 (92452) - https://sketch.com -->
    <title>growing-line-graph</title>
    <desc>Created with Sketch.</desc>
    <g id="growing-line-graph" stroke="none" stroke-width="1" fill="none" fill-rule="evenodd">
        <g>
            <polygon id="Fill-1" fill="#ABABAB" points="2.644902 38.9708332 2.644902 51.9473292 5.244902 51.9473292 5.244902 41.5708332 7.834346 41.5708332 7.834346 51.9473292 10.434398 51.9473292 10.434398 38.9708332"></polygon>
            <polygon id="Fill-2" fill="#ABABAB" points="15.6187044 33.3819304 15.6187044 51.9472824 18.2187044 51.9472824 18.2187044 35.9819304 20.8082004 35.9819304 20.8082004 51.9472824 23.4082524 51.9472824 23.4082524 33.3819304"></polygon>
            <polygon id="Fill-3" fill="#ABABAB" points="28.5925536 18.21274 28.5925536 51.947324 31.1925016 51.947324 31.1925016 20.81274 33.7819976 20.81274 33.7819976 51.947324 36.3820496 51.947324 36.3820496 18.21274"></polygon>
            <polygon id="Fill-4" fill="#ABABAB" points="41.5663092 10.4284492 41.5663092 51.9472772 44.1663092 51.9472772 44.1663092 13.0284492 46.7558572 13.0284492 46.7558572 51.9472772 49.3559092 51.9472772 49.3559092 10.4284492"></polygon>
            <polygon id="Fill-5" fill="#ABABAB" points="0 51.949924 52 51.949924 52 49.349924 0 49.349924"></polygon>
            <g id="Group-22" transform="translate(0.052000, 0.001924)">
                <path d="M19.4614576,23.1455848 C18.6041856,23.1455848 17.9067096,23.8430608 17.9067096,24.7003328 C17.9067096,25.5576568 18.6041856,26.2550808 19.4614576,26.2550808 C20.3187296,26.2550808 21.0162056,25.5576568 21.0162056,24.7003328 C21.0162056,23.8430608 20.3187296,23.1455848 19.4614576,23.1455848 M19.4614576,28.3350808 C17.4572216,28.3350808 15.8267096,26.7045688 15.8267096,24.7003328 C15.8267096,22.6961488 17.4572216,21.0655848 19.4614576,21.0655848 C21.4656936,21.0655848 23.0962056,22.6961488 23.0962056,24.7003328 C23.0962056,26.7045688 21.4656936,28.3350808 19.4614576,28.3350808" id="Fill-6" fill="#00953C"></path>
                <path d="M32.4353068,7.5769928 C31.5780348,7.5769928 30.8805588,8.2744688 30.8805588,9.1317408 C30.8805588,9.9890648 31.5780348,10.6865408 32.4353068,10.6865408 C33.2925788,10.6865408 33.9900028,9.9890648 33.9900028,9.1317408 C33.9900028,8.2744688 33.2925788,7.5769928 32.4353068,7.5769928 M32.4353068,12.7665408 C30.4310708,12.7665408 28.8005588,11.1359768 28.8005588,9.1317408 C28.8005588,7.1275568 30.4310708,5.4969928 32.4353068,5.4969928 C34.4394908,5.4969928 36.0700028,7.1275568 36.0700028,9.1317408 C36.0700028,11.1359768 34.4394908,12.7665408 32.4353068,12.7665408" id="Fill-8" fill="#00953C"></path>
                <path d="M45.409104,2.3874552 C44.551832,2.3874552 43.854356,3.0849312 43.854356,3.9422032 C43.854356,4.7995272 44.551832,5.4970032 45.409104,5.4970032 C46.266376,5.4970032 46.963852,4.7995272 46.963852,3.9422032 C46.963852,3.0849312 46.266376,2.3874552 45.409104,2.3874552 M45.409104,7.5770032 C43.404868,7.5770032 41.774356,5.9464392 41.774356,3.9422032 C41.774356,1.9380192 43.404868,0.3074552 45.409104,0.3074552 C47.41334,0.3074552 49.043852,1.9380192 49.043852,3.9422032 C49.043852,5.9464392 47.41334,7.5770032 45.409104,7.5770032" id="Fill-10" fill="#00953C"></path>
                <path d="M6.4876604,28.3351016 C5.6303884,28.3351016 4.9329124,29.0325776 4.9329124,29.8898496 C4.9329124,30.7471736 5.6303884,31.4446496 6.4876604,31.4446496 C7.3449324,31.4446496 8.0423564,30.7471736 8.0423564,29.8898496 C8.0423564,29.0325776 7.3449324,28.3351016 6.4876604,28.3351016 M6.4876604,33.5246496 C4.4834244,33.5246496 2.8529124,31.8940856 2.8529124,29.8898496 C2.8529124,27.8856656 4.4834244,26.2551016 6.4876604,26.2551016 C8.4918444,26.2551016 10.1223564,27.8856656 10.1223564,29.8898496 C10.1223564,31.8940856 8.4918444,33.5246496 6.4876604,33.5246496" id="Fill-12" fill="#00953C"></path>
                <polygon id="Fill-14" fill="#00953C" points="9.3203396 29.9745472 8.5387276 28.0470112 16.6794316 24.7457912 17.4610956 26.6733792"></polygon>
                <polygon id="Fill-16" fill="#00953C" points="22.5541888 24.0078748 20.8622648 22.7980428 29.7545768 10.3616188 31.4465008 11.5714508"></polygon>
                <polygon id="Fill-18" fill="#00953C" points="35.358882 8.8210096 34.701186 6.8477656 42.485482 4.2529656 43.143178 6.2262616"></polygon>
                <polygon id="Fill-20" fill-opacity="0" fill="#FFFFFF" points="0.000728 51.945348 51.896 51.945348 51.896 0.050076 0.000728 0.050076"></polygon>
            </g>
        </g>
    </g>
</svg>