<?xml version="1.0" encoding="UTF-8"?>
<svg width="52px" height="52px" viewBox="0 0 52 52" version="1.1" xmlns="http://www.w3.org/2000/svg" xmlns:xlink="http://www.w3.org/1999/xlink">
    <!-- Generator: Sketch 63.1 (92452) - https://sketch.com -->
    <title>high-five</title>
    <desc>Created with Sketch.</desc>
    <defs>
        <polygon id="path-1" points="0 51.3066667 51.947272 51.3066667 51.947272 0.000719012346 0 0.000719012346"></polygon>
    </defs>
    <g id="high-five" stroke="none" stroke-width="1" fill="none" fill-rule="evenodd">
        <g>
            <polygon id="Fill-1" fill="#00953C" points="24.771032 7.79609679 27.371032 7.79609679 27.371032 0.10790321 24.771032 0.10790321"></polygon>
            <polygon id="Fill-2" fill="#00953C" points="32.9459936 10.4453491 30.7305336 9.10141235 35.5474496 1.35559506 37.7629616 2.69953185"></polygon>
            <polygon id="Fill-3" fill="#00953C" points="19.5790452 10.4453491 14.7620252 2.69953185 16.9775372 1.35559506 21.7945052 9.10141235"></polygon>
            <g id="Group-23" transform="translate(0.000000, 0.050639)">
                <path d="M21.0997436,29.9968715 L18.4997436,29.9968715 L18.4997436,17.4500547 C18.4997436,16.8960043 18.0433916,16.445235 17.4824156,16.445235 C16.9213876,16.445235 16.4649836,16.8960043 16.4649836,17.4500547 L16.4649836,29.9968715 L13.8649836,29.9968715 L13.8649836,17.4500547 C13.8649836,15.4800636 15.4877476,13.8773337 17.4824156,13.8773337 C19.4770316,13.8773337 21.0997436,15.4800636 21.0997436,17.4500547 L21.0997436,29.9968715 Z" id="Fill-4" fill="#AEADAD"></path>
                <path d="M25.7344984,29.9968715 L23.1344984,29.9968715 L23.1344984,17.4500547 C23.1344984,16.8960043 22.6780944,16.445235 22.1171184,16.445235 C21.5560904,16.445235 21.0997384,16.8960043 21.0997384,17.4500547 L21.0997384,29.9968715 L18.4997384,29.9968715 L18.4997384,17.4500547 C18.4997384,15.4800636 20.1224504,13.8773337 22.1171184,13.8773337 C24.1117344,13.8773337 25.7344984,15.4800636 25.7344984,17.4500547 L25.7344984,29.9968715 Z" id="Fill-6" fill="#AEADAD"></path>
                <path d="M28.70855,51.1973562 L26.10855,51.1973562 L26.10855,44.2097888 L26.517374,43.8296367 C27.324622,43.0789365 27.769222,42.001856 27.769222,40.796894 L27.769222,21.9558432 C27.769222,21.4017928 27.312818,20.9510234 26.751842,20.9510234 C26.190866,20.9510234 25.734514,21.4017928 25.734514,21.9558432 L25.734514,34.5027113 L23.134514,34.5027113 L23.134514,21.9558432 C23.134514,19.9858007 24.757226,18.3831222 26.751842,18.3831222 C28.746458,18.3831222 30.369222,19.9858007 30.369222,21.9558432 L30.369222,40.796894 C30.369222,42.5109681 29.783494,44.0823696 28.70855,45.2827093 L28.70855,51.1973562 Z" id="Fill-8" fill="#AEADAD"></path>
                <mask id="mask-2" fill="white">
                    <use xlink:href="#path-1"></use>
                </mask>
                <g id="Clip-11"></g>
                <polygon id="Fill-10" fill="#AEADAD" mask="url(#mask-2)" points="12.379016 51.1973768 14.979016 51.1973768 14.979016 45.5862044 12.379016 45.5862044"></polygon>
                <path d="M16.985904,47.9074844 C14.766908,47.9074844 12.6815,46.9413886 11.262836,45.2567427 L1.054612,33.4113225 C1.051128,33.4072138 1.047592,33.4031565 1.04416,33.3989965 C0.361972,32.5869748 0.0325,31.5605333 0.116376,30.508721 C0.200252,29.4568573 0.68848,28.493997 1.490996,27.7975822 C2.321436,27.0768751 3.385928,26.7249185 4.488484,26.8059615 C5.584228,26.8867477 6.57852,27.3854854 7.290608,28.210963 L9.230312,30.3550064 L9.230312,17.4500701 C9.230312,15.480079 10.853024,13.8773491 12.84764,13.8773491 C14.842256,13.8773491 16.464968,15.480079 16.464968,17.4500701 L16.464968,29.9968869 L13.864968,29.9968869 L13.864968,17.4500701 C13.864968,16.8960198 13.408616,16.4452504 12.84764,16.4452504 C12.286664,16.4452504 11.830312,16.8960198 11.830312,17.4500701 L11.830312,33.7190084 C11.830312,34.2515398 11.497512,34.7287072 10.993892,34.9185778 C10.48996,35.108397 9.920092,34.9715279 9.560876,34.5745304 L5.340712,29.9097323 C5.332496,29.900642 5.324436,29.8914489 5.31648,29.8821531 C5.05778,29.5792948 4.694976,29.3962035 4.294888,29.366724 C3.894592,29.3372958 3.508492,29.4649719 3.207152,29.7265896 C2.602496,30.2513146 2.529956,31.1405274 3.040596,31.7539477 L13.247832,43.5981867 C13.251368,43.6022953 13.254852,43.606404 13.258284,43.6105126 C14.18144,44.7093689 15.540148,45.3395832 16.985904,45.3395832 L16.985904,47.9074844 Z" id="Fill-12" fill="#AEADAD" mask="url(#mask-2)"></path>
                <path d="M44.2551304,17.450065 C44.2551304,15.4800739 42.6323664,13.877344 40.6377504,13.877344 C39.7566624,13.877344 38.9484784,14.1903712 38.3203704,14.709344 C39.1143064,15.3652373 39.6203704,16.3502329 39.6203704,17.450065 C39.6203704,16.8960146 40.0767224,16.4452452 40.6377504,16.4452452 C41.1987264,16.4452452 41.6551304,16.8960146 41.6551304,17.450065 L41.6551304,33.249745 L44.2551304,30.2060117 L44.2551304,17.450065 Z" id="Fill-13" fill="#AEADAD" mask="url(#mask-2)"></path>
                <path d="M38.3203756,14.7093337 C37.6922676,14.1904122 36.8840836,13.8773337 36.0030476,13.8773337 C35.1219596,13.8773337 34.3137756,14.1904122 33.6856156,14.7093337 C34.4795516,15.3652271 34.9856156,16.3502226 34.9856156,17.4500547 C34.9856156,16.8960043 35.4420196,16.445235 36.0030476,16.445235 C36.5640236,16.445235 37.0203756,16.8960043 37.0203756,17.4500547 C37.0203756,16.3502226 37.5264396,15.3652271 38.3203756,14.7093337" id="Fill-14" fill="#AEADAD" mask="url(#mask-2)"></path>
                <path d="M38.3203756,14.7093337 C37.5264396,15.3652271 37.0203756,16.3502226 37.0203756,17.4500547 L37.0203756,29.9968715 L39.6203756,29.9968715 L39.6203756,17.4500547 C39.6203756,16.3502226 39.1143116,15.3652271 38.3203756,14.7093337" id="Fill-15" fill="#AEADAD" mask="url(#mask-2)"></path>
                <path d="M33.6856208,14.7093337 C33.0575128,14.1904122 32.2493288,13.8773337 31.3682928,13.8773337 C29.5573928,13.8773337 28.0550088,15.1989298 27.7932928,16.9164962 C28.2498008,16.9309278 29.5819888,17.2559214 30.3509128,18.1346572 L30.3509128,17.4500547 C30.3509128,16.8960043 30.8072648,16.445235 31.3682928,16.445235 C31.9292688,16.445235 32.3856208,16.8960043 32.3856208,17.4500547 C32.3856208,16.3502226 32.8916848,15.3652271 33.6856208,14.7093337" id="Fill-16" fill="#AEADAD" mask="url(#mask-2)"></path>
                <path d="M33.6856208,14.7093337 C32.8916848,15.3652271 32.3856208,16.3502226 32.3856208,17.4500547 L32.3856208,29.9968715 L34.9856208,29.9968715 L34.9856208,17.4500547 C34.9856208,16.3502226 34.4795568,15.3652271 33.6856208,14.7093337" id="Fill-17" fill="#AEADAD" mask="url(#mask-2)"></path>
                <path d="M38.506338,51.1973562 L41.106338,51.1973562 L41.106338,46.331132 C40.33393,46.9334076 39.450918,47.3764733 38.506338,47.6367558 L38.506338,51.1973562 Z" id="Fill-18" fill="#AEADAD" mask="url(#mask-2)"></path>
                <path d="M51.8632296,31.9958748 C51.7793536,30.9440624 51.2911776,29.9811508 50.4886616,29.284736 C49.6582216,28.5640802 48.5934696,28.2119182 47.4911216,28.2931153 C46.3886176,28.374415 45.3888136,28.8788535 44.6758936,29.7134214 L44.2551096,30.2059962 L44.2551096,33.7190392 L41.6551096,33.7190392 L41.6551096,33.2497296 L40.5715856,34.5182214 C39.8956376,34.462652 38.8609416,34.4462175 37.7457496,34.6792288 C35.1033176,35.2315844 33.2713056,36.8644101 32.4477296,39.401137 L34.9235016,40.1852713 C35.4529656,38.5545 36.5288456,37.5802896 38.2126056,37.2069167 C39.5877456,36.9019528 40.8448456,37.1360427 40.8523336,37.1374293 L41.6025896,37.2935064 L46.6631776,31.3693069 C46.9218776,31.0664486 47.2846296,30.8834086 47.6847696,30.8539291 C48.0848576,30.8244496 48.4711136,30.9522283 48.7724536,31.2137434 C49.3788776,31.7400091 49.4500656,32.632817 48.9345896,33.2464427 L40.2270856,43.610492 C39.3038776,44.7093483 37.9452216,45.3395627 36.4994656,45.3395627 L36.4994656,47.9074639 C37.1865416,47.9074639 37.8607216,47.8146086 38.5063536,47.6367558 L38.5063536,45.5861839 L41.1063536,45.5861839 L41.1063536,46.331132 C41.5132536,46.0137908 41.8897856,45.6527439 42.2279416,45.2502511 L50.9354456,34.8861503 C51.6176336,34.0742313 51.9471056,33.0477385 51.8632296,31.9958748" id="Fill-19" fill="#AEADAD" mask="url(#mask-2)"></path>
                <polygon id="Fill-20" fill="#AEADAD" mask="url(#mask-2)" points="44.2551304 33.7190238 44.2551304 30.2060322 41.6551304 33.2497142 41.6551304 33.7190238"></polygon>
                <path d="M38.506338,45.586189 L38.506338,47.6367609 C39.450918,47.3764271 40.33393,46.9333614 41.106338,46.3311372 L41.106338,45.586189 L38.506338,45.586189 Z" id="Fill-21" fill="#AEADAD" mask="url(#mask-2)"></path>
                <polygon id="Fill-22" fill="#FFFFFF" opacity="0" mask="url(#mask-2)" points="0 51.3066667 51.947272 51.3066667 51.947272 0.00077037037 0 0.00077037037"></polygon>
            </g>
        </g>
    </g>
</svg>