<?xml version="1.0" encoding="UTF-8"?>
<svg width="52px" height="52px" viewBox="0 0 52 52" version="1.1" xmlns="http://www.w3.org/2000/svg" xmlns:xlink="http://www.w3.org/1999/xlink">
    <!-- Generator: Sketch 63.1 (92452) - https://sketch.com -->
    <title>hiking-mountain</title>
    <desc>Created with Sketch.</desc>
    <g id="hiking-mountain" stroke="none" stroke-width="1" fill="none" fill-rule="evenodd">
        <g>
            <path d="M16.0761126,3.81592986 C14.8787058,3.81592986 13.8410505,4.71477956 13.697816,5.93250701 L13.5870946,6.87361323 C13.5123251,7.50933667 13.6895836,8.1360982 14.0862529,8.63853908 C14.4828701,9.14092786 15.0514313,9.45881563 15.6871547,9.53358517 L15.6872068,9.53358517 C16.3230345,9.60840681 16.9497439,9.4311483 17.4521327,9.03447896 C17.9545214,8.63786172 18.2724092,8.0693006 18.3472309,7.43357715 L18.4579002,6.49252305 C18.612285,5.18017435 17.6702409,3.98688377 16.3578922,3.832499 C16.2632709,3.8213487 16.1691186,3.81592986 16.0761126,3.81592986 M15.9771146,12.1559379 C15.7799002,12.1559379 15.5815916,12.1443707 15.382814,12.1210281 C14.0559804,11.9648717 12.869307,11.3014289 12.0414754,10.2528317 C11.2135916,9.20423447 10.8436517,7.89605411 10.9997559,6.56922044 L11.1104774,5.62811423 C11.4326898,2.8891002 13.923323,0.922739479 16.6622329,1.24510822 C17.9890665,1.40121242 19.1757399,2.06470741 20.0035715,3.11325251 C20.8314032,4.1618497 21.2013952,5.47008216 21.045291,6.79691583 L20.9345695,7.73791784 C20.7785174,9.0647515 20.1150745,10.251477 19.0664774,11.0792565 C18.1749743,11.7830802 17.095792,12.1559379 15.9771146,12.1559379" id="Fill-1" fill="#A9A9A9"></path>
            <path d="M17.3989707,50.9707491 L0.20317515,50.9707491 L0.20317515,48.3655387 L16.9806782,48.3655387 L24.5613194,42.9371138 C24.7825018,42.7787691 25.0476601,42.6936309 25.3196962,42.6936309 L30.5762814,42.6936309 L43.7740168,18.718713 C44.0030669,18.3026088 44.4403255,18.044224 44.9151511,18.044224 L44.9176521,18.044224 C45.3934156,18.0451619 45.8308305,18.3053703 46.0586822,18.7230377 L51.8428224,29.3259836 L49.5558124,30.5736188 L44.9099928,22.0573944 L32.4873074,44.6243523 C32.2583094,45.0404044 31.8210509,45.2988413 31.3461731,45.2988413 L25.7379888,45.2988413 L18.1573475,50.727214 C17.9362172,50.8855587 17.6710068,50.9707491 17.3989707,50.9707491" id="Fill-3" fill="#00953C"></path>
            <path d="M13.9493804,15.1447812 C12.6937731,15.1447812 11.5946349,15.9487491 11.214222,17.1453222 L7.5315487,28.7304325 C7.37294349,29.2293824 7.41827415,29.7601679 7.6591519,30.2249896 C7.90008176,30.6898112 8.30769299,31.0328132 8.8067992,31.1908453 L16.0135407,33.4725928 C16.2174766,33.5371499 16.4023944,33.6509976 16.5518814,33.8039234 L21.6554365,39.0254425 C21.6744024,39.0448774 21.6927952,39.0648854 21.7105106,39.0854665 C21.9173643,39.3254064 22.2055527,39.4655146 22.5220337,39.4799996 C22.8384625,39.494224 23.1382701,39.38121 23.3661218,39.1611739 C23.8040577,38.738192 23.8329756,38.0481238 23.4319816,37.5900758 L18.0502942,31.4424044 L14.0782341,29.8692741 C13.4453242,29.6186008 13.1121178,28.9228533 13.3136048,28.2725928 L14.8783984,23.2232261 L12.6094164,21.1928814 L14.3466749,19.2514786 L16.8678413,21.5074866 L28.2282782,21.5074866 C28.6337531,21.5074866 28.9636248,21.1776148 28.9636248,20.7721399 C28.9636248,20.3666649 28.6337531,20.0367932 28.2282782,20.0367932 L20.569689,20.0367932 C20.2242381,20.0367932 19.8929074,19.8995507 19.6485908,19.6552341 L15.9787872,15.9853784 C15.436695,15.4432862 14.7159375,15.1447812 13.9493804,15.1447812 M22.5718974,42.0863042 C22.515677,42.0863042 22.4594044,42.0850537 22.4030798,42.0825006 C21.3936128,42.0362842 20.4354685,41.5770377 19.7669715,40.8204846 L14.9165387,35.8579234 L8.02039038,33.6745487 C6.85732024,33.3062762 5.90761683,32.5069455 5.34619399,31.4238032 C4.78477114,30.3406609 4.67915591,29.1038633 5.04873106,27.9412621 L8.73145651,16.3560998 C9.45711182,14.0733102 11.5540457,12.5395707 13.9493804,12.5395707 C15.4117892,12.5395707 16.7867671,13.1090697 17.8209315,14.1431299 L21.1092802,17.4315828 L28.2282782,17.4315828 C30.0702661,17.4315828 31.5688353,18.9300998 31.5688353,20.7721399 C31.5688353,22.6141279 30.0702661,24.112697 28.2282782,24.112697 L17.330214,24.112697 L16.159224,27.8913984 L19.3025146,29.1362721 C19.4950397,29.2125006 19.6666188,29.3335387 19.8029756,29.4893824 L25.392194,35.8741279 C26.7094405,37.3787932 26.6145066,39.6457431 25.1760136,41.0351018 C24.4788593,41.7083403 23.5379094,42.0863042 22.5718974,42.0863042" id="Fill-5" fill="#A9A9A9"></path>
            <path d="M4.09507295,46.9896124 C3.47680441,46.9896124 2.86353788,46.8396565 2.29726934,46.5430273 C0.501080962,45.6019731 -0.271780762,43.4084902 0.537762325,41.5493078 L5.3585479,30.4021856 L7.74976633,31.4363499 L2.92762605,42.58639 C2.6594978,43.2021575 2.91423527,43.9251555 3.50629539,44.2353319 C3.81949379,44.3994601 4.17651182,44.4272838 4.51143768,44.3138529 C4.84636353,44.2005263 5.11292866,43.96142 5.2620509,43.6408228 L10.4103635,32.5691996 L12.7726641,33.6676605 L7.6243515,44.7392838 C7.17193066,45.7121214 6.36316914,46.437412 5.34692866,46.7815082 C4.93619118,46.9205743 4.51445972,46.9896124 4.09507295,46.9896124" id="Fill-7" fill="#A9A9A9"></path>
            <polygon id="Fill-9" fill="#A9A9A9" points="28.10018 38.6998537 25.4447411 23.0277415 28.0133743 22.5924629 30.6688132 38.2645752"></polygon>
            <polygon id="Fill-11" fill="#A9A9A9" points="24.7884573 19.1541583 23.8803852 13.7950321 26.4489663 13.3597535 27.3570385 18.7188798"></polygon>
            <polygon id="Fill-13" fill-opacity="0" fill="#FFFFFF" points="0 51.9992705 51.9992705 51.9992705 51.9992705 0 0 0"></polygon>
        </g>
    </g>
</svg>