<?xml version="1.0" encoding="UTF-8"?>
<svg width="52px" height="53px" viewBox="0 0 52 53" version="1.1" xmlns="http://www.w3.org/2000/svg" xmlns:xlink="http://www.w3.org/1999/xlink">
    <!-- Generator: Sketch 63.1 (92452) - https://sketch.com -->
    <title>internet</title>
    <desc>Created with Sketch.</desc>
    <g id="internet" stroke="none" stroke-width="1" fill="none" fill-rule="evenodd" transform="translate(0.000000, 1.000000)">
        <g>
            <path d="M42.5478418,39.7500649 C42.5478418,41.3003311 41.2866206,42.5616044 39.7363023,42.5616044 C38.186036,42.5616044 36.9248148,41.3003311 36.9248148,39.7500649 C36.9248148,38.1997986 38.186036,36.9385253 39.7363023,36.9385253 C41.2866206,36.9385253 42.5478418,38.1997986 42.5478418,39.7500649 M47.6157337,30.9338527 C46.3902202,29.8374282 44.9817958,29.0222931 43.4294474,28.5109858 C41.808026,27.9769317 40.1111291,27.8035463 38.3857077,27.9961389 C35.8028849,28.2842991 33.3434775,29.4578647 31.4605465,31.3006114 C29.5764705,33.1445033 28.3518418,35.5781449 28.0123584,38.1533161 C27.541027,41.7286675 28.682997,45.2717986 31.1453193,47.8742971 C33.3994334,50.2567195 36.4919499,51.579154 39.7424965,51.579154 C40.045023,51.579154 40.349007,51.5677025 40.6536677,51.5445914 C43.3074895,51.343202 45.909988,50.1680749 47.9818158,48.2359027 L48.1477057,48.0813081 C48.3366026,47.905164 48.4455475,47.6659848 48.4545526,47.4079107 C48.4635576,47.1498366 48.3715295,46.9037345 48.1953854,46.7148376 L47.5509289,46.0237946 C47.3748368,45.8349497 47.1357097,45.7260048 46.8776356,45.7169998 C46.619978,45.7078386 46.3734074,45.8000228 46.1845105,45.976167 L45.839041,46.2983692 C43.7791852,48.2189858 40.9905485,49.0469778 38.1883784,48.5697125 C36.2597978,48.2413161 34.4601502,47.2483712 33.120955,45.7739447 C31.7832172,44.301184 30.9633974,42.4133081 30.8124464,40.4581289 C30.7120901,39.1579728 30.8853193,37.8868096 31.3273974,36.6799828 C31.7518298,35.5212521 32.4014915,34.4779207 33.2583724,33.5788256 C35.0101321,31.7408677 37.4681341,30.7296525 40.0019239,30.8026294 C42.3436937,30.8707135 44.5338358,31.8705814 46.1688949,33.6179688 C47.7930751,35.3537485 48.6875375,37.6213441 48.6875375,40.0029337 L48.6875375,40.6946014 C48.6875375,41.0865013 48.5203984,41.4629417 48.229011,41.7273662 C47.9339279,41.995174 47.5514494,42.1208797 47.1523664,42.0824653 C46.4491431,42.0140168 45.8982242,41.3676344 45.8982242,40.6109017 L45.8982242,35.180207 C45.8982242,34.6471419 45.4645265,34.2134442 44.9314615,34.2134442 L43.9857277,34.2134442 C43.7873574,34.2139127 43.3091552,34.2944372 43.1533113,35.0306094 C43.1422763,35.0826094 43.1332192,35.1360669 43.1256717,35.1900969 C42.1501121,34.4636064 40.9600981,34.0604112 39.7363023,34.0604112 C36.599021,34.0604112 34.0467007,36.6128356 34.0467007,39.7500649 C34.0467007,42.8873461 36.599021,45.4397706 39.7363023,45.4397706 C41.4082663,45.4397706 42.9763343,44.7075544 44.0524064,43.4517986 C44.9227167,44.4827415 46.2218318,45.0485994 47.5847628,44.9576645 C49.8170671,44.8081189 51.5657037,42.8769357 51.5657037,40.561244 L51.5657037,39.7500649 C51.5657037,36.3930198 50.125996,33.1796384 47.6157337,30.9338527" id="Fill-1" fill="#00953C"></path>
            <path d="M32.7830539,19.941011 L32.7745173,19.7939119 C32.616175,17.0715896 32.0537526,14.4142803 31.1028136,11.8957417 L31.0489397,11.752963 L31.1904172,11.6958098 C32.3819407,11.2146927 33.5668537,10.6232773 34.8127195,9.88788589 L34.9271299,9.82037437 L35.0121309,9.9225005 C37.3488517,12.7306567 38.754153,16.1362142 39.0761469,19.7710611 L39.09119,19.941011 L32.7830539,19.941011 Z M29.8617365,9.11543343 L29.7964112,8.98998799 C29.0132881,7.48578779 28.0819207,6.04420621 27.0280228,4.70511512 L26.6930158,4.27938138 L27.20323,4.46145946 C29.1833942,5.16801401 31.0111499,6.20832633 32.6357465,7.55350751 L32.8124633,7.69982583 L32.6114903,7.81054054 C31.7028176,8.31096897 30.8463011,8.72056657 29.9930118,9.06280881 L29.8617365,9.11543343 Z M22.6386294,19.9416877 L22.6386294,13.5679139 L22.7857806,13.5593774 C24.6145253,13.4533473 26.4248436,13.16399 28.1663491,12.6993213 L28.3018927,12.6631451 L28.3523311,12.7940561 C29.2093682,15.0193333 29.7248396,17.3681301 29.8843792,19.7751732 L29.8953622,19.9416877 L22.6386294,19.9416877 Z M22.6386294,4.15372773 L22.9050318,4.41924525 C24.5340529,6.0429049 25.9097886,7.85978178 26.9938246,9.81943744 L27.0927235,9.99813213 L26.894249,10.0466967 C25.5624452,10.3724384 24.1866575,10.5842903 22.805196,10.6764745 L22.6386294,10.6876136 L22.6386294,4.15372773 Z M19.7613481,10.6881862 L19.5947295,10.676995 C18.2118627,10.5842903 16.8360749,10.3720741 15.5055203,10.0462803 L15.3071499,9.99771572 L15.4060488,9.81902102 C16.490189,7.85967768 17.8658727,6.04295696 19.4949457,4.41924525 L19.7613481,4.15372773 L19.7613481,10.6881862 Z M19.7613481,19.941011 L12.5044593,19.941011 L12.5155463,19.7745485 C12.6751379,17.3674535 13.1906094,15.0186567 14.0475944,12.7934314 L14.0980328,12.6624685 L14.2335764,12.6986446 C15.9750819,13.1633133 17.7854002,13.4526707 19.614197,13.5586486 L19.7613481,13.5671852 L19.7613481,19.941011 Z M19.7613481,29.1915455 L19.614249,29.2000821 C17.7829538,29.3065806 15.9726354,29.596042 14.2335764,30.0605025 L14.0979287,30.0966787 L14.0475423,29.9657678 C13.1905053,27.7401261 12.6750859,25.3913814 12.5155984,22.9847548 L12.5045634,22.8182402 L19.7613481,22.8182402 L19.7613481,29.1915455 Z M19.7613481,38.6062523 L19.4949457,38.3407347 C17.8656124,36.7167107 16.4898767,34.8996777 15.4059968,32.9401782 L15.3071499,32.7614835 L15.5055203,32.7129189 C16.8365954,32.3870731 18.2124352,32.1750651 19.5947816,32.0828809 L19.7613481,32.0717417 L19.7613481,38.6062523 Z M15.1967996,38.2978959 C13.2164793,37.5913413 11.3888276,36.550977 9.76464745,35.2056917 L9.58793073,35.0593213 L9.7889037,34.9486066 C10.6972641,34.4482302 11.5536244,34.0386847 12.4068617,33.6964945 L12.538189,33.6438178 L12.6035143,33.7692633 C13.3866374,35.2734114 14.3180569,36.7150971 15.3719548,38.0542402 L15.7069618,38.479974 L15.1967996,38.2978959 Z M7.47269149,32.9387728 L7.38769049,32.8366466 C5.05107387,30.0285946 3.64577257,26.623037 3.32377858,22.9881902 L3.30873554,22.8182402 L9.61687167,22.8182402 L9.62540821,22.9653914 C9.78375055,25.6877137 10.346225,28.345023 11.2971119,30.8634054 L11.3510378,31.0061842 L11.2095083,31.0633894 C10.0165273,31.5451311 8.83161441,32.1364424 7.58715395,32.8712092 L7.47269149,32.9387728 Z M3.32377858,19.7710611 C3.64577257,16.1362663 5.05107387,12.7307087 7.38779459,9.9225005 L7.47274354,9.82037437 L7.58720601,9.88788589 C8.83307187,10.6232773 10.0179327,11.2146927 11.2095083,11.6958098 L11.3510378,11.752963 L11.2971119,11.8957417 C10.346225,14.4142282 9.78375055,17.0715375 9.62540821,19.7939119 L9.61687167,19.941011 L3.30873554,19.941011 L3.32377858,19.7710611 Z M9.76522002,7.5534034 C11.390181,6.20817017 13.2175203,5.16790991 15.1965914,4.46151151 L15.7068056,4.27938138 L15.3717465,4.70516717 C14.3179528,6.04420621 13.3865854,7.48589189 12.6035664,8.98993594 L12.538189,9.11543343 L12.4068617,9.06275676 C11.5553421,8.72087888 10.69919,8.31122923 9.78947628,7.81043644 L9.5883992,7.69972172 L9.76522002,7.5534034 Z M35.9419888,6.63765165 C32.0040428,2.69980981 26.7685433,0.531113113 21.1999628,0.531113113 C15.6313822,0.531113113 10.3959347,2.69980981 6.45798879,6.63765165 C2.52014695,10.5754935 0.35145025,15.8109409 0.35145025,21.3796256 C0.35145025,26.9483103 2.52014695,32.1837578 6.45798879,36.1215996 C10.3958827,40.0594935 15.6313301,42.2281381 21.1999628,42.2281381 C22.3197065,42.2281381 23.4435624,42.1389209 24.5428496,41.9628809 C24.4375483,41.2332152 24.384195,40.4895996 24.384195,39.750044 C24.384195,38.5618519 24.5202591,37.3827167 24.789212,36.2348649 C24.2049798,36.9681742 23.5733281,37.6742082 22.9050318,38.3405265 L22.6386294,38.6061481 L22.6386294,32.0717417 L22.805196,32.0828809 C23.9348817,32.1582002 25.0680028,32.3151892 26.1751499,32.5496837 C26.6577766,31.6427287 27.2330559,30.7825686 27.8883391,29.9881502 C26.2341249,29.5658519 24.5187495,29.3008028 22.7857285,29.2000821 L22.6386294,29.1915455 L22.6386294,22.8182402 L29.8953622,22.8182402 L29.8843792,22.9847548 C29.7449838,25.0873453 29.3331479,27.1476697 28.6585013,29.1210671 C29.7468056,27.98602 30.994233,27.0305005 32.3766835,26.2741321 C32.5763552,25.1841101 32.710181,24.0713413 32.7745173,22.9653914 L32.7830539,22.8182402 L39.09119,22.8182402 L39.0761469,22.9881902 C39.0338807,23.4653514 38.9717826,23.9466767 38.8912581,24.4218599 C39.1792621,24.405984 39.4626855,24.397968 39.7363231,24.397968 C40.4267936,24.397968 41.1243431,24.4450751 41.8121069,24.5380921 C41.9689918,23.4992372 42.0484753,22.4374274 42.0484753,21.3796256 C42.0484753,15.8109409 39.8797786,10.5754935 35.9419888,6.63765165 L35.9419888,6.63765165 Z" id="Fill-3" fill="#ABABAB"></path>
            <polygon id="Fill-5" fill-opacity="0" fill="#FFFFFF" points="0 51.9992713 51.9992713 51.9992713 51.9992713 0 0 0"></polygon>
        </g>
    </g>
</svg>