<?xml version="1.0" encoding="UTF-8"?>
<svg width="52px" height="52px" viewBox="0 0 52 52" version="1.1" xmlns="http://www.w3.org/2000/svg" xmlns:xlink="http://www.w3.org/1999/xlink">
    <!-- Generator: Sketch 63.1 (92452) - https://sketch.com -->
    <title>money-digital-device</title>
    <desc>Created with Sketch.</desc>
    <defs>
        <polygon id="path-1" points="0 51.9993226 51.9992705 51.9993226 51.9992705 0 0 0"></polygon>
    </defs>
    <g id="money-digital-device" stroke="none" stroke-width="1" fill="none" fill-rule="evenodd">
        <g>
            <path d="M21.6169106,17.6647595 C21.6169106,17.0908838 21.8215238,16.6701423 22.2597723,16.3414168 C22.5087263,16.1566032 22.7976441,16.0226433 23.121576,15.9415691 L23.121576,19.4191082 C22.6331511,19.2422665 22.2698285,19.033016 22.039111,18.7951603 L22.0391631,18.7951603 C21.751079,18.4981663 21.6169106,18.1389599 21.6169106,17.6647595 L21.6169106,17.6647595 Z M25.0027463,21.9997776 C25.7409587,22.2321102 26.0881291,22.4471964 26.2522052,22.595016 C26.5497202,22.858976 26.7005098,23.3015491 26.7005098,23.9102826 C26.7005098,24.5156814 26.4696882,24.9630481 25.9709467,25.320483 C25.6894277,25.528483 25.3648184,25.6816172 25.0027463,25.777489 L25.0027463,21.9997776 Z M27.6495359,21.1976854 C27.0817042,20.7252565 26.2146381,20.3193647 25.0027463,19.9592725 L25.0027463,15.9461543 C25.2886942,16.0098778 25.5305619,16.1129399 25.7232954,16.2531002 C26.108606,16.5406633 26.3020689,16.9489519 26.3319246,17.5376253 C26.3347904,17.8626513 26.4456681,18.1426593 26.6518445,18.3469078 C26.8496321,18.5447475 27.0975439,18.6493206 27.3689026,18.6493206 C27.6572473,18.6493206 27.9083375,18.5414128 28.0955479,18.3371643 C28.3014637,18.1263507 28.4058806,17.8529599 28.4058806,17.5243908 C28.4058806,16.4717295 28.0379206,15.604507 27.310077,14.9448677 C26.7063976,14.4100701 25.9310349,14.0813447 25.0027463,13.9660381 L25.0027463,13.471986 C25.0027463,12.9059259 24.630097,12.5401543 24.0533555,12.5401543 C23.4872954,12.5401543 23.121576,12.9059259 23.121576,13.471986 L23.121576,13.9614529 C22.1909948,14.0687355 21.3994277,14.3977214 20.7649547,14.9418457 C19.9423856,15.656976 19.5253435,16.6143908 19.5253435,17.7874649 C19.5253435,18.8122505 19.9022132,19.6525872 20.6446982,20.2846112 C21.2101852,20.7695972 22.0428625,21.1621503 23.121576,21.4525271 L23.121576,25.794006 C22.6403936,25.6925591 22.2528425,25.5223868 21.9682493,25.2877094 C21.4735719,24.8696774 21.2380609,24.2478657 21.2482733,23.3837174 C21.2482733,23.0560341 21.1499527,22.7886874 20.9560208,22.5891283 C20.7690188,22.3844629 20.5236601,22.2763467 20.2460489,22.2763467 C19.9684898,22.2763467 19.723079,22.384515 19.5359727,22.5891804 C19.3421972,22.7888958 19.2439287,23.0561904 19.2439287,23.3837174 C19.2439287,24.951481 19.7276641,26.1276814 20.6817964,26.8795972 L20.6866942,26.8834008 C21.2813074,27.3294649 22.0993956,27.6274489 23.1207944,27.7704749 L23.1207944,28.6128437 C23.1222533,29.1888557 23.4882854,29.5610361 24.0533555,29.5610361 C24.630097,29.5610361 25.0027463,29.1883868 25.0027463,28.6116453 L25.0027463,27.7889719 C25.9724577,27.642976 26.8106581,27.2731403 27.4980168,26.68702 C28.3683655,25.9371363 28.8096882,24.9673727 28.8096882,23.8047194 C28.8096882,22.7077695 28.4189587,21.8302826 27.6495359,21.1976854 L27.6495359,21.1976854 Z" id="Fill-1" fill="#00953C"></path>
            <path d="M47.0598958,51.9993226 L44.4546854,51.9993226 L44.4546854,31.6832144 C44.4546854,30.9062365 44.1122565,30.1754228 43.5151944,29.6781403 L43.4947695,29.6607896 L35.3371263,22.578004 L37.0451543,20.6108096 L45.1934188,27.6854669 C46.3798317,28.67899 47.0598958,30.1351984 47.0598958,31.6832144 L47.0598958,51.9993226 Z" id="Fill-3" fill="#ABABAB"></path>
            <path d="M37.5721467,50.4062261 C35.6720625,49.6647832 33.9680986,48.1255727 32.8970966,46.1834926 C31.8986758,44.3729234 31.5063832,42.3564385 31.7659663,40.4306148 L25.6290285,34.293677 C24.9304673,33.5951158 24.5456778,32.6663062 24.5456778,31.6783062 C24.5456778,30.6903583 24.9304673,29.7615487 25.6290285,29.0629876 C26.3275896,28.3643743 27.2565034,27.9796369 28.2443992,27.9796369 C29.2323471,27.9796369 30.1612088,28.3643743 30.8597699,29.0629876 L40.4722669,38.6754846 L38.6301226,40.5176289 L29.0175735,30.9051319 C28.8110325,30.6985908 28.5364954,30.5848473 28.2443992,30.5848473 C27.9523551,30.5848473 27.6777659,30.6985908 27.4712248,30.9051319 C27.2646838,31.1116729 27.1508882,31.3862621 27.1508882,31.6783062 C27.1508882,31.9704024 27.2646838,32.2449916 27.4712248,32.4515327 L34.5947559,39.5750637 L34.4381307,40.2743022 C34.0981507,41.7914204 34.3610685,43.4432281 35.1784794,44.9254365 C35.9599904,46.3426709 37.1776657,47.455721 38.519297,47.9793162 L37.5721467,50.4062261 Z" id="Fill-5" fill="#ABABAB"></path>
            <path d="M37.5815098,32.7053739 L37.5815098,5.68032786 C37.5815098,2.62118557 35.0927523,0.132428056 32.03361,0.132428056 L16.0321471,0.132428056 C12.9730048,0.132428056 10.4842473,2.62118557 10.4842473,5.68032786 L10.4842473,42.0942397 C10.4842473,45.153382 12.9730048,47.6420874 16.0321471,47.6420874 L31.1057383,47.6420874 C31.0394096,47.5321996 30.9749046,47.4210613 30.9127964,47.3083599 C30.5101351,46.5781715 30.2062112,45.8145323 30.0037343,45.036877 L16.0321471,45.036877 C14.4095178,45.036877 13.0894577,43.7168168 13.0894577,42.0942397 L13.0894577,42.0290573 L11.0284236,42.0290573 L11.0284236,39.4238469 L13.0894577,39.4238469 L13.0894577,8.35072064 L11.0284236,8.35072064 L11.0284236,5.74551022 L13.0894577,5.74551022 L13.0894577,5.68032786 C13.0894577,4.0577507 14.4095178,2.73763848 16.0321471,2.73763848 L32.03361,2.73763848 C33.6562393,2.73763848 34.9762994,4.0577507 34.9762994,5.68032786 L34.9762994,5.74551022 L37.1208044,5.74551022 L37.1208044,8.35072064 L34.9762994,8.35072064 L34.9762994,30.1054261 L37.5815098,32.7053739 Z" id="Fill-7" fill="#AAAAAA"></path>
            <mask id="mask-2" fill="white">
                <use xlink:href="#path-1"></use>
            </mask>
            <g id="Clip-10"></g>
            <polygon id="Fill-9" fill="#AAAAAA" mask="url(#mask-2)" points="13.0894629 8.35068938 34.9763046 8.35068938 34.9763046 5.74547896 13.0894629 5.74547896"></polygon>
            <polygon id="Fill-11" fill="#AAAAAA" mask="url(#mask-2)" points="11.0284289 8.35068938 13.089515 8.35068938 13.089515 5.74547896 11.0284289 5.74547896"></polygon>
            <polygon id="Fill-12" fill="#AAAAAA" mask="url(#mask-2)" points="34.9763046 8.35068938 37.1208096 8.35068938 37.1208096 5.74547896 34.9763046 5.74547896"></polygon>
            <path d="M29.7817026,41.5554822 L27.6500673,39.4238469 L13.0894942,39.4238469 L13.0894942,42.0290573 L29.7315784,42.0290573 C29.7440834,41.8707126 29.7604962,41.7127848 29.7817026,41.5554822" id="Fill-13" fill="#AAAAAA" mask="url(#mask-2)"></path>
            <polygon id="Fill-14" fill="#AAAAAA" mask="url(#mask-2)" points="11.0284289 42.0290261 13.089515 42.0290261 13.089515 39.4238156 11.0284289 39.4238156"></polygon>
            <polygon id="Fill-15" fill-opacity="0" fill="#FFFFFF" mask="url(#mask-2)" points="0 51.9993226 51.9992705 51.9993226 51.9992705 5.21042084e-05 0 5.21042084e-05"></polygon>
        </g>
    </g>
</svg>