<?xml version="1.0" encoding="UTF-8"?>
<svg width="52px" height="52px" viewBox="0 0 52 52" version="1.1" xmlns="http://www.w3.org/2000/svg" xmlns:xlink="http://www.w3.org/1999/xlink">
    <!-- Generator: Sketch 63.1 (92452) - https://sketch.com -->
    <title>plane</title>
    <desc>Created with Sketch.</desc>
    <defs>
        <polygon id="path-1" points="0.0376554854 0.042432 37.6421289 0.042432 37.6421289 37.6460136 0.0376554854 37.6460136"></polygon>
    </defs>
    <g id="plane" stroke="none" stroke-width="1" fill="none" fill-rule="evenodd">
        <g>
            <g id="Group-3" transform="translate(14.248000, 0.009568)">
                <mask id="mask-2" fill="white">
                    <use xlink:href="#path-1"></use>
                </mask>
                <g id="Clip-2"></g>
                <path d="M6.8363048,25.3468176 C6.8019848,25.3819176 5.7406648,26.4771936 4.7031088,28.3671336 C3.5418448,30.4825456 2.8657408,32.7072096 2.6862368,34.9974456 C4.9764728,34.8179416 7.2011888,34.1418896 9.3165488,32.9805736 C11.2065408,31.9430696 12.3018168,30.8818016 12.3369688,30.8474816 L30.0018368,13.1826136 C32.5431288,10.6413216 34.2012528,7.8637936 34.7970168,5.1502256 C35.0286768,4.0948856 35.0583688,3.2350656 35.0329928,2.6508456 C34.4484088,2.6254176 33.5884848,2.6551096 32.5324688,2.8870296 C29.8192648,3.4829496 27.0421008,5.1409696 24.5011728,7.6819496 L6.8363048,25.3468176 Z M1.4402648,37.6460136 C1.4035528,37.6460136 1.3670488,37.6460136 1.3302328,37.6460136 C0.6183008,37.6414896 0.0422448,37.0653296 0.0376554854,36.3533976 C-0.0077792,28.6196456 4.7889608,23.7178136 4.9932168,23.5129336 L22.6627128,5.8434376 C29.8920648,-1.3859664 36.2571248,0.1572896 36.5245608,0.2265016 C36.7490968,0.2846376 36.9539768,0.4017936 37.1179848,0.5657496 C37.2997248,0.7475416 37.5486488,0.9964656 37.6266488,2.4314576 C37.6796888,3.4082776 37.5962808,4.4435456 37.3787128,5.5085576 C37.0796088,6.9728256 36.5323088,8.4457256 35.7521008,9.8863336 C34.7932728,11.6566736 33.4771528,13.3842176 31.8403488,15.0210736 L14.1723088,32.6891136 C13.9669088,32.8938376 9.1102648,37.6460136 1.4402648,37.6460136 L1.4402648,37.6460136 Z" id="Fill-1" fill="#AEADAD" mask="url(#mask-2)"></path>
            </g>
            <path d="M23.536682,21.592402 L7.666074,13.66625 C7.29209,13.479518 7.03079,13.124358 6.963762,12.71179 C6.896682,12.299222 7.03209,11.879582 7.327658,11.584014 L11.066614,7.845006 C11.33431,7.57731 11.705122,7.439458 12.083162,7.467902 L34.504886,9.150622 L34.310302,11.743342 L12.483406,10.105238 L10.442146,12.146498 L24.698362,19.26639 L23.536682,21.592402 Z" id="Fill-4" fill="#ACACAC"></path>
            <path d="M39.4543708,45.0107112 C39.3850548,45.0107112 39.3153228,45.0051472 39.2457988,44.9938632 C38.8332308,44.9267832 38.4780708,44.6654832 38.2912868,44.2914992 L30.3651348,28.4208392 L32.6911988,27.2592112 L39.8110388,41.5154272 L41.8522988,39.4742192 L40.2142468,17.6472712 L42.8069668,17.4526872 L44.4896348,39.8744112 C44.5179748,40.2520352 44.3802788,40.6232112 44.1125308,40.8909592 L40.3735748,44.6299152 C40.1278228,44.8756672 39.7962708,45.0107112 39.4543708,45.0107112" id="Fill-6" fill="#ACACAC"></path>
            <path d="M15.4448944,33.9691404 L8.6715304,31.1413804 C8.2714944,30.9743564 7.9810224,30.6188844 7.8970424,30.1935764 C7.8130104,29.7682164 7.9465984,29.3290764 8.2531384,29.0224844 L10.0879064,27.1877164 C10.3060464,26.9696284 10.5946464,26.8361444 10.9020704,26.8112364 L17.8210864,26.2500004 L18.0313224,28.8414724 L11.5885224,29.3640724 L11.4632544,29.4893924 L16.4466224,31.5698084 L15.4448944,33.9691404 Z" id="Fill-8" fill="#ACACAC"></path>
            <path d="M22.0158848,44.0851944 C21.9321128,44.0851944 21.8478208,44.0770824 21.7639968,44.0605464 C21.3386888,43.9765664 20.9832168,43.6860944 20.8161928,43.2860064 L17.9884328,36.5126424 L20.3877128,35.5109664 L22.4681808,40.4943344 L22.5935008,40.3690144 L23.1161008,33.9262664 L25.7075728,34.1364504 L25.1463368,41.0554664 C25.1214288,41.3629424 24.9879448,41.6514904 24.7698568,41.8696304 L22.9350888,43.7043984 C22.6889208,43.9505664 22.3571608,44.0851944 22.0158848,44.0851944" id="Fill-10" fill="#ACACAC"></path>
            <path d="M22.6791396,10.6211144 L21.2083196,9.1503464 L22.5456556,7.8130104 C22.6609916,7.6976744 22.6609916,7.5099544 22.5456556,7.3946184 C22.4303716,7.2792824 22.2425476,7.2792824 22.1273156,7.3946184 L19.1645636,10.3573184 L17.6937436,8.8865504 L20.6564956,5.9237984 C21.5828236,4.9974704 23.0900956,4.9974704 24.0164756,5.9237984 C24.9427516,6.8501264 24.9427516,8.3573984 24.0164756,9.2837784 L22.6791396,10.6211144 Z" id="Fill-12" fill="#ACACAC"></path>
            <path d="M29.8539228,10.7854396 L28.3831028,9.3146716 L29.1075148,8.5902596 C29.2228508,8.4749236 29.2228508,8.2872036 29.1075148,8.1718156 C28.9922308,8.0565316 28.8044068,8.0565316 28.6890708,8.1718676 L26.5885308,10.2724596 L25.1177108,8.8016916 L27.2182508,6.7010996 C28.1448388,5.7747196 29.6520588,5.7748236 30.5783348,6.7010996 C31.5046108,7.6274796 31.5046108,9.1346996 30.5783348,10.0610276 L29.8539228,10.7854396 Z" id="Fill-14" fill="#ACACAC"></path>
            <path d="M43.0710124,34.2638244 L41.6001924,32.7930564 L44.5628924,29.8303044 C44.6345484,29.7586484 44.6496284,29.6770084 44.6496284,29.6211084 C44.6496284,29.5652084 44.6345484,29.4835684 44.5629444,29.4119124 C44.4476084,29.2965764 44.2598364,29.2965764 44.1446044,29.4119124 L42.8072684,30.7492484 L41.3364484,29.2784284 L42.6737324,27.9411444 C43.6001124,27.0147644 45.1073844,27.0147644 46.0337644,27.9411444 C46.4824724,28.3898524 46.7296284,28.9865004 46.7296284,29.6211084 C46.7296284,30.2557164 46.4824724,30.8523644 46.0337124,31.3011244 L43.0710124,34.2638244 Z" id="Fill-16" fill="#ACACAC"></path>
            <path d="M43.155918,26.8398312 L41.685098,25.3690632 L43.785638,23.2684712 C43.901026,23.1531352 43.901026,22.9654152 43.785638,22.8500792 C43.670406,22.7347432 43.482582,22.7347432 43.367298,22.8500792 L42.642938,23.5744912 L41.172118,22.1036712 L41.896478,21.3793112 C42.822858,20.4529312 44.33013,20.4529312 45.25651,21.3793112 C46.182786,22.3056392 46.182786,23.8129112 45.25651,24.7392392 L43.155918,26.8398312 Z" id="Fill-18" fill="#ACACAC"></path>
            <polygon id="Fill-20" fill="#00953C" points="3.1903612 21.6934588 1.7195412 20.2226908 7.0126212 14.9296108 8.4834412 16.4003788"></polygon>
            <polygon id="Fill-22" fill="#00953C" points="2.0317388 28.0416188 0.5609188 26.5708508 7.0843188 20.0474508 8.5551388 21.5182188"></polygon>
            <polygon id="Fill-24" fill="#00953C" points="31.9009652 50.0160128 30.4301452 48.5452448 35.5629092 43.4124288 37.0337292 44.8831968"></polygon>
            <polygon id="Fill-26" fill="#00953C" points="25.3746064 51.2853432 23.9037864 49.8145752 30.4271864 43.2911232 31.8980064 44.7618912"></polygon>
            <polygon id="Fill-28" fill-opacity="0" fill="#FFFFFF" points="0 51.957568 51.895272 51.957568 51.895272 0.062296 0 0.062296"></polygon>
        </g>
    </g>
</svg>