<?xml version="1.0" encoding="UTF-8"?>
<svg width="52px" height="52px" viewBox="0 0 52 52" version="1.1" xmlns="http://www.w3.org/2000/svg" xmlns:xlink="http://www.w3.org/1999/xlink">
    <!-- Generator: Sketch 63.1 (92452) - https://sketch.com -->
    <title>shop</title>
    <desc>Created with Sketch.</desc>
    <defs>
        <polygon id="path-1" points="0 51.3066153 51.9472192 51.3066153 51.9472192 0.000719732078 0 0.000719732078"></polygon>
    </defs>
    <g id="shop" stroke="none" stroke-width="1" fill="none" fill-rule="evenodd">
        <g>
            <path d="M12.9894334,38.5282349 L25.971007,38.5282349 L25.971007,29.5548724 L12.9894334,29.5548724 L12.9894334,38.5282349 Z M10.3868308,41.0987066 L28.5736096,41.0987066 L28.5736096,26.9844007 L10.3868308,26.9844007 L10.3868308,41.0987066 Z" id="Fill-1" fill="#ABABAB"></path>
            <path d="M33.7683524,43.658845 L38.9578378,43.658845 L38.9578378,29.5548724 L33.7683524,29.5548724 L33.7683524,43.658845 Z M31.1656977,46.2293167 L41.5603884,46.2293167 L41.5603884,26.9844007 L31.1656977,26.9844007 L31.1656977,46.2293167 Z" id="Fill-2" fill="#ABABAB"></path>
            <polygon id="Fill-3" fill="#ABABAB" points="2.5973974 46.2293167 49.3498739 46.2293167 49.3498739 43.658845 2.5973974 43.658845"></polygon>
            <polygon id="Fill-4" fill="#ABABAB" points="5.19214014 44.9440809 7.79474274 44.9440809 7.79474274 21.3513148 5.19214014 21.3513148"></polygon>
            <polygon id="Fill-5" fill="#ABABAB" points="44.1525285 44.9440809 46.7551311 44.9440809 46.7551311 21.3513148 44.1525285 21.3513148"></polygon>
            <g id="Group-15" transform="translate(0.000000, 0.050690)">
                <path d="M35.710987,16.6751229 L38.3135896,16.6751229 C38.3135896,18.9723021 40.2058378,20.8411892 42.5317317,20.8411892 C44.7376977,20.8411892 46.5535335,19.1600493 46.734987,17.0268663 L40.7142823,7.69918996 L11.232989,7.69918996 L5.21223223,17.0268663 C5.39368569,19.1600493 7.20957357,20.8411892 9.41548749,20.8411892 C11.7413814,20.8411892 13.6336296,18.9723021 13.6336296,16.6751229 L16.2362322,16.6751229 C16.2362322,18.9723021 18.1285325,20.8411892 20.4544264,20.8411892 C22.7631431,20.8411892 24.6445646,18.9999089 24.6722563,16.7260697 C24.6721522,16.7091046 24.672048,16.6921394 24.672048,16.6751229 L24.672048,15.3898871 L27.2746507,15.3898871 L27.2751712,16.6751229 C27.2751712,16.6921394 27.2751191,16.7091046 27.274963,16.7260697 C27.3026547,18.9999089 29.1840761,20.8411892 31.4927928,20.8411892 C33.8186867,20.8411892 35.710987,18.9723021 35.710987,16.6751229 M42.5317317,23.4116609 C40.2651251,23.4116609 38.2532613,22.3141209 37.0122883,20.6288169 C35.7713153,22.3141209 33.7593994,23.4116609 31.4927928,23.4116609 C29.2264464,23.4116609 27.2146346,22.3141723 25.9736096,20.6291767 C24.7325846,22.3141723 22.7207728,23.4116609 20.4544264,23.4116609 C18.1878198,23.4116609 16.175956,22.3141209 14.9349309,20.6288169 C13.693958,22.3141209 11.6820941,23.4116609 9.41548749,23.4116609 C5.65451852,23.4116609 2.59474274,20.3896602 2.59474274,16.6751229 L2.59474274,16.3002967 L9.80566967,5.12871825 L42.1416016,5.12871825 L49.3524765,16.3002967 L49.3524765,16.6751229 C49.3524765,20.3896602 46.2927007,23.4116609 42.5317317,23.4116609" id="Fill-6" fill="#00933C"></path>
                <polygon id="Fill-8" fill="#00933C" points="16.1770022 17.0584574 13.6928701 16.2917885 16.9394607 6.03061966 19.4235928 6.79728855"></polygon>
                <mask id="mask-2" fill="white">
                    <use xlink:href="#path-1"></use>
                </mask>
                <g id="Clip-11"></g>
                <polygon id="Fill-10" fill="#00933C" mask="url(#mask-2)" points="24.672048 16.6751126 27.2746507 16.6751126 27.2746507 6.41394382 24.672048 6.41394382"></polygon>
                <polygon id="Fill-12" fill="#00933C" mask="url(#mask-2)" points="3.89604404 17.9603485 48.0511752 17.9603485 48.0511752 15.3898768 3.89604404 15.3898768"></polygon>
                <polygon id="Fill-13" fill="#00933C" mask="url(#mask-2)" points="35.7702326 17.0584574 32.523642 6.79728855 35.0077742 6.03061966 38.2543648 16.2917885"></polygon>
                <polygon id="Fill-14" fill-opacity="0" fill="#FFFFFF" mask="url(#mask-2)" points="0 51.3066153 51.9472192 51.3066153 51.9472192 0.000719732078 0 0.000719732078"></polygon>
            </g>
        </g>
    </g>
</svg>