<?xml version="1.0" encoding="UTF-8"?>
<svg width="52px" height="52px" viewBox="0 0 52 52" version="1.1" xmlns="http://www.w3.org/2000/svg" xmlns:xlink="http://www.w3.org/1999/xlink">
    <!-- Generator: Sketch 63.1 (92452) - https://sketch.com -->
    <title>arrow-on-target</title>
    <desc>Created with Sketch.</desc>
    <defs>
        <polygon id="path-1" points="0 0.000728728729 27.3007529 0.000728728729 27.3007529 27.2730214 0 27.2730214"></polygon>
        <polygon id="path-3" points="0.000729458918 0.000728728729 52 0.000728728729 52 51.9479427 0.000729458918 51.9479427"></polygon>
    </defs>
    <g id="arrow-on-target" stroke="none" stroke-width="1" fill="none" fill-rule="evenodd">
        <g>
            <path d="M26.0003647,18.2335632 C25.3061804,18.2335632 24.6457595,18.3530226 24.0052946,18.5235972 L26.350505,20.8664601 C29.0518477,21.0499435 31.2002605,23.2811027 31.2002605,26.0256513 C31.2002605,28.8896593 28.8672425,31.220394 26.0003647,31.220394 C23.2530661,31.220394 21.0205571,29.0740797 20.8359519,26.3763259 L18.4899078,24.0334631 C18.3200481,24.6732869 18.2004689,25.3321618 18.2004689,26.0256513 C18.2004689,30.3294711 21.6922325,33.8177393 26.0003647,33.8177393 C30.308497,33.8177393 33.8002605,30.3294711 33.8002605,26.0256513 C33.8002605,21.7218314 30.308497,18.2335632 26.0003647,18.2335632" id="Fill-1" fill="#AAAAAA"></path>
            <g id="Group-5" transform="translate(0.000000, 0.051323)">
                <mask id="mask-2" fill="white">
                    <use xlink:href="#path-1"></use>
                </mask>
                <g id="Clip-4"></g>
                <path d="M2.60068778,7.7928012 L7.80058357,7.7928012 L7.80058357,2.59805846 L15.6005315,10.3901465 L15.6005315,15.5848893 L10.4005836,15.5848893 L2.60068778,7.7928012 Z M26.9198581,25.0557081 L18.0721988,16.2177902 C18.1259182,16.0099984 18.2004794,15.8091295 18.2004794,15.5848893 L18.2004794,10.3901465 C18.2004794,9.70097738 17.9266196,9.04038478 17.4386637,8.55385425 L9.63876794,0.761714114 C9.14216273,0.264773173 8.47658357,0.000713113113 7.7997499,0.000713113113 C7.46518878,0.000713113113 7.12724088,0.065622022 6.80570581,0.198094494 C5.83417074,0.600717117 5.20063567,1.54785626 5.20063567,2.59805846 L5.20063567,5.19545586 L2.60068778,5.19545586 C1.54943327,5.19545586 0.601292986,5.8283047 0.198319038,6.79886727 C-0.204707014,7.76942983 0.018038477,8.88631071 0.761669739,9.62914555 L8.56151343,17.4212336 C9.04946934,17.908649 9.71072385,18.1822346 10.4005836,18.1822346 L15.6005315,18.1822346 C15.8249443,18.1822346 16.0260144,18.1078002 16.2340144,18.0541345 L25.0816737,26.8929373 C25.3347439,27.146587 25.6675856,27.2730214 26.0003752,27.2730214 C26.3331647,27.2730214 26.6659543,27.146587 26.9198581,26.8929373 C27.4277178,26.385586 27.4277178,25.5631115 26.9198581,25.0557081 L26.9198581,25.0557081 Z" id="Fill-3" fill="#438F42" mask="url(#mask-2)"></path>
            </g>
            <path d="M26.0003647,9.14280761 C24.1682244,9.14280761 22.4080922,9.4432 20.7553467,9.98173053 C20.7692585,10.1358567 20.8004168,10.2856625 20.8004168,10.4415063 L20.8004168,12.7323692 C22.4141363,12.1003532 24.1647856,11.740153 26.0003647,11.740153 C33.8851904,11.740153 40.3001563,18.1487495 40.3001563,26.0256825 C40.3001563,33.9025634 33.8851904,40.31116 26.0003647,40.31116 C18.1155391,40.31116 11.7005731,33.9025634 11.7005731,26.0256825 C11.7005731,24.1919407 12.0610822,22.4430438 12.6937315,20.8309397 L10.4005731,20.8309397 C10.2445731,20.8309397 10.0946172,20.7997606 9.94038878,20.7859147 C9.40131864,22.4369538 9.10057315,24.1953762 9.10057315,26.0256825 C9.10057315,35.350183 16.6664689,42.9085053 26.0003647,42.9085053 C35.3342084,42.9085053 42.9001042,35.350183 42.9001042,26.0256825 C42.9001042,16.7011299 35.3342084,9.14280761 26.0003647,9.14280761" id="Fill-6" fill="#AAAAAA"></path>
            <g id="Group-10" transform="translate(0.000000, 0.051323)">
                <mask id="mask-4" fill="white">
                    <use xlink:href="#path-3"></use>
                </mask>
                <g id="Clip-9"></g>
                <path d="M26.0003647,0.000723523524 C22.0683727,0.000723523524 18.3547495,0.897632432 15.0137756,2.45867347 L16.9698196,4.41275956 C19.7500481,3.2457005 22.8006453,2.59806887 26.0003647,2.59806887 C38.9031383,2.59806887 49.4000521,13.0844753 49.4000521,25.9743331 C49.4000521,38.8641389 38.9031383,49.3505974 26.0003647,49.3505974 C13.0975912,49.3505974 2.60067735,38.8641389 2.60067735,25.9743331 C2.60067735,22.7778166 3.24979158,19.7302731 4.41718637,16.9528276 L2.46114228,14.9987415 C0.898589178,18.3363712 0.000729458918,22.046225 0.000729458918,25.9743331 C0.000729458918,40.3186815 11.6407575,51.9479427 26.0003647,51.9479427 C40.3599719,51.9479427 52,40.3195664 52,25.9743331 C52,11.6290999 40.3599719,0.000723523524 26.0003647,0.000723523524" id="Fill-8" fill="#AAAAAA" mask="url(#mask-4)"></path>
            </g>
        </g>
    </g>
</svg>