<?xml version="1.0" encoding="UTF-8"?>
<svg width="52px" height="52px" viewBox="0 0 52 52" version="1.1" xmlns="http://www.w3.org/2000/svg" xmlns:xlink="http://www.w3.org/1999/xlink">
    <!-- Generator: Sketch 63.1 (92452) - https://sketch.com -->
    <title>bank</title>
    <desc>Created with Sketch.</desc>
    <defs>
        <polygon id="path-1" points="0 51.8961039 51.9992705 51.8961039 51.9992705 0.050025974 0 0.050025974"></polygon>
    </defs>
    <g id="bank" stroke="none" stroke-width="1" fill="none" fill-rule="evenodd">
        <g>
            <polygon id="Fill-1" fill="#ABABAB" points="14.9901619 40.9159844 12.2315567 40.9159844 12.2315567 21.7050753 9.4840497 21.7050753 9.4840497 40.9159844 6.72544449 40.9159844 6.72544449 18.9547896 14.9901619 18.9547896"></polygon>
            <polygon id="Fill-2" fill="#ABABAB" points="45.2738521 40.9159844 42.5152469 40.9159844 42.5152469 21.7050753 39.7676878 21.7050753 39.7676878 40.9159844 37.0090826 40.9159844 37.0090826 18.9547896 45.2738521 18.9547896"></polygon>
            <g id="Group-12" transform="translate(0.000000, 0.001922)">
                <path d="M3.97795832,18.9528468 L48.0213331,18.9528468 L48.0213331,16.9589247 L26.1343872,2.83923636 C26.0525315,2.78635325 25.9467599,2.78640519 25.8649042,2.83923636 L3.97795832,16.9589247 L3.97795832,18.9528468 Z M48.5214293,21.7031844 L3.47786212,21.7031844 C2.23251944,21.7031844 1.21935311,20.6930545 1.21935311,19.4513922 L1.21935311,15.4626649 L24.366283,0.530093506 C25.3585034,-0.109958442 26.640788,-0.11001039 27.6330084,0.530041558 L50.7799383,15.4626649 L50.7799383,19.4513922 C50.7799383,20.6930545 49.7667719,21.7031844 48.5214293,21.7031844 L48.5214293,21.7031844 Z" id="Fill-3" fill="#ABABAB"></path>
                <mask id="mask-2" fill="white">
                    <use xlink:href="#path-1"></use>
                </mask>
                <g id="Clip-6"></g>
                <path d="M3.9779479,49.1457662 L48.0213226,49.1457662 L48.0213226,46.4064935 L3.9779479,46.4064935 L3.9779479,49.1457662 Z M1.21929058,51.8961039 L50.7799279,51.8961039 L50.7799279,43.6561039 L1.21929058,43.6561039 L1.21929058,51.8961039 Z" id="Fill-5" fill="#ABABAB" mask="url(#mask-2)"></path>
                <path d="M6.73097796,43.6561039 L14.9845972,43.6561039 L14.9845972,40.9168312 L6.73097796,40.9168312 L6.73097796,43.6561039 Z M3.97242485,46.4064935 L17.7432545,46.4064935 L17.7432545,38.1664935 L3.97242485,38.1664935 L3.97242485,46.4064935 Z" id="Fill-7" fill="#ABABAB" mask="url(#mask-2)"></path>
                <path d="M37.0146733,43.6561039 L45.2682926,43.6561039 L45.2682926,40.9168312 L37.0146733,40.9168312 L37.0146733,43.6561039 Z M34.2560681,46.4064935 L48.0268978,46.4064935 L48.0268978,38.1664935 L34.2560681,38.1664935 L34.2560681,46.4064935 Z" id="Fill-8" fill="#ABABAB" mask="url(#mask-2)"></path>
                <path d="M23.8970325,29.6600571 C23.8970325,29.1661351 24.0731968,28.8044208 24.4502228,28.5226026 C24.649313,28.3752779 24.8788842,28.2649922 25.135289,28.1932 L25.135289,31.1474857 C24.7424754,30.9977195 24.4483992,30.8243169 24.2587399,30.630239 C24.0119743,30.3768883 23.8970325,30.0686286 23.8970325,29.6600571 M28.3374573,35.2316935 C28.3374573,35.7524727 28.1380024,36.1376675 27.70981,36.4439013 L27.7066317,36.446239 C27.4774774,36.6151221 27.2160184,36.7425506 26.9264754,36.8268623 L26.9264754,33.6017714 C27.5319784,33.7976156 27.8181868,33.9755377 27.9552729,34.0993818 C28.2088641,34.3228104 28.3374573,34.7037974 28.3374573,35.2316935 M29.2749683,32.7699792 C28.7677339,32.3495636 27.9982589,31.9877974 26.9264754,31.6663429 L26.9264754,28.1945506 C27.1461988,28.250239 27.3338782,28.3338753 27.4857098,28.4439532 C27.8113611,28.6856156 27.9822629,29.0448364 28.0080024,29.5418234 C28.0096697,29.8507584 28.1116377,30.1083169 28.3121868,30.3083169 C28.497782,30.4917455 28.7571567,30.5930961 29.0243992,30.5853558 C29.2793972,30.5783948 29.5169924,30.4745506 29.6772649,30.300213 C29.8731246,30.0990701 29.9724874,29.8413039 29.9724874,29.5340312 C29.9724874,28.5789143 29.6371968,27.7919532 28.9737539,27.1927325 C28.4342669,26.7164727 27.7464393,26.4208364 26.9264754,26.3121091 L26.9264754,25.919174 C26.9264754,25.3806286 26.5718541,25.0325766 26.0230926,25.0325766 C25.4920465,25.0325766 25.135289,25.3888883 25.135289,25.919174 L25.135289,26.3087844 C24.3121467,26.4106026 23.6102509,26.706239 23.0449202,27.190239 C22.2964433,27.839174 21.9169683,28.7069662 21.9169683,29.7695117 C21.9169683,30.7010442 22.2607519,31.4640571 22.9371166,32.0359532 C23.4486758,32.4749143 24.1691727,32.8174078 25.135289,33.0803169 L25.135289,36.8447844 C24.7416938,36.7542909 24.4251607,36.6115896 24.192776,36.4200571 C23.7634373,36.0576156 23.5589804,35.5165247 23.5676818,34.7627065 C23.5676818,34.4576675 23.4736337,34.2012 23.2956978,34.0205247 C23.125317,33.8338234 22.8775094,33.7270701 22.6142269,33.7270701 L22.6124032,33.7270701 C22.3523511,33.7275377 22.1098581,33.8312779 21.9456778,34.0120571 C21.7628441,34.1977195 21.6662429,34.4568883 21.6662429,34.762187 C21.6662429,36.1770961 22.1056898,37.2405247 22.9725475,37.9229662 L22.9777579,37.9270701 C23.5058341,38.3223948 24.2306036,38.5894597 25.1347679,38.7222909 L25.1347679,39.4260312 C25.1347679,39.9732 25.4832409,40.3267065 26.0225715,40.3267065 C26.5713852,40.3267065 26.9260064,39.9732 26.9260064,39.4260312 L26.9260064,38.7379792 C27.7865074,38.6003688 28.5300345,38.2683688 29.1395495,37.7488364 C29.9315335,37.070239 30.3331006,36.1916416 30.3331006,35.1373558 C30.3331006,34.1404727 29.9771246,33.3440052 29.2749683,32.7699792" id="Fill-9" fill="#00953C" mask="url(#mask-2)"></path>
                <path d="M25.9996196,10.7197922 C26.7593511,10.7197922 27.3775154,11.3361558 27.3775154,12.0935584 C27.3775154,12.850961 26.7593511,13.4673766 25.9996196,13.4673766 C25.2399403,13.4673766 24.6217238,12.850961 24.6217238,12.0935584 C24.6217238,11.3361558 25.2399403,10.7197922 25.9996196,10.7197922 M25.9996196,16.2149091 C28.2823571,16.2149091 30.1333591,14.3694545 30.1333591,12.0935584 C30.1333591,9.81766234 28.2823571,7.97220779 25.9996196,7.97220779 C23.7168822,7.97220779 21.8659323,9.81766234 21.8659323,12.0935584 C21.8659323,14.3694545 23.7168822,16.2149091 25.9996196,16.2149091" id="Fill-10" fill="#AAAAAA" mask="url(#mask-2)"></path>
                <polygon id="Fill-11" fill-opacity="0" fill="#FFFFFF" mask="url(#mask-2)" points="0 52.050026 51.9992705 52.050026 51.9992705 0.050025974 0 0.050025974"></polygon>
            </g>
        </g>
    </g>
</svg>