<?xml version="1.0" encoding="UTF-8"?>
<svg width="52px" height="52px" viewBox="0 0 52 52" version="1.1" xmlns="http://www.w3.org/2000/svg" xmlns:xlink="http://www.w3.org/1999/xlink">
    <!-- Generator: Sketch 63.1 (92452) - https://sketch.com -->
    <title>book</title>
    <desc>Created with Sketch.</desc>
    <defs>
        <polygon id="path-1" points="0.0310908 0.047476 10.4153348 0.047476 10.4153348 9.1317876 0.0310908 9.1317876"></polygon>
        <polygon id="path-3" points="0 0.0160732 7.7895376 0.0160732 7.7895376 2.6160732 0 2.6160732"></polygon>
        <polygon id="path-5" points="0 0.0003796 7.7895376 0.0003796 7.7895376 2.6003796 0 2.6003796"></polygon>
        <polygon id="path-7" points="0 0.0366652 7.7895376 0.0366652 7.7895376 2.6366652 0 2.6366652"></polygon>
        <polygon id="path-9" points="0 0.0209456 7.7895376 0.0209456 7.7895376 2.6209456 0 2.6209456"></polygon>
        <polygon id="path-11" points="0 51.952524 51.897924 51.952524 51.897924 0.052 0 0.052"></polygon>
    </defs>
    <g id="book" stroke="none" stroke-width="1" fill="none" fill-rule="evenodd">
        <g>
            <g id="Group-3" transform="translate(10.348000, 0.004524)">
                <mask id="mask-2" fill="white">
                    <use xlink:href="#path-1"></use>
                </mask>
                <g id="Clip-2"></g>
                <path d="M10.4153348,9.1317876 L7.8153348,9.1317876 L7.8153348,3.7765676 L5.9443228,5.0238916 C5.5076788,5.3150396 4.9387468,5.3150396 4.5021028,5.0238916 L2.6310908,3.7765676 L2.6310908,9.1317876 L0.0310908,9.1317876 L0.0310908,1.3474916 C0.0310908,0.8680516 0.2949388,0.4275076 0.7176468,0.2013076 C1.1404068,-0.0249444 1.6532828,-0.0001404 2.0521748,0.2657876 L5.2231868,2.3798476 L8.3942508,0.2657876 C8.7930388,-8.84e-05 9.3058628,-0.0249444 9.7287788,0.2013076 C10.1514868,0.4275076 10.4153348,0.8680516 10.4153348,1.3474916 L10.4153348,9.1317876 Z" id="Fill-1" fill="#00953C" mask="url(#mask-2)"></path>
            </g>
            <path d="M23.3581036,51.952524 L2.5947636,51.952524 L2.5947636,7.836296 L23.3555036,7.836296 L23.3581036,10.436296 L5.1947636,10.436296 L5.1947636,49.352524 L23.3581036,49.352524 L23.3581036,51.952524 Z M31.1397476,49.352524 L34.7929556,49.352524 C35.6399836,49.352524 36.3266956,48.665864 36.3266956,47.818836 L36.3266956,11.970036 C36.3266956,11.122956 35.6399836,10.436296 34.7929556,10.436296 L31.1397476,10.436296 L31.1397476,7.836296 L34.7929556,7.836296 C37.0759636,7.836296 38.9266956,9.687028 38.9266956,11.969984 L38.9266956,47.818784 C38.9266956,50.101792 37.0759636,51.952524 34.7929556,51.952524 L31.1397476,51.952524 L31.1397476,49.352524 Z" id="Fill-4" fill="#AEADAD"></path>
            <g id="Group-8" transform="translate(0.000000, 15.604524)">
                <mask id="mask-4" fill="white">
                    <use xlink:href="#path-3"></use>
                </mask>
                <g id="Clip-7"></g>
                <path d="M6.4895376,2.6160732 L1.2999896,2.6160732 C0.5820776,2.6160732 -1.04e-05,2.0340372 -1.04e-05,1.3160732 C-1.04e-05,0.5981092 0.5820776,0.0160732 1.2999896,0.0160732 L6.4895376,0.0160732 C7.2075016,0.0160732 7.7895376,0.5981092 7.7895376,1.3160732 C7.7895376,2.0340372 7.2075016,2.6160732 6.4895376,2.6160732" id="Fill-6" fill="#AEADAD" mask="url(#mask-4)"></path>
            </g>
            <g id="Group-11" transform="translate(0.000000, 23.404524)">
                <mask id="mask-6" fill="white">
                    <use xlink:href="#path-5"></use>
                </mask>
                <g id="Clip-10"></g>
                <path d="M6.4895376,2.6003796 L1.2999896,2.6003796 C0.5820776,2.6003796 -1.04e-05,2.0183436 -1.04e-05,1.3003796 C-1.04e-05,0.5824156 0.5820776,0.0003796 1.2999896,0.0003796 L6.4895376,0.0003796 C7.2075016,0.0003796 7.7895376,0.5824156 7.7895376,1.3003796 C7.7895376,2.0183436 7.2075016,2.6003796 6.4895376,2.6003796" id="Fill-9" fill="#AEADAD" mask="url(#mask-6)"></path>
            </g>
            <g id="Group-14" transform="translate(0.000000, 31.152524)">
                <mask id="mask-8" fill="white">
                    <use xlink:href="#path-7"></use>
                </mask>
                <g id="Clip-13"></g>
                <path d="M6.4895376,2.6366652 L1.2999896,2.6366652 C0.5820776,2.6366652 -1.04e-05,2.0546292 -1.04e-05,1.3366652 C-1.04e-05,0.6187012 0.5820776,0.0366652 1.2999896,0.0366652 L6.4895376,0.0366652 C7.2075016,0.0366652 7.7895376,0.6187012 7.7895376,1.3366652 C7.7895376,2.0546292 7.2075016,2.6366652 6.4895376,2.6366652" id="Fill-12" fill="#AEADAD" mask="url(#mask-8)"></path>
            </g>
            <g id="Group-17" transform="translate(0.000000, 38.952524)">
                <mask id="mask-10" fill="white">
                    <use xlink:href="#path-9"></use>
                </mask>
                <g id="Clip-16"></g>
                <path d="M6.4895376,2.6209456 L1.2999896,2.6209456 C0.5820776,2.6209456 -1.04e-05,2.0389096 -1.04e-05,1.3209456 C-1.04e-05,0.6029816 0.5820776,0.0209456 1.2999896,0.0209456 L6.4895376,0.0209456 C7.2075016,0.0209456 7.7895376,0.6029816 7.7895376,1.3209456 C7.7895376,2.0389096 7.2075016,2.6209456 6.4895376,2.6209456" id="Fill-15" fill="#AEADAD" mask="url(#mask-10)"></path>
            </g>
            <mask id="mask-12" fill="white">
                <use xlink:href="#path-11"></use>
            </mask>
            <g id="Clip-19"></g>
            <polygon id="Fill-18" fill="#00953C" mask="url(#mask-12)" points="25.947636 51.949924 28.547636 51.949924 28.547636 7.838948 25.947636 7.838948"></polygon>
            <path d="M12.979096,18.372016 L20.75814,18.372016 L20.75814,15.625792 L12.979096,15.625792 L12.979096,18.372016 Z M10.379044,20.972016 L23.358088,20.972016 L23.358088,13.025792 L10.379044,13.025792 L10.379044,20.972016 Z" id="Fill-20" fill="#AEADAD" mask="url(#mask-12)"></path>
            <path d="M44.1162124,37.6760852 L46.7057604,37.6760852 L46.7057604,3.9467532 C46.7057604,3.2328452 46.1249204,2.6520052 45.4109604,2.6520052 C44.6970524,2.6520052 44.1162124,3.2328452 44.1162124,3.9467532 L44.1162124,37.6760852 Z M48.0057604,40.2760852 L42.8162124,40.2760852 C42.0982484,40.2760852 41.5162124,39.6940492 41.5162124,38.9760852 L41.5162124,3.9467532 C41.5162124,1.7992052 43.2634124,0.0520052 45.4109604,0.0520052 C47.5585604,0.0520052 49.3057604,1.7992052 49.3057604,3.9467532 L49.3057604,38.9760852 C49.3057604,39.6940492 48.7236724,40.2760852 48.0057604,40.2760852 L48.0057604,40.2760852 Z" id="Fill-21" fill="#AEADAD" mask="url(#mask-12)"></path>
            <path d="M45.4109812,48.0603968 C44.8514092,48.0603968 44.3546532,47.7023248 44.1776972,47.1715088 L41.5829492,39.3872128 L44.0494652,38.5649888 L45.4109812,42.6494328 L46.7724972,38.5649888 L49.2390132,39.3872128 L46.6442652,47.1715088 C46.4673092,47.7023248 45.9705532,48.0603968 45.4109812,48.0603968" id="Fill-22" fill="#AEADAD" mask="url(#mask-12)"></path>
            <polygon id="Fill-23" fill="#AEADAD" mask="url(#mask-12)" points="42.816176 7.841548 48.005724 7.841548 48.005724 5.241548 42.816176 5.241548"></polygon>
            <polygon id="Fill-24" fill-opacity="0" fill="#FFFFFF" mask="url(#mask-12)" points="0.0026 51.949924 51.897872 51.949924 51.897872 0.054652 0.0026 0.054652"></polygon>
        </g>
    </g>
</svg>