<?xml version="1.0" encoding="UTF-8"?>
<svg width="52px" height="52px" viewBox="0 0 52 52" version="1.1" xmlns="http://www.w3.org/2000/svg" xmlns:xlink="http://www.w3.org/1999/xlink">
    <!-- Generator: Sketch 63.1 (92452) - https://sketch.com -->
    <title>calendar</title>
    <desc>Created with Sketch.</desc>
    <defs>
        <polygon id="path-1" points="1.04208417e-05 0.0128228457 51.9871928 0.0128228457 51.9871928 52 1.04208417e-05 52"></polygon>
    </defs>
    <g id="calendar" stroke="none" stroke-width="1" fill="none" fill-rule="evenodd">
        <g>
            <g id="Group-3">
                <mask id="mask-2" fill="white">
                    <use xlink:href="#path-1"></use>
                </mask>
                <g id="Clip-2"></g>
                <path d="M49.387818,18.2083419 L2.59933307,18.2083419 L2.59933307,13.0096445 C2.59933307,10.1381816 4.92667174,7.81089499 7.79808257,7.81089499 L10.3974573,7.81089499 L10.3974573,11.7099571 C10.3974573,12.4282136 10.9788361,13.0096445 11.6970926,13.0096445 C12.4154012,13.0096445 12.99678,12.4282136 12.99678,11.7099571 L12.99678,7.81089499 L38.9903711,7.81089499 L38.9903711,11.7099571 C38.9903711,12.4282136 39.5717499,13.0096445 40.2900585,13.0096445 C41.0083671,13.0096445 41.5897459,12.4282136 41.5897459,11.7099571 L41.5897459,7.81089499 L44.1891206,7.81089499 C47.0604794,7.81089499 49.387818,10.1381816 49.387818,13.0096445 L49.387818,18.2083419 Z M49.387818,44.2019331 C49.387818,47.0733439 47.0604794,49.4006305 44.1891206,49.4006305 L7.79808257,49.4006305 C4.92667174,49.4006305 2.59933307,47.0733439 2.59933307,44.2019331 L2.59933307,20.8077166 L49.387818,20.8077166 L49.387818,44.2019331 Z M44.1891206,5.21157234 L41.5897459,5.21157234 L41.5897459,1.31251022 C41.5897459,0.594201603 41.0083671,0.0128228457 40.2900585,0.0128228457 C39.5717499,0.0128228457 38.9903711,0.594201603 38.9903711,1.31251022 L38.9903711,5.21157234 L12.99678,5.21157234 L12.99678,1.31251022 C12.99678,0.594201603 12.4154012,0.0128228457 11.6970926,0.0128228457 C10.9788361,0.0128228457 10.3974573,0.594201603 10.3974573,1.31251022 L10.3974573,5.21157234 L7.79808257,5.21157234 C3.49787014,5.21157234 1.04208417e-05,8.70943206 1.04208417e-05,13.0096445 L1.04208417e-05,44.2019331 C1.04208417e-05,48.5021455 3.49787014,52.0000052 7.79808257,52.0000052 L44.1891206,52.0000052 C48.489281,52.0000052 51.9871928,48.5021455 51.9871928,44.2019331 L51.9871928,13.0096445 C51.9871928,8.70943206 48.489281,5.21157234 44.1891206,5.21157234 L44.1891206,5.21157234 Z" id="Fill-1" fill="#AAAAAA" mask="url(#mask-2)"></path>
            </g>
            <path d="M13.0292565,27.1082409 C13.6761303,27.1082409 14.202487,27.6346497 14.202487,28.2815234 C14.202487,28.9283451 13.6761303,29.4547539 13.0292565,29.4547539 C12.3823828,29.4547539 11.8559739,28.9283451 11.8559739,28.2815234 C11.8559739,27.6346497 12.3823828,27.1082409 13.0292565,27.1082409 M13.0292565,31.8012669 C14.9729519,31.8012669 16.549,30.2251667 16.549,28.2815234 C16.549,26.3378281 14.9729519,24.7617279 13.0292565,24.7617279 C11.0855611,24.7617279 9.50951303,26.3378281 9.50951303,28.2815234 C9.50951303,30.2251667 11.0855611,31.8012669 13.0292565,31.8012669" id="Fill-4" fill="#438F42"></path>
            <path d="M25.9349948,27.1082409 C26.5818685,27.1082409 27.1082774,27.6346497 27.1082774,28.2815234 C27.1082774,28.9283451 26.5818685,29.4547539 25.9349948,29.4547539 C25.288121,29.4547539 24.7617643,28.9283451 24.7617643,28.2815234 C24.7617643,27.6346497 25.288121,27.1082409 25.9349948,27.1082409 M25.9349948,31.8012669 C27.8786902,31.8012669 29.4547383,30.2251667 29.4547383,28.2815234 C29.4547383,26.3378281 27.8786902,24.7617279 25.9349948,24.7617279 C23.9912994,24.7617279 22.4152513,26.3378281 22.4152513,28.2815234 C22.4152513,30.2251667 23.9912994,31.8012669 25.9349948,31.8012669" id="Fill-6" fill="#AAAAAA"></path>
            <path d="M38.8407591,27.1082409 C39.4876329,27.1082409 40.0139896,27.6346497 40.0139896,28.2815234 C40.0139896,28.9283451 39.4876329,29.4547539 38.8407591,29.4547539 C38.1938854,29.4547539 37.6674766,28.9283451 37.6674766,28.2815234 C37.6674766,27.6346497 38.1938854,27.1082409 38.8407591,27.1082409 M38.8407591,31.8012669 C40.7844545,31.8012669 42.3605026,30.2251667 42.3605026,28.2815234 C42.3605026,26.3378281 40.7844545,24.7617279 38.8407591,24.7617279 C36.8970637,24.7617279 35.3210156,26.3378281 35.3210156,28.2815234 C35.3210156,30.2251667 36.8970637,31.8012669 38.8407591,31.8012669" id="Fill-8" fill="#AAAAAA"></path>
            <path d="M13.0292565,38.8407487 C13.6761303,38.8407487 14.202487,39.3671575 14.202487,40.0140313 C14.202487,40.6608529 13.6761303,41.1872617 13.0292565,41.1872617 C12.3823828,41.1872617 11.8559739,40.6608529 11.8559739,40.0140313 C11.8559739,39.3671575 12.3823828,38.8407487 13.0292565,38.8407487 M13.0292565,43.5337226 C14.9729519,43.5337226 16.549,41.9576745 16.549,40.0140313 C16.549,38.0703359 14.9729519,36.4942357 13.0292565,36.4942357 C11.0855611,36.4942357 9.50951303,38.0703359 9.50951303,40.0140313 C9.50951303,41.9576745 11.0855611,43.5337226 13.0292565,43.5337226" id="Fill-10" fill="#AAAAAA"></path>
            <path d="M25.9349948,38.8407487 C26.5818685,38.8407487 27.1082774,39.3671575 27.1082774,40.0140313 C27.1082774,40.6608529 26.5818685,41.1872617 25.9349948,41.1872617 C25.288121,41.1872617 24.7617643,40.6608529 24.7617643,40.0140313 C24.7617643,39.3671575 25.288121,38.8407487 25.9349948,38.8407487 M25.9349948,43.5337226 C27.8786902,43.5337226 29.4547383,41.9576745 29.4547383,40.0140313 C29.4547383,38.0703359 27.8786902,36.4942357 25.9349948,36.4942357 C23.9912994,36.4942357 22.4152513,38.0703359 22.4152513,40.0140313 C22.4152513,41.9576745 23.9912994,43.5337226 25.9349948,43.5337226" id="Fill-12" fill="#AAAAAA"></path>
            <path d="M38.8407591,38.8407487 C39.4876329,38.8407487 40.0139896,39.3671575 40.0139896,40.0140313 C40.0139896,40.6608529 39.4876329,41.1872617 38.8407591,41.1872617 C38.1938854,41.1872617 37.6674766,40.6608529 37.6674766,40.0140313 C37.6674766,39.3671575 38.1938854,38.8407487 38.8407591,38.8407487 M38.8407591,43.5337226 C40.7844545,43.5337226 42.3605026,41.9576745 42.3605026,40.0140313 C42.3605026,38.0703359 40.7844545,36.4942357 38.8407591,36.4942357 C36.8970637,36.4942357 35.3210156,38.0703359 35.3210156,40.0140313 C35.3210156,41.9576745 36.8970637,43.5337226 38.8407591,43.5337226" id="Fill-14" fill="#AAAAAA"></path>
        </g>
    </g>
</svg>