<?xml version="1.0" encoding="UTF-8"?>
<svg width="52px" height="52px" viewBox="0 0 52 52" version="1.1" xmlns="http://www.w3.org/2000/svg" xmlns:xlink="http://www.w3.org/1999/xlink">
    <!-- Generator: Sketch 63.1 (92452) - https://sketch.com -->
    <title>clock</title>
    <desc>Created with Sketch.</desc>
    <defs>
        <polygon id="path-1" points="0 0 51.9999948 0 51.9999948 51.9999896 0 51.9999896"></polygon>
        <polygon id="path-3" points="0 52 52 52 52 0 0 0"></polygon>
    </defs>
    <g id="clock" stroke="none" stroke-width="1" fill="none" fill-rule="evenodd">
        <g>
            <g id="Group-3">
                <mask id="mask-2" fill="white">
                    <use xlink:href="#path-1"></use>
                </mask>
                <g id="Clip-2"></g>
                <path d="M25.9999948,49.3999896 C13.0970649,49.3999896 2.59999479,38.9029194 2.59999479,25.9999896 C2.59999479,13.0970597 13.0970649,2.59998958 25.9999948,2.59998958 C38.9029246,2.59998958 49.3999948,13.0970597 49.3999948,25.9999896 C49.3999948,38.9029194 38.9029246,49.3999896 25.9999948,49.3999896 M25.9999948,-1.04208417e-05 C11.6410649,-1.04208417e-05 -5.21042084e-06,11.6410597 -5.21042084e-06,25.9999896 C-5.21042084e-06,40.3589194 11.6410649,51.9999896 25.9999948,51.9999896 C40.3598104,51.9999896 51.9999948,40.3589194 51.9999948,25.9999896 C51.9999948,11.6410597 40.3598104,-1.04208417e-05 25.9999948,-1.04208417e-05" id="Fill-1" fill="#AAAAAA" mask="url(#mask-2)"></path>
            </g>
            <polygon id="Fill-4" fill="#00933C" points="24.7 27.2999948 24.7 10.3999948 27.3 10.3999948 27.3 24.6999948 37.7 24.6999948 37.7 27.2999948"></polygon>
            <mask id="mask-4" fill="white">
                <use xlink:href="#path-3"></use>
            </mask>
            <g id="Clip-7"></g>
            <polygon id="Fill-6" fill="#AAAAAA" mask="url(#mask-4)" points="24.7 7.8 27.3 7.8 27.3 5.2 24.7 5.2"></polygon>
            <polygon id="Fill-8" fill="#AAAAAA" mask="url(#mask-4)" points="24.7 46.8 27.3 46.8 27.3 44.2 24.7 44.2"></polygon>
            <polygon id="Fill-9" fill="#AAAAAA" mask="url(#mask-4)" points="5.2 27.3 7.8 27.3 7.8 24.7 5.2 24.7"></polygon>
            <polygon id="Fill-10" fill="#AAAAAA" mask="url(#mask-4)" points="44.2 27.3 46.8 27.3 46.8 24.7 44.2 24.7"></polygon>
        </g>
    </g>
</svg>