<?xml version="1.0" encoding="UTF-8"?>
<svg width="52px" height="52px" viewBox="0 0 52 52" version="1.1" xmlns="http://www.w3.org/2000/svg" xmlns:xlink="http://www.w3.org/1999/xlink">
    <!-- Generator: Sketch 63.1 (92452) - https://sketch.com -->
    <title>currencies</title>
    <desc>Created with Sketch.</desc>
    <defs>
        <polygon id="path-1" points="5.21042084e-05 0.000728728729 51.9992705 0.000728728729 51.9992705 51.9479479 5.21042084e-05 51.9479479"></polygon>
    </defs>
    <g id="currencies" stroke="none" stroke-width="1" fill="none" fill-rule="evenodd">
        <g>
            <polygon id="Fill-1" fill="#AAAAAA" points="45.2374156 29.3829253 46.5633114 41.9223688 4.95226533 46.5166911 2.94026132 28.3300685 34.4179768 24.8908853 34.0768505 22.2987451 0.0521250501 26.0191135 2.63899479 49.4019363 49.4514477 44.2332717 47.6053956 26.992591"></polygon>
            <polygon id="Fill-2" fill="#00933C" points="6.41026613 35.8492476 5.83461884 30.6460204 11.0303463 30.0723548 11.3165026 32.6591856 8.7102501 32.9469293 8.99968898 35.5633257"></polygon>
            <polygon id="Fill-3" fill="#00933C" points="38.4886493 40.2040056 38.202493 37.6171748 40.8087976 37.329379 40.5193587 34.7130346 43.1087816 34.4271127 43.6844289 39.6303399"></polygon>
            <polygon id="Fill-4" fill="#00933C" points="7.27262725 43.6441674 6.69838677 38.4536408 9.28780962 38.1677189 9.57589379 40.7714667 12.1948597 40.4822655 12.481016 43.0691483"></polygon>
            <g id="Group-28" transform="translate(0.000000, 0.051323)">
                <path d="M26.8454429,38.5090294 L26.8426814,38.5114759 C26.6392665,38.6973017 26.4004208,38.8461706 26.1300521,38.9560004 L25.8061202,35.8614018 C26.4079238,35.9887732 26.7008016,36.1311876 26.8446613,36.2363848 C27.109976,36.4254899 27.2713948,36.7779343 27.3243327,37.2838803 C27.3765932,37.7832677 27.2243968,38.172565 26.8454429,38.5090294 L26.8454429,38.5090294 Z M23.8607054,33.7041566 C23.4674749,33.5997922 23.1670421,33.4624789 22.9651904,33.2946631 C22.703523,33.0763047 22.5625291,32.7921005 22.521523,32.4003568 C22.4718677,31.9266831 22.6042124,31.5622146 22.9367936,31.2541706 C23.1137395,31.0919764 23.3237715,30.9627311 23.5638677,30.8682046 L23.8607054,33.7041566 Z M29.2109218,36.995564 C29.1112465,36.0434278 28.6921723,35.3182386 27.9669339,34.8411295 C27.4408898,34.4895179 26.6696433,34.2201485 25.6132826,34.019644 L25.2649138,30.6919043 C25.4829178,30.7230835 25.6726293,30.7848172 25.8303487,30.8759083 C26.1663166,31.0751636 26.36598,31.402571 26.4405411,31.876557 C26.4728978,32.1707031 26.595499,32.4059263 26.806,32.5763968 C27.0005571,32.7325009 27.2573267,32.8028232 27.5101363,32.7694058 C27.7517435,32.7374458 27.9670381,32.6150194 28.1018838,32.4332016 C28.2679399,32.2222346 28.3366132,31.9668673 28.305976,31.6742306 C28.210521,30.7622787 27.812497,30.0442206 27.1204489,29.5382226 C26.5577234,29.1364849 25.8714589,28.922603 25.0773908,28.9010014 L25.0377395,28.5216981 C25.0115311,28.2711716 24.9075311,28.0672837 24.7369419,27.9321566 C24.5678637,27.7982266 24.3452224,27.7412817 24.0914749,27.7677762 C23.5793948,27.8212857 23.2831824,28.1869514 23.3367976,28.6994038 L23.3761884,29.0755319 C22.6002004,29.2544869 21.9595271,29.6070354 21.4683407,30.1262547 C20.820008,30.8204208 20.5451583,31.6868793 20.6513467,32.7015299 C20.7444048,33.5909433 21.1481603,34.2851616 21.8498477,34.7638322 C22.381988,35.1325169 23.1041002,35.3881445 24.0532305,35.5430515 L24.4308818,39.1505189 C24.0433828,39.1034639 23.7246092,38.9981626 23.4820641,38.8371135 C23.03501,38.5326611 22.7851182,38.0347311 22.7179038,37.3118322 C22.6875271,37.0212256 22.5726373,36.7863668 22.385479,36.6320324 C22.2047295,36.4709313 21.958016,36.3937902 21.7073427,36.4205449 C21.4603166,36.4468312 21.2403848,36.569622 21.102517,36.7579463 C20.9472465,36.9528292 20.8812826,37.2092376 20.9117114,37.5000525 C21.0531743,38.8514799 21.5783848,39.8233958 22.4726493,40.3887852 L22.4780681,40.3921165 C23.0215671,40.7174939 23.740501,40.9004569 24.6174148,40.9369974 L24.6882766,41.6133618 C24.7146934,41.8661786 24.8161924,42.0724609 24.9816754,42.2099303 C25.1233467,42.327568 25.3034709,42.3883648 25.5075631,42.3883648 C25.5446092,42.3883648 25.5824369,42.3863347 25.6209419,42.3823267 C25.8753146,42.3557281 26.0823246,42.2522486 26.2197756,42.0828713 C26.3572265,41.9135459 26.4157395,41.6897221 26.3891142,41.4356561 L26.3199198,40.7743347 C27.1280561,40.5573297 27.8047856,40.1658462 28.3345812,39.6081606 C29.0214709,38.8813578 29.3163287,38.0023548 29.2109218,36.995564 L29.2109218,36.995564 Z" id="Fill-5" fill="#00953C"></path>
                <path d="M42.2814657,13.2276913 C38.100103,13.2276913 34.6983234,16.6260657 34.6983234,20.8032428 C34.6983234,24.98042 38.100103,28.3787944 42.2814657,28.3787944 C46.4628285,28.3787944 49.864608,24.98042 49.864608,20.8032428 C49.864608,16.6260657 46.4628285,13.2276913 42.2814657,13.2276913 M42.2814657,30.4608765 C36.9508926,30.4608765 32.6141551,26.1284801 32.6141551,20.8032428 C32.6141551,15.4780056 36.9508926,11.1456092 42.2814657,11.1456092 C47.6120389,11.1456092 51.9487764,15.4780056 51.9487764,20.8032428 C51.9487764,26.1284801 47.6120389,30.4608765 42.2814657,30.4608765" id="Fill-7" fill="#ABABAB"></path>
                <path d="M21.5065904,4.7276016 C17.3252277,4.7276016 13.9234481,8.12597598 13.9234481,12.3031532 C13.9234481,16.4803303 17.3252277,19.8787047 21.5065904,19.8787047 C25.6879531,19.8787047 29.0897327,16.4803303 29.0897327,12.3031532 C29.0897327,8.12597598 25.6879531,4.7276016 21.5065904,4.7276016 M21.5065904,21.9607868 C16.1760172,21.9607868 11.8392798,17.6283904 11.8392798,12.3031532 C11.8392798,6.97791592 16.1760172,2.64551952 21.5065904,2.64551952 C26.8371635,2.64551952 31.173901,6.97791592 31.173901,12.3031532 C31.173901,17.6283904 26.8371635,21.9607868 21.5065904,21.9607868" id="Fill-9" fill="#ABABAB"></path>
                <path d="M39.4231643,16.9280665 C39.0305591,16.9280665 38.6922986,16.6332436 38.6474369,16.2343167 C38.5992405,15.8057722 38.9079579,15.4194418 39.3369319,15.3712937 L43.8702064,14.8628492 C44.2989719,14.8147532 44.6859499,15.1231095 44.7340942,15.5516541 C44.7822906,15.9801986 44.4735731,16.3665289 44.0445992,16.4146771 L39.5113246,16.9231215 C39.4817295,16.9264529 39.4522906,16.9280665 39.4231643,16.9280665" id="Fill-11" fill="#00933C"></path>
                <path d="M39.7561415,19.8909161 C39.3635363,19.8909161 39.0252758,19.5960933 38.980414,19.1971664 C38.9322176,18.7686218 39.2409351,18.3822915 39.669909,18.3341433 L44.2032357,17.8256989 C44.6322096,17.7774466 45.0189792,18.0859592 45.0671234,18.5144517 C45.1152677,18.9429962 44.8066024,19.3293786 44.3776285,19.3774747 L39.8443018,19.8859712 C39.8147066,19.8893025 39.7852677,19.8909161 39.7561415,19.8909161" id="Fill-13" fill="#00933C"></path>
                <path d="M45.123792,26.7052845 C44.9526297,26.7052845 44.780321,26.6493806 44.636305,26.5343455 L39.5812068,22.4969802 C39.3343892,22.2999111 39.2306497,21.9737009 39.3183932,21.6703936 C39.4061367,21.3671383 39.6680124,21.1464897 39.9819924,21.1112505 C40.5419042,21.0484757 41.043824,20.7716108 41.3952669,20.3316669 C41.7467619,19.891775 41.9056798,19.3414286 41.8428421,18.7820773 C41.7799523,18.2227259 41.5028621,17.7213085 41.0624774,17.3702174 C40.6221447,17.0190743 40.0710906,16.8603676 39.5113351,16.9230903 C39.0820485,16.9713425 38.6955916,16.66283 38.6474473,16.2343375 C38.5992509,15.805793 38.9079683,15.4194106 39.3369423,15.3713145 C40.3117599,15.2619532 41.27079,15.5384016 42.0375555,16.1497009 C42.8042168,16.7610002 43.2867539,17.6340172 43.3962248,18.6078591 C43.5056437,19.5817009 43.2289703,20.539823 42.6170585,21.305769 C42.343824,21.647751 42.0183291,21.9331524 41.6550064,22.1540613 L45.612321,25.3146098 C45.9494874,25.5839271 46.0042489,26.0752464 45.7347659,26.4120232 C45.5804333,26.6048761 45.3531026,26.7052845 45.123792,26.7052845" id="Fill-15" fill="#00933C"></path>
                <path d="M21.2195587,8.16873153 L21.3400758,12.0325033 L22.3689255,12.0004392 C22.8854866,11.9843552 23.3647932,11.7682871 23.718685,11.3920549 C24.0725246,11.0157706 24.2585367,10.5243471 24.2424365,10.0083552 C24.2091419,8.94310991 23.3139916,8.10387467 22.2483563,8.13666747 L21.2195587,8.16873153 Z M19.8264485,13.6419528 L19.6084966,6.65656737 L22.1996389,6.57588669 C24.1295267,6.51644324 25.7447571,8.03386466 25.8048333,9.95968649 C25.8339595,10.8926154 25.4976269,11.7810398 24.8578393,12.4612561 C24.2181038,13.1415243 23.3514545,13.532175 22.4176429,13.5612721 L19.8264485,13.6419528 Z" id="Fill-17" fill="#00933C"></path>
                <path d="M18.5341599,13.6817986 C18.1138353,13.6817986 17.7666649,13.3480408 17.7534305,12.9253261 C17.7399876,12.4943351 18.0788212,12.1340829 18.5102441,12.1206014 L22.221679,12.0050458 C22.6539876,11.9912 23.0138192,12.3300589 23.0272621,12.7611019 C23.040705,13.1920929 22.7018713,13.5523972 22.2704485,13.5658266 L18.5590136,13.6814342 C18.550677,13.6816945 18.5423924,13.6817986 18.5341599,13.6817986" id="Fill-19" fill="#00933C"></path>
                <path d="M18.6112481,16.1527512 C18.1908713,16.1527512 17.8437531,15.8190454 17.8305186,15.3962787 C17.8170758,14.9652877 18.1559094,14.6049834 18.5873323,14.591554 L23.1039335,14.4509093 C23.53619,14.4379483 23.8960216,14.7759744 23.9095166,15.2070174 C23.9229074,15.6380084 23.5840737,15.9983127 23.1526509,16.0117421 L18.6361018,16.1523868 C18.6277651,16.152647 18.6194806,16.1527512 18.6112481,16.1527512" id="Fill-21" fill="#00933C"></path>
                <path d="M20.729404,18.3160605 C20.3090273,18.3160605 19.961909,17.9823548 19.9486745,17.559588 L19.8020533,12.8615259 C19.7886104,12.4305349 20.1274441,12.0702827 20.558919,12.0568012 C20.9908629,12.0444649 21.3510072,12.3819183 21.3644501,12.8129093 L21.5110713,17.5109714 C21.5245142,17.9419624 21.1856806,18.3022146 20.7542577,18.3156961 C20.745921,18.3159564 20.7376365,18.3160605 20.729404,18.3160605" id="Fill-23" fill="#00933C"></path>
                <g id="Group-27">
                    <mask id="mask-2" fill="white">
                        <use xlink:href="#path-1"></use>
                    </mask>
                    <g id="Clip-26"></g>
                    <polygon id="Fill-25" fill-opacity="0" fill="#FFFFFF" mask="url(#mask-2)" points="5.21042084e-05 51.9479479 51.9993226 51.9479479 51.9993226 0.000728728729 5.21042084e-05 0.000728728729"></polygon>
                </g>
            </g>
        </g>
    </g>
</svg>