<?xml version="1.0" encoding="UTF-8"?>
<svg width="52px" height="52px" viewBox="0 0 52 52" version="1.1" xmlns="http://www.w3.org/2000/svg" xmlns:xlink="http://www.w3.org/1999/xlink">
    <!-- Generator: Sketch 63.1 (92452) - https://sketch.com -->
    <title>cyber-security</title>
    <desc>Created with Sketch.</desc>
    <defs>
        <polygon id="path-1" points="0 51.9992705 51.9992705 51.9992705 51.9992705 0 0 0"></polygon>
    </defs>
    <g id="cyber-security" stroke="none" stroke-width="1" fill="none" fill-rule="evenodd">
        <g>
            <path d="M3.8999479,25.7417403 C3.04095792,25.7417403 2.34208417,26.440614 2.34208417,27.299604 C2.34208417,28.158594 3.04095792,28.8574677 3.8999479,28.8574677 C4.75893788,28.8574677 5.45781162,28.158594 5.45781162,27.299604 C5.45781162,26.440614 4.75893788,25.7417403 3.8999479,25.7417403 M3.8999479,30.9416361 C1.89169539,30.9416361 0.257915832,29.3078044 0.257915832,27.299604 C0.257915832,25.2913515 1.89169539,23.6575719 3.8999479,23.6575719 C5.9082004,23.6575719 7.54197996,25.2913515 7.54197996,27.299604 C7.54197996,29.3078044 5.9082004,30.9416361 3.8999479,30.9416361" id="Fill-1" fill="#ABABAB"></path>
            <mask id="mask-2" fill="white">
                <use xlink:href="#path-1"></use>
            </mask>
            <g id="Clip-4"></g>
            <polygon id="Fill-3" fill="#ABABAB" mask="url(#mask-2)" points="6.49989579 28.3416673 16.8997395 28.3416673 16.8997395 26.257499 6.49989579 26.257499"></polygon>
            <polygon id="Fill-5" fill="#ABABAB" mask="url(#mask-2)" points="35.0995311 28.3416673 45.4993747 28.3416673 45.4993747 26.257499 35.0995311 26.257499"></polygon>
            <path d="M10.3847335,8.87048617 C9.52574349,8.87048617 8.82686974,9.56935992 8.82686974,10.4283499 C8.82686974,11.287392 9.52574349,11.9862136 10.3847335,11.9862136 C11.2437234,11.9862136 11.9425972,11.287392 11.9425972,10.4283499 C11.9425972,9.56935992 11.2437234,8.87048617 10.3847335,8.87048617 M10.3847335,14.070382 C8.37648096,14.070382 6.7427014,12.4366024 6.7427014,10.4283499 C6.7427014,8.4201495 8.37648096,6.78631784 10.3847335,6.78631784 C12.392986,6.78631784 14.0267655,8.4201495 14.0267655,10.4283499 C14.0267655,12.4366024 12.392986,14.070382 10.3847335,14.070382" id="Fill-6" fill="#ABABAB" mask="url(#mask-2)"></path>
            <path d="M48.0993279,25.7417403 C47.2403379,25.7417403 46.5414641,26.440614 46.5414641,27.299604 C46.5414641,28.158594 47.2403379,28.8574677 48.0993279,28.8574677 C48.9583178,28.8574677 49.6571916,28.158594 49.6571916,27.299604 C49.6571916,26.440614 48.9583178,25.7417403 48.0993279,25.7417403 M48.0993279,30.9416361 C46.0910754,30.9416361 44.4572958,29.3078044 44.4572958,27.299604 C44.4572958,25.2913515 46.0910754,23.6575719 48.0993279,23.6575719 C50.1075804,23.6575719 51.7413599,25.2913515 51.7413599,27.299604 C51.7413599,29.3078044 50.1075804,30.9416361 48.0993279,30.9416361" id="Fill-7" fill="#ABABAB" mask="url(#mask-2)"></path>
            <path d="M10.3847335,42.6377283 C9.52574349,42.6377283 8.82686974,43.336602 8.82686974,44.195592 C8.82686974,45.0546341 9.52574349,45.7534557 10.3847335,45.7534557 C11.2437234,45.7534557 11.9425972,45.0546341 11.9425972,44.195592 C11.9425972,43.336602 11.2437234,42.6377283 10.3847335,42.6377283 M10.3847335,47.837624 C8.37648096,47.837624 6.7427014,46.2037924 6.7427014,44.195592 C6.7427014,42.1873395 8.37648096,40.5535599 10.3847335,40.5535599 C12.392986,40.5535599 14.0267655,42.1873395 14.0267655,44.195592 C14.0267655,46.2037924 12.392986,47.837624 10.3847335,47.837624" id="Fill-8" fill="#ABABAB" mask="url(#mask-2)"></path>
            <polygon id="Fill-9" fill="#ABABAB" mask="url(#mask-2)" points="11.3726814 41.9271988 9.39678557 41.2640685 12.2503768 32.7611828 18.2148497 32.7611828 18.2148497 34.8453511 13.7492585 34.8453511"></polygon>
            <polygon id="Fill-10" fill="#ABABAB" mask="url(#mask-2)" points="18.2148705 21.8132653 12.2503455 21.8132653 9.39680641 13.3103796 11.3727022 12.6472493 13.7492794 19.729097 18.2148705 19.729097"></polygon>
            <path d="M41.6145423,8.87048617 C40.7555523,8.87048617 40.0566786,9.56935992 40.0566786,10.4283499 C40.0566786,11.287392 40.7555523,11.9862136 41.6145423,11.9862136 C42.4735323,11.9862136 43.172406,11.287392 43.172406,10.4283499 C43.172406,9.56935992 42.4735323,8.87048617 41.6145423,8.87048617 M41.6145423,14.070382 C39.6062898,14.070382 37.9725102,12.4366024 37.9725102,10.4283499 C37.9725102,8.4201495 39.6062898,6.78631784 41.6145423,6.78631784 C43.6227948,6.78631784 45.2565743,8.4201495 45.2565743,10.4283499 C45.2565743,12.4366024 43.6227948,14.070382 41.6145423,14.070382" id="Fill-11" fill="#ABABAB" mask="url(#mask-2)"></path>
            <path d="M41.6145423,42.6377283 C40.7555523,42.6377283 40.0566786,43.336602 40.0566786,44.195592 C40.0566786,45.0546341 40.7555523,45.7534557 41.6145423,45.7534557 C42.4735323,45.7534557 43.172406,45.0546341 43.172406,44.195592 C43.172406,43.336602 42.4735323,42.6377283 41.6145423,42.6377283 M41.6145423,47.837624 C39.6062898,47.837624 37.9725102,46.2037924 37.9725102,44.195592 C37.9725102,42.1873395 39.6062898,40.5535599 41.6145423,40.5535599 C43.6227948,40.5535599 45.2565743,42.1873395 45.2565743,44.195592 C45.2565743,46.2037924 43.6227948,47.837624 41.6145423,47.837624" id="Fill-12" fill="#ABABAB" mask="url(#mask-2)"></path>
            <polygon id="Fill-13" fill="#ABABAB" mask="url(#mask-2)" points="40.6265996 41.9271988 38.2500224 34.8453511 33.7844313 34.8453511 33.7844313 32.7611828 39.7489563 32.7611828 42.6024954 41.2640685"></polygon>
            <polygon id="Fill-14" fill="#ABABAB" mask="url(#mask-2)" points="39.7489719 21.8132653 33.7843948 21.8132653 33.7843948 19.729097 38.249986 19.729097 40.6266152 12.6472493 42.602511 13.3103796"></polygon>
            <path d="M25.999307,23.458216 C24.6840926,23.458216 23.6179363,24.5243723 23.6179363,25.8395868 C23.6179363,26.6793503 24.0530064,27.4170417 24.7096758,27.8410657 L24.7096758,30.6666248 C24.7096758,31.3774826 25.2860004,31.9538072 25.9969102,31.9538072 C26.7077679,31.9538072 27.2840926,31.3774826 27.2840926,30.6666248 L27.2840926,27.8440878 C27.9434713,27.4205848 28.3806257,26.6813824 28.3806257,25.8395868 C28.3806257,24.5243723 27.3144693,23.458216 25.999307,23.458216" id="Fill-15" fill="#ABABAB" mask="url(#mask-2)"></path>
            <path d="M21.2307038,20.367582 C19.5604513,20.367582 18.2016257,21.7264076 18.2016257,23.396608 L18.2016257,32.0154257 C18.2016257,33.6856261 19.5604513,35.0445038 21.2307038,35.0445038 L30.7678581,35.0445038 C32.4381106,35.0445038 33.7969363,33.6856261 33.7969363,32.0154257 L33.7969363,23.396608 C33.7969363,21.7264076 32.4381106,20.367582 30.7678581,20.367582 L21.2307038,20.367582 Z M30.7678581,37.6497142 L21.2307038,37.6497142 C18.1239383,37.6497142 15.5964152,35.1221912 15.5964152,32.0154257 L15.5964152,23.396608 C15.5964152,20.2898946 18.1239383,17.7623715 21.2307038,17.7623715 L30.7678581,17.7623715 C33.8746236,17.7623715 36.4021467,20.2898946 36.4021467,23.396608 L36.4021467,32.0154257 C36.4021467,35.1221912 33.8746236,37.6497142 30.7678581,37.6497142 L30.7678581,37.6497142 Z" id="Fill-16" fill="#00953C" mask="url(#mask-2)"></path>
            <path d="M31.2111555,19.0649768 L28.6059451,19.0649768 L28.6059451,14.2520068 C28.6059451,12.8147122 27.4366224,11.6453896 25.9993279,11.6453896 C24.5619812,11.6453896 23.3926064,12.8147122 23.3926064,14.2520068 L23.3926064,19.0649768 L20.787396,19.0649768 L20.787396,14.2520068 C20.787396,11.3781992 23.125416,9.04017916 25.9992758,9.04017916 C28.8731355,9.04017916 31.2111555,11.3781992 31.2111555,14.2520068 L31.2111555,19.0649768 Z" id="Fill-17" fill="#00933D" mask="url(#mask-2)"></path>
            <polygon id="Fill-18" fill-opacity="0" fill="#FFFFFF" mask="url(#mask-2)" points="5.21042084e-05 51.9992705 51.9993226 51.9992705 51.9993226 0 5.21042084e-05 0"></polygon>
        </g>
    </g>
</svg>