<?xml version="1.0" encoding="UTF-8"?>
<svg width="52px" height="52px" viewBox="0 0 52 52" version="1.1" xmlns="http://www.w3.org/2000/svg" xmlns:xlink="http://www.w3.org/1999/xlink">
    <!-- Generator: Sketch 63.1 (92452) - https://sketch.com -->
    <title>events</title>
    <desc>Created with Sketch.</desc>
    <g id="events" stroke="none" stroke-width="1" fill="none" fill-rule="evenodd">
        <g>
            <path d="M11.1180268,23.0958755 C11.6654583,23.0958755 12.1109197,23.5413369 12.1109197,24.0887163 C12.1109197,24.6361477 11.6654583,25.0815572 11.1180268,25.0815572 C10.5706474,25.0815572 10.125186,24.6361477 10.125186,24.0887163 C10.125186,23.5413369 10.5706474,23.0958755 11.1180268,23.0958755 M11.1180268,27.0673429 C12.7629237,27.0673429 14.0966535,25.7336132 14.0966535,24.0887163 C14.0966535,22.4438715 12.7629237,21.1101417 11.1180268,21.1101417 C9.47318198,21.1101417 8.1394002,22.4438715 8.1394002,24.0887163 C8.1394002,25.7336132 9.47318198,27.0673429 11.1180268,27.0673429" id="Fill-1" fill="#00933C"></path>
            <path d="M22.039604,23.0958755 C22.5870354,23.0958755 23.0324969,23.5413369 23.0324969,24.0887163 C23.0324969,24.6361477 22.5870354,25.0815572 22.039604,25.0815572 C21.4921726,25.0815572 21.0467632,24.6361477 21.0467632,24.0887163 C21.0467632,23.5413369 21.4921726,23.0958755 22.039604,23.0958755 M22.039604,27.0673429 C23.6845009,27.0673429 25.0182306,25.7336132 25.0182306,24.0887163 C25.0182306,22.4438715 23.6845009,21.1101417 22.039604,21.1101417 C20.3947592,21.1101417 19.0609774,22.4438715 19.0609774,24.0887163 C19.0609774,25.7336132 20.3947592,27.0673429 22.039604,27.0673429" id="Fill-3" fill="#AAAAAA"></path>
            <path d="M32.9611812,23.0958755 C33.5086126,23.0958755 33.954022,23.5413369 33.954022,24.0887163 C33.954022,24.6361477 33.5086126,25.0815572 32.9611812,25.0815572 C32.4137497,25.0815572 31.9683403,24.6361477 31.9683403,24.0887163 C31.9683403,23.5413369 32.4137497,23.0958755 32.9611812,23.0958755 M32.9611812,27.0673429 C34.606026,27.0673429 35.9398078,25.7336132 35.9398078,24.0887163 C35.9398078,22.4438715 34.606026,21.1101417 32.9611812,21.1101417 C31.3162843,21.1101417 29.9825546,22.4438715 29.9825546,24.0887163 C29.9825546,25.7336132 31.3162843,27.0673429 32.9611812,27.0673429" id="Fill-5" fill="#AAAAAA"></path>
            <path d="M11.1180268,33.0245493 C11.6654583,33.0245493 12.1109197,33.4700629 12.1109197,34.0173902 C12.1109197,34.5648216 11.6654583,35.0102831 11.1180268,35.0102831 C10.5706474,35.0102831 10.125186,34.5648216 10.125186,34.0173902 C10.125186,33.4700629 10.5706474,33.0245493 11.1180268,33.0245493 M11.1180268,36.9960168 C12.7629237,36.9960168 14.0966535,35.6622871 14.0966535,34.0173902 C14.0966535,32.3725974 12.7629237,31.0388156 11.1180268,31.0388156 C9.47318198,31.0388156 8.1394002,32.3725974 8.1394002,34.0173902 C8.1394002,35.6622871 9.47318198,36.9960168 11.1180268,36.9960168" id="Fill-7" fill="#AAAAAA"></path>
            <path d="M22.039604,33.0245493 C22.5870354,33.0245493 23.0324969,33.4700629 23.0324969,34.0173902 C23.0324969,34.5648216 22.5870354,35.0102831 22.039604,35.0102831 C21.4921726,35.0102831 21.0467632,34.5648216 21.0467632,34.0173902 C21.0467632,33.4700629 21.4921726,33.0245493 22.039604,33.0245493 M22.039604,36.9960168 C23.6845009,36.9960168 25.0182306,35.6622871 25.0182306,34.0173902 C25.0182306,32.3725974 23.6845009,31.0388156 22.039604,31.0388156 C20.3947592,31.0388156 19.0609774,32.3725974 19.0609774,34.0173902 C19.0609774,35.6622871 20.3947592,36.9960168 22.039604,36.9960168" id="Fill-9" fill="#AAAAAA"></path>
            <path d="M39.7501638,29.6640376 C34.1805942,29.6640376 29.649411,34.1952208 29.649411,39.7647904 C29.649411,45.33436 34.1805942,49.8655431 39.7501638,49.8655431 C45.3197333,49.8655431 49.8509165,45.33436 49.8509165,39.7647904 C49.8509165,34.1952208 45.3197333,29.6640376 39.7501638,29.6640376 M39.7501638,51.9476252 C36.4959736,51.9476252 33.4366663,50.680366 31.1356012,48.379353 C28.8345882,46.0782879 27.5673289,43.0189285 27.5673289,39.7647904 C27.5673289,36.5106002 28.8345882,33.4512929 31.1356012,31.1502278 C33.4366663,28.8492148 36.4959736,27.5819556 39.7501638,27.5819556 C43.004354,27.5819556 46.0636613,28.8492148 48.3647263,31.1502278 C50.6657393,33.4512929 51.9329986,36.5106002 51.9329986,39.7647904 C51.9329986,43.0189285 50.6657393,46.0782879 48.3647263,48.379353 C46.0636613,50.680366 43.004354,51.9476252 39.7501638,51.9476252" id="Fill-11" fill="#00953C"></path>
            <polygon id="Fill-13" fill="#00933D" points="38.8184633 44.2011504 33.6494342 39.0321213 35.4897866 37.191821 38.8184633 40.5204977 44.0106034 35.3284096 45.8509037 37.1687099"></polygon>
            <path d="M2.73962963,11.3335327 C2.73962963,9.04922843 4.59804404,7.19081401 6.88234835,7.19081401 L10.3461001,7.19081401 L10.3461001,10.2392945 C10.3461001,10.971823 10.942044,11.567767 11.6745726,11.567767 C12.4071011,11.567767 13.003045,10.971823 13.003045,10.2392945 L13.003045,7.19081401 L31.087958,7.19081401 L31.087958,10.2392945 C31.087958,10.971823 31.6839019,11.567767 32.4164825,11.567767 C33.148959,11.567767 33.7449029,10.971823 33.7449029,10.2392945 L33.7449029,7.19081401 L37.520967,7.19081401 C39.8052713,7.19081401 41.6636857,9.04922843 41.6636857,11.3335327 L41.6636857,15.4762515 L2.73962963,15.4762515 L2.73962963,11.3335327 Z M6.88234835,41.7379171 C4.59804404,41.7379171 2.73962963,39.8795027 2.73962963,37.5951984 L2.73962963,18.1331964 L41.6636857,18.1331964 L41.6636857,25.3162234 C42.5794895,25.4385457 43.4681221,25.6468581 44.3206306,25.9339251 L44.3206306,11.3335327 C44.3206306,7.58422342 41.2702763,4.53386907 37.520967,4.53386907 L33.7449029,4.53386907 L33.7449029,1.48538859 C33.7449029,0.75286006 33.148959,0.156916116 32.4164825,0.156916116 C31.6839019,0.156916116 31.087958,0.75286006 31.087958,1.48538859 L31.087958,4.53386907 L13.003045,4.53386907 L13.003045,1.48538859 C13.003045,0.75286006 12.4071011,0.156916116 11.6745726,0.156916116 C10.942044,0.156916116 10.3461001,0.75286006 10.3461001,1.48538859 L10.3461001,4.53386907 L6.88234835,4.53386907 C3.13303904,4.53386907 0.0826846847,7.58422342 0.0826846847,11.3335327 L0.0826846847,37.5951984 C0.0826846847,41.3445598 3.13303904,44.3948621 6.88234835,44.3948621 L25.9397497,44.3948621 C25.6486226,43.5426138 25.4362503,42.6540853 25.3099199,41.7379171 L6.88234835,41.7379171 Z" id="Fill-15" fill="#AEADAD"></path>
            <polygon id="Fill-17" fill-opacity="0" fill="#FFFFFF" points="0 51.9992713 51.9992713 51.9992713 51.9992713 0 0 0"></polygon>
        </g>
    </g>
</svg>