<?xml version="1.0" encoding="UTF-8"?>
<svg width="52px" height="52px" viewBox="0 0 52 52" version="1.1" xmlns="http://www.w3.org/2000/svg" xmlns:xlink="http://www.w3.org/1999/xlink">
    <!-- Generator: Sketch 63.1 (92452) - https://sketch.com -->
    <title>fist-in-the-air</title>
    <desc>Created with Sketch.</desc>
    <defs>
        <polygon id="path-1" points="0 52 51.9472192 52 51.9472192 0 0 0"></polygon>
    </defs>
    <g id="fist-in-the-air" stroke="none" stroke-width="1" fill="none" fill-rule="evenodd">
        <g>
            <path d="M40.2617365,21.773363 C40.2617365,19.4685502 38.3866134,17.593375 36.0816965,17.593375 C35.4654002,17.593375 34.8804392,17.7285021 34.3532561,17.9690346 C34.4510098,18.3230406 34.5043632,18.6953169 34.5043632,19.0800336 L34.5043632,21.773363 C34.5043632,20.9035732 35.2119588,20.1959776 36.0817485,20.1959776 C36.9515383,20.1959776 37.6591339,20.9035732 37.6591339,21.773363 L37.6591339,26.6099876 L40.2526274,26.6099876 L40.2526274,29.6671087 C40.2580929,29.5801297 40.2617365,29.4927864 40.2617365,29.4044541 L40.2617365,21.773363 Z" id="Fill-2" fill="#AEADAD"></path>
            <path d="M36.0817121,30.9818498 C35.2119223,30.9818498 34.5043267,30.2742543 34.5043267,29.4044645 C34.5043267,30.5944264 34.0036901,31.6688849 33.2030254,32.4308749 C33.9532517,33.1448208 34.9668092,33.5844525 36.0817121,33.5844525 L36.0817642,33.5844525 C36.6362747,33.5844525 37.1653838,33.4749349 37.6500404,33.278022 L37.6500404,29.5729049 C37.5657161,30.3637838 36.894609,30.9818498 36.0817121,30.9818498" id="Fill-4" fill="#AEADAD"></path>
            <path d="M31.9017397,29.4044801 C31.9017397,30.2742699 31.1941441,30.9818655 30.3243544,30.9818655 C29.4545646,30.9818655 28.747021,30.2742699 28.747021,29.4044801 C28.747021,30.59439 28.2463323,31.6689005 27.4457197,32.4308905 C28.1959459,33.1447844 29.2094515,33.5844681 30.3243544,33.5844681 C31.4392573,33.5844681 32.4528148,33.1447844 33.203041,32.4308905 C32.4023764,31.6689005 31.9017397,30.59439 31.9017397,29.4044801" id="Fill-6" fill="#AEADAD"></path>
            <path d="M28.7470002,19.0800232 C28.7470002,18.2102334 29.4545958,17.5026378 30.3243856,17.5026378 C31.1941754,17.5026378 31.9017189,18.2102334 31.9017189,19.0800232 L31.9017189,21.7733526 C31.9017189,20.084836 32.90877,18.6278991 34.3532665,17.9690242 C33.8653305,16.2019091 32.2444817,14.9000352 30.3243856,14.9000352 C29.2094827,14.9000352 28.1959251,15.3397189 27.4456989,16.0536128 C28.2463636,16.8155508 28.7470002,17.8901133 28.7470002,19.0800232" id="Fill-8" fill="#AEADAD"></path>
            <path d="M34.5043423,29.4044801 L34.5043423,21.773389 L34.5043423,19.0800076 C34.5043423,18.6953429 34.451041,18.3230146 34.3532873,17.9690607 C32.9087908,18.6279355 31.9017397,20.0848204 31.9017397,21.773389 L31.9017397,29.4044801 C31.9017397,30.59439 32.4023764,31.6689005 33.203041,32.4308905 C34.0037057,31.6689005 34.5043423,30.59439 34.5043423,29.4044801" id="Fill-10" fill="#AEADAD"></path>
            <path d="M20.391055,21.3702667 L20.474155,21.3702667 L20.474155,19.0800284 C20.474155,18.9742587 20.453755,18.8708833 20.415355,18.7708913 C20.400955,18.8730695 20.391055,18.9759243 20.391055,19.0800284 L20.391055,21.3702667 Z" id="Fill-12" fill="#AEADAD"></path>
            <path d="M23.0202074,18.7708653 C23.1643395,18.048643 23.8030182,17.5026691 24.5669862,17.5026691 C25.436776,17.5026691 26.1444236,18.2102126 26.1444236,19.0800024 C26.1444236,17.8900925 26.6450603,16.815582 27.4457249,16.053644 C26.6954466,15.3396981 25.6819411,14.9000665 24.5669862,14.9000665 C23.462806,14.9000665 22.4579411,15.3312136 21.7099532,16.0329794 C22.452788,16.7299564 22.9410362,17.6941686 23.0202074,18.7708653" id="Fill-14" fill="#AEADAD"></path>
            <path d="M20.4188177,29.713638 C20.4333177,29.6759524 20.4445177,29.6377461 20.4537177,29.5991756 L20.4040177,29.5991756 C20.4074177,29.6375379 20.4134177,29.6755359 20.4188177,29.713638" id="Fill-16" fill="#AEADAD"></path>
            <path d="M26.1443976,29.4044801 C26.1443976,30.2742699 25.4367499,30.9818655 24.5669602,30.9818655 C23.8030442,30.9818655 23.1643135,30.4358394 23.0201814,29.7136172 C22.9410102,30.7903139 22.452762,31.7545261 21.7099792,32.4515031 C22.4579672,33.1533209 23.46278,33.5844681 24.5669602,33.5844681 C25.6819151,33.5844681 26.6954727,33.1447844 27.4456989,32.4308905 C26.6450342,31.6689005 26.1443976,30.59439 26.1443976,29.4044801" id="Fill-18" fill="#AEADAD"></path>
            <path d="M28.7470002,29.4044801 L28.7470002,19.0800076 C28.7470002,17.8900977 28.2463636,16.8155351 27.4456989,16.0536492 C26.6450342,16.8155351 26.1443976,17.8900977 26.1443976,19.0800076 L26.1443976,21.5926643 C27.6341794,22.147435 28.7084296,23.6819816 28.7084296,25.4847003 C28.7084296,27.2874711 27.6341794,28.8220176 26.1443976,29.3767884 L26.1443976,29.4044801 C26.1443976,30.59439 26.6450342,31.6689005 27.4456989,32.4308905 C28.2463636,31.6689005 28.7470002,30.59439 28.7470002,29.4044801" id="Fill-20" fill="#AEADAD"></path>
            <path d="M17.2754723,21.3702667 L17.2754723,19.0800284 C17.2754723,18.2102386 17.9831199,17.502643 18.8529097,17.502643 C19.6168777,17.502643 20.2555564,18.0486691 20.3996885,18.7708913 C20.4788076,17.6941946 20.9671079,16.7299824 21.7099427,16.0330054 C20.9619027,15.3311876 19.9570899,14.9000404 18.8529097,14.9000404 C16.5479928,14.9000404 14.6728697,16.7752156 14.6728697,19.0800284 L14.6728697,21.5014899 C14.9834122,21.4160725 15.3082691,21.3702667 15.6428597,21.3702667 L17.2754723,21.3702667 Z" id="Fill-22" fill="#AEADAD"></path>
            <path d="M23.0767628,19.0800232 C23.0767628,18.9759191 23.0668628,18.8730643 23.0524628,18.7708861 C23.0141628,18.8708781 22.9936628,18.9742535 22.9936628,19.0800232 L22.9936628,21.3702615 L23.0767628,21.3702615 L23.0767628,19.0800232 Z" id="Fill-24" fill="#AEADAD"></path>
            <path d="M23.014121,29.5991652 C23.023321,29.6377357 23.034521,29.675994 23.049021,29.7136276 C23.054321,29.6755255 23.060421,29.6375275 23.063821,29.5991652 L23.014121,29.5991652 Z" id="Fill-26" fill="#AEADAD"></path>
            <path d="M20.3996625,29.713638 C20.2999307,30.2134418 19.9632581,30.6284529 19.512227,30.8368693 L19.512227,31.7010374 C19.8285473,32.0182947 20.2418406,32.4999323 20.657164,33.1744749 C21.0451079,32.9880244 21.3993742,32.7428593 21.7099688,32.4515239 C20.9670819,31.7545469 20.4788336,30.7903347 20.3996625,29.713638" id="Fill-28" fill="#AEADAD"></path>
            <path d="M20.3996625,18.7708653 C20.4196505,18.8709093 20.4302691,18.9742326 20.4302691,19.0800024 L20.4302691,21.3702406 L22.9896164,21.3702406 L22.9896164,19.0800024 C22.9896164,18.9742326 23.0002871,18.8709093 23.020223,18.7708653 C22.9409998,17.6941686 22.4527516,16.7299564 21.7099688,16.0329794 C20.9670819,16.7299564 20.4788336,17.6941686 20.3996625,18.7708653" id="Fill-30" fill="#AEADAD"></path>
            <path d="M23.0202074,29.713638 C23.0126599,29.6759524 23.00683,29.6377461 23.0020412,29.5991756 L20.417813,29.5991756 C20.4130242,29.6377461 20.4071944,29.6759524 20.3996468,29.713638 C20.478818,30.7903347 20.9671183,31.7545469 21.7099532,32.4515239 C22.452788,31.7545469 22.9410362,30.7903347 23.0202074,29.713638" id="Fill-32" fill="#AEADAD"></path>
            <path d="M37.6698138,29.5728841 C37.6811138,29.5175528 37.6873138,29.4613365 37.6873138,29.4044957 L37.6873138,26.6099772 L37.6698138,26.6099772 L37.6698138,29.5728841 Z" id="Fill-34" fill="#AEADAD"></path>
            <path d="M37.6500352,33.2780376 L37.6500352,35.2285321 C37.6500352,37.1419135 36.9699752,39.0077714 35.7841253,40.3476432 C34.6206579,41.6623219 33.086788,42.386366 31.4651063,42.386366 L27.2632044,42.386366 L27.2632044,44.9889686 L31.4651063,44.9889686 C32.1465197,44.9889686 32.82278,44.8984501 33.479833,44.725429 L33.479833,42.8296412 L36.0824356,42.8296412 L36.0824356,43.5302619 C36.680774,43.1216012 37.2366378,42.6335091 37.7331624,42.0724921 C39.3578631,40.2366683 40.2526378,37.8060456 40.2526378,35.2285321 L40.2526378,29.6671347 C40.1505638,31.3038595 39.1026519,32.6877674 37.6500352,33.2780376" id="Fill-36" fill="#AEADAD"></path>
            <path d="M37.6591339,26.6099876 L37.6591339,29.4045061 C37.6591339,29.4613469 37.6559067,29.5175111 37.6500248,29.5728945 L37.6500248,33.2780637 C39.1026414,32.6877934 40.1505534,31.3038855 40.2526274,29.6671087 L40.2526274,26.6099876 L37.6591339,26.6099876 Z" id="Fill-38" fill="#AEADAD"></path>
            <path d="M33.4798226,52 L36.0824252,52 L36.0824252,43.5302462 C35.2788977,44.078979 34.3983331,44.4834755 33.4798226,44.7254134 L33.4798226,52 Z" id="Fill-40" fill="#AEADAD"></path>
            <path d="M33.4798226,42.829636 L33.4798226,44.7254238 C34.3983331,44.4834338 35.2788977,44.0789894 36.0824252,43.5302567 L36.0824252,42.829636 L33.4798226,42.829636 Z" id="Fill-42" fill="#AEADAD"></path>
            <mask id="mask-2" fill="white">
                <use xlink:href="#path-1"></use>
            </mask>
            <g id="Clip-45"></g>
            <polygon id="Fill-44" fill="#FFFFFF" mask="url(#mask-2)" points="20.3910706 26.9965886 20.4741706 26.9965886 20.4741706 23.9728849 20.3910706 23.9728849"></polygon>
            <polygon id="Fill-46" fill="#FFFFFF" mask="url(#mask-2)" points="22.9936732 26.9965886 23.0767732 26.9965886 23.0767732 23.9728849 22.9936732 23.9728849"></polygon>
            <polygon id="Fill-47" fill="#AEADAD" mask="url(#mask-2)" points="17.2755035 22.6715836 20.387019 22.6715836 20.387019 21.3702823 17.2755035 21.3702823"></polygon>
            <path d="M21.1693093,40.5819451 L22.4706106,40.5819451 C22.4706106,37.7666579 21.9153193,35.366798 20.8201441,33.4488881 C20.7659059,33.3539451 20.7115115,33.2627499 20.6571692,33.1744697 C20.254026,33.3682074 19.8149149,33.4980773 19.3532132,33.5534607 C20.185994,34.7789221 21.1693093,36.9868661 21.1693093,40.5819451" id="Fill-48" fill="#AEADAD" mask="url(#mask-2)"></path>
            <path d="M24.9175672,28.2978639 L23.0328665,28.2978639 L23.0328665,29.4044905 C23.0328665,29.4698158 23.0308885,29.5346206 23.0279215,29.5991652 L24.9175672,29.5991652 C25.3468925,29.5991652 25.7593009,29.5201502 26.144382,29.3767988 L26.144382,27.9322503 C25.7822038,28.1645586 25.3637574,28.2978639 24.9175672,28.2978639" id="Fill-49" fill="#AEADAD" mask="url(#mask-2)"></path>
            <path d="M23.0328665,21.3702667 L23.0328665,22.671568 L24.9175672,22.671568 C25.3637574,22.671568 25.7822038,22.8049253 26.144382,23.0371816 L26.144382,21.592633 C25.7593009,21.4492817 25.3468925,21.3702667 24.9175672,21.3702667 L23.0328665,21.3702667 Z" id="Fill-50" fill="#AEADAD" mask="url(#mask-2)"></path>
            <path d="M16.1212753,45.3816128 C16.1212753,44.2820653 15.8057357,43.2121874 15.2218679,42.3325598 L13.8217197,40.2231504 C13.2797538,39.4066098 12.9868048,38.4134567 12.9868048,37.392768 L12.9868048,25.67278 C12.9868048,24.4021894 13.6859159,23.3168521 14.6728749,22.8789381 L14.6728749,21.5014847 C12.9582282,21.9729722 11.6855035,23.6640913 11.6855035,25.67278 L11.6855035,37.392768 C11.6855035,38.6783495 12.0492953,39.9059451 12.7375796,40.942822 L14.1376757,43.0521794 C14.5776717,43.7151143 14.819974,44.5423776 14.819974,45.3816128 L14.819974,51.9999792 L17.4225766,51.9999792 L17.4225766,49.0566438 L16.1212753,51.9999792 L16.1212753,45.3816128 Z" id="Fill-51" fill="#AEADAD" mask="url(#mask-2)"></path>
            <path d="M20.3919327,29.5991652 C20.3889137,29.5346206 20.3869878,29.4698158 20.3869878,29.4044905 L20.3869878,28.2978639 L18.2110038,28.2978639 L18.2110038,30.8448228 C18.407188,30.9325826 18.6243491,30.9818238 18.8529097,30.9818238 C19.088237,30.9818238 19.3114362,30.9297197 19.5122531,30.8368589 L19.5122531,29.5991652 L20.3919327,29.5991652 Z" id="Fill-52" fill="#AEADAD" mask="url(#mask-2)"></path>
            <polygon id="Fill-53" fill="#AEADAD" mask="url(#mask-2)" points="20.3910706 22.6715836 20.4741706 22.6715836 20.4741706 21.3702823 20.3910706 21.3702823"></polygon>
            <path d="M20.4741602,28.2978639 L20.3910602,28.2978639 L20.3910602,29.4044905 C20.3910602,29.4698158 20.3947602,29.5346206 20.4005602,29.5991652 L20.4502602,29.5991652 C20.4654602,29.5352973 20.4741602,29.4703884 20.4741602,29.4044905 L20.4741602,28.2978639 Z" id="Fill-54" fill="#AEADAD" mask="url(#mask-2)"></path>
            <path d="M27.4071179,25.4847159 L27.4071179,25.4847159 C27.4071179,26.5341373 26.898205,27.4486919 26.1443872,27.9322555 L26.1443872,29.376752 C27.634169,28.8219812 28.7084192,27.2874867 28.7084192,25.4847159 C28.7084192,23.6819451 27.634169,22.1474507 26.1443872,21.5926799 L26.1443872,23.0371764 C26.898205,23.5207399 27.4071179,24.4352945 27.4071179,25.4847159" id="Fill-55" fill="#AEADAD" mask="url(#mask-2)"></path>
            <path d="M15.642844,22.671568 L17.2754567,22.671568 L17.2754567,21.3702667 L15.642844,21.3702667 C15.3082535,21.3702667 14.9833966,21.4160725 14.6728541,21.5014899 L14.6728541,22.8789433 C14.9734547,22.745638 15.3003936,22.671568 15.642844,22.671568" id="Fill-56" fill="#AEADAD" mask="url(#mask-2)"></path>
            <path d="M19.5122322,30.8368745 C19.3114675,30.9296833 19.0882162,30.9818394 18.8528889,30.9818394 C18.6243283,30.9818394 18.4072192,30.9325982 18.210983,30.8447864 L18.210983,32.2831407 C18.210983,32.2831407 18.7414975,32.6532829 19.3532132,33.553419 C19.8149149,33.4980877 20.254026,33.3682178 20.6571692,33.1744801 C20.2418458,32.4999375 19.8285526,32.0182999 19.5122322,31.7010426 L19.5122322,30.8368745 Z" id="Fill-57" fill="#AEADAD" mask="url(#mask-2)"></path>
            <polygon id="Fill-58" fill="#AEADAD" mask="url(#mask-2)" points="22.9936732 22.6715836 23.0767732 22.6715836 23.0767732 21.3702823 22.9936732 21.3702823"></polygon>
            <path d="M23.0767628,29.4044801 L23.0767628,28.2978535 L22.9936628,28.2978535 L22.9936628,29.4044801 C22.9936628,29.47043 23.0024628,29.5353389 23.0175628,29.5991548 L23.0672628,29.5991548 C23.0729628,29.5346102 23.0767628,29.4698054 23.0767628,29.4044801" id="Fill-59" fill="#AEADAD" mask="url(#mask-2)"></path>
            <polygon id="Fill-60" fill="#AEADAD" mask="url(#mask-2)" points="20.4302743 22.6715836 22.9896216 22.6715836 22.9896216 21.3702823 20.4302743 21.3702823"></polygon>
            <path d="M22.989606,28.2978639 L20.4302587,28.2978639 L20.4302587,29.4044905 C20.4302587,29.4703884 20.4257301,29.5352973 20.4178182,29.5991652 L23.0020464,29.5991652 C22.9941866,29.5352973 22.989606,29.4703884 22.989606,29.4044905 L22.989606,28.2978639 Z" id="Fill-61" fill="#AEADAD" mask="url(#mask-2)"></path>
            <path d="M24.9175672,23.9728693 C25.5616593,23.9728693 26.1058114,24.6652136 26.1058114,25.4847211 C26.1058114,26.3042286 25.5616593,26.996573 24.9175672,26.996573 L23.0328665,26.996573 L23.0328665,28.2978743 L24.9175672,28.2978743 C25.3637574,28.2978743 25.7822038,28.164569 26.144382,27.9322086 L26.144382,23.0371816 C25.7822038,22.8049253 25.3637574,22.671568 24.9175672,22.671568 L23.0328665,22.671568 L23.0328665,23.9728693 L24.9175672,23.9728693 Z" id="Fill-62" fill="#AEADAD" mask="url(#mask-2)"></path>
            <polygon id="Fill-63" fill="#AEADAD" mask="url(#mask-2)" points="17.2755035 23.9728849 20.387019 23.9728849 20.387019 22.6715836 17.2755035 22.6715836"></polygon>
            <path d="M20.3870034,28.2978639 L20.3870034,26.9965626 L17.2754879,26.9965626 L17.2754879,29.4044905 C17.2754879,30.0457197 17.6603087,30.5983564 18.2109674,30.8448228 L18.2109674,28.2978639 L20.3870034,28.2978639 Z" id="Fill-64" fill="#AEADAD" mask="url(#mask-2)"></path>
            <path d="M16.3060496,41.6129193 L14.9060056,39.5035099 C14.5075471,38.9032456 14.2880957,38.153644 14.2880957,37.3927992 L14.2880957,25.6728112 C14.2880957,25.2123067 14.4350386,24.7942246 14.6728645,24.4877421 L14.6728645,22.8789694 C13.6859055,23.3168312 12.9867944,24.4021686 12.9867944,25.6728112 L12.9867944,37.3927992 C12.9867944,38.4134358 13.2797433,39.406589 13.8217093,40.2231816 L15.2218575,42.3325389 C15.8057253,43.2122186 16.1212649,44.2820444 16.1212649,45.381592 L16.1212649,52.0000104 L17.4225662,49.056623 L17.4225662,45.381592 C17.4225662,44.016579 17.0364961,42.7134038 16.3060496,41.6129193" id="Fill-65" fill="#AEADAD" mask="url(#mask-2)"></path>
            <path d="M18.8528993,33.584442 C18.3630374,33.584442 17.8928513,33.4990246 17.4557181,33.3434931 L17.4579564,33.3449506 C17.5326511,33.4041337 18.0923147,33.8686983 18.6463047,34.8946963 C19.6560625,36.7648745 19.8680184,39.0196653 19.8680184,40.5819556 L21.1693197,40.5819556 C21.1693197,36.9868244 20.1860044,34.7788805 19.3532236,33.553419 C19.1890515,33.5731467 19.0223287,33.584442 18.8528993,33.584442 L18.8528993,33.584442 Z" id="Fill-66" fill="#AEADAD" mask="url(#mask-2)"></path>
            <polygon id="Fill-67" fill="#AEADAD" mask="url(#mask-2)" points="20.3910706 23.9728849 20.4741706 23.9728849 20.4741706 22.6715836 20.3910706 22.6715836"></polygon>
            <polygon id="Fill-68" fill="#AEADAD" mask="url(#mask-2)" points="20.3910706 28.2978899 20.4741706 28.2978899 20.4741706 26.9965886 20.3910706 26.9965886"></polygon>
            <path d="M27.4071179,25.4847159 L27.4071179,25.4847159 C27.4071179,24.4352945 26.898205,23.5207399 26.1443872,23.0371764 L26.1443872,27.9322555 C26.898205,27.4486919 27.4071179,26.5341373 27.4071179,25.4847159" id="Fill-69" fill="#AEADAD" mask="url(#mask-2)"></path>
            <polygon id="Fill-70" fill="#AEADAD" mask="url(#mask-2)" points="22.9936732 28.2978899 23.0767732 28.2978899 23.0767732 26.9965886 22.9936732 26.9965886"></polygon>
            <path d="M15.642844,23.9728693 L17.2754567,23.9728693 L17.2754567,22.671568 L15.642844,22.671568 C15.3003936,22.671568 14.9734547,22.745638 14.6728541,22.8789433 L14.6728541,24.4877682 C14.9191123,24.1704589 15.262812,23.9728693 15.642844,23.9728693" id="Fill-71" fill="#AEADAD" mask="url(#mask-2)"></path>
            <polygon id="Fill-72" fill="#AEADAD" mask="url(#mask-2)" points="22.9936732 23.9728849 23.0767732 23.9728849 23.0767732 22.6715836 22.9936732 22.6715836"></polygon>
            <path d="M17.2754723,29.4044801 L17.2754723,26.9965522 L16.9096505,26.9965522 L16.9096505,32.2831668 L16.8744633,32.9656733 L17.4557285,33.3435191 C17.8928617,33.4989986 18.3630478,33.5844681 18.8529097,33.5844681 C19.0223391,33.5844681 19.1890619,33.5731728 19.353234,33.553445 C18.7415183,32.6533089 18.2110038,32.2831668 18.2110038,32.2831668 L18.2110038,30.8448124 C17.6603451,30.598398 17.2754723,30.0457093 17.2754723,29.4044801" id="Fill-73" fill="#AEADAD" mask="url(#mask-2)"></path>
            <polygon id="Fill-74" fill="#AEADAD" mask="url(#mask-2)" points="20.4302743 23.9728849 22.9896216 23.9728849 22.9896216 22.6715836 20.4302743 22.6715836"></polygon>
            <polygon id="Fill-75" fill="#AEADAD" mask="url(#mask-2)" points="20.4302743 28.2978899 22.9896216 28.2978899 22.9896216 26.9965886 20.4302743 26.9965886"></polygon>
            <polygon id="Fill-76" fill="#00953C" mask="url(#mask-2)" points="37.6772324 2.62659339 35.4595548 1.2644953 30.637765 9.11503784 32.8554426 10.4771359"></polygon>
            <polygon id="Fill-77" fill="#00953C" mask="url(#mask-2)" points="21.692828 9.11505866 16.8709862 1.26451612 14.6533085 2.62661421 19.4751504 10.4771568"></polygon>
            <polygon id="Fill-78" fill-opacity="0" fill="#FFFFFF" mask="url(#mask-2)" points="0 51.9472192 51.9472192 51.9472192 51.9472192 0 0 0"></polygon>
            <polygon id="Fill-1" fill="#00953C" mask="url(#mask-2)" points="24.6723083 7.79208809 27.2749109 7.79208809 27.2749109 0 24.6723083 0"></polygon>
        </g>
    </g>
</svg>