<?xml version="1.0" encoding="UTF-8"?>
<svg width="52px" height="52px" viewBox="0 0 52 52" version="1.1" xmlns="http://www.w3.org/2000/svg" xmlns:xlink="http://www.w3.org/1999/xlink">
    <!-- Generator: Sketch 63.1 (92452) - https://sketch.com -->
    <title>fraud</title>
    <desc>Created with Sketch.</desc>
    <defs>
        <polygon id="path-1" points="0 52 52 52 52 0 0 0"></polygon>
    </defs>
    <g id="fraud" stroke="none" stroke-width="1" fill="none" fill-rule="evenodd">
        <g>
            <path d="M30.1426216,46.5013848 L29.4129056,44.5536208 L32.8297216,43.2735888 L32.8297216,37.5273288 C32.8297216,35.7166368 32.2533536,33.9953848 31.1629136,32.5497848 C30.0724736,31.1041848 28.5758616,30.0771328 26.8348496,29.5797008 L21.9088896,28.1723208 L18.8376656,31.2434928 C18.4315976,31.6496648 17.7731216,31.6496648 17.3668456,31.2434928 L14.3057616,28.1824088 L10.0856496,29.4808488 C8.3839496,30.0044368 6.9254536,31.0381968 5.8676696,32.4703808 C4.8099376,33.9025128 4.2508336,35.6005728 4.2508336,37.3809488 L4.2508336,43.1288728 L7.6677016,44.4089048 L6.9379856,46.3566688 L2.8459496,44.8237088 C2.4399336,44.6716088 2.1708336,44.2835328 2.1708336,43.8498528 L2.1708336,37.3809488 C2.1708336,35.1525408 2.8705976,33.0271968 4.1945696,31.2346008 C5.5184896,29.4421088 7.3440536,28.1481928 9.4739216,27.4928368 L14.2925536,26.0102128 C14.6608696,25.8968528 15.0614256,25.9964328 15.3338536,26.2688088 L18.1022816,29.0372888 L20.8708136,26.2688088 C21.1378336,26.0017368 21.5286656,25.9005448 21.8918856,26.0042328 L27.4062256,27.5797288 C29.5853896,28.2023768 31.4586896,29.4878168 32.8235336,31.2972088 C34.1883256,33.1066008 34.9097216,35.2609608 34.9097216,37.5273288 L34.9097216,43.9945688 C34.9097216,44.4281968 34.6406216,44.8163768 34.2345536,44.9684768 L30.1426216,46.5013848 Z" id="Fill-1" fill="#A9A9A9"></path>
            <mask id="mask-2" fill="white">
                <use xlink:href="#path-1"></use>
            </mask>
            <g id="Clip-4"></g>
            <polygon id="Fill-3" fill="#A9A9A9" mask="url(#mask-2)" points="13.558428 27.004224 15.638428 27.004224 15.638428 23.772476 13.558428 23.772476"></polygon>
            <polygon id="Fill-5" fill="#A9A9A9" mask="url(#mask-2)" points="20.566208 27.004224 22.646208 27.004224 22.646208 23.772476 20.566208 23.772476"></polygon>
            <path d="M8.342828,46.800572 L28.737748,46.800572 L28.737748,34.833708 L8.342828,34.833708 L8.342828,46.800572 Z M29.777748,48.880572 L7.302828,48.880572 C6.728436,48.880572 6.262828,48.414964 6.262828,47.840572 L6.262828,33.793708 C6.262828,33.219368 6.728436,32.753708 7.302828,32.753708 L29.777748,32.753708 C30.35214,32.753708 30.817748,33.219368 30.817748,33.793708 L30.817748,47.840572 C30.817748,48.414964 30.35214,48.880572 29.777748,48.880572 L29.777748,48.880572 Z" id="Fill-6" fill="#A9A9A9" mask="url(#mask-2)"></path>
            <path d="M29.7777584,51.6899084 L7.3028384,51.6899084 C6.7284464,51.6899084 6.2628384,51.2243004 6.2628384,50.6499084 C6.2628384,50.0755164 6.7284464,49.6099084 7.3028384,49.6099084 L29.7777584,49.6099084 C30.3521504,49.6099084 30.8177584,50.0755164 30.8177584,50.6499084 C30.8177584,51.2243004 30.3521504,51.6899084 29.7777584,51.6899084" id="Fill-7" fill="#A9A9A9" mask="url(#mask-2)"></path>
            <path d="M18.5111264,25.3835452 C13.6015984,25.3835452 9.6074264,21.3893732 9.6074264,16.4798452 L9.6074264,14.3813332 L11.6874264,14.3813332 L11.6874264,16.4798452 C11.6874264,20.2424612 14.7485624,23.3035452 18.5111264,23.3035452 C22.2736384,23.3035452 25.3347744,20.2424612 25.3347744,16.4798452 L25.3347744,14.3813332 L27.4147744,14.3813332 L27.4147744,16.4798452 C27.4147744,21.3893732 23.4206024,25.3835452 18.5111264,25.3835452" id="Fill-8" fill="#AEADAD" mask="url(#mask-2)"></path>
            <polygon id="Fill-9" fill="#00953C" mask="url(#mask-2)" points="20.8930696 19.5723944 18.5111056 17.2657784 16.1291936 19.5723944 9.6074576 16.9617344 9.6074576 12.0712904 11.6874576 12.0712904 11.6874576 15.5538864 15.6506376 17.1403544 18.5111056 14.3703144 21.3716256 17.1403544 25.3347536 15.5538864 25.3347536 12.5590504 27.4147536 12.5590504 27.4147536 16.9617344"></polygon>
            <polygon id="Fill-10" fill="#00953C" mask="url(#mask-2)" points="17.471116 15.818036 19.551116 15.818036 19.551116 13.756132 17.471116 13.756132"></polygon>
            <path d="M18.5111264,39.0486772 C19.4877904,39.0486772 20.2795944,39.8404812 20.2795944,40.8171452 C20.2795944,41.7938612 19.4877904,42.5856132 18.5111264,42.5856132 C17.5344104,42.5856132 16.7426584,41.7938612 16.7426584,40.8171452 C16.7426584,39.8404812 17.5344104,39.0486772 18.5111264,39.0486772" id="Fill-11" fill="#AEADAD" mask="url(#mask-2)"></path>
            <path d="M31.813938,23.3035452 L48.877322,23.3035452 L40.345474,8.6101132 L31.813938,23.3035452 Z M50.683802,25.3835452 L30.007458,25.3835452 C29.635398,25.3835452 29.29173,25.1848532 29.106142,24.8624532 C28.920502,24.5400012 28.921282,24.1430852 29.108066,23.8213092 L39.446082,6.0167172 C39.632242,5.6961372 39.974818,5.4989532 40.345474,5.4989532 C40.71613,5.4989532 41.058758,5.6961372 41.244866,6.0167172 L51.583194,23.8213092 C51.769978,24.1430332 51.770706,24.5400012 51.585118,24.8624532 C51.39953,25.1848532 51.05581,25.3835452 50.683802,25.3835452 L50.683802,25.3835452 Z" id="Fill-12" fill="#AEADAD" mask="url(#mask-2)"></path>
            <polygon id="Fill-13" fill="#00953C" mask="url(#mask-2)" points="39.305656 19.314828 41.385656 19.314828 41.385656 13.318708 39.305656 13.318708"></polygon>
            <polygon id="Fill-14" fill="#00953C" mask="url(#mask-2)" points="39.305656 22.004944 41.385656 22.004944 41.385656 20.113288 39.305656 20.113288"></polygon>
            <path d="M25.918334,11.6176112 C23.881234,12.3260072 21.151962,12.7161112 18.233098,12.7161112 C15.314234,12.7161112 12.58491,12.3260072 10.54781,11.6176112 C8.470358,10.8951752 7.921394,10.1184512 7.921394,9.8086872 C7.921394,9.4989232 8.470358,8.7221472 10.54781,7.9997632 C10.65623,7.9620632 10.767042,7.9254552 10.879258,7.8895752 C10.731266,8.8608312 11.258858,9.8363512 12.181754,10.2312392 C13.211302,10.6717312 14.874366,11.2342672 16.950622,11.4128352 C17.393402,11.4510032 17.83431,11.4699832 18.273294,11.4699832 C20.33863,11.4699832 22.358622,11.0489912 24.294426,10.2132992 C25.205466,9.8199712 25.726974,8.8531872 25.585378,7.8891072 C25.698166,7.9250912 25.809446,7.9618552 25.918334,7.9997632 C27.995786,8.7221472 28.54475,9.4989232 28.54475,9.8086872 C28.54475,10.1184512 27.995786,10.8951752 25.918334,11.6176112 L25.918334,11.6176112 Z M13.788554,5.1274912 L14.527578,2.4670152 C14.535534,2.4384672 14.552746,2.4168352 14.578694,2.4027432 C14.595022,2.3939032 14.611974,2.3894312 14.629446,2.3894312 C14.64073,2.3894312 14.65217,2.3913032 14.663766,2.3949952 C16.016806,2.8228512 18.743582,3.3918872 21.80321,2.3954632 C21.832174,2.3862072 21.860306,2.3885992 21.887034,2.4028472 C21.913294,2.4169392 21.930662,2.4386752 21.93867,2.4674312 L22.67759,5.1274912 L23.28885,7.3279752 L23.525398,8.1796832 C23.539594,8.2305912 23.515726,8.2839432 23.469966,8.3037032 C21.44181,9.1791752 19.308354,9.5281472 17.12893,9.3405312 C15.327702,9.1855712 13.889382,8.6994232 12.999922,8.3188872 C12.949274,8.2972032 12.92291,8.2438512 12.937314,8.1919552 L13.177294,7.3279752 L13.788554,5.1274912 Z M24.956334,5.5594552 L23.942802,1.9108232 C23.784098,1.3392912 23.393266,0.8505952 22.870614,0.5701072 C22.34739,0.2893592 21.723598,0.2338232 21.159138,0.4177472 C18.65175,1.2343552 16.406286,0.7645352 15.29099,0.4118192 C14.719198,0.2308592 14.114178,0.2886312 13.587418,0.5741112 C13.06149,0.8592272 12.683606,1.3337272 12.523446,1.9103032 L11.50981,5.5595072 C8.229806,6.3539112 5.841394,7.7821432 5.841394,9.8086872 C5.841394,13.0829712 12.075206,14.7961112 18.233098,14.7961112 C24.390938,14.7961112 30.62475,13.0829712 30.62475,9.8086872 C30.62475,7.7821432 28.236286,6.3539112 24.956334,5.5594552 L24.956334,5.5594552 Z" id="Fill-15" fill="#AEADAD" mask="url(#mask-2)"></path>
            <polygon id="Fill-16" fill-opacity="0" fill="#FFFFFF" mask="url(#mask-2)" points="0 52 52 52 52 5.2e-05 0 5.2e-05"></polygon>
        </g>
    </g>
</svg>