<?xml version="1.0" encoding="UTF-8"?>
<svg width="52px" height="52px" viewBox="0 0 52 52" version="1.1" xmlns="http://www.w3.org/2000/svg" xmlns:xlink="http://www.w3.org/1999/xlink">
    <!-- Generator: Sketch 63.1 (92452) - https://sketch.com -->
    <title>front-desk-bell</title>
    <desc>Created with Sketch.</desc>
    <defs>
        <polygon id="path-1" points="0 51.8961039 51.8434286 51.8961039 51.8434286 0.0500779221 0 0.0500779221"></polygon>
    </defs>
    <g id="front-desk-bell" stroke="none" stroke-width="1" fill="none" fill-rule="evenodd">
        <g>
            <polygon id="Fill-1" fill="#AEADAD" points="24.623013 21.6944416 27.2204156 21.6944416 27.2204156 16.9088831 24.623013 16.9088831"></polygon>
            <g id="Group-15" transform="translate(0.000000, 0.001870)">
                <path d="M29.5108519,19.4020883 L22.3325143,19.4020883 C21.6153195,19.4020883 21.033813,18.8206857 21.033813,18.103387 C21.033813,17.3860883 21.6153195,16.8046857 22.3325143,16.8046857 L29.5108519,16.8046857 C30.2280987,16.8046857 30.8095532,17.3860883 30.8095532,18.103387 C30.8095532,18.8206857 30.2280987,19.4020883 29.5108519,19.4020883" id="Fill-2" fill="#AEADAD"></path>
                <path d="M7.80767273,40.2156571 L44.0357766,40.2156571 C43.7295429,35.8542026 41.8843481,31.7956052 38.762374,28.6736831 C35.3325558,25.243813 30.7722442,23.3549299 25.9216987,23.3549299 C21.0711532,23.3549299 16.5108935,25.243813 13.0810753,28.6736831 C9.9591013,31.7956052 8.11390649,35.8542026 7.80767273,40.2156571 M45.3798805,42.8130597 L6.46356883,42.8130597 C5.74632208,42.8130597 5.16486753,42.2316571 5.16486753,41.5143584 C5.16486753,38.7127481 5.71385455,35.9943065 6.79655584,33.4344623 C7.84206234,30.9625662 9.33858182,28.7428779 11.2444,26.8370597 C13.1502701,24.9311896 15.3699584,23.4347221 17.8418026,22.3892156 C20.4016468,21.3065143 23.1201403,20.7575273 25.9216987,20.7575273 C28.7233091,20.7575273 31.4418026,21.3065143 34.0015948,22.3892156 C36.473439,23.4347221 38.6931792,24.9311896 40.5989974,26.8370597 C42.5048675,28.7428779 44.001387,30.9625662 45.0468416,33.4344623 C46.1295429,35.9943065 46.6785818,38.7127481 46.6785818,41.5143584 C46.6785818,42.2316571 46.0970753,42.8130597 45.3798805,42.8130597" id="Fill-4" fill="#AEADAD"></path>
                <path d="M6.88183896,49.2987013 L44.9615792,49.2987013 L44.9615792,48.7763636 C44.9615792,47.637974 44.0353974,46.7117922 42.8970078,46.7117922 L8.94641039,46.7117922 C7.80802078,46.7117922 6.88183896,47.637974 6.88183896,48.7763636 L6.88183896,49.2987013 Z M47.5589818,51.8961039 L4.28443636,51.8961039 L4.28443636,48.7763636 C4.28443636,46.2057662 6.37581299,44.1143896 8.94641039,44.1143896 L42.8970078,44.1143896 C45.4676052,44.1143896 47.5589818,46.2057662 47.5589818,48.7763636 L47.5589818,51.8961039 Z" id="Fill-6" fill="#AEADAD"></path>
                <mask id="mask-2" fill="white">
                    <use xlink:href="#path-1"></use>
                </mask>
                <g id="Clip-9"></g>
                <polygon id="Fill-8" fill="#AEADAD" mask="url(#mask-2)" points="24.623013 45.8231688 27.2204156 45.8231688 27.2204156 41.5248312 24.623013 41.5248312"></polygon>
                <polygon id="Fill-10" fill="#00953C" mask="url(#mask-2)" points="24.623013 13.3928831 27.2204156 13.3928831 27.2204156 3.02415584 24.623013 3.02415584"></polygon>
                <polygon id="Fill-11" fill="#00953C" mask="url(#mask-2)" points="39.8009247 19.5007584 37.9643013 17.6641351 45.2959896 10.3323429 47.1326649 12.1689662"></polygon>
                <polygon id="Fill-12" fill="#00953C" mask="url(#mask-2)" points="12.0425558 19.5007584 4.71076364 12.1689662 6.54743896 10.3323429 13.8791792 17.6641351"></polygon>
                <path d="M37.0155688,36.8330442 C35.7966078,33.8593299 33.9611273,31.5630182 31.5600364,30.0078494 C29.7579065,28.8406286 28.2886597,28.5470182 28.2740623,28.544161 L28.2805039,28.5454078 L28.7473091,25.9902909 C29.4402961,26.1169403 31.0838286,26.6296675 32.8480883,27.7483169 C34.8518805,29.0188623 37.618374,31.4553818 39.4188935,35.8478494 L37.0155688,36.8330442 Z" id="Fill-13" fill="#AEADAD" mask="url(#mask-2)"></path>
                <polygon id="Fill-14" fill-opacity="0" fill="#FFFFFF" mask="url(#mask-2)" points="0 51.8935065 51.8434286 51.8935065 51.8434286 0.0500779221 0 0.0500779221"></polygon>
            </g>
        </g>
    </g>
</svg>