<?xml version="1.0" encoding="UTF-8"?>
<svg width="52px" height="52px" viewBox="0 0 52 52" version="1.1" xmlns="http://www.w3.org/2000/svg" xmlns:xlink="http://www.w3.org/1999/xlink">
    <!-- Generator: Sketch 63.1 (92452) - https://sketch.com -->
    <title>hand-with-icon</title>
    <desc>Created with Sketch.</desc>
    <defs>
        <polygon id="path-1" points="0.0249553106 0.0347274549 20.4137359 0.0347274549 20.4137359 20.4248497 0.0249553106 20.4248497"></polygon>
    </defs>
    <g id="hand-with-icon" stroke="none" stroke-width="1" fill="none" fill-rule="evenodd">
        <g id="hand-with-icon-copy">
            <g id="Group-3" transform="translate(0.000000, 31.578329)">
                <mask id="mask-2" fill="white">
                    <use xlink:href="#path-1"></use>
                </mask>
                <g id="Clip-2"></g>
                <path d="M13.8307078,17.7306713 C13.9509122,17.85098 14.1466677,17.85098 14.2668721,17.7306713 L17.7196096,14.277986 C17.839814,14.1577816 17.839814,13.9620782 17.7196096,13.8418216 L6.60797034,2.73023447 C6.53330501,2.65556914 6.44821884,2.63993788 6.38991423,2.63993788 C6.33160962,2.63993788 6.24647134,2.65556914 6.17185812,2.73023447 L2.71912064,6.18297194 C2.59891623,6.30317635 2.59891623,6.49887976 2.71912064,6.61908417 L13.8307078,17.7306713 Z M14.048816,20.4248758 C13.3026838,20.4248758 12.5565515,20.1408557 11.9885635,19.5728677 L11.9885635,19.5728677 L0.876976353,8.46128056 C-0.259051703,7.32525251 -0.259051703,5.47685571 0.876976353,4.34082766 L4.32966172,0.88809018 C4.87998637,0.337765531 5.61163367,0.0347274549 6.38991423,0.0347274549 C7.16819479,0.0347274549 7.89984208,0.337765531 8.45011463,0.88809018 L19.5617539,11.9996774 C20.6977299,13.1357054 20.6977299,14.9841543 19.5617539,16.1201303 L16.1090685,19.5728677 C15.5410285,20.1408557 14.7948962,20.4248758 14.048816,20.4248758 L14.048816,20.4248758 Z" id="Fill-1" fill="#ABABAB" mask="url(#mask-2)"></path>
            </g>
            <path d="M18.267402,44.1895062 L16.4900754,42.2847327 L18.8132978,40.1168329 C19.5771455,39.3617908 20.5882798,38.9463639 21.6633459,38.9463639 L37.0652457,38.9463639 C38.1639671,38.9463639 39.197402,38.4621595 39.9005483,37.6178629 L39.9178469,37.5974902 L48.9469331,27.1982717 C49.5963599,26.4089972 49.5051255,25.2647367 48.7368489,24.5883198 C47.9655503,23.9092978 46.8131094,23.9667687 46.1132978,24.7191014 L39.5281595,31.7751575 L37.6234902,29.9976224 L44.2072737,22.9431295 C45.0067086,22.0837747 46.0944882,21.5774261 47.2688128,21.5188609 C48.4435543,21.4605042 49.5759351,21.8560273 50.4583198,22.6329531 C51.3408609,23.409879 51.8768048,24.483382 51.9675182,25.6556224 C52.0581796,26.827915 51.6937627,27.9710293 50.9413259,28.8745162 L50.9240273,28.8948369 L41.893378,39.2959832 C40.6939391,40.7296305 38.9350052,41.5515743 37.0652457,41.5515743 L21.6633459,41.5515743 C21.2760553,41.5515743 20.9120032,41.7023639 20.6381956,41.9761715 L20.6057347,42.0075383 L18.267402,44.1895062 Z" id="Fill-4" fill="#ABABAB"></path>
            <path d="M35.6645126,36.0045916 L26.0658754,36.0045916 L26.0658754,33.3993812 L35.6645126,33.3993812 C36.6323483,33.3993812 37.4197471,32.6119824 37.4197471,31.6441467 C37.4197471,30.6763631 36.6323483,29.8889643 35.6645126,29.8889643 L23.5004204,29.8889643 L23.2908573,29.8153932 C21.359198,29.1371006 19.3964846,29.1040665 17.4575307,29.7170725 C15.6200758,30.2980345 13.8491058,31.4317699 12.1940156,33.0869643 L9.7112501,35.5696778 L7.86910581,33.7275335 L10.3518192,31.2447679 C12.3055707,29.2910164 14.4320477,27.941309 16.6721639,27.2330565 C19.0888092,26.4690004 21.532184,26.4861948 23.9384084,27.2837539 L35.6645126,27.2837539 C38.0688613,27.2837539 40.0249575,29.239798 40.0249575,31.6441467 C40.0249575,34.0484954 38.0688613,36.0045916 35.6645126,36.0045916" id="Fill-6" fill="#ABABAB"></path>
            <path d="M26.9803042,8.84224569 C26.9803042,8.3743499 27.1466208,8.03171263 27.5026489,7.76478277 C27.6907451,7.6252477 27.9074986,7.52083086 28.1496269,7.45278277 L28.1496269,10.2511956 C27.7786449,10.1093158 27.5009816,9.94508337 27.3218994,9.76125972 C27.0888373,9.52126774 26.9803042,9.22922365 26.9803042,8.84224569 M31.173703,14.119881 C31.173703,14.6132036 30.9853463,14.9780373 30.5809655,15.2681535 L30.5779956,15.2703419 C30.3616068,15.4302497 30.114685,15.5509752 29.8412421,15.6308509 L29.8412421,12.5759812 C30.4130858,12.7614721 30.6834024,12.9300293 30.8128293,13.0473158 C31.0523002,13.2589631 31.173703,13.6198369 31.173703,14.119881 M32.0591619,11.7880092 C31.5800637,11.3898289 30.8533663,11.0470874 29.8412421,10.7426425 L29.8412421,7.45408537 C30.0488253,7.50681483 30.2259796,7.58606533 30.3694224,7.69032585 C30.6768894,7.91921964 30.8383082,8.25946012 30.862693,8.73027375 C30.864204,9.02299519 30.9605968,9.2669992 31.1498914,9.45629379 C31.3251699,9.63006132 31.5720397,9.72624569 31.8224525,9.71874269 C32.0632782,9.71212545 32.287691,9.61375271 32.4391058,9.44863447 C32.6240758,9.25803727 32.7178633,9.01387695 32.7178633,8.72287495 C32.7178633,7.81829379 32.4012782,7.07283888 31.7747251,6.50516353 C31.2650938,6.05404529 30.6155627,5.77398517 29.8412421,5.67097515 L29.8412421,5.29879479 C29.8412421,4.78864248 29.5063162,4.45897916 28.9880357,4.45897916 C28.4865848,4.45897916 28.1496269,4.79645812 28.1496269,5.29879479 L28.1496269,5.6678489 C27.3722842,5.76424168 26.7094665,6.0443018 26.1755547,6.50271463 C25.468709,7.11738798 25.1103363,7.93943607 25.1103363,8.94593307 C25.1103363,9.82836994 25.4349976,10.5510553 26.0737952,11.0927828 C26.5568012,11.5085222 27.2372822,11.8330273 28.1496269,12.0820333 L28.1496269,15.6478369 C27.7780196,15.5621255 27.4790457,15.4269671 27.2595307,15.2455403 C26.8540557,14.9022257 26.6609575,14.3896766 26.66919,13.6756405 C26.66919,13.3866705 26.5804044,13.1437607 26.4123683,12.9725984 C26.2514705,12.7957567 26.0174184,12.6946224 25.7687251,12.6946224 L25.7670056,12.6946224 C25.5213864,12.6950914 25.2923884,12.793412 25.1373784,12.9646265 C24.9646529,13.1405824 24.8734184,13.3860453 24.8734184,13.6751715 C24.8734184,15.0152918 25.2884806,16.0226224 26.1071419,16.6691315 L26.112196,16.6730393 C26.6108333,17.0474601 27.2953263,17.3004261 28.14921,17.4263098 L28.14921,18.092879 C28.14921,18.6111595 28.4783002,18.9460333 28.9875667,18.9460333 C29.5058994,18.9460333 29.840721,18.6111595 29.840721,18.092879 L29.840721,17.4411074 C30.6534425,17.3107948 31.3556509,16.9962938 31.9312982,16.5041695 C32.679202,15.861412 33.0584164,15.0291515 33.0584164,14.0304701 C33.0584164,13.0862377 32.7222401,12.3318208 32.0591619,11.7880092" id="Fill-8" fill="#00953C"></path>
            <path d="M28.9659643,2.60523647 C23.9497359,2.60523647 19.8686737,6.68624649 19.8686737,11.7025271 C19.8686737,16.7187555 23.9497359,20.7997655 28.9659643,20.7997655 C33.9821407,20.7997655 38.0632028,16.7187555 38.0632028,11.7025271 C38.0632028,6.68624649 33.9821407,2.60523647 28.9659643,2.60523647 M28.9659643,23.404976 C25.8401287,23.404976 22.9013471,22.1877174 20.6910866,19.9774048 C18.4807739,17.7670922 17.2634633,14.8283627 17.2634633,11.7025271 C17.2634633,8.57663928 18.4807739,5.63790982 20.6910866,3.42759719 C22.9013471,1.21728457 25.8401287,2.60521042e-05 28.9659643,2.60521042e-05 C32.0918,2.60521042e-05 35.0305816,1.21728457 37.2408421,3.42759719 C39.4511026,5.63790982 40.6684132,8.57663928 40.6684132,11.7025271 C40.6684132,14.8283627 39.4511026,17.7670922 37.24079,19.9774048 C35.0305816,22.1877174 32.0918,23.404976 28.9659643,23.404976" id="Fill-10" fill="#ABABAB"></path>
            <polygon id="Fill-12" fill-opacity="0" fill="#FFFFFF" points="0 52.0019279 51.9992705 52.0019279 51.9992705 0.00265731463 0 0.00265731463"></polygon>
        </g>
    </g>
</svg>