<?xml version="1.0" encoding="UTF-8"?>
<svg width="52px" height="52px" viewBox="0 0 52 52" version="1.1" xmlns="http://www.w3.org/2000/svg" xmlns:xlink="http://www.w3.org/1999/xlink">
    <!-- Generator: Sketch 63.1 (92452) - https://sketch.com -->
    <title>individual-costumer</title>
    <desc>Created with Sketch.</desc>
    <defs>
        <polygon id="path-1" points="0 51.9992705 51.9992705 51.9992705 51.9992705 0 0 0"></polygon>
    </defs>
    <g id="individual-costumer" stroke="none" stroke-width="1" fill="none" fill-rule="evenodd">
        <g>
            <path d="M33.7995415,25.1278745 C33.3462349,25.1278745 32.9774934,25.4966681 32.9774934,25.9499226 C32.9774934,26.4032293 33.3462349,26.7720228 33.7995415,26.7720228 C34.252796,26.7720228 34.6215896,26.4032293 34.6215896,25.9499226 C34.6215896,25.4966681 34.252796,25.1278745 33.7995415,25.1278745 M33.7995415,28.8561912 C32.1970244,28.8561912 30.8933251,27.5524397 30.8933251,25.9499226 C30.8933251,24.3474056 32.1970244,23.0437062 33.7995415,23.0437062 C35.4020064,23.0437062 36.7057579,24.3474056 36.7057579,25.9499226 C36.7057579,27.5524397 35.4020064,28.8561912 33.7995415,28.8561912" id="Fill-1" fill="#00953C"></path>
            <path d="M47.8656926,22.1030325 L31.4764701,22.1030325 C30.0146866,22.1030325 28.8255122,20.9138581 28.8255122,19.4520745 C28.8255122,17.990291 30.0146866,16.8010645 31.4764701,16.8010645 L45.8495723,16.8010645 L49.1739772,8.28244329 L29.8491515,8.28244329 L29.8491515,6.19827495 L50.6992758,6.19827495 C51.0435283,6.19827495 51.3655323,6.36829098 51.5597246,6.65251944 C51.753917,6.9367479 51.7952357,7.29850741 51.6700814,7.61920882 L47.5322778,18.2220505 C47.3762257,18.6219503 46.9908108,18.8852329 46.5615242,18.8852329 L31.4764701,18.8852329 C31.1639491,18.8852329 30.9096806,19.1395014 30.9096806,19.4520745 C30.9096806,19.7645956 31.1639491,20.0188641 31.4764701,20.0188641 L47.8656926,20.0188641 L47.8656926,22.1030325 Z" id="Fill-3" fill="#00953C"></path>
            <path d="M44.8578729,25.1278745 C44.4046184,25.1278745 44.0358248,25.4966681 44.0358248,25.9499226 C44.0358248,26.4032293 44.4046184,26.7720228 44.8578729,26.7720228 C45.3111275,26.7720228 45.679921,26.4032293 45.679921,25.9499226 C45.679921,25.4966681 45.3111275,25.1278745 44.8578729,25.1278745 M44.8578729,28.8561912 C43.255408,28.8561912 41.9516565,27.5524397 41.9516565,25.9499226 C41.9516565,24.3474056 43.255408,23.0437062 44.8578729,23.0437062 C46.4603379,23.0437062 47.7640894,24.3474056 47.7640894,25.9499226 C47.7640894,27.5524397 46.4603379,28.8561912 44.8578729,28.8561912" id="Fill-5" fill="#00953C"></path>
            <path d="M31.0094758,18.0871423 L27.6099888,3.97242485 L22.6842132,3.97242485 L22.6842132,1.88825651 L28.4308906,1.88825651 C28.9124377,1.88825651 29.3313034,2.21818036 29.4440048,2.68638878 L33.0357042,17.5991864 L31.0094758,18.0871423 Z" id="Fill-7" fill="#00953C"></path>
            <path d="M16.495093,14.1460998 C12.9519026,14.1460998 10.0693415,17.0286609 10.0693415,20.5718513 L10.0693415,23.3649495 C10.0693415,26.9081399 12.9519026,29.790701 16.495093,29.790701 C20.0382834,29.790701 22.9208445,26.9081399 22.9208445,23.3649495 L22.9208445,20.5718513 C22.9208445,17.0286609 20.0382834,14.1460998 16.495093,14.1460998 M16.495093,32.3959114 C11.5153896,32.3959114 7.46413106,28.3446529 7.46413106,23.3649495 L7.46413106,20.5718513 C7.46413106,15.5921479 11.5153896,11.5408894 16.495093,11.5408894 C21.4747964,11.5408894 25.5260549,15.5921479 25.5260549,20.5718513 L25.5260549,23.3649495 C25.5260549,28.3446529 21.4747964,32.3959114 16.495093,32.3959114" id="Fill-9" fill="#AAAAAA"></path>
            <path d="M33.8032044,51.9105579 L31.197994,51.9105579 L31.197994,44.7492513 C31.197994,42.9652032 30.6301623,41.2694196 29.5558257,39.8452032 C28.4815411,38.4209868 27.006992,37.409123 25.2916693,36.9189788 L20.4309719,35.5302453 L17.4161703,38.5450469 C16.9074248,39.0537924 16.0827194,39.0537924 15.5740261,38.5450469 L12.5718337,35.5428545 L8.43001804,36.8172192 C6.75346092,37.333103 5.31642685,38.3515319 4.27429058,39.7625659 C3.23220641,41.1735479 2.68136072,42.8465098 2.68136072,44.6006501 L2.68136072,51.9105579 L0.0761503006,51.9105579 L0.0761503006,44.6006501 C0.0761503006,42.2853996 0.803212425,40.0772232 2.17871142,38.2147583 C3.55421042,36.3523976 5.45090782,35.0081611 7.66382565,34.3272112 L12.5552124,32.8221812 C13.0163347,32.6802493 13.5182024,32.8048826 13.8593808,33.146113 L16.4950721,35.7818044 L19.1307635,33.146113 C19.4652725,32.8116561 19.9548437,32.6847824 20.4097134,32.8147303 L26.0073727,34.4140168 C28.2714569,35.0608906 30.2177575,36.3964778 31.6357214,38.2763455 C33.0536854,40.1562132 33.8032044,42.3945058 33.8032044,44.7492513 L33.8032044,51.9105579 Z" id="Fill-11" fill="#AAAAAA"></path>
            <mask id="mask-2" fill="white">
                <use xlink:href="#path-1"></use>
            </mask>
            <g id="Clip-14"></g>
            <polygon id="Fill-13" fill="#AAAAAA" mask="url(#mask-2)" points="11.6357034 34.0671904 14.2409138 34.0671904 14.2409138 30.7866573 11.6357034 30.7866573"></polygon>
            <polygon id="Fill-15" fill="#AAAAAA" mask="url(#mask-2)" points="18.7492826 34.0671904 21.354493 34.0671904 21.354493 30.7866573 18.7492826 30.7866573"></polygon>
            <polygon id="Fill-16" fill="#AAAAAA" mask="url(#mask-2)" points="6.56325451 51.8810461 9.16846493 51.8810461 9.16846493 45.3430621 6.56325451 45.3430621"></polygon>
            <polygon id="Fill-17" fill="#AAAAAA" mask="url(#mask-2)" points="23.9850261 51.8810461 26.5902365 51.8810461 26.5902365 45.3430621 23.9850261 45.3430621"></polygon>
            <polygon id="Fill-18" fill-opacity="0" fill="#FFFFFF" mask="url(#mask-2)" points="0 51.9992705 51.9992705 51.9992705 51.9992705 0 0 0"></polygon>
        </g>
    </g>
</svg>