<?xml version="1.0" encoding="UTF-8"?>
<svg width="52px" height="52px" viewBox="0 0 52 52" version="1.1" xmlns="http://www.w3.org/2000/svg" xmlns:xlink="http://www.w3.org/1999/xlink">
    <!-- Generator: Sketch 63.1 (92452) - https://sketch.com -->
    <title>magnifying-glass</title>
    <desc>Created with Sketch.</desc>
    <defs>
        <polygon id="path-1" points="0 0.047476 40.224106 0.047476 40.224106 40.2715352 0 40.2715352"></polygon>
    </defs>
    <g id="magnifying-glass" stroke="none" stroke-width="1" fill="none" fill-rule="evenodd">
        <g>
            <g id="Group-3" transform="translate(0.000000, 0.004524)">
                <mask id="mask-2" fill="white">
                    <use xlink:href="#path-1"></use>
                </mask>
                <g id="Clip-2"></g>
                <path d="M20.112014,2.6474552 C15.434406,2.6474552 11.036766,4.4690152 7.72915,7.7766312 C4.421586,11.0841952 2.599974,15.4818352 2.599974,20.1594952 C2.599974,24.8371552 4.421586,29.2347952 7.72915,32.5423592 C11.036766,35.8499752 15.434406,37.6715352 20.112014,37.6715352 C24.789622,37.6715352 29.187314,35.8499752 32.49493,32.5423592 C35.802494,29.2347952 37.624106,24.8371552 37.624106,20.1594952 C37.624106,15.4818872 35.802494,11.0841952 32.49493,7.7766312 C29.187262,4.4690152 24.789622,2.6474552 20.112014,2.6474552 M20.112014,40.2715352 C17.39751,40.2715352 14.763502,39.7396272 12.283102,38.6905272 C9.888034,37.6774632 7.737262,36.2274952 5.89069,34.3808712 C4.044066,32.5342472 2.594046,30.3834752 1.581034,27.9884072 C0.531934,25.5080592 -2.6e-05,22.8740512 -2.6e-05,20.1594952 C-2.6e-05,17.4449392 0.531934,14.8109312 1.581034,12.3305832 C2.594046,9.9355152 4.044066,7.7847432 5.89069,5.9381712 C7.737262,4.0914952 9.888034,2.6415272 12.283102,1.6285152 C14.763502,0.5793632 17.39751,0.0474552 20.112014,0.0474552 C22.826518,0.0474552 25.460526,0.5793632 27.940926,1.6285152 C30.335994,2.6415272 32.486766,4.0914952 34.33339,5.9381192 C36.180014,7.7847432 37.630034,9.9355152 38.643046,12.3305832 C39.692146,14.8109312 40.224106,17.4449392 40.224106,20.1594952 C40.224106,22.8740512 39.692146,25.5080592 38.643046,27.9884072 C37.630034,30.3834752 36.180014,32.5342472 34.33339,34.3808712 C32.486766,36.2274952 30.335994,37.6774632 27.940926,38.6905272 C25.460578,39.7396272 22.826518,40.2715352 20.112014,40.2715352" id="Fill-1" fill="#AAAAAA" mask="url(#mask-2)"></path>
            </g>
            <path d="M20.112014,7.3070452 C16.677778,7.3070452 13.449098,8.6443812 11.02075,11.0727812 C8.592402,13.5011292 7.255014,16.7298092 7.255014,20.1640452 C7.255014,23.5982292 8.592402,26.8269092 11.02075,29.2553092 C13.449098,31.6836572 16.677778,33.0210452 20.112014,33.0210452 C23.54625,33.0210452 26.77493,31.6836572 29.203278,29.2553092 C31.631626,26.8269092 32.969014,23.5982292 32.969014,20.1640452 C32.969014,16.7298092 31.631626,13.5011292 29.203278,11.0727812 C26.77493,8.6443812 23.54625,7.3070452 20.112014,7.3070452 M20.112014,35.6210452 C15.983318,35.6210452 12.101726,34.0132052 9.18229,31.0937692 C6.262854,28.1743332 4.655014,24.2927412 4.655014,20.1640452 C4.655014,16.0352972 6.262854,12.1537572 9.18229,9.2343212 C12.101726,6.3148332 15.983318,4.7070452 20.112014,4.7070452 C24.24071,4.7070452 28.122302,6.3148332 31.041738,9.2343212 C33.961174,12.1537572 35.569014,16.0352972 35.569014,20.1640452 C35.569014,24.2927412 33.961174,28.1743332 31.041738,31.0937692 C28.122302,34.0132052 24.24071,35.6210452 20.112014,35.6210452" id="Fill-4" fill="#AAAAAA"></path>
            <path d="M48.00575,51.952524 C46.965386,51.952524 45.98737,51.547392 45.251726,50.811748 L30.220554,35.780576 L32.059014,33.942116 L47.090238,48.973288 C47.334794,49.217844 47.659898,49.352524 48.00575,49.352524 C48.35155,49.352524 48.676706,49.217844 48.921262,48.973288 C49.426078,48.468472 49.426078,47.647028 48.921262,47.142212 L33.89009,32.11104 L35.72855,30.272528 L50.759774,45.303752 C52.278278,46.822308 52.278278,49.293192 50.759774,50.811748 C50.024078,51.547392 49.046062,51.952524 48.00575,51.952524" id="Fill-6" fill="#AAAAAA"></path>
            <polygon id="Fill-8" fill="#AAAAAA" points="36.9791604 40.7006964 35.1407004 38.8622364 38.8101844 35.1926484 40.6486444 37.0311604"></polygon>
            <path d="M27.9101888,12.3649864 C24.1765368,8.6313864 19.0281728,9.1851864 18.8108648,9.2107184 C17.9220808,9.3146144 14.8266768,9.8492264 12.3109168,12.3649864 L14.1493768,14.2034464 C16.1217888,12.2310864 18.6300088,11.8495624 19.1123608,11.7931424 C19.1531808,11.7885144 23.2306568,11.3624264 26.0717288,14.2034464 L27.9101888,12.3649864 Z" id="Fill-10" fill="#00933D"></path>
            <polygon id="Fill-12" fill-opacity="0" fill="#FFFFFF" points="0.0026 51.949872 51.897872 51.949872 51.897872 0.0546 0.0026 0.0546"></polygon>
        </g>
    </g>
</svg>