<?xml version="1.0" encoding="UTF-8"?>
<svg width="52px" height="52px" viewBox="0 0 52 52" version="1.1" xmlns="http://www.w3.org/2000/svg" xmlns:xlink="http://www.w3.org/1999/xlink">
    <!-- Generator: Sketch 63.1 (92452) - https://sketch.com -->
    <title>money-next-to-clock</title>
    <desc>Created with Sketch.</desc>
    <defs>
        <polygon id="path-1" points="0.0397833834 0.0378678679 27.3292533 0.0378678679 27.3292533 27.3273013 0.0397833834 27.3273013"></polygon>
    </defs>
    <g id="money-next-to-clock" stroke="none" stroke-width="1" fill="none" fill-rule="evenodd">
        <g>
            <path d="M20.7788773,26.8148332 C18.8695039,26.8148332 17.3157502,25.2609754 17.3157502,23.3516541 C17.3157502,21.4423327 18.8695039,19.8885269 20.7788773,19.8885269 C22.6882507,19.8885269 24.2420565,21.4423327 24.2420565,23.3516541 C24.2420565,25.2609754 22.6882507,26.8148332 20.7788773,26.8148332 M20.7788773,17.5797582 C17.5912617,17.5797582 15.0069814,20.1640384 15.0069814,23.3516541 C15.0069814,26.5393217 17.5912617,29.1235499 20.7788773,29.1235499 C23.9664929,29.1235499 26.5508252,26.5393217 26.5508252,23.3516541 C26.5508252,20.1640384 23.9664929,17.5797582 20.7788773,17.5797582" id="Fill-1" fill="#00933C"></path>
            <polygon id="Fill-3" fill="#00933C" points="7.07322843 22.2085285 4.47062583 22.2085285 4.47062583 17.4328569 9.23505425 17.4328569 9.23505425 20.0354595 7.07322843 20.0354595"></polygon>
            <polygon id="Fill-5" fill="#00933C" points="37.0984188 22.2028861 34.4958162 22.2028861 34.4958162 20.0410603 32.3227471 20.0410603 32.3227471 17.4384577 37.0984188 17.4384577"></polygon>
            <polygon id="Fill-7" fill="#00933C" points="9.2462975 29.2873526 4.47062583 29.2873526 4.47062583 24.5229241 7.07322843 24.5229241 7.07322843 26.6847499 9.2462975 26.6847499"></polygon>
            <path d="M2.30878438,31.4323656 L2.30878438,15.2709842 L39.2490326,15.2709842 L39.2490326,22.0903756 C40.0337694,22.1436769 40.805441,22.2632925 41.5577493,22.4463596 L41.5577493,12.9622154 L1.56156156e-05,12.9622154 L1.56156156e-05,33.7410823 L22.8366563,33.7410823 C23.1200797,32.9402094 23.4792909,32.1679131 23.9095532,31.4323656 L2.30878438,31.4323656 Z" id="Fill-9" fill="#AAAAAA"></path>
            <polygon id="Fill-11" fill="#00933C" points="43.8593349 43.9121522 37.0038194 38.9713193 37.0038194 29.1235916 39.606422 29.1235916 39.606422 37.6388909 45.3810246 41.8007648"></polygon>
            <polygon id="Fill-13" fill="#AAAAAA" points="5.9562955 7.83901301 21.755811 10.3648388 36.380824 10.3648388 4.04093614 5.19471672 3.2144016 10.3648388 5.55247568 10.3648388"></polygon>
            <polygon id="Fill-15" fill="#AAAAAA" points="19.105992 3.57064064 23.8063443 6.1202022 30.6752893 7.21959359 18.1773834 0.440386386 15.7922543 4.83758759 18.208979 5.22438639"></polygon>
            <g id="Group-19" transform="translate(24.620621, 24.622494)">
                <mask id="mask-2" fill="white">
                    <use xlink:href="#path-1"></use>
                </mask>
                <g id="Clip-18"></g>
                <path d="M13.6845001,2.64047047 C7.59586747,2.64047047 2.64238599,7.59395195 2.64238599,13.6826366 C2.64238599,19.7712172 7.59586747,24.7246987 13.6845001,24.7246987 C19.7731848,24.7246987 24.7266663,19.7712172 24.7266663,13.6826366 C24.7266663,7.59395195 19.7731848,2.64047047 13.6845001,2.64047047 M13.6845001,27.3273013 C10.0398154,27.3273013 6.61333293,25.9080501 4.03623584,23.3309009 C1.45908669,20.7537518 0.0397833834,17.3272693 0.0397833834,13.6826366 C0.0397833834,10.037952 1.45908669,6.61146947 4.03623584,4.03432032 C6.61333293,1.45717117 10.0398154,0.0378678679 13.6845001,0.0378678679 C17.3291848,0.0378678679 20.7556673,1.45717117 23.3327644,4.03432032 C25.9099656,6.61146947 27.3292689,10.037952 27.3292689,13.6826366 C27.3292689,17.3272693 25.9099656,20.7537518 23.3327644,23.3309009 C20.7556673,25.9080501 17.3291848,27.3273013 13.6845001,27.3273013" id="Fill-17" fill="#AEADAD" mask="url(#mask-2)"></path>
            </g>
            <polygon id="Fill-20" fill-opacity="0" fill="#FFFFFF" points="0 51.9472192 51.9472192 51.9472192 51.9472192 0 0 0"></polygon>
        </g>
    </g>
</svg>