<?xml version="1.0" encoding="UTF-8"?>
<svg width="52px" height="52px" viewBox="0 0 52 52" version="1.1" xmlns="http://www.w3.org/2000/svg" xmlns:xlink="http://www.w3.org/1999/xlink">
    <!-- Generator: Sketch 63.1 (92452) - https://sketch.com -->
    <title>money</title>
    <desc>Created with Sketch.</desc>
    <defs>
        <polygon id="path-1" points="5.21042084e-05 0.000719732078 51.9992705 0.000719732078 51.9992705 51.3066153 5.21042084e-05 51.3066153"></polygon>
    </defs>
    <g id="money" stroke="none" stroke-width="1" fill="none" fill-rule="evenodd">
        <g>
            <path d="M0,41.0836436 L46.7993747,41.0836436 L46.7993747,17.9959752 L0,17.9959752 L0,41.0836436 Z M2.5999479,38.5183129 L44.1994269,38.5183129 L44.1994269,20.5612546 L2.5999479,20.5612546 L2.5999479,38.5183129 Z" id="Fill-1" fill="#AAAAAA"></path>
            <polygon id="Fill-2" fill="#AAAAAA" points="5.19991142 12.8653908 5.19991142 15.4306702 49.3993383 15.4306702 49.3993383 35.9530592 51.9992862 35.9530592 51.9992862 12.8653908"></polygon>
            <g id="Group-16" transform="translate(0.000000, 0.050690)">
                <path d="M23.3996926,33.337049 C21.2495082,33.337049 19.4996926,31.610566 19.4996926,29.4891043 C19.4996926,27.3675912 21.2495082,25.6411596 23.3996926,25.6411596 C25.549877,25.6411596 27.2996405,27.3675912 27.2996405,29.4891043 C27.2996405,31.610566 25.549877,33.337049 23.3996926,33.337049 M23.3996926,23.0758802 C19.8099731,23.0758802 16.8997447,25.9473028 16.8997447,29.4891043 C16.8997447,33.0309059 19.8099731,35.9023284 23.3996926,35.9023284 C26.9893599,35.9023284 29.8995884,33.0309059 29.8995884,29.4891043 C29.8995884,25.9473028 26.9893599,23.0758802 23.3996926,23.0758802" id="Fill-3" fill="#00933C"></path>
                <polygon id="Fill-5" fill="#00933C" points="7.80252184 28.2189468 5.19731142 28.2189468 5.19731142 23.0732738 10.3998645 23.0732738 10.3998645 25.6437455 7.80252184 25.6437455"></polygon>
                <polygon id="Fill-7" fill="#00933C" points="41.6146986 28.2126955 39.0094882 28.2126955 39.0094882 25.6499866 36.3994842 25.6499866 36.3994842 23.0795149 41.6146986 23.0795149"></polygon>
                <polygon id="Fill-9" fill="#00933C" points="41.6146986 35.9299353 36.4121455 35.9299353 36.4121455 33.3594636 39.0094882 33.3594636 39.0094882 30.7842622 41.6146986 30.7842622"></polygon>
                <polygon id="Fill-11" fill="#00933C" points="10.4125154 35.9236839 5.197301 35.9236839 5.197301 30.7905033 7.80251142 30.7905033 7.80251142 33.3532122 10.4125154 33.3532122"></polygon>
                <g id="Group-15">
                    <mask id="mask-2" fill="white">
                        <use xlink:href="#path-1"></use>
                    </mask>
                    <g id="Clip-14"></g>
                    <polygon id="Fill-13" fill-opacity="0" fill="#FFFFFF" mask="url(#mask-2)" points="5.21042084e-05 51.3587444 51.9993226 51.3587444 51.9993226 0.000719732078 5.21042084e-05 0.000719732078"></polygon>
                </g>
            </g>
        </g>
    </g>
</svg>