<?xml version="1.0" encoding="UTF-8"?>
<svg width="52px" height="52px" viewBox="0 0 52 52" version="1.1" xmlns="http://www.w3.org/2000/svg" xmlns:xlink="http://www.w3.org/1999/xlink">
    <!-- Generator: Sketch 63.1 (92452) - https://sketch.com -->
    <title>padlock</title>
    <desc>Created with Sketch.</desc>
    <g id="padlock" stroke="none" stroke-width="1" fill="none" fill-rule="evenodd">
        <g>
            <path d="M25.999281,28.5995884 C23.9867559,28.5995884 22.3553731,30.2309711 22.3553731,32.2434962 C22.3553731,33.5284902 23.0211607,34.6573279 24.0259904,35.3061295 L24.0259904,39.6297367 C24.0259904,40.7175162 24.907802,41.5994321 25.9956337,41.5994321 C27.0834132,41.5994321 27.9653291,40.7175162 27.9653291,39.6297367 L27.9653291,35.3107667 C28.9741707,34.6627467 29.6431888,33.5316685 29.6431888,32.2434962 C29.6431888,30.2309711 28.011806,28.5995884 25.999281,28.5995884" id="Fill-1" fill="#00933D"></path>
            <path d="M13.4315323,23.4022926 C11.7613319,23.4022926 10.4024541,24.7611182 10.4024541,26.4313186 L10.4024541,43.7676393 C10.4024541,45.4378918 11.7613319,46.7967174 13.4315323,46.7967174 L38.5677487,46.7967174 C40.2380012,46.7967174 41.5968269,45.4378918 41.5968269,43.7676393 L41.5968269,26.4313186 C41.5968269,24.7611182 40.2380012,23.4022926 38.5677487,23.4022926 L13.4315323,23.4022926 Z M38.5677487,49.4019279 L13.4315323,49.4019279 C10.3247667,49.4019279 7.79724369,46.8744048 7.79724369,43.7676393 L7.79724369,26.4313186 C7.79724369,23.3246052 10.3247667,20.7970822 13.4315323,20.7970822 L38.5677487,20.7970822 C41.6745142,20.7970822 44.2020373,23.3246052 44.2020373,26.4313186 L44.2020373,43.7676393 C44.2020373,46.8744048 41.6745142,49.4019279 38.5677487,49.4019279 L38.5677487,49.4019279 Z" id="Fill-3" fill="#ACACAC"></path>
            <path d="M35.101782,22.0996874 L32.4965715,22.0996874 L32.4965715,11.6997916 C32.4965715,8.11721042 29.5819142,5.20255311 25.999281,5.20255311 C22.4166477,5.20255311 19.5019904,8.11721042 19.5019904,11.6997916 L19.5019904,22.0996874 L16.89678,22.0996874 L16.89678,11.6997916 C16.89678,6.68069739 20.9801347,2.59734269 25.999281,2.59734269 C31.0184273,2.59734269 35.101782,6.68069739 35.101782,11.6997916 L35.101782,22.0996874 Z" id="Fill-5" fill="#ACACAC"></path>
            <polygon id="Fill-7" fill-opacity="0" fill="#FFFFFF" points="0 51.9992705 51.9992705 51.9992705 51.9992705 0 0 0"></polygon>
        </g>
    </g>
</svg>