<?xml version="1.0" encoding="UTF-8"?>
<svg width="52px" height="53px" viewBox="0 0 52 53" version="1.1" xmlns="http://www.w3.org/2000/svg" xmlns:xlink="http://www.w3.org/1999/xlink">
    <!-- Generator: Sketch 63.1 (92452) - https://sketch.com -->
    <title>paintbrush</title>
    <desc>Created with Sketch.</desc>
    <g id="paintbrush" stroke="none" stroke-width="1" fill="none" fill-rule="evenodd" transform="translate(0.000000, 1.000000)">
        <g>
            <path d="M3.7008452,46.838064 C5.5616132,47.426496 7.0927532,47.342776 8.3676892,46.585916 C9.5238052,45.899516 10.5159132,44.67268 11.4897172,42.724968 C13.3691012,38.9662 16.9995332,35.314136 17.1531412,35.160528 L18.0723972,34.241272 L24.8172132,40.986088 C25.7807212,41.949596 27.3485732,41.949596 28.3120812,40.986088 L32.8560492,36.442068 L14.0162412,17.60226 L9.4722732,22.14628 C8.5087652,23.10984 8.5087652,24.67764 9.4722732,25.641148 L16.2975852,32.46646 L15.3783292,33.385716 C15.2247212,33.539324 11.5726572,37.169756 7.8139412,39.04914 C5.8662292,40.022996 4.6393932,41.015052 3.9529932,42.17122 C3.1960292,43.446104 3.1123092,44.977244 3.7008452,46.838064 M5.9705412,49.82276 C4.8010612,49.82276 3.5497332,49.574252 2.2229532,49.076976 L1.6694132,48.869496 L1.4619332,48.315956 C0.3882892,45.45164 0.4741932,42.937648 1.7172532,40.84392 C2.6696852,39.23972 4.2374332,37.930464 6.6511172,36.723648 C8.9628292,35.567844 11.3220692,33.584252 12.5913372,32.437132 L7.6338132,27.47966 C6.6759732,26.52182 6.1484332,25.24834 6.1484332,23.89374 C6.1484332,22.53914 6.6759732,21.26566 7.6338132,20.30782 L14.0162412,13.92534 L36.5330212,36.442068 L30.1505412,42.824548 C29.1927532,43.782388 27.9192212,44.309876 26.5646212,44.309876 C25.2100732,44.309876 23.9365412,43.782388 22.9787532,42.824548 L18.1017252,37.94752 C16.9546052,39.216788 14.9710132,41.57608 13.8152092,43.887792 C12.6083932,46.301424 11.2991372,47.869172 9.6949892,48.821604 C8.5710612,49.48892 7.3258692,49.82276 5.9705412,49.82276" id="Fill-1" fill="#AEADAD"></path>
            <path d="M7.8823264,44.0693656 C7.8823264,44.7426616 7.3364824,45.2885056 6.6631344,45.2885056 C5.9897864,45.2885056 5.4439424,44.7426616 5.4439424,44.0693656 C5.4439424,43.3960696 5.9897864,42.8502256 6.6631344,42.8502256 C7.3364824,42.8502256 7.8823264,43.3960696 7.8823264,44.0693656" id="Fill-3" fill="#FFFFFF"></path>
            <path d="M6.6631188,43.63021 C6.4209548,43.63021 6.2239788,43.827186 6.2239788,44.06935 C6.2239788,44.311566 6.4209548,44.508542 6.6631188,44.508542 C6.9052828,44.508542 7.1023108,44.311566 7.1023108,44.06935 C7.1023108,43.827186 6.9052828,43.63021 6.6631188,43.63021 M6.6631188,46.068542 C5.5607708,46.068542 4.6639788,45.17175 4.6639788,44.06935 C4.6639788,42.967002 5.5607708,42.07021 6.6631188,42.07021 C7.7654668,42.07021 8.6623108,42.967002 8.6623108,44.06935 C8.6623108,45.17175 7.7654668,46.068542 6.6631188,46.068542" id="Fill-5" fill="#AEADAD"></path>
            <path d="M45.985836,30.2459508 C45.63702,30.6298668 45.44514,31.1263108 45.44514,31.6459988 C45.44514,32.7944188 46.379424,33.7287548 47.527844,33.7287548 C48.676264,33.7287548 49.6106,32.7944188 49.6106,31.6459988 C49.6106,31.1247508 49.417732,30.6272148 49.067096,30.2428828 L47.527896,28.7050868 L45.985836,30.2459508 Z M47.527844,35.8087548 C45.232512,35.8087548 43.36514,33.9413308 43.36514,31.6459988 C43.36514,30.5949228 43.757948,29.5913228 44.471284,28.8200588 L44.499676,28.7905748 L47.527792,25.7647468 L50.57988,28.8150668 C51.296128,29.5871108 51.6906,30.5924268 51.6906,31.6459988 C51.6906,33.9413308 49.823228,35.8087548 47.527844,35.8087548 L47.527844,35.8087548 Z" id="Fill-7" fill="#00953C"></path>
            <polygon id="Fill-9" fill="#AEADAD" points="34.7496188 36.4971204 32.9111588 34.6586604 36.5504828 31.0192844 39.3163628 31.9303764"></polygon>
            <polygon id="Fill-11" fill="#AEADAD" points="15.8821 17.6296536 14.04364 15.7911936 18.644756 11.1900256 19.5663 13.9454536"></polygon>
            <path d="M24.0042036,13.3334084 C24.2662316,14.1098204 24.9279316,14.6872284 25.7330996,14.8414084 L26.0380796,14.8998044 C27.0007556,15.0841964 27.8759676,15.5479844 28.5690756,16.2410924 C29.2621836,16.9342004 29.7259716,17.8094124 29.9103636,18.7721924 C30.0852916,19.6857804 30.7877076,20.3939164 31.6998396,20.5763844 L31.7123196,20.5788804 C33.6520236,20.9668004 35.1536276,22.4684044 35.5410276,24.4049884 L35.6088876,24.7443924 C35.7686836,25.5434244 36.3482756,26.1999244 37.1213596,26.4576364 L37.1274436,26.4596644 L40.0791716,27.4598324 L45.4051156,22.1338884 C45.8167476,21.7222564 45.9474236,21.1485404 45.7547116,20.5992124 C45.5620516,20.0498324 45.1015916,19.6834924 44.5229876,19.6192204 L42.6014316,19.4056564 C41.0259356,19.2306764 39.6839716,18.1458524 39.1827956,16.6419604 L38.0878316,13.3571724 C37.9413996,12.9180844 37.5919596,12.5685404 37.1528716,12.4222644 L33.8679796,11.3272484 C32.3641916,10.8259164 31.2793156,9.4840564 31.1042836,7.9085604 L30.8908236,5.9870564 C30.8264996,5.4084524 30.4601076,4.9479404 29.9107796,4.7552284 C29.3612956,4.5625164 28.7876836,4.6932444 28.3761036,5.1049284 L23.0753796,10.4056004 L24.0042036,13.3334084 Z M40.7750876,30.4408884 L36.2971076,28.9235284 C34.6421556,28.3710284 33.4015916,26.9651564 33.0593796,25.2542524 L32.9915196,24.9148484 C32.8106636,24.0108284 32.1096516,23.3098164 31.2056316,23.1290124 L31.1930996,23.1265164 C29.2360796,22.7351124 27.7315116,21.2181164 27.3567996,19.2612004 C27.1802596,18.3395004 26.4706676,17.6299084 25.5489676,17.4533684 L25.2440396,17.3949724 C23.5134796,17.0636284 22.0921636,15.8193204 21.5349836,14.1476244 L21.5291076,14.1296844 L20.1189716,9.6850364 L26.5376436,3.2664164 C27.6562676,2.1477404 29.2786156,1.7780724 30.7714316,2.3018164 C32.2642996,2.8254564 33.3001916,4.1275364 33.4748596,5.6999124 L33.6883716,7.6214164 C33.7518116,8.1925324 34.1450876,8.6789404 34.6902556,8.8606804 L37.9750436,9.9556444 C39.1863316,10.3593724 40.1506196,11.3236084 40.5543476,12.5350004 L41.6493116,15.8197364 C41.8309996,16.3649564 42.3174596,16.7581284 42.8885236,16.8215684 L44.8101316,17.0351844 C46.3824556,17.2098524 47.6845356,18.2457444 48.2081756,19.7385604 C48.7318156,21.2313764 48.3622516,22.8536724 47.2435756,23.9724004 L40.7750876,30.4408884 Z" id="Fill-13" fill="#00953C"></path>
            <polygon id="Fill-15" fill-opacity="0" fill="#FFFFFF" points="0 52 51.999948 52 51.999948 5.2e-05 0 5.2e-05"></polygon>
        </g>
    </g>
</svg>