<?xml version="1.0" encoding="UTF-8"?>
<svg width="52px" height="52px" viewBox="0 0 52 52" version="1.1" xmlns="http://www.w3.org/2000/svg" xmlns:xlink="http://www.w3.org/1999/xlink">
    <!-- Generator: Sketch 63.1 (92452) - https://sketch.com -->
    <title>people-around-the-globe</title>
    <desc>Created with Sketch.</desc>
    <defs>
        <polygon id="path-1" points="0 51.9992713 51.9992713 51.9992713 51.9992713 0 0 0"></polygon>
    </defs>
    <g id="people-around-the-globe" stroke="none" stroke-width="1" fill="none" fill-rule="evenodd">
        <g>
            <path d="M25.7109133,2.37605125 C23.2611355,2.37605125 21.2680625,4.36912432 21.2680625,6.8189021 L21.2680625,8.80078398 C21.2680625,11.2505618 23.2611355,13.2436348 25.7109133,13.2436348 C28.1606911,13.2436348 30.1537642,11.2505618 30.1537642,8.80078398 L30.1537642,6.8189021 C30.1537642,4.36912432 28.1606911,2.37605125 25.7109133,2.37605125 M25.7109133,15.3257169 C22.1130234,15.3257169 19.1859804,12.3986739 19.1859804,8.80078398 L19.1859804,6.8189021 C19.1859804,3.22101221 22.1130234,0.293969169 25.7109133,0.293969169 C29.3087512,0.293969169 32.2358462,3.22101221 32.2358462,6.8189021 L32.2358462,8.80078398 C32.2358462,12.3986739 29.3087512,15.3257169 25.7109133,15.3257169" id="Fill-1" fill="#AAAAAA"></path>
            <path d="M26.7519544,24.9478354 L24.6698723,24.9478354 L24.6698723,19.3498975 L22.8942206,17.5742458 L17.5875139,19.2070146 L18.2889153,19.6078154 C19.6172837,20.3668384 20.4424128,21.7887964 20.4424128,23.3186583 L20.4424128,24.8965642 L18.3603307,24.8965642 L18.3603307,23.3186583 C18.3603307,22.5340777 17.9371475,21.8048284 17.2558903,21.4156352 L14.4681906,19.8225822 C14.1078863,19.6166643 13.9043107,19.2165401 13.9500124,18.8040797 C13.9956621,18.3916192 14.2819483,18.0456813 14.6785329,17.9237233 L22.8809473,15.3998755 C23.2494238,15.2862979 23.6505369,15.3860817 23.9232376,15.6587303 L26.4470855,18.1825261 C26.6422807,18.3777734 26.7519544,18.6425622 26.7519544,18.9186983 L26.7519544,24.9478354 Z" id="Fill-3" fill="#AAAAAA"></path>
            <mask id="mask-2" fill="white">
                <use xlink:href="#path-1"></use>
            </mask>
            <g id="Clip-6"></g>
            <polygon id="Fill-5" fill="#AAAAAA" mask="url(#mask-2)" points="13.9436517 24.9478198 16.0257337 24.9478198 16.0257337 18.9186827 13.9436517 18.9186827"></polygon>
            <polygon id="Fill-7" fill="#AAAAAA" mask="url(#mask-2)" points="36.027047 24.9478198 38.1091291 24.9478198 38.1091291 18.9186827 36.027047 18.9186827"></polygon>
            <path d="M26.7519544,24.9478354 L24.6698723,24.9478354 L24.6698723,18.9186983 C24.6698723,18.6425622 24.7795459,18.3777734 24.9747411,18.1825261 L27.498589,15.6587303 C27.7659283,15.391443 28.1570474,15.2901497 28.5206831,15.3938895 L37.3540725,17.9176853 C37.7567471,18.0327203 38.0512577,18.3778775 38.101592,18.7936693 C38.1518743,19.209357 37.9481946,19.6147904 37.584559,19.8225822 L34.7968593,21.4156352 C34.115602,21.8048284 33.6924188,22.5340777 33.6924188,23.3186583 L33.6924188,24.8965642 L31.6103367,24.8965642 L31.6103367,23.3186583 C31.6103367,21.7887964 32.4354659,20.3668384 33.7638342,19.6078154 L34.4061045,19.2407964 L28.5377562,17.5641477 L26.7519544,19.3498975 L26.7519544,24.9478354 Z" id="Fill-8" fill="#AAAAAA" mask="url(#mask-2)"></path>
            <polygon id="Fill-9" fill="#AAAAAA" mask="url(#mask-2)" points="22.1460661 16.3948869 24.2281481 16.3948869 24.2281481 14.0670671 22.1460661 14.0670671"></polygon>
            <polygon id="Fill-10" fill="#AAAAAA" mask="url(#mask-2)" points="27.1937097 16.3948869 29.2757918 16.3948869 29.2757918 14.0670671 27.1937097 14.0670671"></polygon>
            <path d="M41.943377,5.89830951 C40.1855792,5.89830951 38.7555532,7.32833554 38.7555532,9.08608128 L38.7555532,10.6144336 C38.7555532,12.3721794 40.1855271,13.8022054 41.9433249,13.8022054 L41.943377,13.8022054 C43.7011748,13.8022054 45.1311487,12.3721794 45.1311487,10.6144336 L45.1311487,9.08608128 C45.1311487,7.32833554 43.7011748,5.89830951 41.943377,5.89830951 M41.943377,15.8842875 C39.0375712,15.8842875 36.6734711,13.5202394 36.6734711,10.6144336 L36.6734711,9.08608128 C36.6734711,6.18027548 39.0375191,3.81622743 41.9433249,3.81622743 C44.8491307,3.81622743 47.2132308,6.18027548 47.2132308,9.08608128 L47.2132308,10.6144336 C47.2132308,13.5202394 44.8491828,15.8842875 41.943377,15.8842875" id="Fill-11" fill="#AAAAAA" mask="url(#mask-2)"></path>
            <polygon id="Fill-12" fill="#AAAAAA" mask="url(#mask-2)" points="49.6603123 24.9222102 51.7423944 24.9222102 51.7423944 18.7290571 49.6603123 18.7290571"></polygon>
            <polygon id="Fill-13" fill="#AAAAAA" mask="url(#mask-2)" points="0.310438438 24.9222102 2.39252052 24.9222102 2.39252052 18.7290571 0.310438438 18.7290571"></polygon>
            <path d="M42.984418,24.9222154 L40.9023359,24.9222154 L40.9023359,18.7290623 C40.9023359,18.4529261 41.0120096,18.1881373 41.2072048,17.9928901 L43.153431,16.0466639 C43.4209265,15.7794286 43.8122018,15.6780833 44.1755772,15.781823 L50.9873169,17.7280492 C51.3899916,17.8430843 51.6845542,18.1882414 51.7348364,18.6039812 C51.7851187,19.0197209 51.581439,19.4251544 51.2178555,19.6329461 L49.0681057,20.8613225 C48.6168144,21.1191884 48.3364621,21.6022835 48.3364621,22.1219712 L48.3364621,24.8826559 L46.25438,24.8826559 L46.25438,22.1219712 C46.25438,20.8569502 46.9367303,19.6811984 48.0350807,19.0535548 L48.0392969,19.0511604 L44.1925982,17.9521333 L42.984418,19.1602615 L42.984418,24.9222154 Z" id="Fill-14" fill="#AAAAAA" mask="url(#mask-2)"></path>
            <path d="M42.984418,24.9222154 L40.9023359,24.9222154 L40.9023359,19.1602615 L39.2610306,17.5189562 C39.0657834,17.3237089 38.9560577,17.0589722 38.9560577,16.782836 L38.9560577,14.987769 L41.0381397,14.987769 L41.0381397,16.3516368 L42.6794971,17.9928901 C42.8747443,18.1881373 42.984418,18.4529261 42.984418,18.7290623 L42.984418,24.9222154 Z" id="Fill-15" fill="#AAAAAA" mask="url(#mask-2)"></path>
            <polygon id="Fill-16" fill="#AAAAAA" mask="url(#mask-2)" points="42.8485205 16.7828308 44.9306026 16.7828308 44.9306026 14.9877638 42.8485205 14.9877638"></polygon>
            <path d="M10.0306386,5.89830951 C8.27284084,5.89830951 6.84286687,7.32833554 6.84286687,9.08608128 L6.84286687,10.6144336 C6.84286687,12.3721794 8.27284084,13.8022054 10.0306386,13.8022054 C11.7884364,13.8022054 13.2184625,12.3721794 13.2184625,10.6144336 L13.2184625,9.08608128 C13.2184625,7.32833554 11.7884364,5.89830951 10.0306386,5.89830951 M10.0306386,15.8842875 C7.12483283,15.8842875 4.76078478,13.5202394 4.76078478,10.6144336 L4.76078478,9.08608128 C4.76078478,6.18027548 7.12483283,3.81622743 10.0306386,3.81622743 C12.9364444,3.81622743 15.3005445,6.18027548 15.3005445,9.08608128 L15.3005445,10.6144336 C15.3005445,13.5202394 12.9364444,15.8842875 10.0306386,15.8842875" id="Fill-17" fill="#AAAAAA" mask="url(#mask-2)"></path>
            <path d="M5.71957317,24.8826663 L3.63749109,24.8826663 L3.63749109,22.1219816 C3.63749109,21.6022418 3.35713874,21.1191467 2.9058995,20.8613329 L0.756201802,19.6329566 C0.392566166,19.4251127 0.188886486,19.0197313 0.239168769,18.6039916 C0.289503103,18.1882519 0.584013614,17.8430947 0.986688288,17.7280597 L7.79842803,15.7818334 C8.16211572,15.6778855 8.55323483,15.779387 8.82057417,16.0466743 L10.0306282,17.2567804 L10.9358134,16.3515952 L10.9358134,14.9877273 L13.0178955,14.9877273 L13.0178955,16.7828464 C13.0178955,17.0589305 12.9081698,17.3237193 12.7129746,17.5189666 L10.7668004,19.4651928 C10.3602218,19.8717193 9.70103463,19.8717193 9.29450811,19.4651928 L7.78140701,17.9521437 L3.93470831,19.0511708 L3.93892452,19.0535652 C5.03727487,19.6811568 5.71957317,20.8569085 5.71957317,22.1219816 L5.71957317,24.8826663 Z" id="Fill-18" fill="#AAAAAA" mask="url(#mask-2)"></path>
            <polygon id="Fill-19" fill="#AAAAAA" mask="url(#mask-2)" points="7.04337137 16.7828308 9.12545345 16.7828308 9.12545345 14.9877638 7.04337137 14.9877638"></polygon>
            <path d="M29.8202302,7.72236957 C27.1795255,7.72257778 24.9587768,6.53074194 23.9431371,5.8801954 C23.4285506,6.31004124 22.7313654,6.62761081 21.8603263,6.827803 C21.0132312,7.02258178 20.295017,7.03288809 20.2648789,7.03325245 L20.2457758,5.47179499 C20.8231892,5.46320641 22.6051912,5.24922042 23.1987928,4.40733053 C23.322,4.23253974 23.5115736,4.1159952 23.7231131,4.08481602 C23.9346527,4.05348068 24.1497838,4.11063383 24.3181722,4.24248168 C24.3486747,4.26621742 27.5232252,6.69356076 31.054957,6.05076997 L31.3346326,7.58708629 C30.8189009,7.68093614 30.3119139,7.72231752 29.8202302,7.72236957" id="Fill-20" fill="#AAAAAA" mask="url(#mask-2)"></path>
            <path d="M12.7548348,11.7196496 C11.6504464,11.7196496 10.5255495,11.3023483 9.43094695,10.4761782 C8.79356957,9.99516517 8.28335536,9.46147548 7.93851051,9.05729129 C7.63525526,9.1793013 7.26766366,9.24743744 6.83724525,9.26086687 C6.25868669,9.27913714 5.74248649,9.19044044 5.72078078,9.18669269 L5.98697497,7.64792993 C6.65214815,7.76114314 7.27344144,7.6828048 7.41184785,7.57968969 C7.54556957,7.35269069 7.78526927,7.20798599 8.04948549,7.19617017 C8.32166567,7.18508308 8.57932332,7.31391191 8.73141942,7.53914114 C8.73709309,7.54752152 9.38961762,8.49747147 10.4012492,9.25201802 C11.6351952,10.1722462 12.8276036,10.3901361 13.9457337,9.89944144 L14.5733253,11.3293634 C13.9794114,11.59004 13.3702983,11.7195976 12.7548348,11.7196496" id="Fill-21" fill="#AAAAAA" mask="url(#mask-2)"></path>
            <path d="M12.7373974,5.83238038 L11.5000681,4.87977578 C11.6805325,4.64533333 11.7759439,4.36435636 11.7759439,4.06719119 C11.7759439,3.33174775 11.1776577,2.73346146 10.4422142,2.73346146 C9.70677077,2.73346146 9.10843243,3.33174775 9.10843243,4.06719119 C9.10843243,4.3158959 9.17714114,4.5581982 9.30701101,4.76791592 L7.97957958,5.59028629 C7.69646847,5.13337337 7.54687087,4.60671071 7.54687087,4.06719119 C7.54687087,2.4707027 8.84572573,1.1718999 10.4422142,1.1718999 C12.0387027,1.1718999 13.3375055,2.4707027 13.3375055,4.06719119 C13.3375055,4.71206406 13.129974,5.32242643 12.7373974,5.83238038" id="Fill-22" fill="#AAAAAA" mask="url(#mask-2)"></path>
            <path d="M11.0584168,21.7242675 C11.0584168,22.291843 10.5982767,22.7520352 10.030649,22.7520352 C9.46302142,22.7520352 9.00288128,22.291843 9.00288128,21.7242675 C9.00288128,21.1566398 9.46302142,20.6964997 10.030649,20.6964997 C10.5982767,20.6964997 11.0584168,21.1566398 11.0584168,21.7242675" id="Fill-23" fill="#AAAAAA" mask="url(#mask-2)"></path>
            <path d="M49.2569453,28.2660496 C48.8394358,32.9789986 47.0174579,37.3946262 43.9877161,41.0355111 L43.5621385,41.5469225 L42.9892016,41.2087403 C41.4400284,40.2943419 39.9681526,39.5595752 38.4894579,38.9624861 L37.7807692,38.6763039 L38.0507632,37.9612649 C39.2316681,34.8336132 39.9301546,31.5332008 40.1268593,28.1516913 L40.169646,27.4152068 L49.3323167,27.4152068 L49.2569453,28.2660496 Z M40.9065469,44.1061658 C38.8006771,45.8498575 36.4317361,47.19837 33.86557,48.1141738 L31.3106991,49.0260216 L32.9882847,46.8942819 C34.2978102,45.2301778 35.4550835,43.4390146 36.4279884,41.5704501 L36.7551876,40.9419215 L37.4127612,41.2059295 C38.5115279,41.6469666 39.614615,42.1746182 40.7850054,42.8189706 L41.7917441,43.3732208 L40.9065469,44.1061658 Z M27.3155479,49.361445 L27.3155479,39.0699736 L28.1494218,39.1255652 C29.9300705,39.2442959 31.7026511,39.5175171 33.4178182,39.9375251 L34.4109714,40.1806603 L33.9160605,41.075383 C32.5202847,43.5986583 30.7482767,45.9390747 28.6494859,48.0316192 L27.3155479,49.361445 Z M27.3155479,27.4152068 L37.6961325,27.4152068 L37.6408533,28.2488204 C37.4354559,31.3490406 36.7713237,34.3752428 35.6669353,37.2432589 L35.4144308,37.8989586 L34.7355159,37.7176613 C32.575616,37.1408725 30.3270194,36.7812969 28.0519804,36.6489285 L27.3155479,36.6060897 L27.3155479,27.4152068 Z M24.8480725,36.6060897 L24.111588,36.6489285 C21.836601,36.7812969 19.5879524,37.1408725 17.4281045,37.7176613 L16.7492416,37.8989586 L16.4966851,37.2432589 C15.3923487,34.375399 14.7282166,31.3491968 14.5227672,28.2488204 L14.4674879,27.4152068 L24.8480725,27.4152068 L24.8480725,36.6060897 Z M24.8480725,49.361445 L23.5141866,48.0318795 C21.4161245,45.9405321 19.6441686,43.6000116 18.247612,41.075383 L17.752597,40.1806603 L18.7458022,39.9375251 C20.4609173,39.5175171 22.2334458,39.2443479 24.0141986,39.1255652 L24.8480725,39.0699736 L24.8480725,49.361445 Z M18.2981025,48.1143299 C15.7310515,47.19837 13.3617982,45.8497534 11.2562927,44.1058014 L10.371616,43.3730126 L11.3777822,42.8187624 C12.5471836,42.1746182 13.650583,41.6469666 14.7510675,41.2057213 L15.4085369,40.9420777 L15.735632,41.5703459 C16.7085369,43.4390667 17.8658623,45.2303339 19.1753878,46.894386 L20.8526611,49.0257614 L18.2981025,48.1143299 Z M8.60137778,41.5469225 L8.1758002,41.035407 C5.14621461,37.3945742 3.32418458,32.9790507 2.90662302,28.2660496 L2.83125165,27.4152068 L11.9940264,27.4152068 L12.0368132,28.1516913 C12.2334659,31.5332529 12.9320044,34.8336132 14.1129093,37.9611608 L14.3829033,38.6761477 L13.6741626,38.9623299 C12.1934378,39.5603039 10.7215099,40.2951227 9.17436677,41.2085842 L8.60137778,41.5469225 Z M0.345714114,24.9478354 C0.326506907,25.3585782 0.316825225,25.771351 0.316825225,26.1815211 C0.316825225,33.063375 2.99693333,39.533445 7.86338378,44.3999475 C12.7299904,49.266398 19.2000605,51.9464541 26.0818102,51.9464541 C32.96356,51.9464541 39.43363,49.266398 44.3001846,44.3999475 C49.1666871,39.533445 51.8467431,33.063375 51.8467431,26.1815211 C51.8467431,25.7715071 51.8370615,25.3589946 51.8179584,24.9486683 L0.345714114,24.9478354 Z" id="Fill-24" fill="#00953C" mask="url(#mask-2)"></path>
            <polygon id="Fill-25" fill-opacity="0" fill="#FFFFFF" mask="url(#mask-2)" points="0 51.9992713 51.9992713 51.9992713 51.9992713 5.20520521e-05 0 5.20520521e-05"></polygon>
        </g>
    </g>
</svg>