<?xml version="1.0" encoding="UTF-8"?>
<svg width="52px" height="52px" viewBox="0 0 52 52" version="1.1" xmlns="http://www.w3.org/2000/svg" xmlns:xlink="http://www.w3.org/1999/xlink">
    <!-- Generator: Sketch 63.1 (92452) - https://sketch.com -->
    <title>person-lightbulb</title>
    <desc>Created with Sketch.</desc>
    <defs>
        <polygon id="path-1" points="0 51.3066153 51.9472192 51.3066153 51.9472192 0.000719732078 0 0.000719732078"></polygon>
    </defs>
    <g id="person-lightbulb" stroke="none" stroke-width="1" fill="none" fill-rule="evenodd">
        <g>
            <polygon id="Fill-1" fill="#00953C" points="38.1914755 23.2442101 39.753037 23.2442101 39.753037 17.4938593 38.1914755 17.4938593"></polygon>
            <g id="Group-16" transform="translate(0.000000, 0.050690)">
                <path d="M39.1058687,12.8198266 C37.9025814,12.8198266 36.7712821,13.2776277 35.9137245,14.1131338 C35.0407075,14.9636 34.5599548,16.0988746 34.5599548,17.3098238 C34.5599548,18.2964222 34.8749738,19.2358268 35.4709177,20.0264525 C36.1466575,20.9229302 36.5593782,22.1763951 36.7865854,23.0700967 C37.0623051,24.1544759 37.2204392,25.3107254 37.2204392,26.2422644 C37.2204392,26.9559816 37.8083672,27.5366511 38.5310058,27.5366511 L39.6810959,27.5366511 C40.4037345,27.5366511 40.9916625,26.9559816 40.9916625,26.2422644 L40.9916625,26.2215978 C40.9917145,24.6909847 41.4602871,21.6585992 42.7175524,20.0373513 C43.3367115,19.23886 43.6597986,18.2833643 43.6519908,17.2741971 C43.6329918,14.8514761 41.6224292,12.853397 39.1700488,12.8202893 C39.1487075,12.8199809 39.127158,12.8198266 39.1058687,12.8198266 M39.6810959,29.5930285 L38.5310058,29.5930285 C36.6603071,29.5930285 35.1383572,28.089868 35.1383572,26.2422644 C35.1383572,24.7223445 34.5891039,22.3000862 33.8008797,21.2544183 C32.9353582,20.10624 32.4778727,18.7421935 32.4778727,17.3098238 C32.4778727,15.5442696 33.1788056,13.8890915 34.4515303,12.6491473 C35.7240468,11.409306 37.4108977,10.7404178 39.1985213,10.7641176 C40.9346134,10.7875603 42.5694643,11.4750587 43.8020048,12.6999398 C45.0343892,13.9246668 45.7205393,15.5434985 45.7339688,17.2583115 C45.7454723,18.7292897 45.2739848,20.1226396 44.3705173,21.2877316 C43.7442791,22.0952196 43.0737966,24.2704555 43.0737445,26.2215978 L43.0737445,26.2423672 C43.0736404,28.0899195 41.5516384,29.5930285 39.6810959,29.5930285" id="Fill-2" fill="#00953C"></path>
                <mask id="mask-2" fill="white">
                    <use xlink:href="#path-1"></use>
                </mask>
                <g id="Clip-5"></g>
                <polygon id="Fill-4" fill="#00953C" mask="url(#mask-2)" points="35.9086807 23.9646619 42.2882843 23.9646619 42.2882843 22.4223789 35.9086807 22.4223789"></polygon>
                <polygon id="Fill-6" fill="#00953C" mask="url(#mask-2)" points="37.9025345 7.48397978 39.9846166 7.48397978 39.9846166 1.28785773 37.9025345 1.28785773"></polygon>
                <polygon id="Fill-7" fill="#00953C" mask="url(#mask-2)" points="47.1649369 11.9302532 45.6926446 10.4762402 49.9291091 6.29197494 51.4014535 7.74598796"></polygon>
                <polygon id="Fill-8" fill="#00953C" mask="url(#mask-2)" points="30.7612741 11.9303046 26.536157 7.75734945 28.0084492 6.3032336 32.2335664 10.4761888"></polygon>
                <path d="M16.4785762,13.9581652 C12.9389325,13.9581652 10.0592569,16.8022893 10.0592569,20.2982336 L10.0592569,23.0540878 C10.0592569,26.5500321 12.9389325,29.3941562 16.4785762,29.3941562 C20.0182198,29.3941562 22.8978955,26.5500321 22.8978955,23.0540878 L22.8978955,20.2982336 C22.8978955,16.8022893 20.0182198,13.9581652 16.4785762,13.9581652 M16.4785762,31.9646279 C11.5038575,31.9646279 7.45665425,27.9673902 7.45665425,23.0540878 L7.45665425,20.2982336 C7.45665425,15.3849312 11.5038575,11.3876935 16.4785762,11.3876935 C21.4532949,11.3876935 25.5004981,15.3849312 25.5004981,20.2982336 L25.5004981,23.0540878 C25.5004981,27.9673902 21.4532949,31.9646279 16.4785762,31.9646279" id="Fill-9" fill="#AAAAAA" mask="url(#mask-2)"></path>
                <path d="M33.7693622,51.2190598 L31.1667596,51.2190598 L31.1667596,44.1532444 C31.1667596,42.3929854 30.5994963,40.7198139 29.526235,39.3145885 C28.4530258,37.909363 26.9799528,36.9109918 25.2663471,36.4273832 L20.4105153,35.0571676 L17.3987315,38.0317689 C16.8904953,38.5337306 16.0666154,38.5337306 15.5584312,38.0317689 L12.559244,35.0696087 L8.42157437,36.3269806 C6.7466955,36.8359854 5.3110999,37.8408342 4.27000681,39.2330531 C3.22896577,40.6252206 2.67867147,42.2758747 2.67867147,44.0066247 L2.67867147,51.2190598 L0.0760688689,51.2190598 L0.0760688689,44.0066247 C0.0760688689,41.7222465 0.802403203,39.5435147 2.17652533,37.7058845 C3.55064745,35.868357 5.44544625,34.5420451 7.65614895,33.8701752 L12.5426394,32.3852137 C13.0033001,32.2451744 13.5046655,32.3681457 13.8455023,32.7048261 L16.4785554,35.3053723 L19.1116084,32.7048261 C19.4457826,32.374829 19.9348637,32.249647 20.3892781,32.3778621 L25.9813341,33.9558233 C28.243152,34.5940714 30.1875043,35.9118494 31.6040488,37.7666504 C33.0205934,39.6214514 33.7693622,41.8298978 33.7693622,44.1532444 L33.7693622,51.2190598 Z" id="Fill-10" fill="#AAAAAA" mask="url(#mask-2)"></path>
                <polygon id="Fill-11" fill="#AAAAAA" mask="url(#mask-2)" points="11.6240561 33.6136472 14.2266587 33.6136472 14.2266587 30.3768578 11.6240561 30.3768578"></polygon>
                <polygon id="Fill-12" fill="#AAAAAA" mask="url(#mask-2)" points="18.7304625 33.6136472 21.3330651 33.6136472 21.3330651 30.3768578 18.7304625 30.3768578"></polygon>
                <polygon id="Fill-13" fill="#AAAAAA" mask="url(#mask-2)" points="6.55668468 51.1899673 9.15928729 51.1899673 9.15928729 44.7391629 6.55668468 44.7391629"></polygon>
                <polygon id="Fill-14" fill="#AAAAAA" mask="url(#mask-2)" points="23.961017 51.1899673 26.5636196 51.1899673 26.5636196 44.7391629 23.961017 44.7391629"></polygon>
                <polygon id="Fill-15" fill-opacity="0" fill="#FFFFFF" mask="url(#mask-2)" points="0 51.3066153 51.9472192 51.3066153 51.9472192 0.000719732078 0 0.000719732078"></polygon>
            </g>
        </g>
    </g>
</svg>