<?xml version="1.0" encoding="UTF-8"?>
<svg width="52px" height="52px" viewBox="0 0 52 52" version="1.1" xmlns="http://www.w3.org/2000/svg" xmlns:xlink="http://www.w3.org/1999/xlink">
    <!-- Generator: Sketch 63.1 (92452) - https://sketch.com -->
    <title>person-star</title>
    <desc>Created with Sketch.</desc>
    <defs>
        <polygon id="path-1" points="0 51.9992705 51.9992705 51.9992705 51.9992705 0 0 0"></polygon>
    </defs>
    <g id="person-star" stroke="none" stroke-width="1" fill="none" fill-rule="evenodd">
        <g>
            <path d="M40.2994425,14.5582806 C40.5143723,14.5582806 40.7293543,14.6246092 40.9119796,14.7572665 L44.3325687,17.2425852 L43.0260036,13.2213908 C42.8865206,12.792 43.0393423,12.3216032 43.4045928,12.0562365 L46.825182,9.57107415 L42.5970818,9.57107415 C42.1456509,9.57107415 41.7454906,9.28038477 41.6059555,8.85104609 L40.2994425,4.82990381 L38.9929295,8.85104609 C38.8533944,9.28038477 38.4532341,9.57107415 38.0018032,9.57107415 L33.7737551,9.57107415 L37.1942922,12.0562365 C37.5595427,12.3216032 37.7123643,12.792 37.5728814,13.2213908 L36.2663162,17.2425852 L39.6869054,14.7572665 C39.8695307,14.6246092 40.0845126,14.5582806 40.2994425,14.5582806 M46.314717,21.0128457 C46.0997351,21.0128457 45.8848573,20.946517 45.70218,20.8138597 L40.2994425,16.888485 L34.896705,20.8138597 C34.5314545,21.0791222 34.0368814,21.0791222 33.6716309,20.8138597 C33.3063804,20.548493 33.1535587,20.0780962 33.2930417,19.6487054 L35.3567331,13.2974108 L29.9539956,9.37208818 C29.5887972,9.10672144 29.4359756,8.63637675 29.5754585,8.20698597 C29.7149415,7.77759519 30.1151018,7.48690581 30.5665327,7.48690581 L37.244677,7.48690581 L39.3083683,1.13561122 C39.4478513,0.706220441 39.8480116,0.415531062 40.2994425,0.415531062 C40.7508733,0.415531062 41.1510337,0.706220441 41.2905166,1.13561122 L43.354208,7.48690581 L50.0324044,7.48690581 C50.4838353,7.48690581 50.8839956,7.77759519 51.0234786,8.20698597 C51.1629615,8.63637675 51.0101399,9.10672144 50.6449415,9.37208818 L45.2421519,13.2974108 L47.3058433,19.6487054 C47.4453263,20.0780962 47.2925046,20.548493 46.9272541,20.8138597 C46.7446289,20.9464649 46.5296469,21.0128457 46.314717,21.0128457" id="Fill-1" fill="#00953C"></path>
            <mask id="mask-2" fill="white">
                <use xlink:href="#path-1"></use>
            </mask>
            <g id="Clip-4"></g>
            <polygon id="Fill-3" fill="#00953C" mask="url(#mask-2)" points="35.7228537 30.8615311 37.807022 30.8615311 37.807022 24.7893587 35.7228537 24.7893587"></polygon>
            <polygon id="Fill-5" fill="#00953C" mask="url(#mask-2)" points="43.5228016 30.8615311 45.6069699 30.8615311 45.6069699 24.7893587 43.5228016 24.7893587"></polygon>
            <polygon id="Fill-6" fill="#00953C" mask="url(#mask-2)" points="39.6228016 28.2876874 41.7069699 28.2876874 41.7069699 21.4903808 39.6228016 21.4903808"></polygon>
            <path d="M16.495093,14.1460737 C12.9519026,14.1460737 10.0693415,17.0286349 10.0693415,20.5718253 L10.0693415,23.3649234 C10.0693415,26.9081138 12.9519026,29.7906749 16.495093,29.7906749 C20.0382834,29.7906749 22.9208445,26.9081138 22.9208445,23.3649234 L22.9208445,20.5718253 C22.9208445,17.0286349 20.0382834,14.1460737 16.495093,14.1460737 M16.495093,32.3958854 C11.5153896,32.3958854 7.46413106,28.3446269 7.46413106,23.3649234 L7.46413106,20.5718253 C7.46413106,15.5921218 11.5153896,11.5408633 16.495093,11.5408633 C21.4747964,11.5408633 25.5260549,15.5921218 25.5260549,20.5718253 L25.5260549,23.3649234 C25.5260549,28.3446269 21.4747964,32.3958854 16.495093,32.3958854" id="Fill-7" fill="#AAAAAA" mask="url(#mask-2)"></path>
            <path d="M33.8032096,51.9105319 L31.1979992,51.9105319 L31.1979992,44.7492253 C31.1979992,42.9651772 30.6301675,41.2693936 29.5558309,39.8451772 C28.4815463,38.4209607 27.0069972,37.409097 25.2916745,36.9189527 L20.4309772,35.5302192 L17.4161756,38.5450208 C16.9074301,39.0537663 16.0827246,39.0537663 15.5740313,38.5450208 L12.5718389,35.5428285 L8.43002325,36.8171932 C6.75346613,37.333077 5.31643206,38.3515058 4.27429579,39.7625399 C3.23221162,41.1735218 2.68136593,42.8464838 2.68136593,44.600624 L2.68136593,51.9105319 L0.076155511,51.9105319 L0.076155511,44.600624 C0.076155511,42.2853735 0.803217635,40.0771972 2.17871663,38.2147323 C3.55421563,36.3523715 5.45091303,35.0081351 7.66383086,34.3271852 L12.5552176,32.8221551 C13.0163399,32.6802232 13.5182076,32.8048565 13.859386,33.146087 L16.4950774,35.7817784 L19.1307687,33.146087 C19.4652778,32.8116301 19.9548489,32.6847563 20.4097186,32.8147042 L26.007378,34.4139908 C28.2714621,35.0608645 30.2177627,36.3964517 31.6357267,38.2763194 C33.0536906,40.1561872 33.8032096,42.3944798 33.8032096,44.7492253 L33.8032096,51.9105319 Z" id="Fill-8" fill="#AAAAAA" mask="url(#mask-2)"></path>
            <polygon id="Fill-9" fill="#AAAAAA" mask="url(#mask-2)" points="11.6357034 34.0671904 14.2409138 34.0671904 14.2409138 30.7866573 11.6357034 30.7866573"></polygon>
            <polygon id="Fill-10" fill="#AAAAAA" mask="url(#mask-2)" points="18.7492826 34.0671904 21.354493 34.0671904 21.354493 30.7866573 18.7492826 30.7866573"></polygon>
            <polygon id="Fill-11" fill="#AAAAAA" mask="url(#mask-2)" points="6.56325451 51.8810461 9.16846493 51.8810461 9.16846493 45.3430621 6.56325451 45.3430621"></polygon>
            <polygon id="Fill-12" fill="#AAAAAA" mask="url(#mask-2)" points="23.9850261 51.8810461 26.5902365 51.8810461 26.5902365 45.3430621 23.9850261 45.3430621"></polygon>
            <polygon id="Fill-13" fill-opacity="0" fill="#FFFFFF" mask="url(#mask-2)" points="0 51.9992705 51.9992705 51.9992705 51.9992705 0 0 0"></polygon>
        </g>
    </g>
</svg>