<?xml version="1.0" encoding="UTF-8"?>
<svg width="52px" height="52px" viewBox="0 0 52 52" version="1.1" xmlns="http://www.w3.org/2000/svg" xmlns:xlink="http://www.w3.org/1999/xlink">
    <!-- Generator: Sketch 63.1 (92452) - https://sketch.com -->
    <title>pins-on-map</title>
    <desc>Created with Sketch.</desc>
    <g id="pins-on-map" stroke="none" stroke-width="1" fill="none" fill-rule="evenodd">
        <g>
            <path d="M32.3837399,23.6031734 C30.702285,23.6037639 29.121287,24.2591828 27.9324253,25.4487739 C26.7435114,26.6384172 26.0890826,28.21978 26.0896033,29.9015996 C26.0896033,31.8569142 28.4991627,36.1470184 32.3872309,41.1214072 C36.2768621,36.1448822 38.6872028,31.8549864 38.6872028,29.9020164 C38.6866818,28.2176437 38.0310024,26.6360725 36.8409423,25.4467419 C35.6514032,24.2578802 34.0701968,23.6031734 32.3885335,23.6031734 C32.3876477,23.6031734 32.3869182,23.6031734 32.3860846,23.6031734 L32.3837399,23.6031734 Z M32.3848341,43.8135275 C31.8529022,43.8135275 31.317323,43.6425735 30.8671948,43.2896717 C30.711299,43.1674353 30.5704092,43.0265455 30.448277,42.870806 C29.3201687,41.4340846 27.6777399,39.2374754 26.2627459,36.9358762 C24.3931948,33.8947619 23.4843928,31.5938922 23.4843928,29.9020164 C23.4836637,27.5247098 24.4089303,25.2890224 26.0897078,23.6071507 C27.7704854,21.9253832 30.0055996,20.9987619 32.3833752,20.9980325 L32.3860846,22.3006377 L32.3856677,20.9980325 L32.3885335,20.9980325 C34.7659443,20.9980325 37.0009022,21.9234032 38.6825655,23.6040244 C40.364802,25.2852188 41.2916838,27.5209062 41.2924132,29.899307 C41.2924132,31.5938922 40.3831427,33.8947619 38.5127058,36.9360846 C37.0986497,39.235287 35.455283,41.4328341 34.3256637,42.8715355 C33.8406778,43.4900645 33.1162729,43.8135275 32.3848341,43.8135275 L32.3848341,43.8135275 Z" id="Fill-1" fill="#00953C"></path>
            <path d="M32.3884188,28.3549539 L32.3871162,28.3549539 C31.5347956,28.3556834 30.8413407,29.0496593 30.8413407,29.90198 C30.8413407,30.7550301 31.5353166,31.4490581 32.3884188,31.4490581 C33.2414689,31.4490581 33.9354449,30.7550301 33.9354449,29.90198 L33.9354449,29.8996874 C33.9351323,29.4875431 33.7738697,29.0991583 33.4814609,28.8072184 C33.1893126,28.5155391 32.8011363,28.3549539 32.3884188,28.3549539 M32.3884188,34.0542685 C30.0988557,34.0542685 28.2361303,32.1915952 28.2361303,29.90198 C28.2361303,27.6143447 30.0972926,25.7516713 32.38498,25.7497435 L32.3884188,25.7497435 C34.6764709,25.7497435 36.5387796,27.6102285 36.5406553,29.8986453 L36.5406553,29.90198 C36.5406553,32.1915952 34.6779299,34.0542685 32.3884188,34.0542685" id="Fill-3" fill="#00953C"></path>
            <path d="M4.98659158,49.6463904 C3.30388617,49.6463904 1.81125691,48.7693723 0.991970341,47.2987832 C0.171276954,45.8255888 0.212856112,44.0909876 1.10316072,42.6587992 L6.24146934,34.3927792 C7.08175391,33.0409355 8.53374188,32.2338413 10.1254733,32.2338413 L10.7533812,32.2338413 C11.472784,32.2338413 12.0559864,32.8170958 12.0559864,33.5364465 C12.0559864,34.2558493 11.472784,34.8390517 10.7533812,34.8390517 L10.1254733,34.8390517 C9.44051142,34.8390517 8.81567776,35.1863784 8.45407455,35.7681739 L3.31571383,44.0341419 C2.93259158,44.6504826 2.91466774,45.3969275 3.26788216,46.0309315 C3.62041924,46.6637371 4.26281202,47.04118 4.9868521,47.04118 L4.99086413,47.04118 L47.171305,46.9614605 C47.8393331,46.9601579 48.4349363,46.6406028 48.8053451,46.0847551 C49.175806,45.5288553 49.2414052,44.8560858 48.9853651,44.2391198 L45.5883271,36.0528192 C45.2823711,35.3154926 44.5688561,34.8390517 43.7705675,34.8390517 C43.0511647,34.8390517 42.4679623,34.2558493 42.4679623,33.5364465 C42.4679623,32.8170958 43.0511647,32.2338413 43.7705675,32.2338413 C45.6256337,32.2338413 47.2836417,33.3410036 47.9946036,35.0542942 L51.3916417,43.2405948 C51.9778661,44.6532962 51.8215014,46.2565948 50.9733491,47.5293964 C50.1251968,48.802198 48.7057218,49.5638052 47.1762028,49.5666709 L4.99581403,49.6463904 L4.98659158,49.6463904 Z" id="Fill-5" fill="#AAAAAA"></path>
            <path d="M15.8944096,6.50675271 C15.2855719,6.50675271 14.6792353,6.57803126 14.085091,6.71985892 C12.0587583,7.20349018 10.342081,8.44726974 9.25122725,10.2220433 C8.16042565,11.9968168 7.82602084,14.0901555 8.3096521,16.1164882 C8.31507094,16.1392056 8.31986453,16.1621315 8.32408497,16.1851094 C8.79338758,18.7577547 10.9194477,21.9435102 12.9755319,25.0243279 C14.3141411,27.0301315 15.6129948,28.9762236 16.5316441,30.8276425 C17.5320449,28.7478509 18.9815319,26.5431655 20.4040289,24.3794341 C22.3716922,21.386412 24.4063615,18.2915784 24.7555639,16.2039711 C24.7605659,16.1741154 24.7665579,16.1444681 24.7736441,16.1150814 C24.960594,15.335394 25.0260369,14.5346044 24.968097,13.734909 C24.8176721,11.6589731 23.8679166,9.76587094 22.2936401,8.40433587 C20.7194156,7.0428008 18.7092874,6.37571062 16.6332994,6.52618758 C16.5712954,6.53072064 16.5090309,6.53077275 16.4470269,6.52634389 C16.2628385,6.51326573 16.0784417,6.50675271 15.8944096,6.50675271 M16.5391471,36.7215142 C15.8197443,36.7215142 15.2365419,36.1383118 15.2365419,35.418909 C15.2365419,33.1053259 12.9854838,29.732412 10.8085699,26.4704802 C8.61362806,23.1815062 6.34417715,19.7810293 5.76753988,16.6872898 C5.13426533,13.9947527 5.58267415,11.2155142 7.03174429,8.8578509 C8.48696273,6.49023567 10.777099,4.83102926 13.4802653,4.18582285 C14.4821772,3.94676874 15.5104537,3.85798317 16.538105,3.92144609 C19.2752433,3.74705331 21.9209387,4.63751423 23.9978645,6.43385892 C26.0984457,8.25062846 27.3658285,10.7766405 27.5664818,13.5466044 C27.6427623,14.5989531 27.5589267,15.6526565 27.3172673,16.6793699 C26.8609908,19.3001595 24.781616,22.4631455 22.5809427,25.8105283 C20.3595319,29.1894862 17.8417523,33.0191976 17.8417523,35.418909 C17.8417523,36.1383118 17.2585499,36.7215142 16.5391471,36.7215142" id="Fill-7" fill="#00933C"></path>
            <path d="M16.5414866,11.2557647 L16.5398192,11.2557647 C15.7235026,11.2561816 14.9584565,11.5736004 14.3831739,12.1494561 C13.8079435,12.7253639 13.4913583,13.4907747 13.4917747,14.3047467 C13.4922441,15.1187707 13.8096108,15.8838168 14.3854665,16.4590473 C14.9609575,17.033913 15.7257952,17.3504982 16.5390898,17.3504982 L16.5407571,17.3504982 C18.2210657,17.3495603 19.5873944,15.9818248 19.586509,14.3015162 L19.586509,14.2984421 C19.5855707,12.6207387 18.2196589,11.2557647 16.5414866,11.2557647 L16.5414866,11.2557647 Z M16.5390898,19.9557086 C15.0303603,19.9557086 13.6117711,19.3685463 12.5443122,18.3022337 C11.4761238,17.2351916 10.8873463,15.8159772 10.886564,14.3061535 C10.8857832,12.7962778 11.4729976,11.3764902 12.5400397,10.3082497 C13.6070818,9.24006132 15.0262441,8.65138798 16.5361198,8.65055431 L16.539194,8.65055431 C19.6557551,8.65055431 22.1900517,11.1831836 22.1917199,14.2977647 L22.1917199,14.3001094 C22.1933864,17.4169832 19.6589856,19.9540413 16.5421639,19.9557086 L16.5390898,19.9557086 Z" id="Fill-9" fill="#00933C"></path>
            <polygon id="Fill-11" fill="#AEADAD" points="7.02092224 40.4716782 5.33357956 39.2482713 6.55703848 37.5609808 8.24432906 38.7843876"></polygon>
            <polygon id="Fill-13" fill="#AEADAD" points="10.7536208 43.1780437 8.8873002 41.8248453 10.1106549 40.1375547 11.9769756 41.4907531"></polygon>
            <path d="M14.9190553,45.9530982 C14.703917,45.9530982 14.4892477,45.8866132 14.3072998,45.7546333 L12.6200092,44.5312786 L13.8433639,42.843988 L14.9612076,43.6544689 L16.130895,42.9207896 L17.2383178,44.6863928 L15.4726625,45.7938156 C15.3030112,45.9002124 15.1107988,45.9530982 14.9190553,45.9530982" id="Fill-15" fill="#AEADAD"></path>
            <polygon id="Fill-17" fill="#AEADAD" points="19.4738281 43.2842842 18.3664052 41.5186289 20.6019363 40.1165046 21.7093591 41.8821599"></polygon>
            <polygon id="Fill-19" fill="#AEADAD" points="23.9448381 40.48002 22.8374152 38.7143647 24.6030184 37.6069419 25.7104413 39.3725972"></polygon>
            <path d="M42.0689118,43.0952032 L39.4307194,41.4179166 L40.5489279,39.659087 L43.1871202,41.3363735 L42.0689118,43.0952032 Z M47.3452966,46.4498285 L44.7071042,44.7724898 L45.8253126,43.0137122 L48.463505,44.6909988 L47.3452966,46.4498285 Z" id="Fill-21" fill="#AEADAD"></path>
            <polygon id="Fill-23" fill-opacity="0" fill="#FFFFFF" points="0 51.9992705 51.9992705 51.9992705 51.9992705 0 0 0"></polygon>
        </g>
    </g>
</svg>