<?xml version="1.0" encoding="UTF-8"?>
<svg width="52px" height="52px" viewBox="0 0 52 52" version="1.1" xmlns="http://www.w3.org/2000/svg" xmlns:xlink="http://www.w3.org/1999/xlink">
    <!-- Generator: Sketch 63.1 (92452) - https://sketch.com -->
    <title>protection</title>
    <desc>Created with Sketch.</desc>
    <defs>
        <polygon id="path-1" points="0 0.0262649351 51.9246234 0.0262649351 51.9246234 21.8234078 0 21.8234078"></polygon>
    </defs>
    <g id="protection" stroke="none" stroke-width="1" fill="none" fill-rule="evenodd">
        <g>
            <polygon id="Fill-1" fill="#AEADAD" points="24.6637403 4.18394805 27.2610909 4.18394805 27.2610909 0.0519480519 24.6637403 0.0519480519"></polygon>
            <g id="Group-11" transform="translate(0.000000, 0.001870)">
                <path d="M21.4263013,51.8961039 C18.2089506,51.8961039 15.5914961,49.2785974 15.5914961,46.0612987 L18.1888987,46.0612987 C18.1888987,47.8463896 19.6412104,49.2987013 21.4263013,49.2987013 C23.2113922,49.2987013 24.6637039,47.8463896 24.6637039,46.0612987 L24.6637039,20.7874286 L27.2611065,20.7874286 L27.2611065,46.0612987 C27.2611065,49.2785974 24.6436519,51.8961039 21.4263013,51.8961039" id="Fill-2" fill="#AEADAD"></path>
                <path d="M36.3334182,24.6825766 C36.0751325,24.6825766 35.8183013,24.6050182 35.597574,24.4512519 C35.5491584,24.4190442 34.6650545,23.8388364 33.0761714,23.2669922 C31.5794961,22.7282909 29.130561,22.086161 25.9629766,22.086161 L25.9629766,19.4887584 C30.0045351,19.4887584 33.0541455,20.4105766 34.9262494,21.2010182 C34.7279636,19.1899532 34.2529506,17.2457974 33.5070286,15.3983688 C32.6958597,13.3894338 31.5631844,11.4860571 30.140587,9.74117403 C28.4909247,7.71784935 26.8499377,6.39410909 25.9642753,5.75151169 C25.0645351,6.40600519 23.3836,7.7630961 21.7232364,9.81701818 C20.3160675,11.5577974 19.1964831,13.4547844 18.3954961,15.4553039 C17.6627688,17.2854338 17.1954961,19.2105766 16.9991325,21.2010182 C18.8712883,20.4106286 21.9212623,19.4887584 25.9624052,19.4887584 L25.9624052,22.086161 C24.2140416,22.086161 21.5607948,22.2909922 18.8492623,23.2669922 C17.2603792,23.8388364 16.3762234,24.4190442 16.3278597,24.4512 C15.9313922,24.7273039 15.4187688,24.7577455 14.9899896,24.5345247 C14.5604831,24.3108883 14.2954442,23.8638234 14.2954442,23.3796156 C14.2954442,20.2558753 14.8722753,17.2434078 16.0098857,14.4259013 C16.9187688,12.1752 18.1843792,10.0468364 19.7717039,8.09987532 C22.4758078,4.78325195 25.1792364,3.13764156 25.2930026,3.06922597 C25.4951325,2.94761558 25.726561,2.88340779 25.9624052,2.88340779 C26.1982494,2.88340779 26.4302494,2.94761558 26.6323792,3.06922597 C26.7461455,3.13764156 29.449574,4.78325195 32.1536779,8.09987532 C33.7410545,10.0468364 35.0066649,12.1752 35.9154961,14.4259013 C37.0531065,17.2434078 37.6299896,20.2558753 37.6299896,23.3796156 C37.6299896,23.8638234 37.3648987,24.3108883 36.9354442,24.5345247 C36.7454701,24.6334338 36.5389766,24.6825766 36.3334182,24.6825766" id="Fill-4" fill="#00953C"></path>
                <g id="Group-8" transform="translate(0.000000, 2.857143)">
                    <mask id="mask-2" fill="white">
                        <use xlink:href="#path-1"></use>
                    </mask>
                    <g id="Clip-7"></g>
                    <path d="M1.2979013,21.8234078 C1.05369351,21.8234078 0.808654545,21.7544727 0.593018182,21.6153558 C0.124966234,21.3134338 -0.0964883117,20.7451221 0.0396675325,20.2050182 C0.760914286,17.3439273 1.94725195,14.6367065 3.56574545,12.1587325 C5.15670649,9.72283636 7.12231688,7.5726026 9.40797922,5.76761558 C11.7164468,3.94470649 14.2870961,2.52527792 17.0486026,1.54881039 C19.9058494,0.538524675 22.9049143,0.0262649351 25.9624208,0.0262649351 C29.0199273,0.0262649351 32.0189922,0.538524675 34.876239,1.54881039 C37.6377455,2.52527792 40.2083948,3.94470649 42.5168623,5.76761558 C44.8025247,7.5726026 46.7681351,9.72283636 48.3590961,12.1587325 C49.9775896,14.6367065 51.1639273,17.3439273 51.885174,20.2050182 C52.0213299,20.7451221 51.7979013,21.3118753 51.3299013,21.6137974 C50.8618494,21.9157195 50.2534338,21.8856416 49.8174857,21.5388883 C49.8065247,21.5303169 48.3056416,20.3702649 45.9794597,19.8138494 C42.930213,19.0844468 39.926213,19.6863688 37.0511481,21.6030442 L35.6104208,19.4419013 C40.0220052,16.5007584 44.0804468,16.6635636 46.7083948,17.318161 C47.3245506,17.4716156 47.8920312,17.6585247 48.4038234,17.8577455 C47.8117714,16.3657455 47.0697455,14.9345766 46.1844468,13.5790442 C44.7474078,11.3788883 42.9718753,9.4366026 40.9071481,7.80605714 C38.8228883,6.16018701 36.5024727,4.87888831 34.0103169,3.99764156 C31.4318753,3.08595325 28.724187,2.62366753 25.9624208,2.62366753 C23.2006545,2.62366753 20.4929662,3.08595325 17.9145247,3.99764156 C15.4223688,4.87888831 13.1019532,6.16018701 11.0176935,7.80605714 C8.95296623,9.4366026 7.17743377,11.3788883 5.74039481,13.5790442 C4.8550961,14.9345766 4.11307013,16.3657455 3.52101818,17.8577974 C4.03275844,17.6585247 4.60029091,17.4716156 5.21644675,17.318161 C7.84429091,16.6636156 11.9027844,16.5007584 16.3144727,19.4419013 L14.8737455,21.6030442 C11.9987325,19.6864208 8.99478442,19.0843948 5.94538182,19.8138494 C3.6192,20.3702649 2.11831688,21.5303169 2.10345974,21.5420052 C1.86834286,21.7289662 1.58371948,21.8234078 1.2979013,21.8234078" id="Fill-6" fill="#00953C" mask="url(#mask-2)"></path>
                </g>
                <polygon id="Fill-9" fill-opacity="0" fill="#FFFFFF" points="0.0410909091 51.8935065 51.8845195 51.8935065 51.8845195 0.0500779221 0.0410909091 0.0500779221"></polygon>
            </g>
        </g>
    </g>
</svg>