<?xml version="1.0" encoding="UTF-8"?>
<svg width="52px" height="53px" viewBox="0 0 52 53" version="1.1" xmlns="http://www.w3.org/2000/svg" xmlns:xlink="http://www.w3.org/1999/xlink">
    <!-- Generator: Sketch 63.1 (92452) - https://sketch.com -->
    <title>signing-contract</title>
    <desc>Created with Sketch.</desc>
    <defs>
        <polygon id="path-1" points="0 52 52 52 52 0 0 0"></polygon>
    </defs>
    <g id="signing-contract" stroke="none" stroke-width="1" fill="none" fill-rule="evenodd" transform="translate(0.000000, 1.000000)">
        <g>
            <path d="M6.9364672,9.5251208 L0.1020552,9.5251208 L0.1020552,4.1931448 C0.1020552,1.9504888 1.9265792,0.1259648 4.1692352,0.1259648 L4.1692352,2.7259648 C3.3602712,2.7259648 2.7020552,3.3841288 2.7020552,4.1931448 L2.7020552,6.9251208 L6.9364672,6.9251208 L6.9364672,9.5251208 Z" id="Fill-1" fill="#AEADAD"></path>
            <mask id="mask-2" fill="white">
                <use xlink:href="#path-1"></use>
            </mask>
            <g id="Clip-4"></g>
            <polygon id="Fill-3" fill="#AEADAD" mask="url(#mask-2)" points="10.43172 12.799696 27.297712 12.799696 27.297712 10.719696 10.43172 10.719696"></polygon>
            <polygon id="Fill-5" fill="#AEADAD" mask="url(#mask-2)" points="10.431772 18.509244 36.379408 18.509244 36.379408 16.429244 10.431772 16.429244"></polygon>
            <polygon id="Fill-6" fill="#AEADAD" mask="url(#mask-2)" points="10.431772 39.915772 26.000364 39.915772 26.000364 37.835772 10.431772 37.835772"></polygon>
            <polygon id="Fill-7" fill="#AEADAD" mask="url(#mask-2)" points="10.4317408 21.5615452 10.4317408 23.6415452 33.3036288 23.6415452 34.6482448 21.5615452"></polygon>
            <polygon id="Fill-8" fill="#AEADAD" mask="url(#mask-2)" points="31.2968916 26.7457996 10.4317356 26.7457996 10.4317356 28.8257996 29.8903956 28.8257996 30.6599436 27.7310956"></polygon>
            <polygon id="Fill-9" fill="#AEADAD" mask="url(#mask-2)" points="41.418 43.274998 41.418 34.085298 38.818 38.169274 38.818 43.274998"></polygon>
            <path d="M44.105854,47.9111724 C44.105854,48.7202404 43.44769,49.3784044 42.638622,49.3784044 L13.497094,49.3784044 C13.673842,48.9230924 13.770822,48.4281564 13.770822,47.9111724 L13.770822,45.4448124 L44.105854,45.4448124 L44.105854,47.9111724 Z M11.170822,42.8448124 L11.170822,47.9111724 C11.170822,48.7202404 10.512658,49.3784044 9.703642,49.3784044 C8.894626,49.3784044 8.236462,48.7202404 8.236462,47.9111724 L8.236462,4.1931604 C8.236462,3.6761244 8.139482,3.1812924 7.962734,2.7259804 L37.350794,2.7259804 C38.15981,2.7259804 38.818026,3.3841444 38.818026,4.1931604 L38.818026,15.1112884 L41.418026,11.0892964 L41.418026,4.1931604 C41.418026,1.9505044 39.59345,0.1259804 37.350794,0.1259804 L4.16923,0.1259804 L4.16923,2.7259804 C4.978298,2.7259804 5.636462,3.3841444 5.636462,4.1931604 L5.636462,47.9111724 C5.636462,50.1538284 7.460986,51.9784044 9.703642,51.9784044 L42.638622,51.9784044 C44.881278,51.9784044 46.705854,50.1538284 46.705854,47.9111724 L46.705854,42.8448124 L11.170822,42.8448124 Z" id="Fill-10" fill="#AEADAD" mask="url(#mask-2)"></path>
            <path d="M33.020052,31.778526 L36.2154,33.852546 L48.730032,14.571726 C49.301824,13.69069 49.050352,12.508834 48.16942,11.937042 C47.288488,11.365198 46.106476,11.616722 45.534736,12.497654 L33.020052,31.778526 Z M36.521524,36.331126 C36.322052,36.331126 36.12518,36.273718 35.955296,36.163478 L31.015244,32.957002 C30.533464,32.644222 30.396392,32.000202 30.70912,31.518422 L43.78998,11.36525 C44.986292,9.522162 47.45884,8.996078 49.301824,10.192286 C51.144808,11.388546 51.670996,13.861146 50.474788,15.70413 L37.393876,35.857302 C37.2437,36.088702 37.007776,36.250942 36.738,36.308298 C36.666292,36.323586 36.593752,36.331126 36.521524,36.331126 L36.521524,36.331126 Z" id="Fill-11" fill="#00953C" mask="url(#mask-2)"></path>
            <path d="M30.6599436,39.9530872 C30.4628116,39.9530872 30.2657836,39.8971352 30.0937156,39.7854392 C29.7563396,39.5664152 29.5755356,39.1725672 29.6293036,38.7739872 L30.5507956,31.9455552 L32.6121276,32.2237032 L31.9848516,36.8718792 L35.9748116,34.4064032 L37.0682156,36.1758072 L31.2066716,39.7978152 C31.0389716,39.9013992 30.8494316,39.9530872 30.6599436,39.9530872" id="Fill-12" fill="#00953C" mask="url(#mask-2)"></path>
            <polygon id="Fill-13" fill="#00953C" mask="url(#mask-2)" points="48.3922972 17.520984 43.4522452 14.314508 44.5846492 12.569752 49.5247012 15.776228"></polygon>
            <polygon id="Fill-14" fill-opacity="0" fill="#FFFFFF" mask="url(#mask-2)" points="0 52 52 52 52 5.2e-05 0 5.2e-05"></polygon>
        </g>
    </g>
</svg>