<?xml version="1.0" encoding="UTF-8"?>
<svg width="52px" height="52px" viewBox="0 0 52 52" version="1.1" xmlns="http://www.w3.org/2000/svg" xmlns:xlink="http://www.w3.org/1999/xlink">
    <!-- Generator: Sketch 63.1 (92452) - https://sketch.com -->
    <title>smartphone</title>
    <desc>Created with Sketch.</desc>
    <defs>
        <polygon id="path-1" points="0 51.9992705 51.3720221 51.9992705 51.3720221 0 0 0"></polygon>
    </defs>
    <g id="smartphone" stroke="none" stroke-width="1" fill="none" fill-rule="evenodd">
        <g>
            <path d="M18.6811264,6.45921804 C17.0785296,6.45921804 15.7747665,7.77927816 15.7747665,9.40190741 L15.7747665,42.5107972 C15.7747665,44.1333743 17.0785296,45.4534345 18.6811264,45.4534345 L32.7046975,45.4534345 C34.3072428,45.4534345 35.6110059,44.1333743 35.6110059,42.5107972 L35.6110059,9.40190741 C35.6110059,7.77927816 34.3072428,6.45921804 32.7046975,6.45921804 L18.6811264,6.45921804 Z M32.7046975,48.0586449 L18.6811264,48.0586449 C15.6597513,48.0586449 13.2017192,45.5698874 13.2017192,42.5107972 L13.2017192,9.40190741 C13.2017192,6.34276513 15.6597513,3.85400762 18.6811264,3.85400762 L32.7046975,3.85400762 C35.7260726,3.85400762 38.1840532,6.34276513 38.1840532,9.40190741 L38.1840532,42.5107972 C38.1840532,45.5698874 35.7260726,48.0586449 32.7046975,48.0586449 L32.7046975,48.0586449 Z" id="Fill-1" fill="#AAAAAA"></path>
            <mask id="mask-2" fill="white">
                <use xlink:href="#path-1"></use>
            </mask>
            <g id="Clip-4"></g>
            <polygon id="Fill-3" fill="#AAAAAA" mask="url(#mask-2)" points="13.7943126 11.6591503 37.6678691 11.6591503 37.6678691 9.05393988 13.7943126 9.05393988"></polygon>
            <polygon id="Fill-5" fill="#AAAAAA" mask="url(#mask-2)" points="13.7943126 42.8587335 37.6678691 42.8587335 37.6678691 40.253523 13.7943126 40.253523"></polygon>
            <path d="M42.9759731,32.9763627 L41.1565713,31.1342184 C43.9763739,28.2791162 43.9763739,23.6335571 41.1565713,20.7784549 L42.9759731,18.9363106 C46.7990583,22.8071844 46.7990583,29.105489 42.9759731,32.9763627" id="Fill-6" fill="#00933C" mask="url(#mask-2)"></path>
            <path d="M46.8821265,36.9313743 L45.0627248,35.0892301 C47.4720748,32.649711 48.7989953,29.4062762 48.7989953,25.9563523 C48.7989953,22.5063764 47.4720748,19.2629415 45.0627248,16.8234745 L46.8821265,14.9813303 C49.7774738,17.9128172 51.3720427,21.8105246 51.3720427,25.9563523 C51.3720427,30.10218 49.7774738,33.9998353 46.8821265,36.9313743" id="Fill-7" fill="#00933C" mask="url(#mask-2)"></path>
            <path d="M8.39607472,32.9763627 C4.57298953,29.105489 4.57298953,22.8071844 8.39607472,18.9363106 L10.2154765,20.7784549 C7.39567392,23.6335571 7.39567392,28.2791162 10.2154765,31.1342184 L8.39607472,32.9763627 Z" id="Fill-8" fill="#00933C" mask="url(#mask-2)"></path>
            <path d="M4.48991613,36.9313743 C1.59456889,33.9998353 0,30.10218 0,25.9563523 C0,21.8105246 1.59456889,17.9128172 4.48991613,14.9813303 L6.3093179,16.8234745 C3.89996784,19.2629415 2.57304733,22.5063764 2.57304733,25.9563523 C2.57304733,29.4062762 3.89996784,32.649711 6.3093179,35.0892301 L4.48991613,36.9313743 Z" id="Fill-9" fill="#00933C" mask="url(#mask-2)"></path>
            <polygon id="Fill-10" fill="#00933C" mask="url(#mask-2)" points="17.9837482 27.2589419 21.1313056 27.2589419 21.1313056 24.6537315 17.9837482 24.6537315"></polygon>
            <polygon id="Fill-11" fill="#00933C" mask="url(#mask-2)" points="24.3325881 27.2589419 27.4801455 27.2589419 27.4801455 24.6537315 24.3325881 24.6537315"></polygon>
            <polygon id="Fill-12" fill="#00933C" mask="url(#mask-2)" points="30.2432895 27.2589419 33.3908983 27.2589419 33.3908983 24.6537315 30.2432895 24.6537315"></polygon>
            <polygon id="Fill-13" fill-opacity="0" fill="#FFFFFF" mask="url(#mask-2)" points="0.00864543903 51.9992705 51.3659497 51.9992705 51.3659497 0 0.00864543903 0"></polygon>
        </g>
    </g>
</svg>