<?xml version="1.0" encoding="UTF-8"?>
<svg width="52px" height="52px" viewBox="0 0 52 52" version="1.1" xmlns="http://www.w3.org/2000/svg" xmlns:xlink="http://www.w3.org/1999/xlink">
    <!-- Generator: Sketch 63.1 (92452) - https://sketch.com -->
    <title>smiling-face</title>
    <desc>Created with Sketch.</desc>
    <defs>
        <polygon id="path-1" points="0 51.996256 51.9992713 51.996256 51.9992713 0 0 0"></polygon>
    </defs>
    <g id="smiling-face" stroke="none" stroke-width="1" fill="none" fill-rule="evenodd">
        <g>
            <path d="M25.4492444,6.4887888 C20.3858811,6.4887888 16.2664817,10.6040688 16.2664817,15.6623688 L16.2664817,19.4475528 C16.2664817,24.5058528 20.3858811,28.6211328 25.4492444,28.6211328 C30.5126078,28.6211328 34.6320072,24.5058528 34.6320072,19.4475528 L34.6320072,15.6623688 C34.6320072,10.6040688 30.5126078,6.4887888 25.4492444,6.4887888 M25.4492444,31.2211328 C22.3012404,31.2211328 19.3417169,29.9964288 17.1157109,27.7727528 C14.889809,25.5489728 13.6638791,22.5924088 13.6638791,19.4475528 L13.6638791,15.6623688 C13.6638791,12.5175648 14.889809,9.5609488 17.1157109,7.3371688 C19.3417169,5.1134928 22.3012404,3.8887888 25.4492444,3.8887888 C28.5972484,3.8887888 31.556772,5.1134928 33.782778,7.3371688 C36.0086799,9.5609488 37.2346098,12.5175648 37.2346098,15.6623688 L37.2346098,19.4475528 C37.2346098,22.5924088 36.0086799,25.5489728 33.782778,27.7727528 C31.556772,29.9964288 28.5972484,31.2211328 25.4492444,31.2211328" id="Fill-1" fill="#AAAAAA"></path>
            <mask id="mask-2" fill="white">
                <use xlink:href="#path-1"></use>
            </mask>
            <g id="Clip-4"></g>
            <polygon id="Fill-3" fill="#AAAAAA" mask="url(#mask-2)" points="12.0853694 51.898288 14.687972 51.898288 14.687972 47.174972 12.0853694 47.174972"></polygon>
            <path d="M48.463164,51.996256 L45.8605614,51.996256 L45.8605614,45.8874 C45.8605614,44.10562 45.2928296,42.411928 44.2187355,40.989364 C43.1446414,39.566852 41.6704232,38.55618 39.9554643,38.066704 L30.6530338,35.411532 L26.3694102,39.69082 C25.861174,40.198548 25.0372941,40.198548 24.5290579,39.69082 L20.2580829,35.424116 L11.9915924,37.965096 C10.3154122,38.480312 8.87867147,39.497588 7.83684965,40.90684 C6.79492372,42.316144 6.24421301,43.98706 6.24421301,45.739044 L6.24421301,51.996256 L3.64161041,51.996256 L3.64161041,45.739044 C3.64161041,43.42702 4.36836116,41.22196 5.74331612,39.36218 C7.11827107,37.5024 9.01421502,36.16002 11.226167,35.480068 L20.2414783,32.708884 C20.7022951,32.567028 21.2035564,32.691568 21.5443932,33.032168 L25.449234,36.933104 L29.3541269,33.032168 C29.6883532,32.698276 30.1774342,32.571656 30.6317966,32.701396 L40.6704513,35.566752 C42.9336745,36.212748 44.8791199,37.546392 46.2965493,39.423644 C47.7139267,41.300896 48.463164,43.536012 48.463164,45.8874 L48.463164,51.996256 Z" id="Fill-5" fill="#AAAAAA" mask="url(#mask-2)"></path>
            <polygon id="Fill-6" fill="#AAAAAA" mask="url(#mask-2)" points="37.4167608 51.898288 40.0193634 51.898288 40.0193634 47.174972 37.4167608 47.174972"></polygon>
            <polygon id="Fill-7" fill="#AAAAAA" mask="url(#mask-2)" points="19.3228949 33.951372 21.9254975 33.951372 21.9254975 29.50558 19.3228949 29.50558"></polygon>
            <polygon id="Fill-8" fill="#AAAAAA" mask="url(#mask-2)" points="28.972981 33.951372 31.5755836 33.951372 31.5755836 29.50558 28.972981 29.50558"></polygon>
            <path d="M33.3475343,18.2404872 C30.8281109,18.2404872 28.1899568,17.6697352 25.583242,16.5487712 C24.0708176,15.8984072 22.8644072,15.1918832 22.0841469,14.6871712 C21.1163952,15.5334712 19.776211,16.1565872 18.0822811,16.5455992 C16.4857405,16.9123032 15.1351459,16.9316992 15.0784092,16.9323232 L15.0468136,14.3325312 C16.254213,14.3151632 19.6473301,13.9023872 20.8319307,12.2239832 C21.0372761,11.9329392 21.35318,11.7388752 21.7058326,11.6869792 C22.0586414,11.6351352 22.4169678,11.7299312 22.6975804,11.9495272 C22.7114783,11.9602912 24.2749137,13.1652352 26.6791459,14.1892712 C28.8439908,15.1112312 32.1662651,16.0755192 35.7002871,15.4330072 L36.1663091,17.9909392 C35.2495163,18.1576512 34.3071139,18.2404872 33.3475343,18.2404872" id="Fill-9" fill="#AAAAAA" mask="url(#mask-2)"></path>
            <path d="M25.7277021,26.9184448 C23.2363868,26.9184448 20.9349574,25.5666008 19.721572,23.3905048 L21.9952056,22.1252408 C22.7495439,23.4780728 24.1797782,24.3184448 25.7277021,24.3184448 C27.2390334,24.3184448 28.6524028,23.5074528 29.4162667,22.2020448 L31.6631455,23.5141088 C30.4345089,25.6139728 28.1601465,26.9184448 25.7277021,26.9184448" id="Fill-10" fill="#00953C" mask="url(#mask-2)"></path>
            <polygon id="Fill-11" fill-opacity="0" fill="#FFFFFF" mask="url(#mask-2)" points="0 51.947272 51.9992713 51.947272 51.9992713 5.2e-05 0 5.2e-05"></polygon>
        </g>
    </g>
</svg>