<?xml version="1.0" encoding="UTF-8"?>
<svg width="52px" height="52px" viewBox="0 0 52 52" version="1.1" xmlns="http://www.w3.org/2000/svg" xmlns:xlink="http://www.w3.org/1999/xlink">
    <!-- Generator: Sketch 63.1 (92452) - https://sketch.com -->
    <title>teacher</title>
    <desc>Created with Sketch.</desc>
    <defs>
        <polygon id="path-1" points="0 51.3066667 51.947272 51.3066667 51.947272 0.000719012346 0 0.000719012346"></polygon>
    </defs>
    <g id="teacher" stroke="none" stroke-width="1" fill="none" fill-rule="evenodd">
        <g>
            <polygon id="Fill-1" fill="#00953C" points="36.7114852 26.6779465 34.4705972 25.375661 43.0447732 10.9838586 45.2856612 12.286144"></polygon>
            <g id="Group-16" transform="translate(0.000000, 0.050639)">
                <path d="M14.3173108,17.024158 C11.6561068,17.024158 9.4910348,19.1624494 9.4910348,21.790799 L9.4910348,23.9774696 C9.4910348,26.6057679 11.6560548,28.7440593 14.3172588,28.7440593 C16.9784628,28.7440593 19.1435348,26.6057679 19.1435348,23.9774696 L19.1435348,21.790799 C19.1435348,19.1624494 16.9785148,17.024158 14.3173108,17.024158 M14.3173108,31.3119605 L14.3172588,31.3119605 C10.2224668,31.3119605 6.8910868,28.0217086 6.8910868,23.9774696 L6.8910868,21.790799 C6.8910868,17.7465086 10.2224668,14.4562568 14.3172588,14.4562568 C18.4121028,14.4562568 21.7435348,17.7465086 21.7435348,21.790799 L21.7435348,23.9774696 C21.7435348,28.0217086 18.4121028,31.3119605 14.3173108,31.3119605" id="Fill-2" fill="#AAAAAA"></path>
                <mask id="mask-2" fill="white">
                    <use xlink:href="#path-1"></use>
                </mask>
                <g id="Clip-5"></g>
                <polygon id="Fill-4" fill="#AAAAAA" mask="url(#mask-2)" points="5.263856 51.2444207 7.863856 51.2444207 7.863856 40.1860622 5.263856 40.1860622"></polygon>
                <path d="M2.9298672,51.3009762 L0.3298672,51.3009762 L0.3298672,39.2659421 C0.3298672,37.8419895 0.7887672,36.4884488 1.6569592,35.3516389 C2.5252032,34.214829 3.7168872,33.4071727 5.1031552,33.0159787 L11.1406672,31.3122789 C11.5947832,31.1840893 12.0832192,31.3091974 12.4170592,31.638916 L14.3172432,33.5156409 L15.8366832,32.0149594 L15.8366832,29.9784597 L18.4366832,29.9784597 L18.4366832,32.5468231 C18.4366832,32.8873782 18.2997152,33.2139125 18.0559392,33.4547303 L15.2364992,36.239311 C14.7287712,36.7407708 13.9057152,36.7407708 13.3980392,36.239311 L11.1194512,33.9889051 L5.8174272,35.4850671 C4.1172872,35.9648537 2.9298672,37.5195639 2.9298672,39.2659421 L2.9298672,51.3009762 Z" id="Fill-6" fill="#AAAAAA" mask="url(#mask-2)"></path>
                <polygon id="Fill-7" fill="#AAAAAA" mask="url(#mask-2)" points="10.197824 32.5468128 12.797824 32.5468128 12.797824 29.9784494 10.197824 29.9784494"></polygon>
                <path d="M18.264688,25.4682441 C16.683732,25.4682441 15.072408,24.8775241 13.503412,23.7079479 C12.556336,23.0019804 11.804468,22.2165108 11.308492,21.6363192 C10.1062,22.1445582 8.496384,21.916015 8.08938,21.8461167 L8.444072,19.8218916 C8.449116,19.8227133 8.955648,19.9071459 9.528792,19.8996476 C10.22814,19.890814 10.533016,19.7498362 10.593544,19.6954995 C10.769928,19.3886353 11.093784,19.1924476 11.451284,19.1766293 C11.81232,19.1605543 12.157028,19.3315251 12.35962,19.6278096 C12.368096,19.6401355 13.31928,21.0086728 14.79608,22.097617 C16.613012,23.4374451 18.37238,23.7535024 20.025512,23.0369039 L20.861464,24.9179943 C20.013812,25.2854609 19.143852,25.4682441 18.264688,25.4682441" id="Fill-8" fill="#AAAAAA" mask="url(#mask-2)"></path>
                <path d="M18.1662208,17.0805851 L16.5181848,15.8272439 C16.7920168,15.475955 16.9367848,15.0549732 16.9367848,14.6098532 C16.9367848,13.5079668 16.0291248,12.6115125 14.9134648,12.6115125 C13.7978048,12.6115125 12.8901968,13.5079668 12.8901968,14.6098532 C12.8901968,14.9824043 12.9944048,15.3455056 13.1915368,15.6598167 L11.4233288,16.7416221 C11.0222008,16.102112 10.8101968,15.3649703 10.8101968,14.6098532 C10.8101968,12.3752142 12.6509448,10.5571915 14.9134648,10.5571915 C17.1760368,10.5571915 19.0167848,12.3752142 19.0167848,14.6098532 C19.0167848,15.5124705 18.7226728,16.3668113 18.1662208,17.0805851" id="Fill-9" fill="#AAAAAA" mask="url(#mask-2)"></path>
                <path d="M15.8061644,39.6169742 C15.8061644,40.4290987 15.1395764,41.0875085 14.3172484,41.0875085 C13.4949724,41.0875085 12.8283324,40.4290987 12.8283324,39.6169742 C12.8283324,38.8048498 13.4949724,38.1464399 14.3172484,38.1464399 C15.1395764,38.1464399 15.8061644,38.8048498 15.8061644,39.6169742" id="Fill-10" fill="#AAAAAA" mask="url(#mask-2)"></path>
                <path d="M15.8061644,44.4630866 C15.8061644,45.2752111 15.1395764,45.9336209 14.3172484,45.9336209 C13.4949724,45.9336209 12.8283324,45.2752111 12.8283324,44.4630866 C12.8283324,43.6509622 13.4949724,42.9925523 14.3172484,42.9925523 C15.1395764,42.9925523 15.8061644,43.6509622 15.8061644,44.4630866" id="Fill-11" fill="#AAAAAA" mask="url(#mask-2)"></path>
                <path d="M15.8061644,48.5954509 C15.8061644,49.4075753 15.1395764,50.0659852 14.3172484,50.0659852 C13.4949724,50.0659852 12.8283324,49.4075753 12.8283324,48.5954509 C12.8283324,47.7833264 13.4949724,47.1249165 14.3172484,47.1249165 C15.1395764,47.1249165 15.8061644,47.7833264 15.8061644,48.5954509" id="Fill-12" fill="#AAAAAA" mask="url(#mask-2)"></path>
                <path d="M22.574084,51.2444053 L19.974084,51.2444053 L19.974084,39.9972547 C19.974084,39.6027737 20.157644,39.2302226 20.471932,38.9868883 C20.786168,38.743554 21.19624,38.6562453 21.58416,38.7503846 L27.745328,40.2449031 L35.405136,28.4564389 C35.584484,28.1803895 35.641632,27.8524685 35.566076,27.533073 C35.490572,27.2137288 35.29214,26.9447668 35.007544,26.7757989 C34.443084,26.4408932 33.7194,26.6051362 33.359924,27.1499935 L27.58158,35.9059718 C27.2701,36.3777979 26.68354,36.5941179 26.135304,36.4393762 L16.779516,33.7993169 L17.49384,31.3302285 L25.9272,33.7100053 L31.181696,25.7478167 C32.3089,24.0398542 34.577712,23.5245278 36.347012,24.5749535 C37.239176,25.1045574 37.860992,25.9476508 38.097852,26.9488755 C38.334764,27.9500488 38.155572,28.9779797 37.593296,29.843311 L29.431688,42.4040972 C29.131544,42.8660626 28.567396,43.0884429 28.027532,42.9575826 L22.574084,41.6347026 L22.574084,51.2444053 Z" id="Fill-13" fill="#AAAAAA" mask="url(#mask-2)"></path>
                <polygon id="Fill-14" fill="#AAAAAA" mask="url(#mask-2)" points="51.8979188 30.865346 40.2188228 30.865346 40.2188228 28.2974447 49.2979188 28.2974447 49.2979188 5.23805116 9.1427388 5.23805116 9.1427388 13.098705 6.5427388 13.098705 6.5427388 2.67014993 51.8979188 2.67014993"></polygon>
                <polygon id="Fill-15" fill-opacity="0" fill="#FFFFFF" mask="url(#mask-2)" points="0 51.3066667 51.947272 51.3066667 51.947272 0.000719012346 0 0.000719012346"></polygon>
            </g>
        </g>
    </g>
</svg>