<?xml version="1.0" encoding="UTF-8"?>
<svg width="52px" height="52px" viewBox="0 0 52 52" version="1.1" xmlns="http://www.w3.org/2000/svg" xmlns:xlink="http://www.w3.org/1999/xlink">
    <!-- Generator: Sketch 63.1 (92452) - https://sketch.com -->
    <title>turkey</title>
    <desc>Created with Sketch.</desc>
    <defs>
        <polygon id="path-1" points="0 51.3066153 51.9472192 51.3066153 51.9472192 0.000719732078 0 0.000719732078"></polygon>
    </defs>
    <g id="turkey" stroke="none" stroke-width="1" fill="none" fill-rule="evenodd">
        <g>
            <polygon id="Fill-1" fill="#AEADAD" points="1.29364965 40.4812279 50.6384224 40.4812279 50.6384224 37.9107562 1.29364965 37.9107562"></polygon>
            <polygon id="Fill-2" fill="#AEADAD" points="13.1595916 46.147113 15.7621942 46.147113 15.7621942 32.244871 13.1595916 32.244871"></polygon>
            <polygon id="Fill-3" fill="#AEADAD" points="36.1647768 46.147113 38.7673794 46.147113 38.7673794 32.244871 36.1647768 32.244871"></polygon>
            <polygon id="Fill-4" fill="#AEADAD" points="24.6595035 21.4422067 27.2621061 21.4422067 27.2621061 17.9331015 24.6595035 17.9331015"></polygon>
            <g id="Group-18" transform="translate(0.000000, 0.050690)">
                <path d="M38.767369,32.7520817 L36.1647664,32.7520817 C36.1647664,27.1965212 31.5885061,22.6767579 25.9635011,22.6767579 C20.338444,22.6767579 15.7621838,27.1965212 15.7621838,32.7520817 L13.1595812,32.7520817 C13.1595812,29.3742762 14.491437,26.1986126 16.9097754,23.8101303 C19.3281137,21.4216994 22.5434731,20.1062862 25.9635011,20.1062862 C29.3835291,20.1062862 32.5988885,21.4216994 35.0172268,23.8101303 C37.4355131,26.1986126 38.767369,29.3742762 38.767369,32.7520817" id="Fill-5" fill="#AEADAD"></path>
                <mask id="mask-2" fill="white">
                    <use xlink:href="#path-1"></use>
                </mask>
                <g id="Clip-8"></g>
                <polygon id="Fill-7" fill="#AEADAD" mask="url(#mask-2)" points="14.4608929 33.6924579 37.4606647 33.6924579 37.4606647 31.1219862 14.4608929 31.1219862"></polygon>
                <path d="M34.2234851,39.2800259 L31.6208825,39.2800259 C31.6208825,36.1990071 29.0829806,33.6924373 25.9635011,33.6924373 C22.8439696,33.6924373 20.3060677,36.1990071 20.3060677,39.2800259 L17.7034651,39.2800259 C17.7034651,34.781649 21.4088945,31.122017 25.9635011,31.122017 C30.5180557,31.122017 34.2234851,34.781649 34.2234851,39.2800259" id="Fill-9" fill="#AEADAD" mask="url(#mask-2)"></path>
                <path d="M34.1664048,46.0964439 L31.5638022,46.0964439 C31.5638022,43.0465278 29.0515099,40.5652515 25.9634699,40.5652515 C22.8754298,40.5652515 20.3631375,43.0465278 20.3631375,46.0964439 L17.7605349,46.0964439 C17.7605349,41.6291697 21.4404068,37.9947798 25.9634699,37.9947798 C30.486585,37.9947798 34.1664048,41.6291697 34.1664048,46.0964439" id="Fill-10" fill="#AEADAD" mask="url(#mask-2)"></path>
                <path d="M8.86061782,39.1334782 L6.25801522,39.1334782 C6.25801522,34.9697253 9.68788108,31.5822548 13.9036809,31.5822548 L13.9036809,34.1527266 C11.1229041,34.1527266 8.86061782,36.3870834 8.86061782,39.1334782" id="Fill-11" fill="#AEADAD" mask="url(#mask-2)"></path>
                <path d="M45.6689401,39.1334782 L43.0663375,39.1334782 C43.0663375,36.3870834 40.8040513,34.1527266 38.0233265,34.1527266 L38.0233265,31.5822548 C42.2391263,31.5822548 45.6689401,34.9697253 45.6689401,39.1334782" id="Fill-12" fill="#AEADAD" mask="url(#mask-2)"></path>
                <polygon id="Fill-13" fill="#00953C" mask="url(#mask-2)" points="6.25801001 46.0964233 8.86061261 46.0964233 8.86061261 15.3250495 6.25801001 15.3250495"></polygon>
                <polygon id="Fill-14" fill="#00953C" mask="url(#mask-2)" points="0.0541861862 46.0964233 2.65678879 46.0964233 2.65678879 5.05164523 0.0541861862 5.05164523"></polygon>
                <polygon id="Fill-15" fill="#00953C" mask="url(#mask-2)" points="43.0663584 46.0964233 45.668961 46.0964233 45.668961 15.3250495 43.0663584 15.3250495"></polygon>
                <polygon id="Fill-16" fill="#00953C" mask="url(#mask-2)" points="49.3371211 46.0964233 51.9397237 46.0964233 51.9397237 5.05164523 49.3371211 5.05164523"></polygon>
                <polygon id="Fill-17" fill-opacity="0" fill="#FFFFFF" mask="url(#mask-2)" points="0 51.3066153 51.9472192 51.3066153 51.9472192 0.000719732078 0 0.000719732078"></polygon>
            </g>
        </g>
    </g>
</svg>