<?xml version="1.0" encoding="UTF-8"?>
<svg width="52px" height="52px" viewBox="0 0 52 52" version="1.1" xmlns="http://www.w3.org/2000/svg" xmlns:xlink="http://www.w3.org/1999/xlink">
    <!-- Generator: Sketch 63.1 (92452) - https://sketch.com -->
    <title>payments</title>
    <desc>Created with Sketch.</desc>
    <defs>
        <polygon id="path-1" points="0 52 52 52 52 0 0 0"></polygon>
    </defs>
    <g id="payments" stroke="none" stroke-width="1" fill="none" fill-rule="evenodd">
        <g>
            <polygon id="Fill-1" fill-opacity="0" fill="#FFFFFF" points="0.0527807808 51.9472192 52 51.9472192 52 0 0.0527807808 0"></polygon>
            <polygon id="Fill-3" fill="#AAAAAA" points="41.6853289 27.6341742 41.6853289 15.7235716 0.127543143 15.7235716 0.127543143 36.5024384 22.6482799 36.5024384 22.6482799 34.1937217 2.43631191 34.1937217 2.43631191 18.0322883 39.3766122 18.0322883 39.3766122 27.6341742"></polygon>
            <g id="Group-23">
                <path d="M20.9064464,29.5761634 C18.9970731,29.5761634 17.4433193,28.0223055 17.4433193,26.1130362 C17.4433193,24.2036629 18.9970731,22.6498571 20.9064464,22.6498571 C22.8158198,22.6498571 24.3695736,24.2036629 24.3695736,26.1130362 C24.3695736,28.0223055 22.8158198,29.5761634 20.9064464,29.5761634 M20.9064464,20.3410883 C17.7188308,20.3410883 15.1344985,22.9253686 15.1344985,26.1130362 C15.1344985,29.3006519 17.7188308,31.8848801 20.9064464,31.8848801 C24.0940621,31.8848801 26.6783944,29.3006519 26.6783944,26.1130362 C26.6783944,22.9253686 24.0940621,20.3410883 20.9064464,20.3410883" id="Fill-4" fill="#00933C"></path>
                <polygon id="Fill-6" fill="#00933C" points="7.20074555 24.9698639 4.59814294 24.9698639 4.59814294 20.1941922 9.36262342 20.1941922 9.36262342 22.7967948 7.20074555 22.7967948"></polygon>
                <polygon id="Fill-8" fill="#00933C" points="37.2259828 24.9642735 34.6233802 24.9642735 34.6233802 22.8023956 32.4502591 22.8023956 32.4502591 20.199793 37.2259828 20.199793"></polygon>
                <polygon id="Fill-10" fill="#00933C" points="9.37386667 31.8993401 4.59814294 31.8993401 4.59814294 27.1348597 7.20074555 27.1348597 7.20074555 29.2967375 9.37386667 29.2967375"></polygon>
                <polygon id="Fill-12" fill="#AAAAAA" points="6.08385946 11.5194418 21.883375 14.0452677 36.508388 14.0452677 4.1685001 8.87514555 3.34196557 14.0452677 5.68003964 14.0452677"></polygon>
                <path d="M29.4145678,32.2096745 C28.537803,32.2096745 27.8244817,32.9229958 27.8244817,33.7998126 L27.8244817,43.1845373 C27.8244817,44.0613021 28.537803,44.7746234 29.4145678,44.7746234 L47.9853866,44.7746234 C48.7270763,44.7746234 49.3304637,44.171236 49.3304637,43.4295984 L49.3304637,33.5547516 C49.3304637,32.8130619 48.7270763,32.2096745 47.9853866,32.2096745 L29.4145678,32.2096745 Z M47.9853866,47.377226 L29.4145678,47.377226 C27.1027279,47.377226 25.2218791,45.4963772 25.2218791,43.1845373 L25.2218791,33.7998126 C25.2218791,31.4879207 27.1027279,29.6070719 29.4145678,29.6070719 L47.9853866,29.6070719 C50.1621514,29.6070719 51.9330663,31.3779868 51.9330663,33.5547516 L51.9330663,43.4295984 C51.9330663,45.6063111 50.1621514,47.377226 47.9853866,47.377226 L47.9853866,47.377226 Z" id="Fill-14" fill="#AAAAAA"></path>
                <path d="M45.7906274,39.7735403 C46.6180468,39.7735403 47.2888416,40.4443351 47.2888416,41.2717546 C47.2888416,42.099174 46.6180468,42.7699167 45.7906274,42.7699167 C44.963208,42.7699167 44.2924653,42.099174 44.2924653,41.2717546 C44.2924653,40.4443351 44.963208,39.7735403 45.7906274,39.7735403" id="Fill-16" fill="#00933C"></path>
                <path d="M41.2960056,39.7735403 C42.123425,39.7735403 42.7942198,40.4443351 42.7942198,41.2717546 C42.7942198,42.099174 42.123425,42.7699167 41.2960056,42.7699167 C40.4685862,42.7699167 39.7978434,42.099174 39.7978434,41.2717546 C39.7978434,40.4443351 40.4685862,39.7735403 41.2960056,39.7735403" id="Fill-18" fill="#00933C"></path>
                <mask id="mask-2" fill="white">
                    <use xlink:href="#path-1"></use>
                </mask>
                <g id="Clip-21"></g>
                <polygon id="Fill-20" fill="#AAAAAA" mask="url(#mask-2)" points="26.5231752 36.5432472 50.6317598 36.5432472 50.6317598 33.9406446 26.5231752 33.9406446"></polygon>
                <polygon id="Fill-22" fill-opacity="0" fill="#FFFFFF" mask="url(#mask-2)" points="0 52 51.9992713 52 51.9992713 0.000780780781 0 0.000780780781"></polygon>
            </g>
        </g>
    </g>
</svg>