<?xml version="1.0" encoding="UTF-8"?>
<svg width="52px" height="52px" viewBox="0 0 52 52" version="1.1" xmlns="http://www.w3.org/2000/svg" xmlns:xlink="http://www.w3.org/1999/xlink">
    <!-- Generator: Sketch 63.1 (92452) - https://sketch.com -->
    <title>family</title>
    <desc>Created with Sketch.</desc>
    <defs>
        <polygon id="path-1" points="0 51.9992713 51.9992713 51.9992713 51.9992713 0 0 0"></polygon>
    </defs>
    <g id="family" stroke="none" stroke-width="1" fill="none" fill-rule="evenodd">
        <g>
            <path d="M39.7815668,8.11482122 C37.4143435,8.11482122 35.4884697,10.0406951 35.4884697,12.4079183 L35.4884697,14.3356661 C35.4884697,16.7028893 37.4143435,18.6287632 39.7815668,18.6287632 C42.14879,18.6287632 44.0746639,16.7028893 44.0746639,14.3356661 L44.0746639,12.4079183 C44.0746639,10.0406951 42.14879,8.11482122 39.7815668,8.11482122 M39.7815668,20.7108452 C36.2662835,20.7108452 33.4063876,17.8509493 33.4063876,14.3356661 L33.4063876,12.4079183 C33.4063876,8.89258298 36.2662835,6.03273914 39.7815668,6.03273914 C43.2968501,6.03273914 46.1567459,8.89258298 46.1567459,12.4079183 L46.1567459,14.3356661 C46.1567459,17.8509493 43.2968501,20.7108452 39.7815668,20.7108452" id="Fill-1" fill="#AAAAAA"></path>
            <mask id="mask-2" fill="white">
                <use xlink:href="#path-1"></use>
            </mask>
            <g id="Clip-4"></g>
            <polygon id="Fill-3" fill="#AAAAAA" mask="url(#mask-2)" points="36.2856416 21.7224144 38.3677237 21.7224144 38.3677237 19.4581502 36.2856416 19.4581502"></polygon>
            <polygon id="Fill-5" fill="#AAAAAA" mask="url(#mask-2)" points="41.1953994 21.7224144 43.2774815 21.7224144 43.2774815 19.4581502 41.1953994 19.4581502"></polygon>
            <polygon id="Fill-6" fill="#AAAAAA" mask="url(#mask-2)" points="45.4914635 35.0665305 47.5735455 35.0665305 47.5735455 29.1361882 45.4914635 29.1361882"></polygon>
            <polygon id="Fill-7" fill="#AAAAAA" mask="url(#mask-2)" points="38.7405205 35.0665305 40.8226026 35.0665305 40.8226026 24.1772933 38.7405205 24.1772933"></polygon>
            <polygon id="Fill-8" fill="#AAAAAA" mask="url(#mask-2)" points="8.25639239 21.7224144 10.3384745 21.7224144 10.3384745 19.4581502 8.25639239 19.4581502"></polygon>
            <polygon id="Fill-9" fill="#AAAAAA" mask="url(#mask-2)" points="13.1661502 21.7224144 15.2482322 21.7224144 15.2482322 19.4581502 13.1661502 19.4581502"></polygon>
            <polygon id="Fill-10" fill="#AAAAAA" mask="url(#mask-2)" points="4.57402202 35.0665305 6.6561041 35.0665305 6.6561041 29.1361882 4.57402202 29.1361882"></polygon>
            <path d="M11.7523019,7.89842523 C9.32761321,7.89842523 7.3549966,9.87104184 7.3549966,12.2957305 L7.3549966,14.261164 C7.3549966,16.6858527 9.32761321,18.6585213 11.7523019,18.6585213 C14.1769906,18.6585213 16.1496593,16.6858527 16.1496593,14.261164 L16.1496593,12.2957305 C16.1496593,9.87104184 14.1769906,7.89842523 11.7523019,7.89842523 M11.7523019,20.7406034 C8.1795011,20.7406034 5.27291451,17.8339648 5.27291451,14.261164 L5.27291451,12.2957305 C5.27291451,8.72298178 8.1795011,5.81634314 11.7523019,5.81634314 C15.3251027,5.81634314 18.2317413,8.72298178 18.2317413,12.2957305 L18.2317413,14.261164 C18.2317413,17.8339648 15.3251027,20.7406034 11.7523019,20.7406034" id="Fill-11" fill="#AAAAAA" mask="url(#mask-2)"></path>
            <path d="M15.2580388,15.4577678 C13.884229,15.4577678 12.4822591,14.9366747 11.1155804,13.9052633 C10.2393882,13.2439419 9.55422703,12.5047508 9.12188268,11.9837618 C8.08937818,12.4814314 6.6110999,12.2682783 6.24803684,12.2051391 L6.51563644,10.6666366 L6.38186266,11.4358619 L6.51449129,10.6664284 C6.51985265,10.6674174 7.04693173,10.7564785 7.61091572,10.7358138 C8.29368248,10.7112973 8.53515195,10.5467087 8.56591471,10.491013 C8.69729409,10.2530831 8.94297978,10.1005706 9.21448328,10.0883904 C9.48650731,10.0775115 9.74432112,10.2061321 9.89641722,10.4313614 C9.90427708,10.4429169 10.7578266,11.6878458 12.0864553,12.6814675 C13.7455624,13.9222322 15.3572501,14.2132032 16.8769097,13.5462082 L17.5044492,14.9761301 C16.7715564,15.2978118 16.0190919,15.4577678 15.2580388,15.4577678" id="Fill-12" fill="#AAAAAA" mask="url(#mask-2)"></path>
            <path d="M15.0562851,7.97518639 L13.8189558,7.02258178 C14.0814022,6.68164084 14.220173,6.27324044 14.220173,5.84136456 C14.220173,4.77242362 13.3504873,3.90278999 12.2815463,3.90278999 C11.2126575,3.90278999 10.3430238,4.77242362 10.3430238,5.84136456 C10.3430238,6.20276196 10.4429117,6.5551023 10.6318607,6.86017938 L9.30432513,7.68244565 C8.96229109,7.13017337 8.78146226,6.49352472 8.78146226,5.84136456 C8.78146226,3.91137858 10.3516124,2.34122843 12.2815463,2.34122843 C14.2115323,2.34122843 15.7817345,3.91137858 15.7817345,5.84136456 C15.7817345,6.6208961 15.5308436,7.35878599 15.0562851,7.97518639" id="Fill-13" fill="#AAAAAA" mask="url(#mask-2)"></path>
            <path d="M25.728637,30.3553305 C23.9430955,30.3553305 22.4904268,31.8079992 22.4904268,33.5935407 L22.4904268,34.3202915 C22.4904268,36.1058851 23.9430955,37.5585017 25.728637,37.5585017 C27.5141786,37.5585017 28.9668472,36.1058851 28.9668472,34.3202915 L28.9668472,33.5935407 C28.9668472,31.8079992 27.5141786,30.3553305 25.728637,30.3553305 M25.728637,39.6405838 C22.7950354,39.6405838 20.4083447,37.2538931 20.4083447,34.3202915 L20.4083447,33.5935407 C20.4083447,30.6599391 22.7950354,28.2732484 25.728637,28.2732484 C28.6622386,28.2732484 31.0489293,30.6599391 31.0489293,33.5935407 L31.0489293,34.3202915 C31.0489293,37.2538931 28.6622386,39.6405838 25.728637,39.6405838" id="Fill-14" fill="#AAAAAA" mask="url(#mask-2)"></path>
            <polygon id="Fill-15" fill="#AAAAAA" mask="url(#mask-2)" points="22.7181702 40.3503343 24.8002523 40.3503343 24.8002523 37.8838999 22.7181702 37.8838999"></polygon>
            <polygon id="Fill-16" fill="#AAAAAA" mask="url(#mask-2)" points="26.657001 40.3503343 28.7390831 40.3503343 28.7390831 37.8838999 26.657001 37.8838999"></polygon>
            <polygon id="Fill-17" fill="#AAAAAA" mask="url(#mask-2)" points="20.5223544 49.3775135 22.6044364 49.3775135 22.6044364 45.9458258 20.5223544 45.9458258"></polygon>
            <polygon id="Fill-18" fill="#AAAAAA" mask="url(#mask-2)" points="29.3447608 49.3775135 31.4268428 49.3775135 31.4268428 45.9458258 29.3447608 45.9458258"></polygon>
            <path d="M34.8067335,49.3775083 L32.7246515,49.3775083 L32.7246515,46.2479828 C32.7246515,44.6865253 31.590229,43.2640989 29.9018166,42.7083391 L27.8335804,42.0276545 C27.2267576,42.4049277 26.5112501,42.6079307 25.7645634,42.6079307 C25.0178767,42.6079307 24.3023692,42.4049277 23.6955463,42.0276545 L21.6273622,42.7083391 C19.9388977,43.2640989 18.8044753,44.6865253 18.8044753,46.2479828 L18.8044753,49.3775083 L16.7223932,49.3775083 L16.7223932,46.2479828 C16.7223932,43.7852961 18.4319387,41.5680869 20.9763992,40.7306735 L23.5549017,39.8820168 C23.9080228,39.7660448 24.2959668,39.8465694 24.573248,40.0939207 C25.2190579,40.6697726 26.3101209,40.6697726 26.9558787,40.0939207 C27.2330559,39.8465694 27.6212601,39.7656805 27.974225,39.8820168 L30.5527275,40.7306735 C33.097188,41.5680869 34.8067335,43.7852961 34.8067335,46.2479828 L34.8067335,49.3775083 Z" id="Fill-19" fill="#AAAAAA" mask="url(#mask-2)"></path>
            <path d="M33.4352869,3.60881041 C31.0228825,2.80117077 28.4970046,2.39172933 25.9278194,2.39172933 C23.3902819,2.39172933 20.8939175,2.79143704 18.5081117,3.57960921 L17.8549105,1.60267227 C20.4517874,0.744698298 23.1679155,0.309647247 25.9278194,0.309647247 C28.7221297,0.309647247 31.470374,0.755368969 34.0961918,1.63437197 L33.4352869,3.60881041 Z" id="Fill-20" fill="#00953C" mask="url(#mask-2)"></path>
            <path d="M12.7800749,27.7835844 C12.7800749,28.35116 12.3199347,28.8113522 11.7523071,28.8113522 C11.1846795,28.8113522 10.7245393,28.35116 10.7245393,27.7835844 C10.7245393,27.2159568 11.1846795,26.7558166 11.7523071,26.7558166 C12.3199347,26.7558166 12.7800749,27.2159568 12.7800749,27.7835844" id="Fill-21" fill="#AAAAAA" mask="url(#mask-2)"></path>
            <path d="M12.7800749,31.3788352 C12.7800749,31.9464108 12.3199347,32.406603 11.7523071,32.406603 C11.1846795,32.406603 10.7245393,31.9464108 10.7245393,31.3788352 C10.7245393,30.8112076 11.1846795,30.3510675 11.7523071,30.3510675 C12.3199347,30.3510675 12.7800749,30.8112076 12.7800749,31.3788352" id="Fill-22" fill="#AAAAAA" mask="url(#mask-2)"></path>
            <path d="M12.7800749,34.5792713 C12.7800749,35.1468989 12.3199347,35.607039 11.7523071,35.607039 C11.1846795,35.607039 10.7245393,35.1468989 10.7245393,34.5792713 C10.7245393,34.0116957 11.1846795,33.5515035 11.7523071,33.5515035 C12.3199347,33.5515035 12.7800749,34.0116957 12.7800749,34.5792713" id="Fill-23" fill="#AAAAAA" mask="url(#mask-2)"></path>
            <path d="M41.223622,46.7339876 L39.9876981,45.05838 C42.3961986,43.2818955 44.4227932,41.0968545 46.0112136,38.5641578 L47.7750494,39.670368 C46.0473898,42.4252749 43.8431415,44.8018154 41.223622,46.7339876" id="Fill-24" fill="#00953C" mask="url(#mask-2)"></path>
            <path d="M10.752637,46.7552821 C8.12041682,44.8194142 5.90638278,42.4356905 4.17221662,39.6703732 L5.9361045,38.564163 C7.53045886,41.1064893 9.56600641,43.2980368 11.9862186,45.0779047 L10.752637,46.7552821 Z" id="Fill-25" fill="#00953C" mask="url(#mask-2)"></path>
            <path d="M50.7859015,24.2094771 C50.0777854,23.2698334 49.1055051,22.6023179 47.9741538,22.2790747 L42.52243,20.721417 C42.1587944,20.6176773 41.7676753,20.7189185 41.5002839,20.9862579 L39.7815772,22.7050687 L38.0628184,20.9862579 C37.7901698,20.7136092 37.3891608,20.6138775 37.0205281,20.727403 L32.0957794,22.2427423 C30.9908705,22.5826943 30.0438354,23.2539055 29.3570086,24.1838154 C28.7916192,24.9493449 28.4462018,25.8320436 28.3415772,26.7651808 C29.078374,27.018362 29.7668144,27.3753349 30.3892529,27.8191828 L30.3892529,27.3722639 C30.3892529,25.9211568 31.3211407,24.6595191 32.7080677,24.2326923 L37.0338014,22.9017734 L39.045405,24.913429 C39.4519836,25.3199035 40.1111708,25.3199035 40.5176973,24.913429 L42.5394511,22.8917273 L47.4022058,24.2810486 C48.8062579,24.6822138 49.7859295,25.9822138 49.7846282,27.4410246 L49.7672949,35.1140697 L51.849377,35.1187544 L51.8667125,27.4443039 C51.8677514,26.2677193 51.4940176,25.1491207 50.7859015,24.2094771" id="Fill-26" fill="#AAAAAA" mask="url(#mask-2)"></path>
            <path d="M22.7566366,24.2094771 C22.0485205,23.2698334 21.0762923,22.6023179 19.9448889,22.2790747 L14.4931652,20.721417 C14.1296336,20.6176773 13.7384104,20.7189185 13.471019,20.9862579 L11.7523123,22.7050687 L10.0335536,20.9862579 C9.76095696,20.7136092 9.35973974,20.6138775 8.99126326,20.727403 L4.06651451,22.2427423 C2.96160561,22.5826943 2.01457057,23.2539055 1.32774374,24.1838154 C0.640968969,25.1136733 0.277905906,26.2162398 0.277905906,27.3722639 L0.277905906,35.0665461 L2.35998799,35.0665461 L2.35998799,27.3722639 C2.35998799,25.9211568 3.29187588,24.6595191 4.6788028,24.2326923 L9.00448448,22.9017734 L11.0161401,24.913429 C11.4227187,25.3200076 12.0819059,25.3200076 12.4884324,24.913429 L14.5101862,22.8917273 L19.3729409,24.2810486 C20.7573694,24.6766442 21.7285045,25.9460897 21.7541141,27.3807483 C22.377958,27.0250767 23.0541141,26.7507624 23.7681121,26.5717554 C23.6299139,25.7178414 23.2870991,24.913377 22.7566366,24.2094771" id="Fill-27" fill="#AAAAAA" mask="url(#mask-2)"></path>
            <polygon id="Fill-28" fill-opacity="0" fill="#FFFFFF" mask="url(#mask-2)" points="0 51.9992713 51.9992713 51.9992713 51.9992713 0 0 0"></polygon>
        </g>
    </g>
</svg>