<?xml version="1.0" encoding="UTF-8"?>
<svg width="52px" height="52px" viewBox="0 0 52 52" version="1.1" xmlns="http://www.w3.org/2000/svg" xmlns:xlink="http://www.w3.org/1999/xlink">
    <!-- Generator: Sketch 63.1 (92452) - https://sketch.com -->
    <title>globe-dotted-line</title>
    <desc>Created with Sketch.</desc>
    <defs>
        <polygon id="path-1" points="0 0.00517918688 5.96625278 0.00517918688 5.96625278 29.7461206 0 29.7461206"></polygon>
    </defs>
    <g id="globe-dotted-line" stroke="none" stroke-width="1" fill="none" fill-rule="evenodd">
        <g>
            <path d="M25.9816958,7.45904048 C21.0341928,7.45904048 16.382798,9.3856978 12.8844172,12.8840786 C9.38603647,16.3825114 7.45937916,21.0338541 7.45937916,25.9813571 C7.45937916,30.9288601 9.38603647,35.5802549 12.8844172,39.0786878 C16.382798,42.5770685 21.0341928,44.5037259 25.9816958,44.5037259 C30.9291988,44.5037259 35.5805936,42.5770685 39.0789743,39.0786878 C42.5774072,35.5802549 44.5040645,30.9288601 44.5040645,25.9813571 C44.5040645,21.0338541 42.5774072,16.3825114 39.0789743,12.8840786 C35.5805936,9.3856978 30.9291988,7.45904048 25.9816958,7.45904048 M25.9816958,46.5878942 C23.200321,46.5878942 20.5015315,46.0429363 17.9604092,44.9681307 C15.5064573,43.9301627 13.302814,42.4445154 11.4107018,40.5524032 C9.51858958,38.6602389 8.03289018,36.4565956 6.99497435,34.0026958 C5.92016874,31.4615214 5.37521082,28.762784 5.37521082,25.9813571 C5.37521082,23.1999303 5.92016874,20.5012449 6.99497435,17.9600705 C8.03289018,15.5061186 9.51858958,13.3024754 11.4107018,11.4104152 C13.302814,9.5182509 15.5064573,8.03260361 17.9604092,6.99468778 C20.5015315,5.91983006 23.200321,5.37487214 25.9816958,5.37487214 C28.7630705,5.37487214 31.4618601,5.91983006 34.0029824,6.99468778 C36.4569343,8.03260361 38.6605776,9.5182509 40.5526898,11.4103631 C42.4448541,13.3024754 43.9305014,15.5061186 44.9684172,17.9600705 C46.0432228,20.5012449 46.5882329,23.1999303 46.5882329,25.9813571 C46.5882329,28.762784 46.0432228,31.4615214 44.9684172,34.0026958 C43.9305014,36.4565956 42.4448541,38.6602389 40.5526898,40.5524032 C38.6605776,42.4445154 36.4569343,43.9301627 34.0029824,44.9681307 C31.4618601,46.0429363 28.7630705,46.5878942 25.9816958,46.5878942" id="Fill-1" fill="#ABABAB"></path>
            <path d="M37.9042224,24.1225134 C37.2372365,24.1225134 36.5895291,23.7885255 36.2054168,23.179323 L34.6377054,20.6925976 C34.2645351,20.1006938 34.2271764,19.3441928 34.5400621,18.7183691 L34.6606313,18.477283 L30.2599619,16.5500004 L25.6694248,16.3397599 L24.8206473,17.4829784 C24.4321062,18.0063651 23.8115451,18.308778 23.1593046,18.2957519 C22.5075852,18.2812669 21.9006754,17.9501447 21.5357375,17.4099804 L20.4261263,15.7676557 C20.0596253,15.2251467 19.9799058,14.5360164 20.2128116,13.9242088 L21.3383667,10.9677639 C21.5515251,10.4079563 21.9986313,9.97512665 22.5650561,9.78030902 L27.3457214,8.13553547 L27.3682826,8.1024493 L28.8297014,6.0113511 L30.53799,7.20526693 L29.0918898,9.27448136 C28.8478337,9.65817675 28.4785711,9.9497519 28.047982,10.0979363 L23.2743507,11.740313 L22.1736493,14.6313671 L23.2067715,16.1604172 L24.018503,15.0671667 C24.4184028,14.5285134 25.0571483,14.2260485 25.7272605,14.2560605 L30.368495,14.4685936 C30.6166152,14.4800565 30.8572846,14.536277 31.0842505,14.6356918 L35.5649519,16.5980405 C36.0679138,16.818285 36.4636453,17.2408501 36.650491,17.7572549 C36.8373367,18.2736597 36.8036253,18.8515475 36.5580581,19.342786 L36.422014,19.614822 L37.9317856,22.0096357 L40.5415812,20.4651106 L40.5415812,20.2785776 C40.5415812,19.1683411 41.4448076,18.2651146 42.554992,18.2651146 C43.2927355,18.2651146 43.9702465,18.6675675 44.3231483,19.3153792 L46.3441663,23.0256677 L44.5139018,24.0226818 L42.6251242,20.5551467 C42.6078778,21.2444333 42.232988,21.885784 41.6379579,22.2380605 L38.9341142,23.838285 C38.6091403,24.0305495 38.2539459,24.1225134 37.9042224,24.1225134" id="Fill-3" fill="#ABABAB"></path>
            <path d="M9.39362806,26.8875483 C8.83058998,26.8875483 8.28073427,26.6491715 7.89683046,26.2157687 L5.63722725,23.6647988 L7.19733146,22.2828389 L9.17927134,24.5203499 L8.76191663,23.2055002 C8.52682244,22.4647868 8.74644168,21.6483138 9.32135952,21.1255002 L10.1727423,20.3512838 L13.9075198,15.134923 L14.2126421,13.9653399 L12.4232273,11.8146866 L14.0253796,10.4816525 L15.8439206,12.6673719 C16.2545018,13.1607988 16.4028425,13.8261695 16.2408505,14.4473038 L15.920097,15.676911 C15.8581972,15.9141936 15.7544577,16.1354802 15.6117443,16.3348309 L11.8618044,21.5722938 C11.7800008,21.6865583 11.6857443,21.7924862 11.5816922,21.8870553 L10.7656361,22.6291756 L11.2924617,24.2889551 C11.4554437,24.8023379 11.4067784,25.3474521 11.1553756,25.823893 C10.9040248,26.3002818 10.4815118,26.6481295 9.96568016,26.8034 C9.77753186,26.8600894 9.5847984,26.8875483 9.39362806,26.8875483" id="Fill-5" fill="#ABABAB"></path>
            <path d="M25.6360729,27.1239503 C26.1166822,27.1239503 26.5862453,27.2873491 26.9672313,27.594816 C27.4539367,27.9875776 27.7413956,28.5714052 27.7559327,29.1966557 L27.7698966,29.7976778 C27.770105,29.8078902 27.7745339,29.8176337 27.7819848,29.8245114 L28.3203255,30.3189283 C28.8429307,30.7989122 29.0903214,31.5041948 28.9819968,32.2054653 L28.6362333,34.4454253 C28.6350349,34.4530846 28.6362854,34.4611086 28.6397764,34.4680385 L30.4974477,38.1654573 C30.5000529,38.1706156 30.5048465,38.1801507 30.5207383,38.1846838 C30.5366822,38.1894253 30.5458004,38.1836938 30.5507503,38.1806717 L31.9893475,37.3048521 C31.9947142,37.3015695 31.9992994,37.2968802 32.0024257,37.2913571 L34.4494477,33.0090685 C34.4547623,32.999794 34.4558565,32.9886958 34.4524697,32.9784834 L34.0329788,31.7248561 C33.7875679,30.9913331 33.9607623,30.182311 34.4849828,29.6135415 L37.1106701,26.7646397 C37.1197363,26.7547399 37.1229667,26.7406717 37.1189026,26.727802 C37.1139527,26.7120144 37.0995198,26.7014373 37.0829507,26.7014373 L36.6554357,26.7014373 C35.8958084,26.7014373 35.1898485,26.2916377 34.8130309,25.6320505 L32.4403615,21.4785114 C32.4364537,21.4716858 32.4303054,21.4660585 32.423115,21.4628802 L30.8296641,20.7515535 C30.8188265,20.7467599 30.8062172,20.7473331 30.7957964,20.7531166 L30.2893956,21.0373972 C29.4638565,21.5006557 28.4197924,21.3566918 27.7504617,20.687309 L26.6250629,19.561806 C26.6173515,19.5540425 26.6065138,19.5498741 26.5959367,19.5506816 L26.5957804,19.5506816 L22.8793956,19.8099784 C22.8648064,19.8109683 22.8520409,19.8204513 22.8468305,19.8341026 L22.4500569,20.8660265 C22.3684096,21.0785074 22.253624,21.2755655 22.1089828,21.4516257 L20.8827623,22.943786 C20.8772914,22.9505074 20.8742172,22.9590004 20.8742172,22.9677539 L20.8742172,25.7360505 C20.8742172,25.7465234 20.878594,25.7566317 20.8862533,25.7637178 L22.8639206,27.6011206 C22.8727263,27.6091968 22.8849707,27.612792 22.89659,27.6105515 L25.2349747,27.1620906 C25.3684136,27.1365595 25.5026862,27.1239503 25.6360729,27.1239503 M30.5295439,40.2699463 C30.3337884,40.2699463 30.1374597,40.2429563 29.9464457,40.1881948 C29.3783535,40.0253691 28.9004016,39.6291687 28.6351391,39.1011447 L26.7774677,35.4036737 C26.5782212,35.0071607 26.5087663,34.565786 26.5764497,34.1273291 L26.9222653,31.8874212 C26.9241932,31.8749683 26.9197643,31.8624112 26.9104898,31.8539182 L26.3722533,31.3595535 C25.9496882,30.9715335 25.699588,30.4198541 25.6862493,29.8461347 L25.6722854,29.2451126 C25.6721291,29.2381307 25.6718685,29.2276577 25.6583214,29.2166637 C25.6447222,29.2057218 25.6343535,29.2077018 25.6275279,29.2090044 L23.2892473,29.6574132 C22.6282012,29.7841828 21.9388104,29.5864473 21.4454357,29.1280866 L19.4676641,27.2905796 C19.0370749,26.8905234 18.7900489,26.3239423 18.7900489,25.7360505 L18.7900489,22.9677539 C18.7900489,22.4776617 18.9614196,21.999293 19.2725339,21.6206517 L20.4986501,20.1284914 C20.5012032,20.1254172 20.5032353,20.1219263 20.5046942,20.1181747 L20.9015198,19.0860425 C21.1961691,18.3198501 21.915624,17.7879182 22.7344938,17.7309162 L26.4508265,17.4717499 C27.0637283,17.4286597 27.6644898,17.6535936 28.0989347,18.0881948 L29.2242814,19.2136457 C29.2360569,19.2254212 29.2546581,19.2281828 29.2693515,19.2198461 L29.7758565,18.9356176 C30.3580689,18.6088721 31.069604,18.5762549 31.6792232,18.8484473 L33.2725699,19.5596697 C33.6868505,19.7445355 34.0249026,20.0505956 34.2500449,20.4447639 L36.6227142,24.5982509 C36.6293836,24.6099743 36.6419407,24.6172689 36.6554357,24.6172689 L37.0829507,24.6172689 C38.0149387,24.6172689 38.8285459,25.2146958 39.1075118,26.1039583 C39.334113,26.8260705 39.1561772,27.6204513 38.6432112,28.1770806 L36.0175238,31.0260345 C36.0081972,31.0361427 36.005123,31.0505234 36.0094477,31.0635495 L36.4289387,32.3171768 C36.6205259,32.8897499 36.5585739,33.518804 36.2589747,34.0431287 L33.8120048,38.325313 C33.6344337,38.6361146 33.3789667,38.8987719 33.0732192,39.0849924 L31.6345699,39.9608641 C31.2995399,40.1648 30.9157924,40.2699463 30.5295439,40.2699463" id="Fill-7" fill="#ABABAB"></path>
            <path d="M38.5376429,34.4464778 L38.5376429,37.1804898 L39.6451178,34.4573154 L39.7027451,33.5387703 C39.6513703,33.5956681 39.5943683,33.6463134 39.529186,33.6916962 L38.5376429,34.4464778 Z M38.520188,40.0391351 L38.0954866,40.0391351 C37.1900717,40.0391351 36.4534745,39.3024858 36.4534745,38.3970709 L36.4534745,34.2196681 C36.4534745,33.6552232 36.7439555,33.1318886 37.2173743,32.8322373 L38.1040317,32.1572273 C38.2388774,31.8215719 38.491218,31.1020128 38.6099114,30.7635439 C38.7845647,30.2656361 38.8093142,30.197119 38.8522481,30.1110429 C39.1832661,29.4467663 39.8956349,29.0924577 40.6251459,29.2295439 C41.354709,29.3666822 41.8900277,29.9555118 41.95719,30.6947663 L41.9644325,30.7744337 L41.7314745,34.4877964 C41.7380397,34.7154397 41.6970337,34.9442814 41.611218,35.1553034 L40.041214,39.0156521 C39.7884565,39.6373595 39.1913944,40.0391351 38.520188,40.0391351 L38.520188,40.0391351 Z" id="Fill-9" fill="#ABABAB"></path>
            <path d="M13.6551583,42.0154269 L13.4594028,38.0285691 C13.4309539,37.0371303 13.985499,36.1092064 14.8721042,35.6645491 L15.1788938,35.5106333 C15.3798597,35.4098637 15.4842244,35.17899 15.4272224,34.9616112 C15.3006613,34.4792305 15.3171263,33.9741844 15.4748457,33.5010261 L15.7641283,32.6333347 C15.8172745,32.4737916 15.7818958,32.2957515 15.6717996,32.1687214 L15.1474749,31.5636874 C15.0814589,31.487511 14.9947054,31.43499 14.8967495,31.4116473 L12.7250461,30.8952425 C12.3649018,30.8096353 12.0341443,30.6507174 11.7421002,30.423022 L9.60947495,28.7599078 C9.47666132,28.6562204 9.2967976,28.6302725 9.14001603,28.6919639 L6.86957515,29.5853948 L6.10640481,27.6460762 L8.3768978,26.7525411 C9.2163487,26.4222525 10.1798076,26.5616313 10.8911343,27.1163848 L13.0237074,28.7794469 C13.0782084,28.8219639 13.140004,28.8516112 13.2072184,28.8676072 L15.3787655,29.384012 C15.903976,29.5088016 16.3686413,29.7905291 16.7223768,30.1986613 L17.2467535,30.8036954 C17.8366253,31.4843327 18.0261283,32.4379439 17.7413267,33.2923487 L17.4520962,34.1600922 C17.4226573,34.2484609 17.4195832,34.3427174 17.4431864,34.4327014 C17.7486212,35.5970741 17.1893868,36.8339238 16.1133828,37.3735671 L15.806489,37.5275351 C15.6431944,37.6093908 15.5402886,37.7790421 15.5425812,37.9611984 L15.7368257,41.9131463 L13.6551583,42.0154269 Z" id="Fill-11" fill="#ABABAB"></path>
            <path d="M23.8577876,1.82781563 C23.3892144,1.82781563 22.9907735,1.46876553 22.9502886,0.993314629 C22.9075631,0.491551102 23.2796914,0.0501763527 23.7814549,0.0073987976 L23.8339238,0.0030741483 C24.3356874,-0.0378276553 24.7772184,0.33503006 24.818485,0.836845691 C24.8598036,1.33871343 24.487519,1.77899399 23.9856513,1.82036473 L23.9362044,1.82448096 C23.9098918,1.82672144 23.8837355,1.82781563 23.8577876,1.82781563 M28.1271022,1.83042084 C28.1011022,1.83042084 28.0749459,1.82927455 28.0485812,1.82703407 L27.9993427,1.82291784 C27.4974749,1.78154709 27.1240962,1.34121443 27.1654148,0.839294589 C27.2067856,0.337426854 27.6471703,-0.0355350701 28.1490381,0.00536673347 L28.2035912,0.010004008 C28.7053547,0.0528336673 29.0774309,0.494260521 29.0346012,0.996024048 C28.9940641,1.47142285 28.5956232,1.83042084 28.1271022,1.83042084 M19.7015912,2.53075351 C19.2953347,2.53075351 18.9248216,2.25720641 18.8190501,1.84553106 C18.6938437,1.35778357 18.9877114,0.860813627 19.4754589,0.73555511 L19.528501,0.722008016 C20.016509,0.597791583 20.5126974,0.893378758 20.6366012,1.38154309 C20.7604529,1.86965531 20.4651784,2.36573948 19.9770661,2.48959118 L19.9290261,2.50193988 C19.853006,2.52147896 19.7766733,2.53075351 19.7015912,2.53075351 M32.2820481,2.53742285 C32.2068617,2.53742285 32.130477,2.52804409 32.0543006,2.50845291 L32.0063647,2.49620842 C31.5183046,2.3721483 31.2231864,1.87595992 31.3472465,1.3878998 C31.4713066,0.899787575 31.967495,0.604877756 32.4555551,0.728729459 L32.508493,0.742328657 C32.9962405,0.867743487 33.2898998,1.36476553 33.164485,1.85251303 C33.0586092,2.26403206 32.6882004,2.53742285 32.2820481,2.53742285 M15.7222886,3.91927856 C15.3738677,3.91927856 15.0412866,3.71852104 14.8896112,3.3800521 C14.6837475,2.92049299 14.8893507,2.38100601 15.3489619,2.17509018 L15.3988778,2.15284168 C15.8591663,1.94817635 16.397976,2.15529058 16.6025892,2.61537074 C16.8072545,3.07550301 16.6001403,3.61441683 16.140008,3.81908216 L16.094521,3.8393507 C15.973483,3.89359118 15.8468697,3.91927856 15.7222886,3.91927856 M36.2594749,3.92777154 C36.1351022,3.92777154 36.0087495,3.90224048 35.8879198,3.84815631 L35.8426934,3.82804409 C35.3823527,3.62379559 35.1747695,3.08503808 35.379018,2.6247495 C35.5832665,2.16440882 36.1218677,1.95687776 36.5823126,2.16107415 L36.63202,2.18327054 C37.0917876,2.38876954 37.2979118,2.9280481 37.0924128,3.38776353 C36.9409459,3.7266493 36.6081042,3.92777154 36.2594749,3.92777154 M12.0319559,5.95723046 C11.7372545,5.95723046 11.4481283,5.81467335 11.2724329,5.55107816 C10.9931022,5.13205611 11.1063246,4.56594389 11.5252946,4.28661323 L11.5688016,4.25764329 C11.9878236,3.97826052 12.5539359,4.09148297 12.8333186,4.51050501 C13.1125972,4.92952705 12.9994269,5.49569138 12.5804048,5.77496994 L12.5368978,5.80399198 C12.3814709,5.90762725 12.2057234,5.95723046 12.0319559,5.95723046 M39.9473587,5.96603607 C39.7731222,5.96603607 39.5969058,5.91617234 39.4412184,5.81196393 L39.4004729,5.78481764 C38.9810341,5.50616433 38.8668737,4.94020842 39.1455271,4.52076954 C39.4241283,4.10133066 39.9901363,3.98711824 40.4096273,4.26577154 L40.4552184,4.29625251 C40.8738236,4.57626052 40.9861082,5.14258116 40.7060481,5.56113427 C40.5302485,5.8239479 40.241487,5.96603607 39.9473587,5.96603607" id="Fill-13" fill="#00933C"></path>
            <path d="M12.057586,47.8494673 C11.8842353,47.8494673 11.7090609,47.8001768 11.5538946,47.6970625 L11.5082513,47.6665816 C11.0896461,47.3865735 10.9773615,46.8202529 11.2574216,46.4016998 C11.5374297,45.9831988 12.1037503,45.87081 12.5222513,46.1508701 L12.5629968,46.1780685 C12.9824357,46.4567218 13.096596,47.0226257 12.8179427,47.4421166 C12.6424036,47.7063371 12.3527563,47.8494673 12.057586,47.8494673 M39.8896741,47.8583772 C39.5950248,47.8583772 39.3058986,47.71582 39.1301511,47.4522248 C38.8508204,47.0332028 38.9640429,46.4671427 39.3830649,46.1877599 L39.4265719,46.15879 C39.8454898,45.8794072 40.4116541,45.9926297 40.6910369,46.4116517 C40.9703675,46.8306216 40.8571451,47.396786 40.438123,47.6761166 L40.394616,47.7050866 C40.2391892,47.8087739 40.0634938,47.8583772 39.8896741,47.8583772 M15.7504196,49.880281 C15.6268806,49.880281 15.5013094,49.8550104 15.381105,49.8017078 L15.3313976,49.7795114 C14.8716301,49.5740645 14.6655058,49.0347339 14.8710048,48.5750184 C15.0764517,48.115303 15.6158345,47.9090745 16.0754978,48.1146257 L16.1207242,48.13479 C16.5810649,48.3390385 16.7886481,48.8777439 16.5843996,49.3380325 C16.4334537,49.6781687 16.0999868,49.880281 15.7504196,49.880281 M36.1944958,49.8888782 C35.8452413,49.8888782 35.5119828,49.6871307 35.3608806,49.3474112 C35.1562152,48.887279 35.3633295,48.3483651 35.8234096,48.1436998 L35.8688966,48.1234313 C36.3284557,47.9174112 36.8679427,48.1232228 37.0738585,48.5827299 C37.2797222,49.0423411 37.0740669,49.581776 36.6145078,49.7876918 L36.564592,49.8099403 C36.4441271,49.8635034 36.3182954,49.8888782 36.1944958,49.8888782 M19.7331611,51.2623451 C19.6588084,51.2623451 19.5832573,51.2531747 19.5078625,51.2340525 L19.4549246,51.2204533 C18.9672293,51.0950385 18.6735178,50.5980164 18.7989848,50.110321 C18.9244517,49.6225735 19.4215259,49.3289142 19.9091691,49.4543291 L19.9570529,49.4665735 C20.4451651,49.5906337 20.7402313,50.086822 20.6162232,50.5749343 C20.5113375,50.9876517 20.1403034,51.2623451 19.7331611,51.2623451 M32.2099828,51.2690144 C31.8026842,51.2690144 31.431598,50.9941647 31.3268164,50.581291 C31.2029647,50.0931788 31.4982393,49.5970425 31.9863515,49.4731908 L32.0343916,49.4608942 C32.5221391,49.3356357 33.019109,49.6295555 33.1443675,50.1172509 C33.2695739,50.6050505 32.9757062,51.1019683 32.4879587,51.2272269 L32.4349166,51.2407739 C32.3596782,51.2598962 32.2842313,51.2690144 32.2099828,51.2690144 M23.8902954,51.9605415 C23.8651291,51.9605415 23.8399106,51.9595515 23.8144317,51.9574673 L23.7598786,51.9528301 C23.258115,51.9100525 22.8860389,51.4685735 22.9288685,50.96681 C22.971594,50.4649944 23.4132293,50.0929703 23.9148365,50.1358 L23.9641271,50.1399162 C24.4659948,50.181287 24.8393735,50.6216196 24.7980028,51.1235395 C24.7587683,51.5998762 24.3599106,51.9605415 23.8902954,51.9605415 M28.0536822,51.9628862 C27.5839106,51.9628862 27.1841671,51.6023251 27.1449848,51.1259363 C27.1036661,50.6240685 27.4759507,50.183788 27.9778184,50.1424172 L28.0272653,50.1383531 C28.5293936,50.0955756 28.9704557,50.4677559 29.0131812,50.9694673 C29.0559066,51.471283 28.6837784,51.9126056 28.1820148,51.9553832 L28.1295459,51.9597599 C28.104119,51.9618441 28.0787964,51.9628862 28.0536822,51.9628862" id="Fill-15" fill="#00933C"></path>
            <path d="M46.9476112,12.9862601 C46.6525451,12.9862601 46.3631062,12.8433383 46.1874629,12.579222 L46.1596914,12.5375387 C45.8798397,12.1188861 45.9923848,11.5526128 46.4110421,11.2727611 C46.8297515,10.9928573 47.3959679,11.1054545 47.6758717,11.5241118 L47.7060922,11.5694946 C47.9849018,11.9887772 47.871002,12.5548373 47.4516152,12.8335948 C47.2963968,12.9368653 47.121014,12.9862601 46.9476112,12.9862601 M48.9776954,16.6811259 C48.6281804,16.6811259 48.2948176,16.4791699 48.1438196,16.13919 L48.123499,16.0936509 C47.918,15.6338834 48.12402,15.0945527 48.5837355,14.8890537 C49.0433988,14.6836068 49.5827816,14.8894705 49.7883327,15.3492902 L49.8105291,15.3990497 C50.0149339,15.8592862 49.807507,16.3980437 49.3472705,16.6024485 C49.227014,16.6558553 49.1012866,16.6811259 48.9776954,16.6811259 M50.3566333,20.6644405 C49.9498557,20.6644405 49.5790822,20.3902681 49.4738317,19.9779675 L49.4612224,19.928677 C49.3359639,19.4409295 49.6298317,18.9440116 50.1175792,18.818701 C50.6053267,18.6934946 51.1022966,18.9874144 51.2275551,19.4751098 L51.2407896,19.5268493 C51.3653707,20.0148573 51.0707735,20.5113583 50.5828697,20.6358874 C50.5072144,20.6552701 50.4312986,20.6644405 50.3566333,20.6644405 M51.050505,24.8223042 C50.5812545,24.8223042 50.1826052,24.4624204 50.1428497,23.9863964 L50.1385251,23.9346569 C50.096477,23.4328413 50.4691784,22.9918834 50.970994,22.9498874 C51.4726012,22.9070577 51.9137675,23.2804886 51.9558156,23.7823042 L51.9601403,23.8344605 C52.0020842,24.3363283 51.6292786,24.7771299 51.1274629,24.8191259 C51.1016192,24.8212621 51.0759319,24.8223042 51.050505,24.8223042 M51.0456072,29.0375868 C51.0196593,29.0375868 50.993503,29.0364926 50.9671383,29.0342521 C50.4653747,28.9914745 50.0932986,28.5499956 50.1360762,28.0482321 L50.1403487,27.997691 C50.1823968,27.4958232 50.6230421,27.122705 51.1251703,27.165222 C51.626986,27.2072701 51.9996874,27.648176 51.9576393,28.1499916 L51.9531062,28.2032421 C51.9125691,28.6786409 51.5141283,29.0375868 51.0456072,29.0375868 M50.3383447,33.1930537 C50.2632104,33.1930537 50.186982,33.1837792 50.1109098,33.1642401 C49.6231623,33.0389295 49.3292425,32.5420116 49.454501,32.0542641 L49.4672665,32.0044525 C49.5922124,31.5166008 50.0890261,31.2222641 50.5767735,31.3473142 C51.0646774,31.472208 51.3588577,31.9689695 51.2339639,32.4568212 L51.2208858,32.5078313 C51.1151663,32.9195066 50.7446012,33.1930537 50.3383447,33.1930537 M48.9469018,37.171679 C48.8225291,37.171679 48.6961764,37.1461479 48.5753467,37.0920637 C48.1155792,36.8866168 47.9094549,36.3473383 48.1149018,35.8875707 L48.1355872,35.8412501 C48.3404609,35.381222 48.8795311,35.1743683 49.339507,35.37919 C49.7995351,35.5840637 50.0063888,36.1230818 49.801515,36.5831098 L49.7798397,36.631723 C49.6283727,36.9705567 49.2955311,37.171679 48.9469018,37.171679 M46.9082204,40.8598232 C46.7341403,40.8598232 46.5582365,40.8101158 46.4026533,40.7061679 C45.9838397,40.4265246 45.8710862,39.8602561 46.1507816,39.4414946 L46.1789699,39.3992381 C46.4580922,38.9800597 47.0241523,38.8664725 47.4433307,39.1458032 C47.8624569,39.4249776 47.9758878,39.9910377 47.6967134,40.4101639 L47.6673267,40.4542962 C47.4915271,40.7174745 47.2026092,40.8598232 46.9082204,40.8598232" id="Fill-17" fill="#00933C"></path>
            <g id="Group-21" transform="translate(0.000000, 11.097780)">
                <mask id="mask-2" fill="white">
                    <use xlink:href="#path-1"></use>
                </mask>
                <g id="Clip-20"></g>
                <path d="M5.02468497,1.87224489 C4.85102164,1.87224489 4.67543046,1.82274589 4.52005571,1.71916273 C4.10092946,1.44004048 3.98744649,0.873980361 4.26662084,0.454854108 L4.29605972,0.410721844 C4.57570301,-0.00803967936 5.14186733,-0.120897395 5.56073307,0.1588501 C5.97949459,0.438493387 6.0923002,1.00476192 5.81260481,1.42352345 L5.78441643,1.46577996 C5.60872104,1.72953146 5.31943848,1.87224489 5.02468497,1.87224489 M2.99428818,5.56487014 C2.87033226,5.56487014 2.74434429,5.53949539 2.62382725,5.48582806 C2.1637992,5.28095431 1.95694549,4.74193627 2.16181924,4.28190822 L2.18349459,4.23329499 C2.38899359,3.77357956 2.92832425,3.56745531 3.38798758,3.77295431 C3.84775511,3.9784012 4.05387936,4.51767976 3.84843246,4.97744729 L3.82774709,5.02376794 C3.67654068,5.36327896 3.34338637,5.56487014 2.99428818,5.56487014 M1.61342244,9.54641323 C1.53849659,9.54641323 1.46247655,9.53713868 1.38656072,9.51770381 C0.898709018,9.39281002 0.604528657,8.8960485 0.729422445,8.40819679 L0.742500601,8.35718677 C0.867759118,7.86938717 1.36498958,7.57567575 1.85247655,7.70077796 C2.34022405,7.82608858 2.63409178,8.32300641 2.50883327,8.81075391 L2.49606774,8.86056553 C2.39060882,9.2725014 2.01993948,9.54641323 1.61342244,9.54641323 M0.915434469,13.7030786 C0.889903407,13.7030786 0.864163928,13.7019844 0.838216032,13.699796 C0.336400401,13.6577479 -0.036301002,13.2168421 0.00574709419,12.7150265 L0.0102801603,12.661776 C0.0530577154,12.1600124 0.494640882,11.7877279 0.9963002,11.8307659 C1.49801162,11.8735435 1.87008778,12.3150224 1.82731022,12.816786 L1.82303768,12.8673271 C1.78317796,13.3432469 1.38452866,13.7030786 0.915434469,13.7030786 M0.915173948,17.9184132 C0.446027655,17.9184132 0.0474304609,17.5586858 0.00751863727,17.0827138 L0.00319398798,17.0305575 C-0.0387498998,16.5286898 0.334107816,16.0878882 0.835923447,16.0458922 C1.33789539,16.003792 1.77859279,16.376806 1.82053667,16.8786216 L1.82480922,16.9303611 C1.86690942,17.4321768 1.49415591,17.8731347 0.992340281,17.9151307 C0.966496593,17.917319 0.94070501,17.9184132 0.915173948,17.9184132 M1.61837234,22.0751307 C1.21211583,22.0751307 0.841602806,21.8015836 0.735831263,21.3899082 L0.722648898,21.3381687 C0.598067735,20.8501607 0.892612826,20.3536597 1.38056874,20.2291307 C1.86847255,20.1044453 2.36502565,20.3990946 2.48960681,20.8869984 L2.50221603,20.9363411 C2.62747455,21.4240886 2.33360681,21.9210064 1.84580721,22.046317 C1.76978717,22.0658561 1.69345451,22.0751307 1.61837234,22.0751307 M3.00799158,26.0556317 C2.65936232,26.0556317 2.32657275,25.8546136 2.17505371,25.5157279 L2.15290942,25.4659683 C1.94850461,25.0057319 2.15587936,24.4669743 2.61616794,24.2625695 C3.07645651,24.0582689 3.61521403,24.2655916 3.81956673,24.7258281 L3.83988737,24.7713671 C4.04543848,25.2311347 3.83936633,25.7704653 3.3796509,25.9759643 C3.25876914,26.0300485 3.13236433,26.0556317 3.00799158,26.0556317 M5.04646453,29.7461206 C4.75223206,29.7461206 4.46341844,29.6038762 4.28761884,29.3409062 L4.25734629,29.2955234 C3.97853667,28.8762409 4.09243647,28.3101808 4.51177114,28.0314232 C4.93115792,27.7525615 5.49711383,27.8665134 5.77592345,28.285796 L5.80369499,28.3274794 C6.08354669,28.7461367 5.97105371,29.3124052 5.55234429,29.5922569 C5.39670902,29.696309 5.2206489,29.7461206 5.04646453,29.7461206" id="Fill-19" fill="#00933C" mask="url(#mask-2)"></path>
            </g>
            <path d="M10.4004794,7.80020842 C10.4004794,9.2361483 9.23641924,10.4001563 7.80053146,10.4001563 C6.36459158,10.4001563 5.20053146,9.2361483 5.20053146,7.80020842 C5.20053146,6.36426854 6.36459158,5.20026052 7.80053146,5.20026052 C9.23641924,5.20026052 10.4004794,6.36426854 10.4004794,7.80020842" id="Fill-22" fill="#00953C"></path>
            <path d="M46.7999739,7.80020842 C46.7999739,9.2361483 45.6359138,10.4001563 44.2000261,10.4001563 C42.7640862,10.4001563 41.6000782,9.2361483 41.6000782,7.80020842 C41.6000782,6.36426854 42.7640862,5.20026052 44.2000261,5.20026052 C45.6359138,5.20026052 46.7999739,6.36426854 46.7999739,7.80020842" id="Fill-24" fill="#00953C"></path>
            <path d="M10.4004794,44.1996822 C10.4004794,45.635622 9.23641924,46.7996301 7.80053146,46.7996301 C6.36459158,46.7996301 5.20053146,45.635622 5.20053146,44.1996822 C5.20053146,42.7637423 6.36459158,41.5997343 7.80053146,41.5997343 C9.23641924,41.5997343 10.4004794,42.7637423 10.4004794,44.1996822" id="Fill-26" fill="#00953C"></path>
            <path d="M46.7999739,44.1996822 C46.7999739,45.635622 45.6359138,46.7996301 44.2000261,46.7996301 C42.7640862,46.7996301 41.6000782,45.635622 41.6000782,44.1996822 C41.6000782,42.7637423 42.7640862,41.5997343 44.2000261,41.5997343 C45.6359138,41.5997343 46.7999739,42.7637423 46.7999739,44.1996822" id="Fill-28" fill="#00953C"></path>
            <polygon id="Fill-30" fill-opacity="0" fill="#FFFFFF" points="0.000625250501 51.9995832 51.9998958 51.9995832 51.9998958 0.00031262525 0.000625250501 0.00031262525"></polygon>
        </g>
    </g>
</svg>