<?xml version="1.0" encoding="UTF-8"?>
<svg width="52px" height="52px" viewBox="0 0 52 52" version="1.1" xmlns="http://www.w3.org/2000/svg" xmlns:xlink="http://www.w3.org/1999/xlink">
    <!-- Generator: Sketch 63.1 (92452) - https://sketch.com -->
    <title>handshake</title>
    <desc>Created with Sketch.</desc>
    <defs>
        <polygon id="path-1" points="0 51.9992705 51.3843727 51.9992705 51.3843727 0 0 0"></polygon>
    </defs>
    <g id="handshake" stroke="none" stroke-width="1" fill="none" fill-rule="evenodd">
        <g>
            <path d="M34.3843571,15.0010673 L45.2511593,26.0037046 L48.2527734,22.9645703 L37.3859712,11.9619331 L34.3843571,15.0010673 Z M45.2511593,29.1484541 C44.9219122,29.1484541 44.592665,29.0213198 44.3414327,28.7669471 L31.6552287,15.9221655 C31.1528155,15.4134721 31.1528155,14.5886625 31.6552287,14.0799691 L36.4762445,9.19869058 C36.9787092,8.68994509 37.7932331,8.68994509 38.2956978,9.19869058 L50.9819018,22.0434721 C51.484315,22.5521655 51.484315,23.3769752 50.9819018,23.8856685 L46.1608859,28.7669471 C45.9096536,29.0213198 45.5804064,29.1484541 45.2511593,29.1484541 L45.2511593,29.1484541 Z" id="Fill-1" fill="#AEADAD"></path>
            <path d="M3.10595116,23.5893571 L6.10756525,26.6284914 L16.0604726,16.5511727 L13.0589099,13.5120385 L3.10595116,23.5893571 Z M6.10756525,29.773293 C5.77831812,29.773293 5.44907098,29.6461066 5.19783864,29.3917339 L0.376822781,24.5104553 C0.135522403,24.2661387 2.57304733e-05,23.9348601 2.57304733e-05,23.5893571 C2.57304733e-05,23.2438541 0.135522403,22.9125756 0.376822781,22.6682589 L12.1491833,10.748796 C12.3904322,10.5044794 12.7176724,10.3672369 13.0589099,10.3672369 C13.400096,10.3672369 13.7273362,10.5044794 13.9685851,10.748796 L18.7896524,15.6300745 C19.2920656,16.13882 19.2920656,16.9635255 18.7896524,17.4722709 L7.01729187,29.3917339 C6.76605953,29.6461066 6.43681239,29.773293 6.10756525,29.773293 L6.10756525,29.773293 Z" id="Fill-3" fill="#AEADAD"></path>
            <path d="M13.0731646,32.2364673 C12.7443292,32.2364673 12.4155452,32.3631848 12.1651877,32.6166196 L8.79912714,36.024808 C8.5565917,36.2703752 8.42305055,36.5969122 8.42305055,36.9441868 C8.42305055,37.2914092 8.5565917,37.6178942 8.79912714,37.8634613 C9.04166258,38.1090285 9.36411688,38.244291 9.70710408,38.244291 C10.0500913,38.244291 10.3725456,38.1090285 10.615081,37.8634613 L13.981193,34.4553251 C14.2237284,34.2097579 14.3573211,33.8832208 14.3573211,33.5359984 C14.3573211,33.1887238 14.2237284,32.8622389 13.981193,32.6166717 C13.7308355,32.3632369 13.402,32.2364673 13.0731646,32.2364673 M9.70710408,40.8495014 C8.67685593,40.8495014 7.708258,40.4432449 6.97972538,39.7056577 C6.25119276,38.9679663 5.85000322,37.987313 5.85000322,36.9441868 C5.85000322,35.9010084 6.25119276,34.920303 6.97972538,34.1826637 L10.3457859,30.7744232 C11.8497321,29.2518341 14.2967001,29.2518341 15.8005948,30.7744232 C17.3044895,32.2972208 17.3044895,34.7748281 15.8005948,36.2974693 L12.4345343,39.7056577 C11.7060016,40.4432449 10.7374037,40.8495014 9.70710408,40.8495014" id="Fill-5" fill="#AEADAD"></path>
            <path d="M16.7086232,35.917291 C16.3797363,35.917291 16.0510037,36.0440084 15.8005948,36.2974954 L12.4345343,39.7056317 C12.1919988,39.9511988 12.0584062,40.2777359 12.0584062,40.6249583 C12.0584062,40.9722329 12.1919988,41.2987178 12.4345343,41.544285 C12.9351463,42.0512068 13.749876,42.0512589 14.2504881,41.544285 L17.6166001,38.1361487 C18.1172637,37.6292269 18.1172637,36.8043651 17.6166001,36.2974954 C17.3662941,36.0440605 17.0374072,35.917291 16.7086232,35.917291 M13.3425112,44.5303251 C12.3122116,44.5303251 11.3436136,44.1240685 10.6151325,43.3864814 C9.88659987,42.6488421 9.48535887,41.6681367 9.48535887,40.6250104 C9.48535887,39.5818321 9.88659987,38.6011267 10.615081,37.8634874 L13.981193,34.455299 C14.7097256,33.7177118 15.6783236,33.3114553 16.7086232,33.3114553 C17.7388713,33.3114553 18.7074693,33.7177118 19.4360019,34.455299 C20.9398966,35.9779924 20.9398966,38.4555996 19.4360533,39.978293 L16.0699414,43.3864814 C15.3414087,44.1240685 14.3728108,44.5303251 13.3425112,44.5303251" id="Fill-7" fill="#AEADAD"></path>
            <path d="M20.3457954,39.5999487 C20.0169599,39.5999487 19.6881245,39.7267182 19.4378185,39.9801531 L16.0717065,43.3882894 C15.5710944,43.8952112 15.5710944,44.7200729 16.0717065,45.2269427 C16.5724215,45.7338645 17.3870483,45.7339687 17.8877118,45.2269948 L21.2538238,41.8188064 C21.4963078,41.5732393 21.6299004,41.2467022 21.6299004,40.8994798 C21.6299004,40.5522052 21.4963078,40.2257202 21.2538238,39.9801531 C21.0034663,39.7267182 20.6746308,39.5999487 20.3457954,39.5999487 M16.9797349,48.2111591 C15.9919935,48.2111591 15.0043035,47.8304858 14.2523562,47.0691912 C12.7484615,45.5464457 12.7484615,43.0687864 14.2523047,41.5461451 L17.6183652,38.1379567 C18.3468978,37.4003695 19.3154958,36.994113 20.3457954,36.994113 C21.376095,36.994113 22.3446929,37.4003695 23.0732256,38.1379567 C23.8017067,38.875596 24.2029477,39.8563014 24.2029477,40.8994277 C24.2029477,41.942606 23.8017582,42.9233114 23.0732256,43.6609507 L19.7071136,47.0691912 C18.9551662,47.8304858 17.9674248,48.2111591 16.9797349,48.2111591" id="Fill-9" fill="#AEADAD"></path>
            <path d="M23.9812025,43.2801679 C23.6382153,43.2801679 23.315761,43.4154305 23.0732256,43.6609976 L19.7071136,47.069186 C19.4645781,47.3147531 19.331037,47.641186 19.331037,47.9884605 C19.331037,48.3357351 19.4645781,48.6622721 19.7071136,48.9078393 C19.949649,49.1534064 20.2721033,49.2886168 20.6150905,49.2886168 C20.9581292,49.2886168 21.2805835,49.1534064 21.5231189,48.9078393 L24.8892309,45.499703 C25.1317149,45.2541359 25.2653075,44.9275988 25.2653075,44.5803242 C25.2653075,44.2330497 25.1317149,43.9065126 24.8892309,43.6609976 C24.646644,43.4154305 24.3241897,43.2801679 23.9812025,43.2801679 M20.6150905,51.8938273 C19.5848424,51.8938273 18.6162444,51.4876228 17.8877118,50.7499836 C17.1591792,50.0123443 16.7579897,49.0316389 16.7579897,47.9884605 C16.7579897,46.9453343 17.1591792,45.9646289 17.8877118,45.2269896 L21.2537723,41.8188012 C21.982305,41.081214 22.9509029,40.6749575 23.9812025,40.6749575 C25.0115021,40.6749575 25.9801001,41.081214 26.7085812,41.8188012 C27.4371138,42.5563884 27.8383548,43.537198 27.8383548,44.5803242 C27.8383548,45.6235026 27.4371138,46.6042601 26.7085812,47.3418473 L23.3425207,50.7499836 C22.6140395,51.4876228 21.6453901,51.8938273 20.6150905,51.8938273" id="Fill-11" fill="#AEADAD"></path>
            <polygon id="Fill-13" fill="#AEADAD" points="37.6653938 34.1731234 35.845992 32.3309792 42.7634239 25.3270273 44.5828772 27.1691715"></polygon>
            <path d="M20.81726,31.5129587 C19.7336468,31.5129587 18.714926,31.0857042 17.9487239,30.3099246 C17.1825219,29.5341451 16.7605421,28.5027423 16.7605421,27.405584 C16.7605421,26.3084257 17.1825219,25.2769707 17.9487239,24.5011912 L24.9372748,17.4252834 L30.4100436,17.4252834 L32.6846174,15.1222774 L34.5040707,16.9644216 L31.4758513,20.0304938 L26.003031,20.0304938 L19.7681771,26.3433355 C19.4879208,26.627095 19.3335895,27.0043295 19.3335895,27.405584 C19.3335895,27.8067864 19.4879208,28.1840208 19.7681257,28.4677804 C20.048382,28.7514878 20.4209593,28.9077483 20.81726,28.9077483 C21.2135608,28.9077483 21.586138,28.7514878 21.8663429,28.4677804 L28.6480722,21.6012794 L30.467474,23.4434758 L23.6857961,30.3099246 C22.9195941,31.0857042 21.9008732,31.5129587 20.81726,31.5129587" id="Fill-15" fill="#AEADAD"></path>
            <path d="M36.5687302,40.2223543 C35.6151588,40.2223543 34.7186577,39.8463182 34.0443134,39.1636489 L29.5063842,34.5689435 L31.325786,32.7267992 L35.8637666,37.3214525 C36.0520622,37.5121018 36.3024198,37.6171439 36.5687302,37.6171439 C36.8349891,37.6171439 37.0853466,37.5121018 37.2736422,37.3214525 C37.4619378,37.1308553 37.5656316,36.8773683 37.5656316,36.6077291 C37.5656316,36.3380898 37.4619378,36.0846549 37.2736422,35.8940056 L39.0930954,34.0518092 C39.7673367,34.7345307 40.1386789,35.6422381 40.1386789,36.6077291 C40.1386789,37.57322 39.7673367,38.4809275 39.0930954,39.1636489 C38.4187512,39.8463182 37.52225,40.2223543 36.5687302,40.2223543" id="Fill-17" fill="#AEADAD"></path>
            <path d="M23.5249137,21.6858236 L20.6522608,21.0381683 C18.8881795,20.640509 17.2802308,19.7462966 16.0022496,18.4523407 L17.8215999,16.6101964 C18.7533004,17.5534389 19.9255293,18.2053146 21.2114869,18.4952745 L24.0841398,19.1428778 L23.5249137,21.6858236 Z" id="Fill-19" fill="#AEADAD"></path>
            <path d="M36.5687302,40.2206244 C35.654475,40.2206244 34.7403227,39.8682958 34.0443134,39.1636385 L29.5063842,34.5689331 L31.325786,32.7267888 L35.8637666,37.3214421 C36.2524512,37.7150373 36.8850091,37.7149331 37.2736422,37.3214421 C37.6623782,36.9279511 37.6623782,36.2875383 37.2736422,35.8939952 L26.8124551,25.3020433 L28.6319084,23.4598469 L39.0930954,34.0517988 C40.4850111,35.4611655 40.4850111,37.7542717 39.0930954,39.1636385 C38.3970861,39.8682958 37.4829339,40.2206244 36.5687302,40.2206244" id="Fill-21" fill="#AEADAD"></path>
            <path d="M33.3477483,43.4835463 C32.394177,43.4835463 31.4976758,43.1075623 30.8233831,42.424893 L26.2854024,37.8301355 L28.1048042,35.9879912 L32.6428363,40.5826966 C32.8311319,40.7733459 33.0814379,40.8783359 33.3477483,40.8783359 C33.6140587,40.8783359 33.8643648,40.7733459 34.0526604,40.5826966 C34.240956,40.3920473 34.3447013,40.1385603 34.3447013,39.8689731 C34.3447013,39.5993339 34.240956,39.345899 34.0527118,39.1552497 L29.4296662,34.4744681 L31.2491195,32.6322717 L35.8721136,37.3130533 C36.5463549,37.9957747 36.9177486,38.9034822 36.9177486,39.8689731 C36.9177486,40.834412 36.5463549,41.7421194 35.8721136,42.424893 C35.1978208,43.1075623 34.3013197,43.4835463 33.3477483,43.4835463" id="Fill-23" fill="#AEADAD"></path>
            <path d="M30.1224438,46.7492192 C29.1688725,46.7492192 28.2723713,46.3731832 27.5980271,45.6905138 L23.0600464,41.0958084 L24.8794996,39.2536641 L29.4174803,43.8483174 C29.6057759,44.0389667 29.8561334,44.1440088 30.1224438,44.1440088 C30.3887027,44.1440088 30.6390602,44.0389667 30.8273558,43.8483174 C31.2160404,43.4547743 31.2160404,42.8144136 30.8273558,42.4208184 L26.2043617,37.740089 L28.0238149,35.8978926 L32.6468091,40.5786741 C34.0387248,41.9880409 34.0387248,44.2811992 32.6468091,45.6905138 C31.9724648,46.3731832 31.0759637,46.7492192 30.1224438,46.7492192" id="Fill-25" fill="#AEADAD"></path>
            <path d="M26.8917101,50.0186072 C25.9775064,50.0186072 25.0633542,49.6662786 24.3673963,48.9616212 L23.8283944,48.4158818 L25.6478476,46.5737375 L26.1867981,47.119477 C26.5754312,47.5129679 27.2078862,47.51302 27.5966222,47.1194248 C27.7849178,46.9287756 27.8886631,46.6752886 27.8886631,46.4056493 C27.8886631,46.1360621 27.7849178,45.8825752 27.5966222,45.6919259 L22.9736795,41.0111964 L24.7930813,39.169 L29.4160754,43.8497295 C30.0903167,44.532503 30.4617104,45.4402104 30.4617104,46.4056493 C30.4617104,47.3711403 30.0903167,48.2788477 29.4160754,48.9616212 C28.7200661,49.6662265 27.8059139,50.0186072 26.8917101,50.0186072" id="Fill-27" fill="#AEADAD"></path>
            <polygon id="Fill-29" fill="#AEADAD" points="7.86538371 34.36358 5.599198 28.2209627 8.00957728 27.3093475 10.275763 33.4519647"></polygon>
            <mask id="mask-2" fill="white">
                <use xlink:href="#path-1"></use>
            </mask>
            <g id="Clip-32"></g>
            <polygon id="Fill-31" fill="#00953C" mask="url(#mask-2)" points="24.4192484 7.79989579 26.9922957 7.79989579 26.9922957 0 24.4192484 0"></polygon>
            <polygon id="Fill-33" fill="#00953C" mask="url(#mask-2)" points="32.5093981 10.4876393 30.3169044 9.12417635 35.0839378 1.26576754 37.2764828 2.62923046"></polygon>
            <polygon id="Fill-34" fill="#00953C" mask="url(#mask-2)" points="19.2810427 10.4876393 14.5140094 2.62923046 16.706503 1.26576754 21.4735363 9.12417635"></polygon>
            <polygon id="Fill-35" fill-opacity="0" fill="#FFFFFF" mask="url(#mask-2)" points="0.0271199189 51.9992705 51.3844242 51.9992705 51.3844242 0 0.0271199189 0"></polygon>
        </g>
    </g>
</svg>