<?xml version="1.0" encoding="UTF-8"?>
<svg width="52px" height="52px" viewBox="0 0 52 52" version="1.1" xmlns="http://www.w3.org/2000/svg" xmlns:xlink="http://www.w3.org/1999/xlink">
    <!-- Generator: Sketch 63.1 (92452) - https://sketch.com -->
    <title>network-connection-with-tick</title>
    <desc>Created with Sketch.</desc>
    <defs>
        <polygon id="path-1" points="0 0.0220128128 28.7896725 0.0220128128 28.7896725 28.8116905 0 28.8116905"></polygon>
    </defs>
    <g id="network-connection-with-tick" stroke="none" stroke-width="1" fill="none" fill-rule="evenodd">
        <g>
            <g id="Group-3" transform="translate(0.000000, 15.516613)">
                <mask id="mask-2" fill="white">
                    <use xlink:href="#path-1"></use>
                </mask>
                <g id="Clip-2"></g>
                <path d="M14.3948336,2.62461542 C11.2450078,2.62461542 8.28371451,3.85122202 6.05645926,6.07847728 C3.82925606,8.30573253 2.6025974,11.2670258 2.6025974,14.4168517 C2.6025974,17.5666775 3.82925606,20.5279708 6.05645926,22.755226 C8.28371451,24.9824813 11.2450078,26.2090879 14.3948336,26.2090879 C17.5446595,26.2090879 20.5059528,24.9824813 22.733208,22.755226 C24.9604112,20.5279708 26.1870699,17.5666775 26.1870699,14.4168517 C26.1870699,11.2670258 24.9604112,8.30573253 22.733208,6.07847728 C20.5059528,3.85122202 17.5446595,2.62461542 14.3948336,2.62461542 M14.3948336,28.8116905 C10.5498527,28.8116905 6.93499379,27.3143612 4.21615896,24.5955263 C1.49732412,21.8766915 -5.20520521e-06,18.2618847 -5.20520521e-06,14.4168517 C-5.20520521e-06,10.5718707 1.49732412,6.95695976 4.21615896,4.23817698 C6.93499379,1.51934214 10.5498527,0.0220128128 14.3948336,0.0220128128 C18.2398146,0.0220128128 21.8546735,1.51934214 24.5735083,4.23817698 C27.2923431,6.95695976 28.7896725,10.5718707 28.7896725,14.4168517 C28.7896725,18.2618847 27.2923431,21.8766915 24.5735083,24.5955263 C21.8546735,27.3143612 18.2398146,28.8116905 14.3948336,28.8116905" id="Fill-1" fill="#AEADAD" mask="url(#mask-2)"></path>
            </g>
            <path d="M23.378846,2.60261822 C21.2318551,2.60261822 19.4850923,4.34938098 19.4850923,6.49642402 C19.4850923,8.64346707 21.2318551,10.3901778 23.378846,10.3901778 C25.5258891,10.3901778 27.2726519,8.64346707 27.2726519,6.49642402 C27.2726519,4.34938098 25.5258891,2.60261822 23.378846,2.60261822 M23.378846,12.9927804 C19.79678,12.9927804 16.8824897,10.0785421 16.8824897,6.49642402 C16.8824897,2.91430591 19.79678,1.56156156e-05 23.378846,1.56156156e-05 C26.9609642,1.56156156e-05 29.8752545,2.91430591 29.8752545,6.49642402 C29.8752545,10.0785421 26.9609642,12.9927804 23.378846,12.9927804" id="Fill-4" fill="#AEADAD"></path>
            <path d="M44.1577806,15.8438691 C41.2947095,15.8438691 38.9654843,18.1731463 38.9654843,21.0361133 C38.9654843,23.8991844 41.2947095,26.2284096 44.1577806,26.2284096 C47.0207996,26.2284096 49.3500248,23.8991844 49.3500248,21.0361133 C49.3500248,18.1731463 47.0207996,15.8438691 44.1577806,15.8438691 M44.1577806,28.8310122 C39.8596865,28.8310122 36.3628817,25.3342595 36.3628817,21.0361133 C36.3628817,16.7380192 39.8596865,13.2412665 44.1577806,13.2412665 C48.4558747,13.2412665 51.9526274,16.7380192 51.9526274,21.0361133 C51.9526274,25.3342595 48.4558747,28.8310122 44.1577806,28.8310122" id="Fill-6" fill="#AEADAD"></path>
            <path d="M36.5791215,38.9658851 C33.7160505,38.9658851 31.3868252,41.2951103 31.3868252,44.1581293 C31.3868252,47.0212004 33.7160505,49.3504256 36.5791215,49.3504256 C39.4421926,49.3504256 41.7714178,47.0212004 41.7714178,44.1581293 C41.7714178,41.2951103 39.4421926,38.9658851 36.5791215,38.9658851 M36.5791215,51.9530282 C32.2810274,51.9530282 28.7842226,48.4562755 28.7842226,44.1581293 C28.7842226,39.8600352 32.2810274,36.3632825 36.5791215,36.3632825 C40.8772156,36.3632825 44.3740204,39.8600352 44.3740204,44.1581293 C44.3740204,48.4562755 40.8772156,51.9530282 36.5791215,51.9530282" id="Fill-8" fill="#AEADAD"></path>
            <polygon id="Fill-10" fill="#00933D" points="12.9980689 35.9253634 6.16748629 29.0948328 8.00783864 27.2544805 12.9980689 32.2447107 20.7818286 24.4608989 22.622181 26.3012513"></polygon>
            <polygon id="Fill-12" fill="#AEADAD" points="27.1444841 28.149427 26.1688204 25.7366062 37.3724 21.206412 38.3480637 23.6192328"></polygon>
            <polygon id="Fill-14" fill="#AEADAD" points="30.4001786 42.035608 24.3013437 38.3390795 25.6503247 36.1133858 31.7491596 39.8099143"></polygon>
            <polygon id="Fill-16" fill="#AEADAD" points="29.8152541 12.0103447 27.8585654 10.7227331 29.2893201 8.54867508 31.2459568 9.83623463"></polygon>
            <polygon id="Fill-18" fill="#AEADAD" points="34.1324721 14.8512208 31.9738735 13.4307724 33.4045241 11.2566623 35.5630707 12.6771107"></polygon>
            <polygon id="Fill-20" fill="#AEADAD" points="38.2477385 17.5593017 36.2909978 16.2716901 37.7216484 14.09758 39.6783371 15.3851395"></polygon>
            <polygon id="Fill-22" fill-opacity="0" fill="#FFFFFF" points="0.0026026026 51.9502382 51.9498218 51.9502382 51.9498218 0.00301901902 0.0026026026 0.00301901902"></polygon>
        </g>
    </g>
</svg>