<?xml version="1.0" encoding="UTF-8"?>
<svg width="52px" height="53px" viewBox="0 0 52 53" version="1.1" xmlns="http://www.w3.org/2000/svg" xmlns:xlink="http://www.w3.org/1999/xlink">
    <!-- Generator: Sketch 63.1 (92452) - https://sketch.com -->
    <title>paying-with-phone</title>
    <desc>Created with Sketch.</desc>
    <defs>
        <polygon id="path-1" points="0 51.9992713 51.9992713 51.9992713 51.9992713 0 0 0"></polygon>
    </defs>
    <g id="paying-with-phone" stroke="none" stroke-width="1" fill="none" fill-rule="evenodd" transform="translate(0.000000, 1.000000)">
        <g>
            <path d="M26.2027323,8.29761762 C25.4477694,7.5426026 24.4439455,7.12686286 23.3762539,7.12686286 C22.3085622,7.12686286 21.3047383,7.5426026 20.5497754,8.29761762 L18.709423,6.45731732 C19.9560176,5.21072272 21.613407,4.52426026 23.3762539,4.52426026 C25.1391007,4.52426026 26.7964901,5.21072272 28.0430326,6.45731732 L26.2027323,8.29761762 Z" id="Fill-1" fill="#00933C"></path>
            <path d="M29.3337622,5.16656176 C26.0488092,1.88166086 20.7037401,1.88166086 17.4187351,5.16656176 L15.5784348,3.32626146 C19.8781946,-0.973498298 26.8743548,-0.973394194 31.1740625,3.32626146 L29.3337622,5.16656176 Z" id="Fill-3" fill="#00933C"></path>
            <path d="M21.3375467,24.4579475 C21.3375467,23.9991608 21.5010943,23.6628004 21.8515087,23.3999896 C22.0505037,23.2522138 22.2815107,23.1450907 22.5404697,23.0802859 L22.5404697,25.860438 C22.1499752,25.7190647 21.8595247,25.5518214 21.6750523,25.3616232 L21.6751043,25.3616232 C21.444826,25.1242138 21.3375467,24.8370426 21.3375467,24.4579475 L21.3375467,24.4579475 Z M24.0444096,27.9235732 C24.6345758,28.1093469 24.9121173,28.2812749 25.0432885,28.3994851 C25.2811143,28.6105041 25.4017189,28.9643019 25.4017189,29.4509886 C25.4017189,29.9349686 25.2171423,30.2926703 24.8184757,30.578384 C24.5933506,30.7446382 24.333819,30.8671167 24.0444096,30.9437894 L24.0444096,27.9235732 Z M26.1604296,27.2823439 C25.7064316,26.9046543 25.0132545,26.5801618 24.0444096,26.2922619 L24.0444096,23.0839816 C24.2729702,23.1349405 24.4663435,23.2172869 24.6204176,23.329355 C24.9284617,23.5592168 25.0831083,23.8856352 25.1070002,24.3562899 C25.1092905,24.6161337 25.1979351,24.8400096 25.362784,25.0032969 C25.5209181,25.1614831 25.7191323,25.2450266 25.9360332,25.2450266 C26.1665197,25.2450266 26.3672845,25.1587764 26.5169341,24.9954891 C26.6815748,24.8269966 26.7650663,24.608378 26.7650663,24.3457233 C26.7650663,23.5041457 26.4709201,22.8108124 25.8889782,22.2835251 C25.4063516,21.8559175 24.7865157,21.5931067 24.0444096,21.5009225 L24.0444096,21.1060036 C24.0444096,20.653411 23.7464637,20.3610346 23.2853866,20.3610346 C22.832846,20.3610346 22.5404697,20.653411 22.5404697,21.1060036 L22.5404697,21.4972789 C21.7964897,21.5830607 21.1636929,21.8460276 20.6564456,22.2810787 C19.99882,22.8527664 19.6654266,23.6181918 19.6654266,24.5560657 C19.6654266,25.3753129 19.9667039,26.0470967 20.5602535,26.552366 C21.0123776,26.9401017 21.6780713,27.2539235 22.5404697,27.4861277 L22.5404697,30.9569065 C22.155753,30.8758615 21.8459391,30.7398494 21.6184196,30.5521497 C21.2229281,30.2179756 21.0346559,29.7208785 21.042828,29.0299916 C21.042828,28.7680657 20.9642294,28.5542879 20.8092184,28.3947483 C20.6596729,28.2311487 20.4634887,28.1446903 20.2415908,28.1446903 C20.0196929,28.1446903 19.8235087,28.2311487 19.6739632,28.3948004 C19.5189522,28.554444 19.4404577,28.7681698 19.4404577,29.0299916 C19.4404577,30.283353 19.8271524,31.2236733 20.5899231,31.8248224 L20.5938791,31.8278935 C21.0692184,32.1844501 21.7232525,32.4227443 22.539845,32.5370507 L22.539845,33.2105001 C22.5409902,33.6710046 22.8336268,33.9685862 23.2853866,33.9685862 C23.7464637,33.9685862 24.0444096,33.6706402 24.0444096,33.2095632 L24.0444096,32.5518334 C24.8196208,32.4351327 25.4897389,32.139425 26.0392525,31.6708525 C26.7350843,31.071369 27.0878931,30.2961057 27.0878931,29.3666122 C27.0878931,28.4896392 26.7755287,27.7881337 26.1604296,27.2823439 L26.1604296,27.2823439 Z" id="Fill-5" fill="#00953C"></path>
            <path d="M41.6782551,51.9071183 L39.5954963,51.9071183 L39.5954963,35.6651604 C39.5954963,35.0439712 39.3217025,34.4597389 38.8443852,34.0622174 L38.8280929,34.0483195 L32.3063351,28.3858891 L33.6718166,26.8131884 L40.1860789,32.4690603 C41.1345714,33.2633746 41.6782551,34.4275708 41.6782551,35.6651604 L41.6782551,51.9071183 Z" id="Fill-7" fill="#ABABAB"></path>
            <path d="M34.0931467,50.6334671 C32.5741117,50.0406983 31.2118575,48.8102398 30.3556533,47.2575792 C29.557435,45.8100637 29.2437694,44.1979596 29.451353,42.658364 L24.5450827,37.7520937 C23.9866162,37.1936272 23.6789886,36.4510527 23.6789886,35.6612148 C23.6789886,34.871429 23.9866162,34.1288545 24.5450827,33.5703359 C25.1035491,33.0118695 25.8461758,32.7042939 26.6359616,32.7042939 C27.4257994,32.7042939 28.168374,33.0118695 28.7268404,33.5703359 L36.4117013,41.2551968 L34.9389405,42.7279576 L27.2540797,35.0430967 C27.0889706,34.8779876 26.8694671,34.7870006 26.6359616,34.7870006 C26.4024561,34.7870006 26.1829526,34.8779876 26.0178434,35.0430967 C25.8526823,35.2082058 25.7617473,35.4277614 25.7617473,35.6612148 C25.7617473,35.8947724 25.8526823,36.1142238 26.0178434,36.279385 L31.7128585,41.9744 L31.5876212,42.533387 C31.3158575,43.7463039 31.5260436,45.0668645 32.1795051,46.2517774 C32.8042859,47.3848464 33.7777634,48.2746763 34.8503479,48.6932789 L34.0931467,50.6334671 Z" id="Fill-9" fill="#ABABAB"></path>
            <path d="M34.1006422,36.4823255 L34.1006422,14.87682 C34.1006422,12.4311544 32.1109526,10.4415167 29.6653389,10.4415167 L16.8727143,10.4415167 C14.4270486,10.4415167 12.437411,12.4311544 12.437411,14.87682 L12.437411,43.9883876 C12.437411,46.4340012 14.4270486,48.4236909 16.8727143,48.4236909 L28.9234931,48.4236909 C28.8705041,48.335827 28.8189205,48.2469742 28.7692629,48.1568721 C28.447373,47.5731083 28.204394,46.9626418 28.0425121,46.3408801 L16.8727143,46.3408801 C15.5755251,46.3408801 14.5201698,45.2855768 14.5201698,43.9883876 L14.5201698,43.9362314 L12.87241,43.9362314 L12.87241,41.8534727 L14.5201698,41.8534727 L14.5201698,17.0116829 L12.87241,17.0116829 L12.87241,14.9289241 L14.5201698,14.9289241 L14.5201698,14.87682 C14.5201698,13.5796308 15.5755251,12.5242755 16.8727143,12.5242755 L29.6653389,12.5242755 C30.9625281,12.5242755 32.0178835,13.5796308 32.0178835,14.87682 L32.0178835,14.9289241 L33.7323219,14.9289241 L33.7323219,17.0116829 L32.0178835,17.0116829 L32.0178835,34.4037309 L34.1006422,36.4823255 Z" id="Fill-11" fill="#AAAAAA"></path>
            <mask id="mask-2" fill="white">
                <use xlink:href="#path-1"></use>
            </mask>
            <g id="Clip-14"></g>
            <polygon id="Fill-13" fill="#AAAAAA" mask="url(#mask-2)" points="14.5201802 17.0116517 32.0178939 17.0116517 32.0178939 14.9288929 14.5201802 14.9288929"></polygon>
            <polygon id="Fill-15" fill="#AAAAAA" mask="url(#mask-2)" points="12.8724204 17.0116517 14.5201802 17.0116517 14.5201802 14.9288929 12.8724204 14.9288929"></polygon>
            <polygon id="Fill-16" fill="#AAAAAA" mask="url(#mask-2)" points="32.0178939 17.0116517 33.7323323 17.0116517 33.7323323 14.9288929 32.0178939 14.9288929"></polygon>
            <path d="M27.8649678,43.5576412 L26.1608356,41.8535091 L14.520175,41.8535091 L14.520175,43.9362158 L27.8248877,43.9362158 C27.8349337,43.8096773 27.8479988,43.683399 27.8649678,43.5576412" id="Fill-17" fill="#AAAAAA" mask="url(#mask-2)"></path>
            <polygon id="Fill-18" fill="#AAAAAA" mask="url(#mask-2)" points="12.8724204 43.9362523 14.5201802 43.9362523 14.5201802 41.8534935 12.8724204 41.8534935"></polygon>
            <polygon id="Fill-19" fill-opacity="0" fill="#FFFFFF" mask="url(#mask-2)" points="0 51.9992713 51.9992713 51.9992713 51.9992713 0 0 0"></polygon>
        </g>
    </g>
</svg>