<?xml version="1.0" encoding="UTF-8"?>
<svg width="52px" height="52px" viewBox="0 0 52 52" version="1.1" xmlns="http://www.w3.org/2000/svg" xmlns:xlink="http://www.w3.org/1999/xlink">
    <!-- Generator: Sketch 63.1 (92452) - https://sketch.com -->
    <title>people</title>
    <desc>Created with Sketch.</desc>
    <defs>
        <polygon id="path-1" points="0 51.9992705 51.9992705 51.9992705 51.9992705 0 0 0"></polygon>
    </defs>
    <g id="people" stroke="none" stroke-width="1" fill="none" fill-rule="evenodd">
        <g>
            <path d="M25.95382,15.9224 C23.0620886,15.9224 20.7095315,18.2750092 20.7095315,21.1666886 L20.7095315,23.4386405 C20.7095315,26.3303198 23.0620886,28.6828248 25.9537679,28.6828248 L25.95382,28.6828248 C28.8454994,28.6828248 31.1980565,26.3303198 31.1980565,23.4386405 L31.1980565,21.1666886 C31.1980565,18.2750092 28.8454994,15.9224 25.95382,15.9224 M25.95382,30.7669932 C21.9128782,30.7669932 18.6253631,27.4795824 18.6253631,23.4386405 L18.6253631,21.1666886 C18.6253631,17.1257988 21.9128261,13.8382317 25.9537679,13.8382317 C29.9947098,13.8382317 33.2822248,17.1257988 33.2822248,21.1666886 L33.2822248,23.4386405 C33.2822248,27.4795824 29.9947619,30.7669932 25.95382,30.7669932" id="Fill-1" fill="#AAAAAA"></path>
            <mask id="mask-2" fill="white">
                <use xlink:href="#path-1"></use>
            </mask>
            <g id="Clip-4"></g>
            <polygon id="Fill-3" fill="#AAAAAA" mask="url(#mask-2)" points="17.6789058 49.3401323 19.7630741 49.3401323 19.7630741 41.4355591 17.6789058 41.4355591"></polygon>
            <path d="M40.0149327,49.3988485 L37.9307643,49.3988485 L37.9307643,40.1801551 C37.9307643,38.9148044 37.5279988,37.7119267 36.7659747,36.7017303 C36.0040028,35.6914818 34.9580629,34.9736942 33.7413255,34.626107 L29.1502152,33.3144357 L26.6906882,35.7739106 C26.4952453,35.9694056 26.2301912,36.0791892 25.9538305,36.0791892 C25.6774176,36.0791892 25.4123635,35.9694056 25.2169206,35.7740148 L22.7674497,33.3244918 L18.7776741,34.552119 C17.5884998,34.9179427 16.5691852,35.6403675 15.8299828,36.6412373 C15.0907804,37.642107 14.7000509,38.8288325 14.7000509,40.0730289 L14.7000509,49.3988485 L12.6158826,49.3988485 L12.6158826,40.0730289 C12.6158826,38.3798505 13.147606,36.7649848 14.1534778,35.403085 C15.1594016,34.0411331 16.5464677,33.0579788 18.1647723,32.560123 L22.7542152,31.1479427 C23.1230609,31.0342513 23.5246802,31.134083 23.7975499,31.4070048 L25.9538305,33.5633375 L28.1100589,31.407109 C28.3776661,31.1395018 28.7693335,31.0380028 29.1331772,31.1418986 L34.3138986,32.6221271 C35.969614,33.0952333 37.3929447,34.0719788 38.4298705,35.4466441 C39.4667964,36.8213615 40.0149327,38.4581631 40.0149327,40.1801551 L40.0149327,49.3988485 Z" id="Fill-5" fill="#AAAAAA" mask="url(#mask-2)"></path>
            <polygon id="Fill-6" fill="#AAAAAA" mask="url(#mask-2)" points="32.8678036 49.3401323 34.9519719 49.3401323 34.9519719 41.4355591 32.8678036 41.4355591"></polygon>
            <polygon id="Fill-7" fill="#AAAAAA" mask="url(#mask-2)" points="22.0185611 32.1439198 24.1027295 32.1439198 24.1027295 29.475507 22.0185611 29.475507"></polygon>
            <polygon id="Fill-8" fill="#AAAAAA" mask="url(#mask-2)" points="27.8048377 32.1439198 29.889006 32.1439198 29.889006 29.475507 27.8048377 29.475507"></polygon>
            <path d="M41.9325655,10.0788922 C40.1730064,10.0788922 38.7415996,11.5103511 38.7415996,13.2698581 L38.7415996,14.7997419 C38.7415996,16.5592489 40.1730064,17.9907078 41.9325655,17.9907078 C43.6921246,17.9907078 45.1235315,16.5592489 45.1235315,14.7997419 L45.1235315,13.2698581 C45.1235315,11.5103511 43.6921246,10.0788922 41.9325655,10.0788922 M41.9325655,20.0748762 C39.0238481,20.0748762 36.6574313,17.7085114 36.6574313,14.7997419 L36.6574313,13.2698581 C36.6574313,10.3611928 39.0238481,7.99472385 41.9325655,7.99472385 C44.841283,7.99472385 47.2076998,10.3611928 47.2076998,13.2698581 L47.2076998,14.7997419 C47.2076998,17.7085114 44.841283,20.0748762 41.9325655,20.0748762" id="Fill-9" fill="#AAAAAA" mask="url(#mask-2)"></path>
            <path d="M51.741386,34.0950661 L49.6572176,34.0950661 L49.6572176,26.5728337 C49.6572176,24.8863768 48.5247327,23.384994 46.9032497,22.9216834 L44.1840353,22.1447575 L42.9746445,23.3541483 L42.9746445,34.0950661 L40.8904762,34.0950661 L40.8904762,22.9224649 C40.8904762,22.6461042 41.0003118,22.3811022 41.1957026,22.1856072 L43.1438269,20.237483 C43.4114862,19.9699279 43.8031014,19.8683768 44.1669972,19.9723768 L47.4757707,20.9177034 C48.7146004,21.2716473 49.7795583,22.0024088 50.55539,23.0310501 C51.3312737,24.0596914 51.741386,25.2843487 51.741386,26.5728337 L51.741386,34.0950661 Z" id="Fill-10" fill="#AAAAAA" mask="url(#mask-2)"></path>
            <path d="M42.9746497,34.0950661 L40.8904814,34.0950661 L40.8904814,23.3541483 L39.2475315,21.7112505 C39.0521407,21.5157555 38.942305,21.2507535 38.942305,20.9743928 L38.942305,19.1774749 L41.0264733,19.1774749 L41.0264733,20.5426573 L42.6694754,22.1856072 C42.8648661,22.3811022 42.9746497,22.6461042 42.9746497,22.9224649 L42.9746497,34.0950661 Z" id="Fill-11" fill="#AAAAAA" mask="url(#mask-2)"></path>
            <polygon id="Fill-12" fill="#AAAAAA" mask="url(#mask-2)" points="42.8386212 20.9743928 44.9227896 20.9743928 44.9227896 19.1775271 42.8386212 19.1775271"></polygon>
            <path d="M9.98789739,10.0788922 C8.22833828,10.0788922 6.79687936,11.5103511 6.79687936,13.2698581 L6.79687936,14.7997419 C6.79687936,16.5592489 8.22828617,17.9907078 9.98784529,17.9907078 C11.7474044,17.9907078 13.1788633,16.5592489 13.1788633,14.7997419 L13.1788633,13.2698581 C13.1788633,11.5103511 11.7474565,10.0788922 9.98789739,10.0788922 M9.98789739,20.0748762 L9.98784529,20.0748762 C7.07912786,20.0748762 4.71271102,17.7085114 4.71271102,14.7997419 L4.71271102,13.2698581 C4.71271102,10.3611928 7.07912786,7.99472385 9.98784529,7.99472385 C12.8965627,7.99472385 15.2630317,10.3611928 15.2630317,13.2698581 L15.2630317,14.7997419 C15.2630317,17.7085114 12.8966148,20.0748762 9.98789739,20.0748762" id="Fill-13" fill="#AAAAAA" mask="url(#mask-2)"></path>
            <polygon id="Fill-14" fill="#AAAAAA" mask="url(#mask-2)" points="3.58836473 34.0554669 5.67253307 34.0554669 5.67253307 27.3021884 3.58836473 27.3021884"></polygon>
            <polygon id="Fill-15" fill="#AAAAAA" mask="url(#mask-2)" points="45.7572906 34.0554669 47.8414589 34.0554669 47.8414589 27.3021884 45.7572906 27.3021884"></polygon>
            <path d="M2.26324529,34.0950661 L0.179076954,34.0950661 L0.179076954,25.8197715 C0.179076954,23.6510381 1.63538958,21.7203166 3.7206521,21.1245571 L7.75341363,19.9723768 C8.11725731,19.8682725 8.50902886,19.9699279 8.77653186,20.237483 L9.98790261,21.4488016 L10.8939948,20.5426573 L10.8939948,19.1774749 L12.9781631,19.1774749 L12.9781631,20.9743928 C12.9781631,21.2507535 12.8683275,21.5157555 12.6729367,21.7112505 L10.7247603,23.6593747 C10.3178265,24.0662044 9.65803086,24.0663086 9.25104489,23.6593747 L7.73642766,22.1447575 L4.29317315,23.1285371 C3.09800681,23.469976 2.26324529,24.5766693 2.26324529,25.8197715 L2.26324529,34.0950661 Z" id="Fill-16" fill="#AAAAAA" mask="url(#mask-2)"></path>
            <polygon id="Fill-17" fill="#AAAAAA" mask="url(#mask-2)" points="6.99759519 20.9743928 9.08176353 20.9743928 9.08176353 19.1775271 6.99759519 19.1775271"></polygon>
            <path d="M30.6664529,22.3492301 C27.6777555,22.3493343 25.1538798,21.0357351 23.9368818,20.2704806 C22.3918878,21.488677 20.0203647,21.5559435 19.7125852,21.5594345 L19.6887214,19.4753703 L19.7006533,20.5174545 L19.6866373,19.4754745 C20.3294469,19.4654705 22.3094589,19.2314184 22.9538838,18.3174585 C23.1183768,18.0842401 23.3712906,17.9286048 23.6536954,17.8869735 C23.9362044,17.845186 24.2231944,17.9214665 24.4479198,18.0974224 C24.4820481,18.1238914 28.0726533,20.866188 32.053519,20.1414184 L32.4267936,22.1918754 C31.8271784,22.3010858 31.2380361,22.3491259 30.6664529,22.3492301" id="Fill-18" fill="#AAAAAA" mask="url(#mask-2)"></path>
            <path d="M12.7119731,16.1682694 C11.5521856,16.1683735 10.3742657,15.7325218 9.23063046,14.8693114 C8.64398918,14.4266341 8.1614521,13.9397202 7.81162445,13.5435198 C7.47028978,13.6531992 7.11321964,13.6954557 6.79939599,13.7052513 C6.2039491,13.7234357 5.68624168,13.6372553 5.62908337,13.6272513 L5.98370461,11.5734076 C6.41512745,11.6463014 6.97967655,11.6375479 7.1869992,11.5598084 C7.37139599,11.2972553 7.66833788,11.1323976 7.9930513,11.1178084 C8.35564449,11.1021772 8.70020962,11.2749547 8.90320762,11.5755439 C8.90815752,11.5826822 9.54424569,12.5064377 10.5244822,13.2344377 C11.6916685,14.1015038 12.763921,14.3013756 13.8021495,13.8455679 L14.6397768,15.7539888 C14.0093679,16.0306621 13.3634321,16.1682694 12.7119731,16.1682694" id="Fill-19" fill="#AAAAAA" mask="url(#mask-2)"></path>
            <path d="M12.9037479,10.1719086 L11.252305,8.90046172 C11.3976236,8.71168818 11.4744253,8.48534749 11.4744253,8.24598076 C11.4744253,7.65350381 10.9923571,7.17143567 10.3998281,7.17143567 C9.807299,7.17143567 9.32523086,7.65350381 9.32523086,8.24598076 C9.32523086,8.44637355 9.38051343,8.64155591 9.48508657,8.81037355 L7.71312665,9.90763607 C7.40430501,9.40894669 7.24106253,8.83439359 7.24106253,8.24598076 C7.24106253,6.50424128 8.65814068,5.08726733 10.3998281,5.08726733 C12.1415675,5.08726733 13.5585936,6.50424128 13.5585936,8.24598076 C13.5585936,8.94938758 13.3321487,9.61543567 12.9037479,10.1719086" id="Fill-20" fill="#AAAAAA" mask="url(#mask-2)"></path>
            <path d="M11.0167002,25.9207078 C11.0167002,26.4889042 10.5560469,26.9495054 9.98790261,26.9495054 C9.41970621,26.9495054 8.95910501,26.4889042 8.95910501,25.9207078 C8.95910501,25.3525635 9.41970621,24.8919102 9.98790261,24.8919102 C10.5560469,24.8919102 11.0167002,25.3525635 11.0167002,25.9207078" id="Fill-21" fill="#AAAAAA" mask="url(#mask-2)"></path>
            <path d="M11.0167002,29.3111495 C11.0167002,29.8793459 10.5560469,30.3399471 9.98790261,30.3399471 C9.41970621,30.3399471 8.95910501,29.8793459 8.95910501,29.3111495 C8.95910501,28.7430052 9.41970621,28.2823519 9.98790261,28.2823519 C10.5560469,28.2823519 11.0167002,28.7430052 11.0167002,29.3111495" id="Fill-22" fill="#AAAAAA" mask="url(#mask-2)"></path>
            <path d="M11.0167002,32.2022192 C11.0167002,32.7704156 10.5560469,33.2310168 9.98790261,33.2310168 C9.41970621,33.2310168 8.95910501,32.7704156 8.95910501,32.2022192 C8.95910501,31.6340228 9.41970621,31.1734216 9.98790261,31.1734216 C10.5560469,31.1734216 11.0167002,31.6340228 11.0167002,32.2022192" id="Fill-23" fill="#AAAAAA" mask="url(#mask-2)"></path>
            <path d="M8.30850581,46.0443327 C5.78973627,43.6722886 3.80472224,40.8721563 2.40858998,37.7218838 L4.31404088,36.8774309 C5.59710701,39.7726012 7.42174429,42.3462365 9.73741162,44.5271102 L8.30850581,46.0443327 Z" id="Fill-24" fill="#00953C" mask="url(#mask-2)"></path>
            <path d="M44.2514529,45.4035134 L42.7696613,43.9378741 C44.8018297,41.883301 46.4233647,39.5079222 47.5891443,36.8774413 L49.4945952,37.7218942 C48.226014,40.5841868 46.4619739,43.1686076 44.2514529,45.4035134" id="Fill-25" fill="#00953C" mask="url(#mask-2)"></path>
            <path d="M34.7134858,5.31868818 C31.9277343,4.20761804 28.980616,3.64421523 25.9538305,3.64421523 C22.9595579,3.64421523 20.0419307,4.19579038 17.2819186,5.28377836 L16.5175499,3.34482445 C19.5220349,2.1606 22.6968485,1.56004689 25.9538305,1.56004689 C29.2461912,1.56004689 32.4531531,2.17331343 35.4855659,3.38280842 L34.7134858,5.31868818 Z" id="Fill-26" fill="#00953C" mask="url(#mask-2)"></path>
            <polygon id="Fill-27" fill-opacity="0" fill="#FFFFFF" mask="url(#mask-2)" points="5.21042084e-05 51.9992705 51.9993226 51.9992705 51.9993226 0 5.21042084e-05 0"></polygon>
        </g>
    </g>
</svg>