<?xml version="1.0" encoding="UTF-8"?>
<svg width="52px" height="52px" viewBox="0 0 52 52" version="1.1" xmlns="http://www.w3.org/2000/svg" xmlns:xlink="http://www.w3.org/1999/xlink">
    <!-- Generator: Sketch 63.1 (92452) - https://sketch.com -->
    <title>personal-data</title>
    <desc>Created with Sketch.</desc>
    <defs>
        <polygon id="path-1" points="0 51.3066667 51.895272 51.3066667 51.895272 0.0442706173 0 0.0442706173"></polygon>
    </defs>
    <g id="personal-data" stroke="none" stroke-width="1" fill="none" fill-rule="evenodd">
        <g>
            <path d="M3.919916,41.05504 L37.651848,41.05504 L37.651848,0.0575723457 L3.919916,0.0575723457 L3.919916,41.05504 Z M6.514716,38.4922746 L35.057152,38.4922746 L35.057152,2.62028642 L6.514716,2.62028642 L6.514716,38.4922746 Z" id="Fill-1" fill="#AAAAAA"></path>
            <polygon id="Fill-2" fill="#AAAAAA" points="42.8492428 46.1882848 9.1147108 46.1882848 9.1147108 43.6203836 40.2492428 43.6203836 40.2492428 5.18203496 42.8492428 5.18203496"></polygon>
            <polygon id="Fill-3" fill="#AAAAAA" points="45.4387752 7.74473363 45.4387752 48.7458477 14.3042432 48.7458477 14.3042432 51.3137489 48.0387752 51.3137489 48.0387752 7.74473363"></polygon>
            <g id="Group-12" transform="translate(0.000000, 0.007087)">
                <path d="M20.7581244,7.51276484 C19.2667124,7.51276484 18.0533964,8.71110163 18.0533964,10.1840498 C18.0533964,11.6569979 19.2667124,12.8553347 20.7581244,12.8553347 C22.2494844,12.8553347 23.4628004,11.6569979 23.4628004,10.1840498 C23.4628004,8.71110163 22.2494844,7.51276484 20.7581244,7.51276484 M20.7581244,15.423236 C17.8330724,15.423236 15.4533964,13.07299 15.4533964,10.1840498 C15.4533964,7.29516089 17.8330724,4.9448636 20.7581244,4.9448636 C23.6831244,4.9448636 26.0628004,7.29516089 26.0628004,10.1840498 C26.0628004,13.07299 23.6831244,15.423236 20.7581244,15.423236" id="Fill-4" fill="#00953C"></path>
                <path d="M29.842384,25.6715911 L27.242384,25.6715911 C27.242384,22.1402647 24.333556,19.2673481 20.75814,19.2673481 C17.182672,19.2673481 14.273792,22.1402647 14.273792,25.6715911 L11.673792,25.6715911 C11.673792,20.724324 15.749032,16.6994469 20.75814,16.6994469 C25.767196,16.6994469 29.842384,20.724324 29.842384,25.6715911" id="Fill-6" fill="#AEADAD"></path>
                <mask id="mask-2" fill="white">
                    <use xlink:href="#path-1"></use>
                </mask>
                <g id="Clip-9"></g>
                <polygon id="Fill-8" fill="#AEADAD" mask="url(#mask-2)" points="10.379044 32.0809956 31.137132 32.0809956 31.137132 29.5130943 10.379044 29.5130943"></polygon>
                <polygon id="Fill-10" fill="#AEADAD" mask="url(#mask-2)" points="10.379044 35.9225244 19.839716 35.9225244 19.839716 33.3546232 10.379044 33.3546232"></polygon>
                <polygon id="Fill-11" fill-opacity="0" fill="#FFFFFF" mask="url(#mask-2)" points="5.2e-05 51.2989116 51.895324 51.2989116 51.895324 0.0443219753 5.2e-05 0.0443219753"></polygon>
            </g>
        </g>
    </g>
</svg>