<?xml version="1.0" encoding="UTF-8"?>
<svg width="52px" height="52px" viewBox="0 0 52 52" version="1.1" xmlns="http://www.w3.org/2000/svg" xmlns:xlink="http://www.w3.org/1999/xlink">
    <!-- Generator: Sketch 63.1 (92452) - https://sketch.com -->
    <title>person-cogs</title>
    <desc>Created with Sketch.</desc>
    <defs>
        <polygon id="path-1" points="0 51.9992705 51.9992705 51.9992705 51.9992705 0 0 0"></polygon>
    </defs>
    <g id="person-cogs" stroke="none" stroke-width="1" fill="none" fill-rule="evenodd">
        <g>
            <path d="M35.1744569,8.4354004 C34.1047575,8.4354004 33.234513,9.30564489 33.234513,10.3752922 C33.234513,11.4449916 34.1047575,12.3152361 35.1744569,12.3152361 C36.2441563,12.3152361 37.1144008,11.4449916 37.1144008,10.3752922 C37.1144008,9.30564489 36.2441563,8.4354004 35.1744569,8.4354004 L35.1744569,8.4354004 Z M35.1744569,14.3994044 C32.9555471,14.3994044 31.1503447,12.594202 31.1503447,10.3752922 C31.1503447,8.15643447 32.9555471,6.35123206 35.1744569,6.35123206 C37.3933667,6.35123206 39.1985691,8.15643447 39.1985691,10.3752922 C39.1985691,12.594202 37.3933667,14.3994044 35.1744569,14.3994044 L35.1744569,14.3994044 Z M34.6478918,18.4940136 L35.6958116,18.4943784 L36.015992,17.0687551 C36.1009218,16.6906349 36.3887455,16.3908273 36.7631663,16.2905267 C37.2767575,16.1529715 37.7703928,15.9486188 38.2302645,15.6832 C38.5661283,15.4893202 38.9817635,15.4979695 39.3091864,15.7055527 L40.5433788,16.4880016 L41.2845611,15.7472361 L40.5026854,14.512679 C40.2952585,14.1850998 40.2868176,13.7694124 40.4808016,13.4337571 C40.7465331,12.9738854 40.9510942,12.4803543 41.0888577,11.9668673 C41.1893146,11.5925507 41.4892786,11.3048834 41.867503,11.2201098 L43.2934389,10.9006068 L43.2934389,9.85263487 L41.8677635,9.53271503 C41.4895912,9.44783727 41.1897315,9.16001363 41.0893788,8.78569699 C40.9517715,8.27205371 40.7473667,7.77857475 40.4817916,7.3186509 C40.2879118,6.98289138 40.2964569,6.56725611 40.5040401,6.23972906 L41.2863327,5.00538036 L40.5453587,4.26435431 L39.3109058,5.04638637 C38.9833788,5.25386533 38.5677435,5.26241042 38.231984,5.06847856 C37.7721122,4.8028513 37.2785291,4.59829018 36.7650421,4.46063086 C36.3906733,4.36022605 36.1029539,4.06031423 36.0181283,3.68214188 L35.6984168,2.25641443 L34.650497,2.25641443 L34.3307856,3.68214188 C34.2459599,4.06031423 33.9582405,4.36022605 33.5838717,4.46063086 C33.0714269,4.59808176 32.57899,4.80191343 32.1203166,5.06644649 C31.7844529,5.26022204 31.3688176,5.25152064 31.0413948,5.04367695 L29.8074629,4.26091543 L29.0660721,5.00147255 L29.8475832,6.23634228 C30.0549058,6.56397355 30.0632425,6.97966092 29.8691022,7.31526413 C29.6032144,7.77513587 29.3984449,8.26856273 29.2605251,8.78184128 C29.1599639,9.15621002 28.8599479,9.44382525 28.4816713,9.52844248 L27.0558397,9.84747655 L27.0553186,10.8953443 L28.4808898,11.2157852 C28.8590621,11.3007671 29.1588176,11.588695 29.259014,11.9630637 C29.3964649,12.476707 29.6007134,12.9702902 29.8661323,13.4303182 C30.0599078,13.766182 30.0511543,14.1818172 29.843519,14.509188 L29.0609138,15.7433283 L29.8015752,16.4845627 L31.0363407,15.7028433 C31.3639198,15.4954685 31.7796072,15.487184 32.1152625,15.6811158 C32.5750822,15.9470036 33.0685611,16.1516689 33.5818918,16.2894325 C33.9562605,16.3899936 34.2439279,16.6899575 34.3285972,17.0682341 L34.6478918,18.4940136 Z M36.5297395,20.5788072 L36.5293747,20.5788072 L33.8129739,20.5779214 C33.3252786,20.5777651 32.9029739,20.2394525 32.7963687,19.7635327 L32.4263246,18.1108393 C32.1595511,18.0161659 31.8979359,17.9076329 31.642521,17.7858132 L30.211479,18.6918012 C29.7994389,18.9526349 29.2616192,18.8928713 28.9168978,18.5478894 L26.9968577,16.6262862 C26.6521884,16.2813042 26.5928417,15.7434325 26.8540401,15.3316008 L27.7610701,13.9012882 C27.6394589,13.6458212 27.5311864,13.3841018 27.4366693,13.117224 L25.7842886,12.7458253 C25.3085251,12.6389074 24.9705251,12.2162381 24.9707334,11.7285948 L24.9720361,9.01214188 C24.9722966,8.5244986 25.3107134,8.10219399 25.7865812,7.99574509 L27.4393788,7.62596152 C27.5341042,7.35924008 27.6426894,7.09762485 27.7645611,6.84221002 L26.8588337,5.41101162 C26.598,4.99891944 26.6579198,4.4610998 27.0029539,4.11643046 L28.9248176,2.19675511 C29.2698517,1.85208577 29.8077756,1.79284329 30.2195551,2.05409379 L31.6496593,2.96133226 C31.903511,2.84055471 32.1636673,2.73290741 32.4288257,2.63885932 L32.7993908,0.98627014 C32.9061002,0.510454509 33.3285611,0.172246092 33.8162565,0.172246092 L36.5326573,0.172246092 C37.0203527,0.172246092 37.4428136,0.510454509 37.549523,0.98627014 L37.9201403,2.63885932 C38.1868617,2.73348056 38.4485812,2.84190942 38.703996,2.96367695 L40.1347255,2.05727214 C40.5467134,1.79638637 41.0845331,1.85594148 41.4293587,2.20076713 L43.350024,4.12169299 C43.6947976,4.46657074 43.7543527,5.00444248 43.4933106,5.41637836 L42.5866974,6.84700361 C42.7083607,7.10241844 42.8167375,7.36408577 42.9113587,7.63091142 L44.5638437,8.00178918 C45.0396593,8.10860281 45.3777114,8.53106373 45.3777114,9.01870701 L45.3772946,11.7351599 C45.3771904,12.2228032 45.0389299,12.645212 44.5630621,12.7518693 L42.9104729,13.1222261 C42.8157996,13.3889475 42.7073186,13.6506669 42.585499,13.9060818 L43.4916954,15.3369154 C43.7526333,15.7489034 43.6929218,16.2868273 43.347992,16.6315487 L41.4267014,18.5518493 C41.0818236,18.8965707 40.5439519,18.9560216 40.1320681,18.6949275 L38.7016513,17.7881058 C38.4461844,17.9097691 38.1844128,18.0180938 37.9176393,18.1126629 L37.546501,19.7650437 C37.4396353,20.2407551 37.0172265,20.5788072 36.5297395,20.5788072 L36.5297395,20.5788072 Z" id="Fill-1" fill="#00953C"></path>
            <path d="M43.4370798,27.0354826 C43.1309675,27.0354826 42.836214,27.138701 42.5941379,27.3331539 C42.3129315,27.5590257 42.1365066,27.8808733 42.0973764,28.2393503 C42.0166148,28.9795427 42.5530277,29.6474144 43.2931679,29.7282281 C43.6517491,29.7673062 44.0040257,29.6645046 44.2852321,29.438685 C44.5664385,29.2128132 44.7428633,28.8909655 44.7819936,28.5324365 C44.8211238,28.1739074 44.7182701,27.8215788 44.4924505,27.5403723 C44.2665788,27.2591659 43.9447311,27.0827411 43.5862541,27.0436108 C43.5363383,27.038192 43.4865267,27.0354826 43.4370798,27.0354826 L43.4370798,27.0354826 Z M43.4463022,31.8207852 C43.3204705,31.8207852 43.1939094,31.8139074 43.0669836,31.8000477 C41.1844064,31.5945487 39.8200056,29.8957952 40.0255046,28.0132701 C40.1250758,27.1012902 40.5737972,26.282681 41.2890317,25.70818 C42.0042661,25.1337832 42.9003543,24.8723764 43.8123864,24.9717912 C44.7243142,25.0713102 45.5429234,25.5200317 46.1173723,26.2352661 C46.6918212,26.9505006 46.9533844,27.8466409 46.8538132,28.7585687 C46.7542942,29.6705487 46.3055727,30.4891579 45.5903383,31.0636589 C44.9746228,31.5581279 44.2247912,31.8207852 43.4463022,31.8207852 L43.4463022,31.8207852 Z M42.4993603,34.6281078 L43.0071158,34.6836509 L43.3331319,33.7306649 C43.4586509,33.3639555 43.7773202,33.0971299 44.1603904,33.0380958 C44.5641459,32.9758834 44.95821,32.8609415 45.331693,32.6965006 C45.6864705,32.5402401 46.0987711,32.5940116 46.4018092,32.8358273 L47.1890517,33.4644124 L47.5873884,33.1446489 L47.1438774,32.2400677 C46.973184,31.8919074 47.0099695,31.4777832 47.2392281,31.1651058 C47.4805226,30.8360156 47.6779455,30.4761319 47.8259735,30.0954585 C47.9664465,29.73422 48.2958493,29.4807852 48.6810557,29.4375908 L49.6819776,29.3252541 L49.7375206,28.8174986 L48.7844305,28.4915347 C48.4176689,28.3661198 48.1508433,28.0475547 48.0917571,27.6644325 C48.0294405,27.2607291 47.9144465,26.8666649 47.7499535,26.493182 C47.5936409,26.1383523 47.6473082,25.7261038 47.889176,25.4231178 L48.5175527,24.6356669 L48.1977371,24.2374345 L47.2932601,24.6810497 C46.9451519,24.8518994 46.5310277,24.8151659 46.2182982,24.5859074 C45.889208,24.3446649 45.5292721,24.1472942 45.1485467,23.9993182 C44.7872561,23.8589495 44.533717,23.5295988 44.4904705,23.1443924 L44.3779776,22.1434184 L43.870222,22.0880317 L43.5444665,23.0411739 C43.4191038,23.4079355 43.1005387,23.6748653 42.7174164,23.7340036 C42.3146509,23.7961639 41.9215768,23.9107932 41.5490838,24.074713 C41.1941499,24.2308693 40.7819014,24.1769936 40.4789675,23.9350216 L39.6919335,23.3062281 L39.2935447,23.6258874 L39.736691,24.5306248 C39.9072802,24.8787852 39.8704425,25.2929094 39.6410277,25.6055347 C39.3996289,25.9344685 39.2021018,26.2943002 39.0539174,26.6749735 C38.9132882,27.036212 38.5838854,27.2894906 38.198679,27.3325808 L37.1976529,27.4446048 L37.1420056,27.9523082 L38.0949395,28.2785327 C38.4616489,28.4041038 38.7283703,28.7228253 38.7873523,29.1058433 C38.8495647,29.5096509 38.9644024,29.9037671 39.1287912,30.2772501 C39.2849475,30.6321319 39.2312281,31.0443804 38.9892561,31.3473663 L38.3605667,32.1344525 L38.6802782,32.5328413 L39.5849114,32.0895387 C39.9330717,31.9189495 40.3471439,31.9557351 40.6598212,32.1849415 C40.9890156,32.4264445 41.3488994,32.6239194 41.7294164,32.7719475 C42.0906549,32.9124725 42.3440377,33.2418754 42.3872321,33.6271339 L42.4993603,34.6281078 Z M43.7236008,36.8524886 C43.6858774,36.8524886 43.6477892,36.8504565 43.6095968,36.8462361 L41.443208,36.6090577 C40.9584826,36.5560156 40.5753082,36.1738834 40.5210156,35.68921 L40.3823142,34.4509014 C40.2413202,34.3798313 40.1029315,34.3038633 39.9672521,34.2231539 L38.8482621,34.7714986 C38.4103263,34.9861679 37.8821459,34.8682561 37.5769715,34.4879475 L36.2129355,32.7882561 C35.907709,32.4078954 35.9070838,31.8667932 36.2114244,31.485703 L36.9890277,30.5121359 C36.9395808,30.36218 36.8953964,30.2106088 36.8565267,30.0575267 L35.6776689,29.6539275 C35.2162862,29.4959996 34.9261699,29.039202 34.9793162,28.5544244 L35.2168593,26.3881399 C35.2700056,25.9033623 35.6522421,25.5203443 36.1368633,25.4661038 L37.375224,25.3275587 C37.4462942,25.1866168 37.5222621,25.0481238 37.6030236,24.9125487 L37.0548353,23.7934545 C36.8403222,23.3555186 36.9582341,22.8273904 37.3385948,22.5222681 L39.0384946,21.1584926 C39.4188553,20.8532661 39.9600096,20.8527972 40.3410477,21.1571379 L41.3145627,21.9348974 C41.4630597,21.8859715 41.6133283,21.8421519 41.7648994,21.8035948 L42.1679255,20.6245287 C42.3255928,20.1630938 42.782182,19.8724044 43.2670637,19.9256549 L45.4334525,20.1621038 C45.9182822,20.2150417 46.3015086,20.5970697 46.3560096,21.0816389 L46.4950758,22.3199475 C46.6360697,22.3909134 46.7746148,22.4668293 46.9102421,22.5475387 L48.0290236,21.9988293 C48.4669074,21.7841599 48.9950878,21.9018112 49.3004184,22.2820156 L50.6649756,23.9812381 C50.9703583,24.3614946 50.9711399,24.9025968 50.6669555,25.2837391 L49.8896128,26.2576709 C49.9391118,26.4075226 49.9833483,26.559198 50.0222701,26.7122281 L51.2012842,27.1154104 C51.662719,27.273182 51.9529916,27.7298754 51.9000016,28.214705 L51.663188,30.3810938 C51.610198,30.8658713 51.2280657,31.2490457 50.7434445,31.3033904 L49.5051359,31.4423523 C49.4341178,31.5832942 49.3581499,31.7217872 49.2774405,31.8574144 L49.8259936,32.9763523 C50.0406629,33.414184 49.9229595,33.9424164 49.5426509,34.247695 L47.84322,35.6119916 C47.4629114,35.9171659 46.9217571,35.9179996 46.5406669,35.613711 L45.5668914,34.836212 C45.4169876,34.8856589 45.2653122,34.9299475 45.1123343,34.9687651 L44.7089435,36.1477271 C44.5635206,36.5727411 44.1645066,36.8524886 43.7236008,36.8524886 L43.7236008,36.8524886 Z" id="Fill-3" fill="#00953C"></path>
            <path d="M16.4950982,14.1460998 C12.9519078,14.1460998 10.0693467,17.0286609 10.0693467,20.5718513 L10.0693467,23.3649495 C10.0693467,26.9081399 12.9519078,29.790701 16.4950982,29.790701 C20.0382886,29.790701 22.9208497,26.9081399 22.9208497,23.3649495 L22.9208497,20.5718513 C22.9208497,17.0286609 20.0382886,14.1460998 16.4950982,14.1460998 M16.4950982,32.3959114 C11.5153948,32.3959114 7.46413627,28.3446529 7.46413627,23.3649495 L7.46413627,20.5718513 C7.46413627,15.5921479 11.5153948,11.5408894 16.4950982,11.5408894 C21.4748016,11.5408894 25.5260601,15.5921479 25.5260601,20.5718513 L25.5260601,23.3649495 C25.5260601,28.3446529 21.4748016,32.3959114 16.4950982,32.3959114" id="Fill-5" fill="#AAAAAA"></path>
            <path d="M33.8032096,51.9105579 L31.1979992,51.9105579 L31.1979992,44.7492513 C31.1979992,42.9652032 30.6301675,41.2694196 29.5558309,39.8452032 C28.4815463,38.4209868 27.0069972,37.409123 25.2916745,36.9189788 L20.4309772,35.5302453 L17.4161756,38.5450469 C16.9074301,39.0537924 16.0827246,39.0537924 15.5740313,38.5450469 L12.5718389,35.5428545 L8.43002325,36.8172192 C6.75346613,37.333103 5.31643206,38.3515319 4.27429579,39.7625659 C3.23221162,41.1735479 2.68136593,42.8465098 2.68136593,44.6006501 L2.68136593,51.9105579 L0.076155511,51.9105579 L0.076155511,44.6006501 C0.076155511,42.2853996 0.803217635,40.0772232 2.17871663,38.2147583 C3.55421563,36.3523976 5.45091303,35.0081611 7.66383086,34.3272112 L12.5552176,32.8221812 C13.0163399,32.6802493 13.5182076,32.8048826 13.859386,33.146113 L16.4950774,35.7818044 L19.1307687,33.146113 C19.4652778,32.8116561 19.9548489,32.6847824 20.4097186,32.8147303 L26.007378,34.4140168 C28.2714621,35.0608906 30.2177627,36.3964778 31.6357267,38.2763455 C33.0536906,40.1562132 33.8032096,42.3945058 33.8032096,44.7492513 L33.8032096,51.9105579 Z" id="Fill-7" fill="#AAAAAA"></path>
            <mask id="mask-2" fill="white">
                <use xlink:href="#path-1"></use>
            </mask>
            <g id="Clip-10"></g>
            <polygon id="Fill-9" fill="#AAAAAA" mask="url(#mask-2)" points="11.6357034 34.0671904 14.2409138 34.0671904 14.2409138 30.7866573 11.6357034 30.7866573"></polygon>
            <polygon id="Fill-11" fill="#AAAAAA" mask="url(#mask-2)" points="18.7492826 34.0671904 21.354493 34.0671904 21.354493 30.7866573 18.7492826 30.7866573"></polygon>
            <polygon id="Fill-12" fill="#AAAAAA" mask="url(#mask-2)" points="6.56325451 51.8810461 9.16846493 51.8810461 9.16846493 45.3430621 6.56325451 45.3430621"></polygon>
            <polygon id="Fill-13" fill="#AAAAAA" mask="url(#mask-2)" points="23.9850261 51.8810461 26.5902365 51.8810461 26.5902365 45.3430621 23.9850261 45.3430621"></polygon>
            <polygon id="Fill-14" fill-opacity="0" fill="#FFFFFF" mask="url(#mask-2)" points="0 51.9992705 51.9992705 51.9992705 51.9992705 0 0 0"></polygon>
        </g>
    </g>
</svg>