<?xml version="1.0" encoding="UTF-8"?>
<svg width="52px" height="52px" viewBox="0 0 52 52" version="1.1" xmlns="http://www.w3.org/2000/svg" xmlns:xlink="http://www.w3.org/1999/xlink">
    <!-- Generator: Sketch 63.1 (92452) - https://sketch.com -->
    <title>wallet</title>
    <desc>Created with Sketch.</desc>
    <g id="wallet" stroke="none" stroke-width="1" fill="none" fill-rule="evenodd">
        <g>
            <polygon id="Fill-1" fill="#438F42" points="20.7691647 6.27563928 23.1990966 8.70473747 25.5318541 7.35747896 20.7691647 2.59473747 10.3589002 13.005002 14.039802 13.005002"></polygon>
            <polygon id="Fill-2" fill="#438F42" points="26.161695 13.0050228 38.0346289 6.14988056 41.9922561 13.0050228 44.9973663 13.0050228 38.9871459 2.59475832 20.9565367 13.0050228"></polygon>
            <g id="Group-7">
                <path d="M28.6263126,38.9864529 L46.7922365,38.9864529 L46.7922365,25.9735832 L28.6263126,25.9735832 L28.6263126,38.9864529 Z M46.7922365,46.791507 L5.15638878,46.791507 L5.15638878,18.2206333 L46.7922365,18.2206333 L46.7922365,23.3710301 L28.6263647,23.3710301 C27.1888617,23.3710301 26.0237595,24.5360802 26.0237595,25.9735832 L26.0237595,38.9864529 C26.0237595,40.4239038 27.1888617,41.589006 28.6263647,41.589006 L46.7922365,41.589006 L46.7922365,46.791507 Z M46.7922365,15.6180802 L5.15638878,15.6180802 C3.71888577,15.6180802 2.55383567,16.7831303 2.55383567,18.2206333 L2.55383567,46.791507 C2.55383567,48.22901 3.71888577,49.3940601 5.15638878,49.3940601 L46.7922365,49.3940601 C48.2296874,49.3940601 49.3947896,48.22901 49.3947896,46.791507 L49.3947896,18.2206333 C49.3947896,16.7831303 48.2296874,15.6180802 46.7922365,15.6180802 L46.7922365,15.6180802 Z" id="Fill-3" fill="#AAAAAA"></path>
                <path d="M35.1327527,31.1787311 C35.8502277,31.1787311 36.4340553,31.7625587 36.4340553,32.4800337 C36.4340553,33.1974565 35.8502277,33.7812842 35.1327527,33.7812842 C34.4152778,33.7812842 33.8314501,33.1974565 33.8314501,32.4800337 C33.8314501,31.7625587 34.4152778,31.1787311 35.1327527,31.1787311 M35.1327527,36.3838373 C37.2885643,36.3838373 39.0366084,34.6357932 39.0366084,32.4800337 C39.0366084,30.324222 37.2885643,28.576178 35.1327527,28.576178 C32.9769411,28.576178 31.228897,30.324222 31.228897,32.4800337 C31.228897,34.6357932 32.9769411,36.3838373 35.1327527,36.3838373" id="Fill-5" fill="#AAAAAA"></path>
                <polygon id="Fill-6" points="0 52 52 52 52 0 0 0"></polygon>
            </g>
        </g>
    </g>
</svg>